%TF.GenerationSoftware,KiCad,Pcbnew,8.0.1*%
%TF.CreationDate,2024-04-03T20:32:23+03:00*%
%TF.ProjectId,gkos_pebble,676b6f73-5f70-4656-9262-6c652e6b6963,1*%
%TF.SameCoordinates,Original*%
%TF.FileFunction,Copper,L3,Inr*%
%TF.FilePolarity,Positive*%
%FSLAX46Y46*%
G04 Gerber Fmt 4.6, Leading zero omitted, Abs format (unit mm)*
G04 Created by KiCad (PCBNEW 8.0.1) date 2024-04-03 20:32:23*
%MOMM*%
%LPD*%
G01*
G04 APERTURE LIST*
%TA.AperFunction,ComponentPad*%
%ADD10C,0.660000*%
%TD*%
%TA.AperFunction,ComponentPad*%
%ADD11C,1.815000*%
%TD*%
%TA.AperFunction,ViaPad*%
%ADD12C,0.900000*%
%TD*%
%TA.AperFunction,ViaPad*%
%ADD13C,0.600000*%
%TD*%
%TA.AperFunction,ViaPad*%
%ADD14C,0.800000*%
%TD*%
G04 APERTURE END LIST*
D10*
%TO.N,GND*%
%TO.C,J2*%
X152000000Y-67685000D03*
%TO.N,N/C*%
X151600000Y-66985000D03*
X150800000Y-66985000D03*
%TO.N,Net-(D1-Pad4)*%
X150400000Y-67685000D03*
%TO.N,Net-(J2-CC2)*%
X150000000Y-66985000D03*
%TO.N,/mcu/USB_D+*%
X149600000Y-67685000D03*
%TO.N,/mcu/USB_D-*%
X148800000Y-67685000D03*
%TO.N,unconnected-(J2-SBU2-PadB8)*%
X148400000Y-66985000D03*
%TO.N,Net-(D1-Pad4)*%
X148000000Y-67685000D03*
%TO.N,N/C*%
X147600000Y-66985000D03*
X146800000Y-66985000D03*
%TO.N,GND*%
X146400000Y-67685000D03*
D11*
%TO.N,N/C*%
X145070000Y-67085000D03*
X144710000Y-62695000D03*
X153690000Y-62695000D03*
X153330000Y-67085000D03*
%TD*%
D12*
%TO.N,GND*%
X161000000Y-130600000D03*
X159700000Y-94100000D03*
X173600000Y-63300000D03*
X162300000Y-84200000D03*
X123500000Y-84600000D03*
X150200000Y-96200000D03*
X147400000Y-62700000D03*
X164400000Y-77200000D03*
D13*
X152300000Y-80400000D03*
X150600000Y-89750000D03*
D12*
X163800000Y-102700000D03*
X136800000Y-99300000D03*
X123500000Y-101400000D03*
X154000000Y-72200000D03*
X132100000Y-75900000D03*
D13*
X152300000Y-82700000D03*
D12*
X154200000Y-91300000D03*
X131700000Y-126300000D03*
X174800000Y-118900000D03*
X123500000Y-114000000D03*
X143700000Y-65000000D03*
D13*
X155700000Y-75500000D03*
X157900000Y-78700000D03*
X153400000Y-83800000D03*
D12*
X174700000Y-132700000D03*
X137400000Y-130600000D03*
D13*
X150100000Y-80400000D03*
D12*
X150800000Y-113300000D03*
X143400000Y-71600000D03*
X133400000Y-73700000D03*
X143700000Y-68900000D03*
X133400000Y-66400000D03*
D13*
X150100000Y-82700000D03*
X142750000Y-85200000D03*
D12*
X174500000Y-92700000D03*
X153100000Y-102700000D03*
X144100000Y-90600000D03*
X147500000Y-113300000D03*
X175700000Y-70500000D03*
D13*
X153400000Y-79300000D03*
D12*
X140200000Y-75600000D03*
D13*
X149300000Y-83800000D03*
D12*
X131975000Y-93300000D03*
D13*
X148875000Y-79825000D03*
D12*
X174800000Y-100800000D03*
X123500000Y-93300000D03*
X167300000Y-71200000D03*
X150800000Y-62700000D03*
X131700000Y-84400000D03*
X126000000Y-76900000D03*
X154800000Y-65000000D03*
X168800000Y-63300000D03*
D13*
X159600000Y-84200000D03*
D12*
X123500000Y-133000000D03*
X174500000Y-78700000D03*
X140000000Y-115600000D03*
X140125000Y-92125000D03*
X125700000Y-71300000D03*
D14*
%TO.N,+3V3*%
X161500000Y-95100000D03*
X143700000Y-95100000D03*
D13*
%TO.N,+3V0*%
X147200000Y-77500000D03*
X163200000Y-77200000D03*
X161400000Y-99500000D03*
X141400000Y-87800000D03*
D12*
X147950000Y-127200000D03*
X129800000Y-71100000D03*
X122750000Y-78850000D03*
D13*
X135800000Y-114500000D03*
X161800000Y-70300000D03*
D12*
X124900000Y-73450000D03*
D13*
X147350000Y-85650000D03*
D12*
X172800000Y-80550000D03*
D13*
X157900000Y-79750000D03*
X145800000Y-101500000D03*
X154800000Y-116900000D03*
X135875000Y-86800000D03*
X162600000Y-116900000D03*
X150825000Y-87000000D03*
X158000000Y-83950000D03*
D12*
X172850000Y-67000000D03*
D13*
X146250000Y-82500000D03*
X162600000Y-114500000D03*
X151200000Y-75150000D03*
X135800000Y-116900000D03*
D12*
X167300000Y-69400000D03*
D13*
X163100000Y-80100000D03*
X143600000Y-116900000D03*
%TO.N,Net-(IC4-VREG_VOUT)*%
X151600000Y-76775000D03*
X149950000Y-87000000D03*
%TO.N,/inputs/KEY_A*%
X145750000Y-83950000D03*
X139075000Y-86900000D03*
%TO.N,/inputs/KEY_B*%
X140300000Y-89600000D03*
X146250000Y-84500000D03*
%TO.N,/inputs/KEY_C*%
X141075000Y-89600000D03*
X145750000Y-85050000D03*
%TO.N,/inputs/MOUSE_1*%
X146250000Y-83400000D03*
%TO.N,/inputs/MOUSE_3*%
X139200000Y-74550000D03*
%TO.N,/inputs/MENU*%
X157000000Y-85775000D03*
%TO.N,/~{EXT_RST}*%
X139825000Y-77925000D03*
X148750087Y-89556966D03*
X148500000Y-86350000D03*
X125100000Y-67950000D03*
%TO.N,/inputs/~{USB_BOOT}*%
X159100000Y-80650000D03*
X158750000Y-85900000D03*
%TO.N,/mcu/USB_D+*%
X148900000Y-69900000D03*
%TO.N,/mcu/USB_D-*%
X149450000Y-70400000D03*
D12*
%TO.N,Net-(D1-Pad4)*%
X150800000Y-70100000D03*
X147400000Y-70100000D03*
D13*
%TO.N,/SDA*%
X143850000Y-85050000D03*
X150300000Y-90698000D03*
%TO.N,/SCL*%
X149784902Y-90127000D03*
X144600000Y-85050000D03*
%TO.N,/lcd/LCD_SCLK*%
X155750000Y-78750000D03*
X161800000Y-71250000D03*
%TO.N,/lcd/LCD_SI*%
X161800000Y-72050000D03*
X156250000Y-79350000D03*
%TO.N,/lcd/LCD_SCS*%
X161800000Y-72777003D03*
X156750000Y-79950000D03*
%TO.N,/lcd/LCD_COMIN*%
X157250000Y-80550000D03*
X161800000Y-73504006D03*
D14*
%TO.N,/inputs/MOUSE_2*%
X161925000Y-81750000D03*
%TO.N,/inputs/MOUSE_4*%
X161925000Y-80750000D03*
%TD*%
%TA.AperFunction,Conductor*%
%TO.N,+3V0*%
G36*
X176358691Y-60244407D02*
G01*
X176394655Y-60293907D01*
X176399500Y-60324500D01*
X176399500Y-69950515D01*
X176380593Y-70008706D01*
X176331093Y-70044670D01*
X176269907Y-70044670D01*
X176234851Y-70024618D01*
X176106575Y-69910977D01*
X176106574Y-69910976D01*
X175953797Y-69830792D01*
X175953796Y-69830791D01*
X175953795Y-69830791D01*
X175786272Y-69789500D01*
X175786270Y-69789500D01*
X175613730Y-69789500D01*
X175613727Y-69789500D01*
X175446204Y-69830791D01*
X175293424Y-69910977D01*
X175164275Y-70025392D01*
X175066263Y-70167388D01*
X175005079Y-70328717D01*
X175005078Y-70328718D01*
X174984282Y-70499998D01*
X174984282Y-70500001D01*
X175005078Y-70671281D01*
X175005079Y-70671283D01*
X175057877Y-70810499D01*
X175066263Y-70832611D01*
X175164275Y-70974607D01*
X175164276Y-70974608D01*
X175164277Y-70974609D01*
X175293426Y-71089024D01*
X175446203Y-71169208D01*
X175613730Y-71210500D01*
X175613733Y-71210500D01*
X175786267Y-71210500D01*
X175786270Y-71210500D01*
X175953797Y-71169208D01*
X176106574Y-71089024D01*
X176234852Y-70975380D01*
X176290945Y-70950946D01*
X176350689Y-70964149D01*
X176391262Y-71009947D01*
X176399500Y-71049484D01*
X176399500Y-134300500D01*
X176380593Y-134358691D01*
X176331093Y-134394655D01*
X176300500Y-134399500D01*
X122099500Y-134399500D01*
X122041309Y-134380593D01*
X122005345Y-134331093D01*
X122000500Y-134300500D01*
X122000500Y-133000001D01*
X122784282Y-133000001D01*
X122805078Y-133171281D01*
X122805079Y-133171283D01*
X122849732Y-133289022D01*
X122866263Y-133332611D01*
X122964275Y-133474607D01*
X122964276Y-133474608D01*
X122964277Y-133474609D01*
X123093426Y-133589024D01*
X123246203Y-133669208D01*
X123413730Y-133710500D01*
X123413733Y-133710500D01*
X123586267Y-133710500D01*
X123586270Y-133710500D01*
X123753797Y-133669208D01*
X123906574Y-133589024D01*
X124035723Y-133474609D01*
X124133737Y-133332611D01*
X124194921Y-133171283D01*
X124215718Y-133000000D01*
X124194921Y-132828717D01*
X124146105Y-132700001D01*
X173984282Y-132700001D01*
X174005078Y-132871281D01*
X174005079Y-132871283D01*
X174053895Y-133000000D01*
X174066263Y-133032611D01*
X174164275Y-133174607D01*
X174164276Y-133174608D01*
X174164277Y-133174609D01*
X174293426Y-133289024D01*
X174446203Y-133369208D01*
X174613730Y-133410500D01*
X174613733Y-133410500D01*
X174786267Y-133410500D01*
X174786270Y-133410500D01*
X174953797Y-133369208D01*
X175106574Y-133289024D01*
X175235723Y-133174609D01*
X175333737Y-133032611D01*
X175394921Y-132871283D01*
X175415718Y-132700000D01*
X175411758Y-132667389D01*
X175394921Y-132528718D01*
X175394921Y-132528717D01*
X175333737Y-132367389D01*
X175235723Y-132225391D01*
X175106574Y-132110976D01*
X174953797Y-132030792D01*
X174953796Y-132030791D01*
X174953795Y-132030791D01*
X174786272Y-131989500D01*
X174786270Y-131989500D01*
X174613730Y-131989500D01*
X174613727Y-131989500D01*
X174446204Y-132030791D01*
X174293424Y-132110977D01*
X174164275Y-132225392D01*
X174066263Y-132367388D01*
X174005079Y-132528717D01*
X174005078Y-132528718D01*
X173984282Y-132699998D01*
X173984282Y-132700001D01*
X124146105Y-132700001D01*
X124133737Y-132667389D01*
X124084730Y-132596390D01*
X124035724Y-132525392D01*
X123906575Y-132410977D01*
X123906574Y-132410976D01*
X123753797Y-132330792D01*
X123753796Y-132330791D01*
X123753795Y-132330791D01*
X123586272Y-132289500D01*
X123586270Y-132289500D01*
X123413730Y-132289500D01*
X123413727Y-132289500D01*
X123246204Y-132330791D01*
X123093424Y-132410977D01*
X122964275Y-132525392D01*
X122866263Y-132667388D01*
X122805079Y-132828717D01*
X122805078Y-132828718D01*
X122784282Y-132999998D01*
X122784282Y-133000001D01*
X122000500Y-133000001D01*
X122000500Y-130600001D01*
X136684282Y-130600001D01*
X136705078Y-130771281D01*
X136705079Y-130771282D01*
X136766263Y-130932611D01*
X136864275Y-131074607D01*
X136864276Y-131074608D01*
X136864277Y-131074609D01*
X136993426Y-131189024D01*
X137146203Y-131269208D01*
X137313730Y-131310500D01*
X137313733Y-131310500D01*
X137486267Y-131310500D01*
X137486270Y-131310500D01*
X137653797Y-131269208D01*
X137806574Y-131189024D01*
X137935723Y-131074609D01*
X138033737Y-130932611D01*
X138094921Y-130771283D01*
X138115718Y-130600001D01*
X160284282Y-130600001D01*
X160305078Y-130771281D01*
X160305079Y-130771282D01*
X160366263Y-130932611D01*
X160464275Y-131074607D01*
X160464276Y-131074608D01*
X160464277Y-131074609D01*
X160593426Y-131189024D01*
X160746203Y-131269208D01*
X160913730Y-131310500D01*
X160913733Y-131310500D01*
X161086267Y-131310500D01*
X161086270Y-131310500D01*
X161253797Y-131269208D01*
X161406574Y-131189024D01*
X161535723Y-131074609D01*
X161633737Y-130932611D01*
X161694921Y-130771283D01*
X161715718Y-130600000D01*
X161694921Y-130428717D01*
X161633737Y-130267389D01*
X161535723Y-130125391D01*
X161406574Y-130010976D01*
X161253797Y-129930792D01*
X161253796Y-129930791D01*
X161253795Y-129930791D01*
X161086272Y-129889500D01*
X161086270Y-129889500D01*
X160913730Y-129889500D01*
X160913727Y-129889500D01*
X160746204Y-129930791D01*
X160593424Y-130010977D01*
X160464275Y-130125392D01*
X160366263Y-130267388D01*
X160305079Y-130428717D01*
X160305078Y-130428718D01*
X160284282Y-130599998D01*
X160284282Y-130600001D01*
X138115718Y-130600001D01*
X138115718Y-130600000D01*
X138094921Y-130428717D01*
X138033737Y-130267389D01*
X137935723Y-130125391D01*
X137806574Y-130010976D01*
X137653797Y-129930792D01*
X137653796Y-129930791D01*
X137653795Y-129930791D01*
X137486272Y-129889500D01*
X137486270Y-129889500D01*
X137313730Y-129889500D01*
X137313727Y-129889500D01*
X137146204Y-129930791D01*
X136993424Y-130010977D01*
X136864275Y-130125392D01*
X136766263Y-130267388D01*
X136705079Y-130428717D01*
X136705078Y-130428718D01*
X136684282Y-130599998D01*
X136684282Y-130600001D01*
X122000500Y-130600001D01*
X122000500Y-126300001D01*
X130984282Y-126300001D01*
X131005078Y-126471281D01*
X131005079Y-126471282D01*
X131066263Y-126632611D01*
X131164275Y-126774607D01*
X131164276Y-126774608D01*
X131164277Y-126774609D01*
X131293426Y-126889024D01*
X131446203Y-126969208D01*
X131613730Y-127010500D01*
X131613733Y-127010500D01*
X131786267Y-127010500D01*
X131786270Y-127010500D01*
X131953797Y-126969208D01*
X132106574Y-126889024D01*
X132235723Y-126774609D01*
X132333737Y-126632611D01*
X132394921Y-126471283D01*
X132415718Y-126300000D01*
X132394921Y-126128717D01*
X132333737Y-125967389D01*
X132235723Y-125825391D01*
X132106574Y-125710976D01*
X131953797Y-125630792D01*
X131953796Y-125630791D01*
X131953795Y-125630791D01*
X131786272Y-125589500D01*
X131786270Y-125589500D01*
X131613730Y-125589500D01*
X131613727Y-125589500D01*
X131446204Y-125630791D01*
X131293424Y-125710977D01*
X131164275Y-125825392D01*
X131066263Y-125967388D01*
X131005079Y-126128717D01*
X131005078Y-126128718D01*
X130984282Y-126299998D01*
X130984282Y-126300001D01*
X122000500Y-126300001D01*
X122000500Y-123778844D01*
X137799500Y-123778844D01*
X137830263Y-123933496D01*
X137830263Y-123933498D01*
X137890603Y-124079174D01*
X137890609Y-124079185D01*
X137943312Y-124158059D01*
X137978211Y-124210289D01*
X138089711Y-124321789D01*
X138167876Y-124374017D01*
X138220814Y-124409390D01*
X138220825Y-124409396D01*
X138274638Y-124431685D01*
X138366503Y-124469737D01*
X138521158Y-124500500D01*
X138521159Y-124500500D01*
X138678841Y-124500500D01*
X138678842Y-124500500D01*
X138833497Y-124469737D01*
X138979179Y-124409394D01*
X139110289Y-124321789D01*
X139221789Y-124210289D01*
X139309394Y-124079179D01*
X139369737Y-123933497D01*
X139400500Y-123778844D01*
X141799500Y-123778844D01*
X141830263Y-123933496D01*
X141830263Y-123933498D01*
X141890603Y-124079174D01*
X141890609Y-124079185D01*
X141943312Y-124158059D01*
X141978211Y-124210289D01*
X142089711Y-124321789D01*
X142167876Y-124374017D01*
X142220814Y-124409390D01*
X142220825Y-124409396D01*
X142274638Y-124431685D01*
X142366503Y-124469737D01*
X142521158Y-124500500D01*
X142521159Y-124500500D01*
X142678841Y-124500500D01*
X142678842Y-124500500D01*
X142833497Y-124469737D01*
X142979179Y-124409394D01*
X143110289Y-124321789D01*
X143221789Y-124210289D01*
X143309394Y-124079179D01*
X143369737Y-123933497D01*
X143400500Y-123778842D01*
X143400500Y-123621158D01*
X143369737Y-123466503D01*
X143309795Y-123321788D01*
X143309396Y-123320825D01*
X143309390Y-123320814D01*
X143274017Y-123267876D01*
X143221789Y-123189711D01*
X143110289Y-123078211D01*
X143058059Y-123043312D01*
X142979185Y-122990609D01*
X142979174Y-122990603D01*
X142833497Y-122930263D01*
X142678844Y-122899500D01*
X142678842Y-122899500D01*
X142521158Y-122899500D01*
X142521155Y-122899500D01*
X142366503Y-122930263D01*
X142366501Y-122930263D01*
X142220825Y-122990603D01*
X142220814Y-122990609D01*
X142089711Y-123078211D01*
X142089707Y-123078214D01*
X141978214Y-123189707D01*
X141978211Y-123189711D01*
X141890609Y-123320814D01*
X141890603Y-123320825D01*
X141830263Y-123466501D01*
X141830263Y-123466503D01*
X141799500Y-123621155D01*
X141799500Y-123778844D01*
X139400500Y-123778844D01*
X139400500Y-123778842D01*
X139400500Y-123621158D01*
X139369737Y-123466503D01*
X139309795Y-123321788D01*
X139309396Y-123320825D01*
X139309390Y-123320814D01*
X139274017Y-123267876D01*
X139221789Y-123189711D01*
X139110289Y-123078211D01*
X139058059Y-123043312D01*
X138979185Y-122990609D01*
X138979174Y-122990603D01*
X138833497Y-122930263D01*
X138678844Y-122899500D01*
X138678842Y-122899500D01*
X138521158Y-122899500D01*
X138521155Y-122899500D01*
X138366503Y-122930263D01*
X138366501Y-122930263D01*
X138220825Y-122990603D01*
X138220814Y-122990609D01*
X138089711Y-123078211D01*
X138089707Y-123078214D01*
X137978214Y-123189707D01*
X137978211Y-123189711D01*
X137890609Y-123320814D01*
X137890603Y-123320825D01*
X137830263Y-123466501D01*
X137830263Y-123466503D01*
X137799500Y-123621155D01*
X137799500Y-123778844D01*
X122000500Y-123778844D01*
X122000500Y-122778844D01*
X154999500Y-122778844D01*
X155030263Y-122933496D01*
X155030263Y-122933498D01*
X155090603Y-123079174D01*
X155090609Y-123079185D01*
X155143312Y-123158059D01*
X155178211Y-123210289D01*
X155289711Y-123321789D01*
X155367876Y-123374017D01*
X155420814Y-123409390D01*
X155420825Y-123409396D01*
X155474638Y-123431685D01*
X155566503Y-123469737D01*
X155721158Y-123500500D01*
X155721159Y-123500500D01*
X155878841Y-123500500D01*
X155878842Y-123500500D01*
X156033497Y-123469737D01*
X156179179Y-123409394D01*
X156310289Y-123321789D01*
X156421789Y-123210289D01*
X156509394Y-123079179D01*
X156569737Y-122933497D01*
X156600500Y-122778844D01*
X158999500Y-122778844D01*
X159030263Y-122933496D01*
X159030263Y-122933498D01*
X159090603Y-123079174D01*
X159090609Y-123079185D01*
X159143312Y-123158059D01*
X159178211Y-123210289D01*
X159289711Y-123321789D01*
X159367876Y-123374017D01*
X159420814Y-123409390D01*
X159420825Y-123409396D01*
X159474638Y-123431685D01*
X159566503Y-123469737D01*
X159721158Y-123500500D01*
X159721159Y-123500500D01*
X159878841Y-123500500D01*
X159878842Y-123500500D01*
X160033497Y-123469737D01*
X160179179Y-123409394D01*
X160310289Y-123321789D01*
X160421789Y-123210289D01*
X160509394Y-123079179D01*
X160569737Y-122933497D01*
X160600500Y-122778842D01*
X160600500Y-122621158D01*
X160569737Y-122466503D01*
X160509394Y-122320821D01*
X160509393Y-122320819D01*
X160509390Y-122320814D01*
X160474017Y-122267876D01*
X160421789Y-122189711D01*
X160310289Y-122078211D01*
X160258059Y-122043312D01*
X160179185Y-121990609D01*
X160179174Y-121990603D01*
X160033497Y-121930263D01*
X159878844Y-121899500D01*
X159878842Y-121899500D01*
X159721158Y-121899500D01*
X159721155Y-121899500D01*
X159566503Y-121930263D01*
X159566501Y-121930263D01*
X159420825Y-121990603D01*
X159420814Y-121990609D01*
X159289711Y-122078211D01*
X159289707Y-122078214D01*
X159178214Y-122189707D01*
X159178211Y-122189711D01*
X159090609Y-122320814D01*
X159090603Y-122320825D01*
X159030263Y-122466501D01*
X159030263Y-122466503D01*
X158999500Y-122621155D01*
X158999500Y-122778844D01*
X156600500Y-122778844D01*
X156600500Y-122778842D01*
X156600500Y-122621158D01*
X156569737Y-122466503D01*
X156509394Y-122320821D01*
X156509393Y-122320819D01*
X156509390Y-122320814D01*
X156474017Y-122267876D01*
X156421789Y-122189711D01*
X156310289Y-122078211D01*
X156258059Y-122043312D01*
X156179185Y-121990609D01*
X156179174Y-121990603D01*
X156033497Y-121930263D01*
X155878844Y-121899500D01*
X155878842Y-121899500D01*
X155721158Y-121899500D01*
X155721155Y-121899500D01*
X155566503Y-121930263D01*
X155566501Y-121930263D01*
X155420825Y-121990603D01*
X155420814Y-121990609D01*
X155289711Y-122078211D01*
X155289707Y-122078214D01*
X155178214Y-122189707D01*
X155178211Y-122189711D01*
X155090609Y-122320814D01*
X155090603Y-122320825D01*
X155030263Y-122466501D01*
X155030263Y-122466503D01*
X154999500Y-122621155D01*
X154999500Y-122778844D01*
X122000500Y-122778844D01*
X122000500Y-118900001D01*
X174084282Y-118900001D01*
X174105078Y-119071281D01*
X174105079Y-119071282D01*
X174166263Y-119232611D01*
X174264275Y-119374607D01*
X174264276Y-119374608D01*
X174264277Y-119374609D01*
X174393426Y-119489024D01*
X174546203Y-119569208D01*
X174713730Y-119610500D01*
X174713733Y-119610500D01*
X174886267Y-119610500D01*
X174886270Y-119610500D01*
X175053797Y-119569208D01*
X175206574Y-119489024D01*
X175335723Y-119374609D01*
X175433737Y-119232611D01*
X175494921Y-119071283D01*
X175515718Y-118900000D01*
X175494921Y-118728717D01*
X175433737Y-118567389D01*
X175335723Y-118425391D01*
X175206574Y-118310976D01*
X175053797Y-118230792D01*
X175053796Y-118230791D01*
X175053795Y-118230791D01*
X174886272Y-118189500D01*
X174886270Y-118189500D01*
X174713730Y-118189500D01*
X174713727Y-118189500D01*
X174546204Y-118230791D01*
X174393424Y-118310977D01*
X174264275Y-118425392D01*
X174166263Y-118567388D01*
X174105079Y-118728717D01*
X174105078Y-118728718D01*
X174084282Y-118899998D01*
X174084282Y-118900001D01*
X122000500Y-118900001D01*
X122000500Y-115600001D01*
X139284282Y-115600001D01*
X139305078Y-115771281D01*
X139305079Y-115771282D01*
X139366263Y-115932611D01*
X139464275Y-116074607D01*
X139464276Y-116074608D01*
X139464277Y-116074609D01*
X139593426Y-116189024D01*
X139746203Y-116269208D01*
X139913730Y-116310500D01*
X139913733Y-116310500D01*
X140086267Y-116310500D01*
X140086270Y-116310500D01*
X140253797Y-116269208D01*
X140406574Y-116189024D01*
X140535723Y-116074609D01*
X140633737Y-115932611D01*
X140694921Y-115771283D01*
X140715718Y-115600000D01*
X140694921Y-115428717D01*
X140633737Y-115267389D01*
X140535723Y-115125391D01*
X140406574Y-115010976D01*
X140253797Y-114930792D01*
X140253796Y-114930791D01*
X140253795Y-114930791D01*
X140086272Y-114889500D01*
X140086270Y-114889500D01*
X139913730Y-114889500D01*
X139913727Y-114889500D01*
X139746204Y-114930791D01*
X139593424Y-115010977D01*
X139464275Y-115125392D01*
X139366263Y-115267388D01*
X139305079Y-115428717D01*
X139305078Y-115428718D01*
X139284282Y-115599998D01*
X139284282Y-115600001D01*
X122000500Y-115600001D01*
X122000500Y-114000001D01*
X122784282Y-114000001D01*
X122805078Y-114171281D01*
X122805079Y-114171282D01*
X122866263Y-114332611D01*
X122964275Y-114474607D01*
X122964276Y-114474608D01*
X122964277Y-114474609D01*
X123093426Y-114589024D01*
X123246203Y-114669208D01*
X123413730Y-114710500D01*
X123413733Y-114710500D01*
X123586267Y-114710500D01*
X123586270Y-114710500D01*
X123753797Y-114669208D01*
X123906574Y-114589024D01*
X124035723Y-114474609D01*
X124133737Y-114332611D01*
X124194921Y-114171283D01*
X124215718Y-114000000D01*
X124194921Y-113828717D01*
X124133737Y-113667389D01*
X124035723Y-113525391D01*
X123906574Y-113410976D01*
X123753797Y-113330792D01*
X123753796Y-113330791D01*
X123753795Y-113330791D01*
X123628876Y-113300001D01*
X146784282Y-113300001D01*
X146805078Y-113471281D01*
X146805079Y-113471282D01*
X146866263Y-113632611D01*
X146964275Y-113774607D01*
X146964276Y-113774608D01*
X146964277Y-113774609D01*
X147093426Y-113889024D01*
X147246203Y-113969208D01*
X147413730Y-114010500D01*
X147413733Y-114010500D01*
X147586267Y-114010500D01*
X147586270Y-114010500D01*
X147753797Y-113969208D01*
X147906574Y-113889024D01*
X148035723Y-113774609D01*
X148133737Y-113632611D01*
X148194921Y-113471283D01*
X148215718Y-113300001D01*
X150084282Y-113300001D01*
X150105078Y-113471281D01*
X150105079Y-113471282D01*
X150166263Y-113632611D01*
X150264275Y-113774607D01*
X150264276Y-113774608D01*
X150264277Y-113774609D01*
X150393426Y-113889024D01*
X150546203Y-113969208D01*
X150713730Y-114010500D01*
X150713733Y-114010500D01*
X150886267Y-114010500D01*
X150886270Y-114010500D01*
X151053797Y-113969208D01*
X151206574Y-113889024D01*
X151335723Y-113774609D01*
X151433737Y-113632611D01*
X151494921Y-113471283D01*
X151515718Y-113300000D01*
X151494921Y-113128717D01*
X151433737Y-112967389D01*
X151335723Y-112825391D01*
X151206574Y-112710976D01*
X151053797Y-112630792D01*
X151053796Y-112630791D01*
X151053795Y-112630791D01*
X150886272Y-112589500D01*
X150886270Y-112589500D01*
X150713730Y-112589500D01*
X150713727Y-112589500D01*
X150546204Y-112630791D01*
X150393424Y-112710977D01*
X150264275Y-112825392D01*
X150166263Y-112967388D01*
X150105079Y-113128717D01*
X150105078Y-113128718D01*
X150084282Y-113299998D01*
X150084282Y-113300001D01*
X148215718Y-113300001D01*
X148215718Y-113300000D01*
X148194921Y-113128717D01*
X148133737Y-112967389D01*
X148035723Y-112825391D01*
X147906574Y-112710976D01*
X147753797Y-112630792D01*
X147753796Y-112630791D01*
X147753795Y-112630791D01*
X147586272Y-112589500D01*
X147586270Y-112589500D01*
X147413730Y-112589500D01*
X147413727Y-112589500D01*
X147246204Y-112630791D01*
X147093424Y-112710977D01*
X146964275Y-112825392D01*
X146866263Y-112967388D01*
X146805079Y-113128717D01*
X146805078Y-113128718D01*
X146784282Y-113299998D01*
X146784282Y-113300001D01*
X123628876Y-113300001D01*
X123586272Y-113289500D01*
X123586270Y-113289500D01*
X123413730Y-113289500D01*
X123413727Y-113289500D01*
X123246204Y-113330791D01*
X123093424Y-113410977D01*
X122964275Y-113525392D01*
X122866263Y-113667388D01*
X122805079Y-113828717D01*
X122805078Y-113828718D01*
X122784282Y-113999998D01*
X122784282Y-114000001D01*
X122000500Y-114000001D01*
X122000500Y-107806290D01*
X122849500Y-107806290D01*
X122882752Y-108016238D01*
X122948443Y-108218412D01*
X123044948Y-108407815D01*
X123044950Y-108407819D01*
X123169891Y-108579786D01*
X123169893Y-108579788D01*
X123169896Y-108579792D01*
X123320208Y-108730104D01*
X123320211Y-108730106D01*
X123320213Y-108730108D01*
X123492180Y-108855049D01*
X123492184Y-108855051D01*
X123681588Y-108951557D01*
X123883757Y-109017246D01*
X123883758Y-109017246D01*
X123883761Y-109017247D01*
X124093710Y-109050500D01*
X124093713Y-109050500D01*
X124306290Y-109050500D01*
X124516238Y-109017247D01*
X124516239Y-109017246D01*
X124516243Y-109017246D01*
X124718412Y-108951557D01*
X124907816Y-108855051D01*
X125012707Y-108778844D01*
X137799500Y-108778844D01*
X137830263Y-108933496D01*
X137830263Y-108933498D01*
X137890603Y-109079174D01*
X137890609Y-109079185D01*
X137943312Y-109158059D01*
X137978211Y-109210289D01*
X138089711Y-109321789D01*
X138167876Y-109374017D01*
X138220814Y-109409390D01*
X138220825Y-109409396D01*
X138274638Y-109431685D01*
X138366503Y-109469737D01*
X138521158Y-109500500D01*
X138521159Y-109500500D01*
X138678841Y-109500500D01*
X138678842Y-109500500D01*
X138833497Y-109469737D01*
X138979179Y-109409394D01*
X139110289Y-109321789D01*
X139221789Y-109210289D01*
X139309394Y-109079179D01*
X139369737Y-108933497D01*
X139400500Y-108778844D01*
X141799500Y-108778844D01*
X141830263Y-108933496D01*
X141830263Y-108933498D01*
X141890603Y-109079174D01*
X141890609Y-109079185D01*
X141943312Y-109158059D01*
X141978211Y-109210289D01*
X142089711Y-109321789D01*
X142167876Y-109374017D01*
X142220814Y-109409390D01*
X142220825Y-109409396D01*
X142274638Y-109431685D01*
X142366503Y-109469737D01*
X142521158Y-109500500D01*
X142521159Y-109500500D01*
X142678841Y-109500500D01*
X142678842Y-109500500D01*
X142833497Y-109469737D01*
X142979179Y-109409394D01*
X143110289Y-109321789D01*
X143221789Y-109210289D01*
X143309394Y-109079179D01*
X143369737Y-108933497D01*
X143400500Y-108778842D01*
X143400500Y-108621158D01*
X143369737Y-108466503D01*
X143346080Y-108409390D01*
X143309396Y-108320825D01*
X143309390Y-108320814D01*
X143240966Y-108218412D01*
X143221789Y-108189711D01*
X143110289Y-108078211D01*
X143058059Y-108043312D01*
X142979185Y-107990609D01*
X142979174Y-107990603D01*
X142833497Y-107930263D01*
X142678844Y-107899500D01*
X142678842Y-107899500D01*
X142521158Y-107899500D01*
X142521155Y-107899500D01*
X142366503Y-107930263D01*
X142366501Y-107930263D01*
X142220825Y-107990603D01*
X142220814Y-107990609D01*
X142089711Y-108078211D01*
X142089707Y-108078214D01*
X141978214Y-108189707D01*
X141978211Y-108189711D01*
X141890609Y-108320814D01*
X141890603Y-108320825D01*
X141830263Y-108466501D01*
X141830263Y-108466503D01*
X141799500Y-108621155D01*
X141799500Y-108778844D01*
X139400500Y-108778844D01*
X139400500Y-108778842D01*
X139400500Y-108621158D01*
X139369737Y-108466503D01*
X139346080Y-108409390D01*
X139309396Y-108320825D01*
X139309390Y-108320814D01*
X139240966Y-108218412D01*
X139221789Y-108189711D01*
X139110289Y-108078211D01*
X139058059Y-108043312D01*
X138979185Y-107990609D01*
X138979174Y-107990603D01*
X138833497Y-107930263D01*
X138678844Y-107899500D01*
X138678842Y-107899500D01*
X138521158Y-107899500D01*
X138521155Y-107899500D01*
X138366503Y-107930263D01*
X138366501Y-107930263D01*
X138220825Y-107990603D01*
X138220814Y-107990609D01*
X138089711Y-108078211D01*
X138089707Y-108078214D01*
X137978214Y-108189707D01*
X137978211Y-108189711D01*
X137890609Y-108320814D01*
X137890603Y-108320825D01*
X137830263Y-108466501D01*
X137830263Y-108466503D01*
X137799500Y-108621155D01*
X137799500Y-108778844D01*
X125012707Y-108778844D01*
X125079792Y-108730104D01*
X125230104Y-108579792D01*
X125353905Y-108409394D01*
X125355049Y-108407819D01*
X125355051Y-108407816D01*
X125451557Y-108218412D01*
X125517246Y-108016243D01*
X125530864Y-107930263D01*
X125550500Y-107806290D01*
X125550500Y-107778844D01*
X154999500Y-107778844D01*
X155030263Y-107933496D01*
X155030263Y-107933498D01*
X155090603Y-108079174D01*
X155090609Y-108079185D01*
X155143312Y-108158059D01*
X155178211Y-108210289D01*
X155289711Y-108321789D01*
X155367876Y-108374017D01*
X155420814Y-108409390D01*
X155420825Y-108409396D01*
X155474638Y-108431685D01*
X155566503Y-108469737D01*
X155721158Y-108500500D01*
X155721159Y-108500500D01*
X155878841Y-108500500D01*
X155878842Y-108500500D01*
X156033497Y-108469737D01*
X156179179Y-108409394D01*
X156310289Y-108321789D01*
X156421789Y-108210289D01*
X156509394Y-108079179D01*
X156569737Y-107933497D01*
X156600500Y-107778844D01*
X158999500Y-107778844D01*
X159030263Y-107933496D01*
X159030263Y-107933498D01*
X159090603Y-108079174D01*
X159090609Y-108079185D01*
X159143312Y-108158059D01*
X159178211Y-108210289D01*
X159289711Y-108321789D01*
X159367876Y-108374017D01*
X159420814Y-108409390D01*
X159420825Y-108409396D01*
X159474638Y-108431685D01*
X159566503Y-108469737D01*
X159721158Y-108500500D01*
X159721159Y-108500500D01*
X159878841Y-108500500D01*
X159878842Y-108500500D01*
X160033497Y-108469737D01*
X160179179Y-108409394D01*
X160310289Y-108321789D01*
X160421789Y-108210289D01*
X160509394Y-108079179D01*
X160569737Y-107933497D01*
X160595040Y-107806290D01*
X172849500Y-107806290D01*
X172882752Y-108016238D01*
X172948443Y-108218412D01*
X173044948Y-108407815D01*
X173044950Y-108407819D01*
X173169891Y-108579786D01*
X173169893Y-108579788D01*
X173169896Y-108579792D01*
X173320208Y-108730104D01*
X173320211Y-108730106D01*
X173320213Y-108730108D01*
X173492180Y-108855049D01*
X173492184Y-108855051D01*
X173681588Y-108951557D01*
X173883757Y-109017246D01*
X173883758Y-109017246D01*
X173883761Y-109017247D01*
X174093710Y-109050500D01*
X174093713Y-109050500D01*
X174306290Y-109050500D01*
X174516238Y-109017247D01*
X174516239Y-109017246D01*
X174516243Y-109017246D01*
X174718412Y-108951557D01*
X174907816Y-108855051D01*
X175079792Y-108730104D01*
X175230104Y-108579792D01*
X175353905Y-108409394D01*
X175355049Y-108407819D01*
X175355051Y-108407816D01*
X175451557Y-108218412D01*
X175517246Y-108016243D01*
X175530864Y-107930263D01*
X175550500Y-107806290D01*
X175550500Y-107593709D01*
X175517247Y-107383761D01*
X175496798Y-107320825D01*
X175451557Y-107181588D01*
X175355051Y-106992184D01*
X175355049Y-106992180D01*
X175230108Y-106820213D01*
X175230106Y-106820211D01*
X175230104Y-106820208D01*
X175079792Y-106669896D01*
X175079788Y-106669893D01*
X175079786Y-106669891D01*
X174907819Y-106544950D01*
X174907815Y-106544948D01*
X174718412Y-106448443D01*
X174516238Y-106382752D01*
X174306290Y-106349500D01*
X174306287Y-106349500D01*
X174093713Y-106349500D01*
X174093710Y-106349500D01*
X173883761Y-106382752D01*
X173681587Y-106448443D01*
X173492184Y-106544948D01*
X173492180Y-106544950D01*
X173320213Y-106669891D01*
X173169891Y-106820213D01*
X173044950Y-106992180D01*
X173044948Y-106992184D01*
X172948443Y-107181587D01*
X172882752Y-107383761D01*
X172849500Y-107593709D01*
X172849500Y-107806290D01*
X160595040Y-107806290D01*
X160600500Y-107778842D01*
X160600500Y-107621158D01*
X160569737Y-107466503D01*
X160549622Y-107417942D01*
X160509396Y-107320825D01*
X160509390Y-107320814D01*
X160474017Y-107267876D01*
X160421789Y-107189711D01*
X160310289Y-107078211D01*
X160258059Y-107043312D01*
X160179185Y-106990609D01*
X160179174Y-106990603D01*
X160033497Y-106930263D01*
X159878844Y-106899500D01*
X159878842Y-106899500D01*
X159721158Y-106899500D01*
X159721155Y-106899500D01*
X159566503Y-106930263D01*
X159566501Y-106930263D01*
X159420825Y-106990603D01*
X159420814Y-106990609D01*
X159289711Y-107078211D01*
X159289707Y-107078214D01*
X159178214Y-107189707D01*
X159178211Y-107189711D01*
X159090609Y-107320814D01*
X159090603Y-107320825D01*
X159030263Y-107466501D01*
X159030263Y-107466503D01*
X158999500Y-107621155D01*
X158999500Y-107778844D01*
X156600500Y-107778844D01*
X156600500Y-107778842D01*
X156600500Y-107621158D01*
X156569737Y-107466503D01*
X156549622Y-107417942D01*
X156509396Y-107320825D01*
X156509390Y-107320814D01*
X156474017Y-107267876D01*
X156421789Y-107189711D01*
X156310289Y-107078211D01*
X156258059Y-107043312D01*
X156179185Y-106990609D01*
X156179174Y-106990603D01*
X156033497Y-106930263D01*
X155878844Y-106899500D01*
X155878842Y-106899500D01*
X155721158Y-106899500D01*
X155721155Y-106899500D01*
X155566503Y-106930263D01*
X155566501Y-106930263D01*
X155420825Y-106990603D01*
X155420814Y-106990609D01*
X155289711Y-107078211D01*
X155289707Y-107078214D01*
X155178214Y-107189707D01*
X155178211Y-107189711D01*
X155090609Y-107320814D01*
X155090603Y-107320825D01*
X155030263Y-107466501D01*
X155030263Y-107466503D01*
X154999500Y-107621155D01*
X154999500Y-107778844D01*
X125550500Y-107778844D01*
X125550500Y-107593709D01*
X125517247Y-107383761D01*
X125496798Y-107320825D01*
X125451557Y-107181588D01*
X125355051Y-106992184D01*
X125355049Y-106992180D01*
X125230108Y-106820213D01*
X125230106Y-106820211D01*
X125230104Y-106820208D01*
X125079792Y-106669896D01*
X125079788Y-106669893D01*
X125079786Y-106669891D01*
X124907819Y-106544950D01*
X124907815Y-106544948D01*
X124718412Y-106448443D01*
X124516238Y-106382752D01*
X124306290Y-106349500D01*
X124306287Y-106349500D01*
X124093713Y-106349500D01*
X124093710Y-106349500D01*
X123883761Y-106382752D01*
X123681587Y-106448443D01*
X123492184Y-106544948D01*
X123492180Y-106544950D01*
X123320213Y-106669891D01*
X123169891Y-106820213D01*
X123044950Y-106992180D01*
X123044948Y-106992184D01*
X122948443Y-107181587D01*
X122882752Y-107383761D01*
X122849500Y-107593709D01*
X122849500Y-107806290D01*
X122000500Y-107806290D01*
X122000500Y-102700001D01*
X152384282Y-102700001D01*
X152405078Y-102871281D01*
X152405079Y-102871282D01*
X152466263Y-103032611D01*
X152564275Y-103174607D01*
X152564276Y-103174608D01*
X152564277Y-103174609D01*
X152693426Y-103289024D01*
X152846203Y-103369208D01*
X153013730Y-103410500D01*
X153013733Y-103410500D01*
X153186267Y-103410500D01*
X153186270Y-103410500D01*
X153353797Y-103369208D01*
X153506574Y-103289024D01*
X153635723Y-103174609D01*
X153733737Y-103032611D01*
X153794921Y-102871283D01*
X153815718Y-102700001D01*
X163084282Y-102700001D01*
X163105078Y-102871281D01*
X163105079Y-102871282D01*
X163166263Y-103032611D01*
X163264275Y-103174607D01*
X163264276Y-103174608D01*
X163264277Y-103174609D01*
X163393426Y-103289024D01*
X163546203Y-103369208D01*
X163713730Y-103410500D01*
X163713733Y-103410500D01*
X163886267Y-103410500D01*
X163886270Y-103410500D01*
X164053797Y-103369208D01*
X164206574Y-103289024D01*
X164335723Y-103174609D01*
X164433737Y-103032611D01*
X164494921Y-102871283D01*
X164515718Y-102700000D01*
X164494921Y-102528717D01*
X164433737Y-102367389D01*
X164335723Y-102225391D01*
X164206574Y-102110976D01*
X164053797Y-102030792D01*
X164053796Y-102030791D01*
X164053795Y-102030791D01*
X163886272Y-101989500D01*
X163886270Y-101989500D01*
X163713730Y-101989500D01*
X163713727Y-101989500D01*
X163546204Y-102030791D01*
X163393424Y-102110977D01*
X163264275Y-102225392D01*
X163166263Y-102367388D01*
X163105079Y-102528717D01*
X163105078Y-102528718D01*
X163084282Y-102699998D01*
X163084282Y-102700001D01*
X153815718Y-102700001D01*
X153815718Y-102700000D01*
X153794921Y-102528717D01*
X153733737Y-102367389D01*
X153635723Y-102225391D01*
X153506574Y-102110976D01*
X153353797Y-102030792D01*
X153353796Y-102030791D01*
X153353795Y-102030791D01*
X153186272Y-101989500D01*
X153186270Y-101989500D01*
X153013730Y-101989500D01*
X153013727Y-101989500D01*
X152846204Y-102030791D01*
X152693424Y-102110977D01*
X152564275Y-102225392D01*
X152466263Y-102367388D01*
X152405079Y-102528717D01*
X152405078Y-102528718D01*
X152384282Y-102699998D01*
X152384282Y-102700001D01*
X122000500Y-102700001D01*
X122000500Y-101400001D01*
X122784282Y-101400001D01*
X122805078Y-101571281D01*
X122805079Y-101571282D01*
X122866263Y-101732611D01*
X122964275Y-101874607D01*
X122964276Y-101874608D01*
X122964277Y-101874609D01*
X123093426Y-101989024D01*
X123246203Y-102069208D01*
X123413730Y-102110500D01*
X123413733Y-102110500D01*
X123586267Y-102110500D01*
X123586270Y-102110500D01*
X123753797Y-102069208D01*
X123906574Y-101989024D01*
X124035723Y-101874609D01*
X124133737Y-101732611D01*
X124194921Y-101571283D01*
X124215718Y-101400000D01*
X124214385Y-101389024D01*
X124194921Y-101228718D01*
X124194921Y-101228717D01*
X124133737Y-101067389D01*
X124035723Y-100925391D01*
X123906574Y-100810976D01*
X123885663Y-100800001D01*
X174084282Y-100800001D01*
X174105078Y-100971281D01*
X174105079Y-100971283D01*
X174166263Y-101132611D01*
X174264275Y-101274607D01*
X174264276Y-101274608D01*
X174264277Y-101274609D01*
X174393426Y-101389024D01*
X174546203Y-101469208D01*
X174713730Y-101510500D01*
X174713733Y-101510500D01*
X174886267Y-101510500D01*
X174886270Y-101510500D01*
X175053797Y-101469208D01*
X175206574Y-101389024D01*
X175335723Y-101274609D01*
X175433737Y-101132611D01*
X175494921Y-100971283D01*
X175515718Y-100800000D01*
X175494921Y-100628717D01*
X175433737Y-100467389D01*
X175335723Y-100325391D01*
X175206574Y-100210976D01*
X175053797Y-100130792D01*
X175053796Y-100130791D01*
X175053795Y-100130791D01*
X174886272Y-100089500D01*
X174886270Y-100089500D01*
X174713730Y-100089500D01*
X174713727Y-100089500D01*
X174546204Y-100130791D01*
X174393424Y-100210977D01*
X174264275Y-100325392D01*
X174166263Y-100467388D01*
X174105079Y-100628717D01*
X174105078Y-100628718D01*
X174084282Y-100799998D01*
X174084282Y-100800001D01*
X123885663Y-100800001D01*
X123753797Y-100730792D01*
X123753796Y-100730791D01*
X123753795Y-100730791D01*
X123586272Y-100689500D01*
X123586270Y-100689500D01*
X123413730Y-100689500D01*
X123413727Y-100689500D01*
X123246204Y-100730791D01*
X123093424Y-100810977D01*
X122964275Y-100925392D01*
X122866263Y-101067388D01*
X122805079Y-101228717D01*
X122805078Y-101228718D01*
X122784282Y-101399998D01*
X122784282Y-101400001D01*
X122000500Y-101400001D01*
X122000500Y-99300001D01*
X136084282Y-99300001D01*
X136105078Y-99471281D01*
X136105079Y-99471282D01*
X136166263Y-99632611D01*
X136264275Y-99774607D01*
X136264276Y-99774608D01*
X136264277Y-99774609D01*
X136393426Y-99889024D01*
X136546203Y-99969208D01*
X136713730Y-100010500D01*
X136713733Y-100010500D01*
X136886267Y-100010500D01*
X136886270Y-100010500D01*
X137053797Y-99969208D01*
X137206574Y-99889024D01*
X137335723Y-99774609D01*
X137433737Y-99632611D01*
X137494921Y-99471283D01*
X137515718Y-99300000D01*
X137494921Y-99128717D01*
X137433737Y-98967389D01*
X137335723Y-98825391D01*
X137206574Y-98710976D01*
X137053797Y-98630792D01*
X137053796Y-98630791D01*
X137053795Y-98630791D01*
X136886272Y-98589500D01*
X136886270Y-98589500D01*
X136713730Y-98589500D01*
X136713727Y-98589500D01*
X136546204Y-98630791D01*
X136393424Y-98710977D01*
X136264275Y-98825392D01*
X136166263Y-98967388D01*
X136105079Y-99128717D01*
X136105078Y-99128718D01*
X136084282Y-99299998D01*
X136084282Y-99300001D01*
X122000500Y-99300001D01*
X122000500Y-96200001D01*
X149484282Y-96200001D01*
X149505078Y-96371281D01*
X149505079Y-96371282D01*
X149566263Y-96532611D01*
X149664275Y-96674607D01*
X149664276Y-96674608D01*
X149664277Y-96674609D01*
X149793426Y-96789024D01*
X149946203Y-96869208D01*
X150113730Y-96910500D01*
X150113733Y-96910500D01*
X150286267Y-96910500D01*
X150286270Y-96910500D01*
X150453797Y-96869208D01*
X150606574Y-96789024D01*
X150735723Y-96674609D01*
X150833737Y-96532611D01*
X150894921Y-96371283D01*
X150915718Y-96200000D01*
X150894921Y-96028717D01*
X150833737Y-95867389D01*
X150735723Y-95725391D01*
X150606574Y-95610976D01*
X150453797Y-95530792D01*
X150453796Y-95530791D01*
X150453795Y-95530791D01*
X150286272Y-95489500D01*
X150286270Y-95489500D01*
X150113730Y-95489500D01*
X150113727Y-95489500D01*
X149946204Y-95530791D01*
X149793424Y-95610977D01*
X149664275Y-95725392D01*
X149566263Y-95867388D01*
X149505079Y-96028717D01*
X149505078Y-96028718D01*
X149484282Y-96199998D01*
X149484282Y-96200001D01*
X122000500Y-96200001D01*
X122000500Y-95100001D01*
X143034649Y-95100001D01*
X143053982Y-95259226D01*
X143053982Y-95259227D01*
X143053983Y-95259229D01*
X143110861Y-95409204D01*
X143201978Y-95541209D01*
X143322038Y-95647573D01*
X143464063Y-95722114D01*
X143619801Y-95760500D01*
X143619804Y-95760500D01*
X143780196Y-95760500D01*
X143780199Y-95760500D01*
X143935937Y-95722114D01*
X144077962Y-95647573D01*
X144198022Y-95541209D01*
X144289139Y-95409204D01*
X144346017Y-95259229D01*
X144365351Y-95100001D01*
X160834649Y-95100001D01*
X160853982Y-95259226D01*
X160853982Y-95259227D01*
X160853983Y-95259229D01*
X160910861Y-95409204D01*
X161001978Y-95541209D01*
X161122038Y-95647573D01*
X161264063Y-95722114D01*
X161419801Y-95760500D01*
X161419804Y-95760500D01*
X161580196Y-95760500D01*
X161580199Y-95760500D01*
X161735937Y-95722114D01*
X161877962Y-95647573D01*
X161998022Y-95541209D01*
X162089139Y-95409204D01*
X162146017Y-95259229D01*
X162165351Y-95100000D01*
X162146017Y-94940771D01*
X162089139Y-94790796D01*
X161998022Y-94658791D01*
X161877962Y-94552427D01*
X161735937Y-94477886D01*
X161735936Y-94477885D01*
X161735935Y-94477885D01*
X161580201Y-94439500D01*
X161580199Y-94439500D01*
X161419801Y-94439500D01*
X161419798Y-94439500D01*
X161264064Y-94477885D01*
X161122036Y-94552428D01*
X161001980Y-94658788D01*
X160910861Y-94790795D01*
X160853983Y-94940771D01*
X160853982Y-94940773D01*
X160834649Y-95099998D01*
X160834649Y-95100001D01*
X144365351Y-95100001D01*
X144365351Y-95100000D01*
X144346017Y-94940771D01*
X144289139Y-94790796D01*
X144198022Y-94658791D01*
X144077962Y-94552427D01*
X143935937Y-94477886D01*
X143935936Y-94477885D01*
X143935935Y-94477885D01*
X143780201Y-94439500D01*
X143780199Y-94439500D01*
X143619801Y-94439500D01*
X143619798Y-94439500D01*
X143464064Y-94477885D01*
X143322036Y-94552428D01*
X143201980Y-94658788D01*
X143110861Y-94790795D01*
X143053983Y-94940771D01*
X143053982Y-94940773D01*
X143034649Y-95099998D01*
X143034649Y-95100001D01*
X122000500Y-95100001D01*
X122000500Y-93300001D01*
X122784282Y-93300001D01*
X122805078Y-93471281D01*
X122805079Y-93471283D01*
X122840938Y-93565834D01*
X122866263Y-93632611D01*
X122964275Y-93774607D01*
X122964276Y-93774608D01*
X122964277Y-93774609D01*
X123093426Y-93889024D01*
X123246203Y-93969208D01*
X123413730Y-94010500D01*
X123413733Y-94010500D01*
X123586267Y-94010500D01*
X123586270Y-94010500D01*
X123753797Y-93969208D01*
X123906574Y-93889024D01*
X124035723Y-93774609D01*
X124133737Y-93632611D01*
X124194921Y-93471283D01*
X124213073Y-93321785D01*
X124215718Y-93300001D01*
X131259282Y-93300001D01*
X131280078Y-93471281D01*
X131280079Y-93471283D01*
X131315938Y-93565834D01*
X131341263Y-93632611D01*
X131439275Y-93774607D01*
X131439276Y-93774608D01*
X131439277Y-93774609D01*
X131568426Y-93889024D01*
X131721203Y-93969208D01*
X131888730Y-94010500D01*
X131888733Y-94010500D01*
X132061267Y-94010500D01*
X132061270Y-94010500D01*
X132228797Y-93969208D01*
X132381574Y-93889024D01*
X132505945Y-93778842D01*
X137799500Y-93778842D01*
X137829312Y-93928718D01*
X137830263Y-93933496D01*
X137830263Y-93933498D01*
X137890603Y-94079174D01*
X137890609Y-94079185D01*
X137943312Y-94158059D01*
X137978211Y-94210289D01*
X138089711Y-94321789D01*
X138167876Y-94374017D01*
X138220814Y-94409390D01*
X138220825Y-94409396D01*
X138274638Y-94431685D01*
X138366503Y-94469737D01*
X138521158Y-94500500D01*
X138521159Y-94500500D01*
X138678841Y-94500500D01*
X138678842Y-94500500D01*
X138833497Y-94469737D01*
X138979179Y-94409394D01*
X139110289Y-94321789D01*
X139221789Y-94210289D01*
X139309394Y-94079179D01*
X139369737Y-93933497D01*
X139400500Y-93778842D01*
X141799500Y-93778842D01*
X141829312Y-93928718D01*
X141830263Y-93933496D01*
X141830263Y-93933498D01*
X141890603Y-94079174D01*
X141890609Y-94079185D01*
X141943312Y-94158059D01*
X141978211Y-94210289D01*
X142089711Y-94321789D01*
X142167876Y-94374017D01*
X142220814Y-94409390D01*
X142220825Y-94409396D01*
X142274638Y-94431685D01*
X142366503Y-94469737D01*
X142521158Y-94500500D01*
X142521159Y-94500500D01*
X142678841Y-94500500D01*
X142678842Y-94500500D01*
X142833497Y-94469737D01*
X142979179Y-94409394D01*
X143110289Y-94321789D01*
X143221789Y-94210289D01*
X143295481Y-94100001D01*
X158984282Y-94100001D01*
X159005078Y-94271281D01*
X159005079Y-94271282D01*
X159066263Y-94432611D01*
X159164275Y-94574607D01*
X159164276Y-94574608D01*
X159164277Y-94574609D01*
X159293426Y-94689024D01*
X159446203Y-94769208D01*
X159613730Y-94810500D01*
X159613733Y-94810500D01*
X159786267Y-94810500D01*
X159786270Y-94810500D01*
X159953797Y-94769208D01*
X160106574Y-94689024D01*
X160235723Y-94574609D01*
X160333737Y-94432611D01*
X160394921Y-94271283D01*
X160415718Y-94100000D01*
X160413189Y-94079174D01*
X160399837Y-93969208D01*
X160394921Y-93928717D01*
X160333737Y-93767389D01*
X160235723Y-93625391D01*
X160235722Y-93625390D01*
X160235721Y-93625388D01*
X160168498Y-93565834D01*
X160137479Y-93513095D01*
X160143385Y-93452195D01*
X160179145Y-93409417D01*
X160198102Y-93396749D01*
X160310289Y-93321789D01*
X160421789Y-93210289D01*
X160509394Y-93079179D01*
X160569737Y-92933497D01*
X160600500Y-92778842D01*
X160600500Y-92700001D01*
X173784282Y-92700001D01*
X173805078Y-92871281D01*
X173805079Y-92871283D01*
X173850331Y-92990603D01*
X173866263Y-93032611D01*
X173964275Y-93174607D01*
X173964276Y-93174608D01*
X173964277Y-93174609D01*
X174093426Y-93289024D01*
X174246203Y-93369208D01*
X174413730Y-93410500D01*
X174413733Y-93410500D01*
X174586267Y-93410500D01*
X174586270Y-93410500D01*
X174753797Y-93369208D01*
X174906574Y-93289024D01*
X175035723Y-93174609D01*
X175133737Y-93032611D01*
X175194921Y-92871283D01*
X175214015Y-92714024D01*
X175215718Y-92700001D01*
X175215718Y-92699998D01*
X175194921Y-92528718D01*
X175194921Y-92528717D01*
X175133737Y-92367389D01*
X175035723Y-92225391D01*
X174906574Y-92110976D01*
X174753797Y-92030792D01*
X174753796Y-92030791D01*
X174753795Y-92030791D01*
X174586272Y-91989500D01*
X174586270Y-91989500D01*
X174413730Y-91989500D01*
X174413727Y-91989500D01*
X174246204Y-92030791D01*
X174093424Y-92110977D01*
X173964275Y-92225392D01*
X173866263Y-92367388D01*
X173805079Y-92528717D01*
X173805078Y-92528718D01*
X173784282Y-92699998D01*
X173784282Y-92700001D01*
X160600500Y-92700001D01*
X160600500Y-92621158D01*
X160569737Y-92466503D01*
X160509394Y-92320821D01*
X160509393Y-92320819D01*
X160509390Y-92320814D01*
X160445630Y-92225392D01*
X160421789Y-92189711D01*
X160310289Y-92078211D01*
X160239320Y-92030791D01*
X160179185Y-91990609D01*
X160179174Y-91990603D01*
X160033497Y-91930263D01*
X159878844Y-91899500D01*
X159878842Y-91899500D01*
X159721158Y-91899500D01*
X159721155Y-91899500D01*
X159566503Y-91930263D01*
X159566501Y-91930263D01*
X159420825Y-91990603D01*
X159420814Y-91990609D01*
X159289711Y-92078211D01*
X159289707Y-92078214D01*
X159178214Y-92189707D01*
X159178211Y-92189711D01*
X159090609Y-92320814D01*
X159090603Y-92320825D01*
X159030263Y-92466501D01*
X159030263Y-92466503D01*
X158999500Y-92621155D01*
X158999500Y-92778844D01*
X159030263Y-92933496D01*
X159030263Y-92933498D01*
X159090603Y-93079174D01*
X159090609Y-93079185D01*
X159123706Y-93128717D01*
X159178211Y-93210289D01*
X159289711Y-93321789D01*
X159311405Y-93336284D01*
X159349284Y-93384332D01*
X159351687Y-93445470D01*
X159317696Y-93496344D01*
X159302417Y-93506256D01*
X159293426Y-93510975D01*
X159164275Y-93625392D01*
X159066263Y-93767388D01*
X159005079Y-93928717D01*
X159005078Y-93928718D01*
X158984282Y-94099998D01*
X158984282Y-94100001D01*
X143295481Y-94100001D01*
X143309394Y-94079179D01*
X143369737Y-93933497D01*
X143400500Y-93778842D01*
X143400500Y-93621158D01*
X143369737Y-93466503D01*
X143335701Y-93384332D01*
X143309396Y-93320825D01*
X143309390Y-93320814D01*
X143274017Y-93267876D01*
X143221789Y-93189711D01*
X143110289Y-93078211D01*
X143042044Y-93032611D01*
X142979185Y-92990609D01*
X142979174Y-92990603D01*
X142833497Y-92930263D01*
X142678844Y-92899500D01*
X142678842Y-92899500D01*
X142521158Y-92899500D01*
X142521155Y-92899500D01*
X142366503Y-92930263D01*
X142366501Y-92930263D01*
X142220825Y-92990603D01*
X142220814Y-92990609D01*
X142089711Y-93078211D01*
X142089707Y-93078214D01*
X141978214Y-93189707D01*
X141978211Y-93189711D01*
X141890609Y-93320814D01*
X141890603Y-93320825D01*
X141830263Y-93466501D01*
X141830263Y-93466503D01*
X141799500Y-93621155D01*
X141799500Y-93621158D01*
X141799500Y-93778842D01*
X139400500Y-93778842D01*
X139400500Y-93621158D01*
X139369737Y-93466503D01*
X139335701Y-93384332D01*
X139309396Y-93320825D01*
X139309390Y-93320814D01*
X139274017Y-93267876D01*
X139221789Y-93189711D01*
X139110289Y-93078211D01*
X139042044Y-93032611D01*
X138979185Y-92990609D01*
X138979174Y-92990603D01*
X138833497Y-92930263D01*
X138678844Y-92899500D01*
X138678842Y-92899500D01*
X138521158Y-92899500D01*
X138521155Y-92899500D01*
X138366503Y-92930263D01*
X138366501Y-92930263D01*
X138220825Y-92990603D01*
X138220814Y-92990609D01*
X138089711Y-93078211D01*
X138089707Y-93078214D01*
X137978214Y-93189707D01*
X137978211Y-93189711D01*
X137890609Y-93320814D01*
X137890603Y-93320825D01*
X137830263Y-93466501D01*
X137830263Y-93466503D01*
X137799500Y-93621155D01*
X137799500Y-93621158D01*
X137799500Y-93778842D01*
X132505945Y-93778842D01*
X132510723Y-93774609D01*
X132608737Y-93632611D01*
X132669921Y-93471283D01*
X132688073Y-93321785D01*
X132690718Y-93300001D01*
X132690718Y-93299998D01*
X132669921Y-93128718D01*
X132669921Y-93128717D01*
X132608737Y-92967389D01*
X132510723Y-92825391D01*
X132381574Y-92710976D01*
X132228797Y-92630792D01*
X132228796Y-92630791D01*
X132228795Y-92630791D01*
X132061272Y-92589500D01*
X132061270Y-92589500D01*
X131888730Y-92589500D01*
X131888727Y-92589500D01*
X131721204Y-92630791D01*
X131568424Y-92710977D01*
X131439275Y-92825392D01*
X131341263Y-92967388D01*
X131280079Y-93128717D01*
X131280078Y-93128718D01*
X131259282Y-93299998D01*
X131259282Y-93300001D01*
X124215718Y-93300001D01*
X124215718Y-93299998D01*
X124194921Y-93128718D01*
X124194921Y-93128717D01*
X124133737Y-92967389D01*
X124035723Y-92825391D01*
X123906574Y-92710976D01*
X123753797Y-92630792D01*
X123753796Y-92630791D01*
X123753795Y-92630791D01*
X123586272Y-92589500D01*
X123586270Y-92589500D01*
X123413730Y-92589500D01*
X123413727Y-92589500D01*
X123246204Y-92630791D01*
X123093424Y-92710977D01*
X122964275Y-92825392D01*
X122866263Y-92967388D01*
X122805079Y-93128717D01*
X122805078Y-93128718D01*
X122784282Y-93299998D01*
X122784282Y-93300001D01*
X122000500Y-93300001D01*
X122000500Y-92125001D01*
X139409282Y-92125001D01*
X139430078Y-92296281D01*
X139430079Y-92296283D01*
X139439385Y-92320821D01*
X139491263Y-92457611D01*
X139589275Y-92599607D01*
X139589276Y-92599608D01*
X139589277Y-92599609D01*
X139718426Y-92714024D01*
X139871203Y-92794208D01*
X140038730Y-92835500D01*
X140038733Y-92835500D01*
X140211267Y-92835500D01*
X140211270Y-92835500D01*
X140378797Y-92794208D01*
X140408070Y-92778844D01*
X154999500Y-92778844D01*
X155030263Y-92933496D01*
X155030263Y-92933498D01*
X155090603Y-93079174D01*
X155090609Y-93079185D01*
X155123706Y-93128717D01*
X155178211Y-93210289D01*
X155289711Y-93321789D01*
X155367876Y-93374017D01*
X155420814Y-93409390D01*
X155420825Y-93409396D01*
X155472481Y-93430792D01*
X155566503Y-93469737D01*
X155721158Y-93500500D01*
X155721159Y-93500500D01*
X155878841Y-93500500D01*
X155878842Y-93500500D01*
X156033497Y-93469737D01*
X156179179Y-93409394D01*
X156310289Y-93321789D01*
X156421789Y-93210289D01*
X156509394Y-93079179D01*
X156569737Y-92933497D01*
X156600500Y-92778842D01*
X156600500Y-92621158D01*
X156569737Y-92466503D01*
X156509394Y-92320821D01*
X156509393Y-92320819D01*
X156509390Y-92320814D01*
X156445630Y-92225392D01*
X156421789Y-92189711D01*
X156310289Y-92078211D01*
X156239320Y-92030791D01*
X156179185Y-91990609D01*
X156179174Y-91990603D01*
X156033497Y-91930263D01*
X155878844Y-91899500D01*
X155878842Y-91899500D01*
X155721158Y-91899500D01*
X155721155Y-91899500D01*
X155566503Y-91930263D01*
X155566501Y-91930263D01*
X155420825Y-91990603D01*
X155420814Y-91990609D01*
X155289711Y-92078211D01*
X155289707Y-92078214D01*
X155178214Y-92189707D01*
X155178211Y-92189711D01*
X155090609Y-92320814D01*
X155090603Y-92320825D01*
X155030263Y-92466501D01*
X155030263Y-92466503D01*
X154999500Y-92621155D01*
X154999500Y-92778844D01*
X140408070Y-92778844D01*
X140531574Y-92714024D01*
X140660723Y-92599609D01*
X140758737Y-92457611D01*
X140819921Y-92296283D01*
X140840718Y-92125000D01*
X140839015Y-92110977D01*
X140819921Y-91953718D01*
X140819921Y-91953717D01*
X140758737Y-91792389D01*
X140660723Y-91650391D01*
X140531574Y-91535976D01*
X140378797Y-91455792D01*
X140378796Y-91455791D01*
X140378795Y-91455791D01*
X140211272Y-91414500D01*
X140211270Y-91414500D01*
X140038730Y-91414500D01*
X140038727Y-91414500D01*
X139871204Y-91455791D01*
X139718424Y-91535977D01*
X139589275Y-91650392D01*
X139491263Y-91792388D01*
X139430079Y-91953717D01*
X139430078Y-91953718D01*
X139409282Y-92124998D01*
X139409282Y-92125001D01*
X122000500Y-92125001D01*
X122000500Y-90600001D01*
X143384282Y-90600001D01*
X143405078Y-90771281D01*
X143405079Y-90771283D01*
X143432779Y-90844321D01*
X143466263Y-90932611D01*
X143564275Y-91074607D01*
X143564276Y-91074608D01*
X143564277Y-91074609D01*
X143693426Y-91189024D01*
X143846203Y-91269208D01*
X144013730Y-91310500D01*
X144013733Y-91310500D01*
X144186267Y-91310500D01*
X144186270Y-91310500D01*
X144228866Y-91300001D01*
X153484282Y-91300001D01*
X153505078Y-91471281D01*
X153505079Y-91471283D01*
X153566263Y-91632611D01*
X153664275Y-91774607D01*
X153664276Y-91774608D01*
X153664277Y-91774609D01*
X153793426Y-91889024D01*
X153946203Y-91969208D01*
X154113730Y-92010500D01*
X154113733Y-92010500D01*
X154286267Y-92010500D01*
X154286270Y-92010500D01*
X154453797Y-91969208D01*
X154606574Y-91889024D01*
X154735723Y-91774609D01*
X154833737Y-91632611D01*
X154894921Y-91471283D01*
X154915718Y-91300000D01*
X154911266Y-91263337D01*
X154894921Y-91128718D01*
X154894921Y-91128717D01*
X154833737Y-90967389D01*
X154784730Y-90896390D01*
X154735724Y-90825392D01*
X154606575Y-90710977D01*
X154606574Y-90710976D01*
X154453797Y-90630792D01*
X154453796Y-90630791D01*
X154453795Y-90630791D01*
X154286272Y-90589500D01*
X154286270Y-90589500D01*
X154113730Y-90589500D01*
X154113727Y-90589500D01*
X153946204Y-90630791D01*
X153793424Y-90710977D01*
X153664275Y-90825392D01*
X153566263Y-90967388D01*
X153505079Y-91128717D01*
X153505078Y-91128718D01*
X153484282Y-91299998D01*
X153484282Y-91300001D01*
X144228866Y-91300001D01*
X144353797Y-91269208D01*
X144506574Y-91189024D01*
X144635723Y-91074609D01*
X144733737Y-90932611D01*
X144794921Y-90771283D01*
X144815718Y-90600000D01*
X144809851Y-90551683D01*
X144794921Y-90428718D01*
X144794921Y-90428717D01*
X144733737Y-90267389D01*
X144663296Y-90165337D01*
X144635724Y-90125392D01*
X144553281Y-90052354D01*
X144506574Y-90010976D01*
X144353797Y-89930792D01*
X144353796Y-89930791D01*
X144353795Y-89930791D01*
X144186272Y-89889500D01*
X144186270Y-89889500D01*
X144013730Y-89889500D01*
X144013727Y-89889500D01*
X143846204Y-89930791D01*
X143693424Y-90010977D01*
X143564275Y-90125392D01*
X143466263Y-90267388D01*
X143405079Y-90428717D01*
X143405078Y-90428718D01*
X143384282Y-90599998D01*
X143384282Y-90600001D01*
X122000500Y-90600001D01*
X122000500Y-89600000D01*
X139734663Y-89600000D01*
X139751414Y-89727246D01*
X139753926Y-89746320D01*
X139810404Y-89882669D01*
X139900246Y-89999754D01*
X140017331Y-90089596D01*
X140153680Y-90146074D01*
X140263420Y-90160521D01*
X140299999Y-90165337D01*
X140300000Y-90165337D01*
X140300001Y-90165337D01*
X140329264Y-90161484D01*
X140446320Y-90146074D01*
X140582669Y-90089596D01*
X140627233Y-90055400D01*
X140684908Y-90034977D01*
X140743574Y-90052354D01*
X140747756Y-90055392D01*
X140792331Y-90089596D01*
X140928680Y-90146074D01*
X141038420Y-90160521D01*
X141074999Y-90165337D01*
X141075000Y-90165337D01*
X141075001Y-90165337D01*
X141104264Y-90161484D01*
X141221320Y-90146074D01*
X141357669Y-90089596D01*
X141474754Y-89999754D01*
X141564596Y-89882669D01*
X141621074Y-89746320D01*
X141640337Y-89600000D01*
X141634672Y-89556966D01*
X148184750Y-89556966D01*
X148198366Y-89660398D01*
X148204013Y-89703286D01*
X148260491Y-89839635D01*
X148350333Y-89956720D01*
X148467418Y-90046562D01*
X148603767Y-90103040D01*
X148694850Y-90115031D01*
X148750086Y-90122303D01*
X148750087Y-90122303D01*
X148750088Y-90122303D01*
X148805324Y-90115031D01*
X148896407Y-90103040D01*
X149032756Y-90046562D01*
X149062720Y-90023569D01*
X149120394Y-90003145D01*
X149179060Y-90020522D01*
X149216308Y-90069063D01*
X149221140Y-90115031D01*
X149219565Y-90126996D01*
X149219565Y-90127000D01*
X149222560Y-90149754D01*
X149238828Y-90273320D01*
X149295306Y-90409669D01*
X149385148Y-90526754D01*
X149502233Y-90616596D01*
X149638582Y-90673074D01*
X149657702Y-90675591D01*
X149712927Y-90701932D01*
X149742122Y-90755702D01*
X149742933Y-90760822D01*
X149751434Y-90825391D01*
X149753926Y-90844320D01*
X149810404Y-90980669D01*
X149900246Y-91097754D01*
X150017331Y-91187596D01*
X150153680Y-91244074D01*
X150263420Y-91258521D01*
X150299999Y-91263337D01*
X150300000Y-91263337D01*
X150300001Y-91263337D01*
X150329264Y-91259484D01*
X150446320Y-91244074D01*
X150582669Y-91187596D01*
X150699754Y-91097754D01*
X150789596Y-90980669D01*
X150846074Y-90844320D01*
X150865337Y-90698000D01*
X150862055Y-90673074D01*
X150846074Y-90551683D01*
X150846074Y-90551680D01*
X150789596Y-90415332D01*
X150788263Y-90413595D01*
X150787739Y-90412116D01*
X150786354Y-90409717D01*
X150786798Y-90409460D01*
X150767836Y-90355922D01*
X150785210Y-90297256D01*
X150828917Y-90261861D01*
X150836008Y-90258923D01*
X150882669Y-90239596D01*
X150999754Y-90149754D01*
X151089596Y-90032669D01*
X151146074Y-89896320D01*
X151165337Y-89750000D01*
X151146074Y-89603680D01*
X151089596Y-89467332D01*
X150999754Y-89350246D01*
X150999749Y-89350242D01*
X150999748Y-89350241D01*
X150900776Y-89274298D01*
X150882669Y-89260404D01*
X150746320Y-89203926D01*
X150746317Y-89203925D01*
X150746316Y-89203925D01*
X150600001Y-89184663D01*
X150599999Y-89184663D01*
X150453683Y-89203925D01*
X150453678Y-89203927D01*
X150317333Y-89260403D01*
X150200250Y-89350242D01*
X150200242Y-89350250D01*
X150110404Y-89467332D01*
X150081886Y-89536178D01*
X150042148Y-89582703D01*
X149982653Y-89596986D01*
X149952538Y-89589755D01*
X149941755Y-89585289D01*
X149931223Y-89580926D01*
X149931218Y-89580925D01*
X149784903Y-89561663D01*
X149784901Y-89561663D01*
X149638585Y-89580925D01*
X149638580Y-89580927D01*
X149502235Y-89637403D01*
X149472266Y-89660398D01*
X149414589Y-89680820D01*
X149355924Y-89663441D01*
X149318678Y-89614898D01*
X149313848Y-89568933D01*
X149315424Y-89556966D01*
X149296161Y-89410646D01*
X149239683Y-89274298D01*
X149149841Y-89157212D01*
X149149836Y-89157208D01*
X149149835Y-89157207D01*
X149088838Y-89110403D01*
X149032756Y-89067370D01*
X148896407Y-89010892D01*
X148896404Y-89010891D01*
X148896403Y-89010891D01*
X148750088Y-88991629D01*
X148750086Y-88991629D01*
X148603770Y-89010891D01*
X148603765Y-89010893D01*
X148467420Y-89067369D01*
X148350337Y-89157208D01*
X148350329Y-89157216D01*
X148260490Y-89274299D01*
X148204014Y-89410644D01*
X148204012Y-89410649D01*
X148184750Y-89556965D01*
X148184750Y-89556966D01*
X141634672Y-89556966D01*
X141621074Y-89453680D01*
X141564596Y-89317332D01*
X141474754Y-89200246D01*
X141474749Y-89200242D01*
X141474748Y-89200241D01*
X141418664Y-89157207D01*
X141357669Y-89110404D01*
X141221320Y-89053926D01*
X141221317Y-89053925D01*
X141221316Y-89053925D01*
X141075001Y-89034663D01*
X141074999Y-89034663D01*
X140928683Y-89053925D01*
X140928678Y-89053927D01*
X140792333Y-89110403D01*
X140747766Y-89144600D01*
X140690090Y-89165023D01*
X140631425Y-89147645D01*
X140627233Y-89144599D01*
X140582669Y-89110404D01*
X140446320Y-89053926D01*
X140446317Y-89053925D01*
X140446316Y-89053925D01*
X140300001Y-89034663D01*
X140299999Y-89034663D01*
X140153683Y-89053925D01*
X140153678Y-89053927D01*
X140017333Y-89110403D01*
X139900250Y-89200242D01*
X139900242Y-89200250D01*
X139810403Y-89317333D01*
X139753927Y-89453678D01*
X139753925Y-89453683D01*
X139734663Y-89599999D01*
X139734663Y-89600000D01*
X122000500Y-89600000D01*
X122000500Y-86900000D01*
X138509663Y-86900000D01*
X138528926Y-87046320D01*
X138585404Y-87182669D01*
X138637010Y-87249924D01*
X138662134Y-87282667D01*
X138675246Y-87299754D01*
X138792331Y-87389596D01*
X138928680Y-87446074D01*
X139038420Y-87460521D01*
X139074999Y-87465337D01*
X139075000Y-87465337D01*
X139075001Y-87465337D01*
X139104264Y-87461484D01*
X139221320Y-87446074D01*
X139357669Y-87389596D01*
X139474754Y-87299754D01*
X139564596Y-87182669D01*
X139621074Y-87046320D01*
X139627172Y-87000000D01*
X149384663Y-87000000D01*
X149403926Y-87146320D01*
X149460404Y-87282669D01*
X149473514Y-87299754D01*
X149542451Y-87389596D01*
X149550246Y-87399754D01*
X149667331Y-87489596D01*
X149803680Y-87546074D01*
X149913420Y-87560521D01*
X149949999Y-87565337D01*
X149950000Y-87565337D01*
X149950001Y-87565337D01*
X149979264Y-87561484D01*
X150096320Y-87546074D01*
X150232669Y-87489596D01*
X150349754Y-87399754D01*
X150439596Y-87282669D01*
X150496074Y-87146320D01*
X150515337Y-87000000D01*
X150496074Y-86853680D01*
X150439596Y-86717332D01*
X150349754Y-86600246D01*
X150349749Y-86600242D01*
X150349748Y-86600241D01*
X150299924Y-86562010D01*
X150232669Y-86510404D01*
X150096320Y-86453926D01*
X150096317Y-86453925D01*
X150096316Y-86453925D01*
X149950001Y-86434663D01*
X149949999Y-86434663D01*
X149803683Y-86453925D01*
X149803678Y-86453927D01*
X149667333Y-86510403D01*
X149550250Y-86600242D01*
X149550242Y-86600250D01*
X149460403Y-86717333D01*
X149403927Y-86853678D01*
X149403925Y-86853683D01*
X149384663Y-86999999D01*
X149384663Y-87000000D01*
X139627172Y-87000000D01*
X139640337Y-86900000D01*
X139621074Y-86753680D01*
X139564596Y-86617332D01*
X139474754Y-86500246D01*
X139474749Y-86500242D01*
X139474748Y-86500241D01*
X139424924Y-86462010D01*
X139357669Y-86410404D01*
X139221320Y-86353926D01*
X139221317Y-86353925D01*
X139221316Y-86353925D01*
X139191502Y-86350000D01*
X147934663Y-86350000D01*
X147948344Y-86453925D01*
X147953926Y-86496320D01*
X147959760Y-86510404D01*
X148004051Y-86617333D01*
X148010404Y-86632669D01*
X148062010Y-86699924D01*
X148075368Y-86717333D01*
X148100246Y-86749754D01*
X148217331Y-86839596D01*
X148353680Y-86896074D01*
X148463420Y-86910521D01*
X148499999Y-86915337D01*
X148500000Y-86915337D01*
X148500001Y-86915337D01*
X148529264Y-86911484D01*
X148646320Y-86896074D01*
X148782669Y-86839596D01*
X148899754Y-86749754D01*
X148989596Y-86632669D01*
X149046074Y-86496320D01*
X149065337Y-86350000D01*
X149046074Y-86203680D01*
X148989596Y-86067332D01*
X148899754Y-85950246D01*
X148899749Y-85950242D01*
X148899748Y-85950241D01*
X148834270Y-85899999D01*
X148782669Y-85860404D01*
X148646320Y-85803926D01*
X148646317Y-85803925D01*
X148646316Y-85803925D01*
X148500001Y-85784663D01*
X148499999Y-85784663D01*
X148353683Y-85803925D01*
X148353678Y-85803927D01*
X148217333Y-85860403D01*
X148100250Y-85950242D01*
X148100242Y-85950250D01*
X148010403Y-86067333D01*
X147953927Y-86203678D01*
X147953925Y-86203683D01*
X147934663Y-86349999D01*
X147934663Y-86350000D01*
X139191502Y-86350000D01*
X139075001Y-86334663D01*
X139074999Y-86334663D01*
X138928683Y-86353925D01*
X138928678Y-86353927D01*
X138792333Y-86410403D01*
X138675250Y-86500242D01*
X138675242Y-86500250D01*
X138585403Y-86617333D01*
X138528927Y-86753678D01*
X138528925Y-86753683D01*
X138510180Y-86896072D01*
X138509663Y-86900000D01*
X122000500Y-86900000D01*
X122000500Y-85775000D01*
X156434663Y-85775000D01*
X156453926Y-85921320D01*
X156510404Y-86057669D01*
X156600246Y-86174754D01*
X156717331Y-86264596D01*
X156853680Y-86321074D01*
X156956901Y-86334663D01*
X156999999Y-86340337D01*
X157000000Y-86340337D01*
X157000001Y-86340337D01*
X157043099Y-86334663D01*
X157146320Y-86321074D01*
X157282669Y-86264596D01*
X157399754Y-86174754D01*
X157489596Y-86057669D01*
X157546074Y-85921320D01*
X157548881Y-85900000D01*
X158184663Y-85900000D01*
X158203926Y-86046320D01*
X158260404Y-86182669D01*
X158350246Y-86299754D01*
X158467331Y-86389596D01*
X158603680Y-86446074D01*
X158713420Y-86460521D01*
X158749999Y-86465337D01*
X158750000Y-86465337D01*
X158750001Y-86465337D01*
X158779264Y-86461484D01*
X158896320Y-86446074D01*
X159032669Y-86389596D01*
X159149754Y-86299754D01*
X159239596Y-86182669D01*
X159296074Y-86046320D01*
X159315337Y-85900000D01*
X159296074Y-85753680D01*
X159239596Y-85617332D01*
X159149754Y-85500246D01*
X159149749Y-85500242D01*
X159149748Y-85500241D01*
X159073103Y-85441430D01*
X159032669Y-85410404D01*
X158896320Y-85353926D01*
X158896317Y-85353925D01*
X158896316Y-85353925D01*
X158750001Y-85334663D01*
X158749999Y-85334663D01*
X158603683Y-85353925D01*
X158603678Y-85353927D01*
X158467333Y-85410403D01*
X158350250Y-85500242D01*
X158350242Y-85500250D01*
X158260403Y-85617333D01*
X158255704Y-85628678D01*
X158207078Y-85746072D01*
X158203927Y-85753678D01*
X158203925Y-85753683D01*
X158202391Y-85765337D01*
X158184663Y-85900000D01*
X157548881Y-85900000D01*
X157565337Y-85775000D01*
X157546074Y-85628680D01*
X157489596Y-85492332D01*
X157399754Y-85375246D01*
X157399749Y-85375242D01*
X157399748Y-85375241D01*
X157337557Y-85327521D01*
X157282669Y-85285404D01*
X157146320Y-85228926D01*
X157146317Y-85228925D01*
X157146316Y-85228925D01*
X157000001Y-85209663D01*
X156999999Y-85209663D01*
X156853683Y-85228925D01*
X156853678Y-85228927D01*
X156717333Y-85285403D01*
X156600250Y-85375242D01*
X156600242Y-85375250D01*
X156510403Y-85492333D01*
X156453927Y-85628678D01*
X156453925Y-85628683D01*
X156445906Y-85689596D01*
X156434663Y-85775000D01*
X122000500Y-85775000D01*
X122000500Y-84600001D01*
X122784282Y-84600001D01*
X122805078Y-84771281D01*
X122805079Y-84771283D01*
X122855291Y-84903680D01*
X122866263Y-84932611D01*
X122964275Y-85074607D01*
X122964276Y-85074608D01*
X122964277Y-85074609D01*
X123093426Y-85189024D01*
X123246203Y-85269208D01*
X123413730Y-85310500D01*
X123413733Y-85310500D01*
X123586267Y-85310500D01*
X123586270Y-85310500D01*
X123753797Y-85269208D01*
X123885661Y-85200000D01*
X142184663Y-85200000D01*
X142202128Y-85332669D01*
X142203926Y-85346320D01*
X142260404Y-85482669D01*
X142282868Y-85511945D01*
X142347420Y-85596072D01*
X142350246Y-85599754D01*
X142467331Y-85689596D01*
X142603680Y-85746074D01*
X142713420Y-85760521D01*
X142749999Y-85765337D01*
X142750000Y-85765337D01*
X142750001Y-85765337D01*
X142779264Y-85761484D01*
X142896320Y-85746074D01*
X143032669Y-85689596D01*
X143149754Y-85599754D01*
X143239596Y-85482669D01*
X143256678Y-85441428D01*
X143296413Y-85394903D01*
X143355908Y-85380619D01*
X143412436Y-85404033D01*
X143426678Y-85419040D01*
X143450246Y-85449754D01*
X143567331Y-85539596D01*
X143703680Y-85596074D01*
X143813420Y-85610521D01*
X143849999Y-85615337D01*
X143850000Y-85615337D01*
X143850001Y-85615337D01*
X143879264Y-85611484D01*
X143996320Y-85596074D01*
X144132669Y-85539596D01*
X144164734Y-85514990D01*
X144222408Y-85494568D01*
X144281074Y-85511945D01*
X144285238Y-85514970D01*
X144317331Y-85539596D01*
X144453680Y-85596074D01*
X144563420Y-85610521D01*
X144599999Y-85615337D01*
X144600000Y-85615337D01*
X144600001Y-85615337D01*
X144629264Y-85611484D01*
X144746320Y-85596074D01*
X144882669Y-85539596D01*
X144999754Y-85449754D01*
X145089596Y-85332669D01*
X145089597Y-85332667D01*
X145093546Y-85327521D01*
X145094665Y-85328380D01*
X145134731Y-85292304D01*
X145195581Y-85285907D01*
X145248570Y-85316498D01*
X145258797Y-85330575D01*
X145343858Y-85441430D01*
X145350246Y-85449754D01*
X145467331Y-85539596D01*
X145603680Y-85596074D01*
X145713420Y-85610521D01*
X145749999Y-85615337D01*
X145750000Y-85615337D01*
X145750001Y-85615337D01*
X145779264Y-85611484D01*
X145896320Y-85596074D01*
X146032669Y-85539596D01*
X146149754Y-85449754D01*
X146239596Y-85332669D01*
X146296074Y-85196320D01*
X146304519Y-85132168D01*
X146330857Y-85076945D01*
X146384628Y-85047749D01*
X146389713Y-85046943D01*
X146396320Y-85046074D01*
X146532669Y-84989596D01*
X146649754Y-84899754D01*
X146739596Y-84782669D01*
X146796074Y-84646320D01*
X146815337Y-84500000D01*
X146796074Y-84353680D01*
X146739596Y-84217332D01*
X146649754Y-84100246D01*
X146556303Y-84028539D01*
X146521650Y-83978118D01*
X146523251Y-83916954D01*
X146556303Y-83871461D01*
X146649433Y-83800000D01*
X148734663Y-83800000D01*
X148753893Y-83946074D01*
X148753926Y-83946320D01*
X148810404Y-84082669D01*
X148900246Y-84199754D01*
X148900250Y-84199757D01*
X148900251Y-84199758D01*
X148900568Y-84200001D01*
X149017331Y-84289596D01*
X149153680Y-84346074D01*
X149263420Y-84360521D01*
X149299999Y-84365337D01*
X149300000Y-84365337D01*
X149300001Y-84365337D01*
X149329264Y-84361484D01*
X149446320Y-84346074D01*
X149582669Y-84289596D01*
X149699754Y-84199754D01*
X149789596Y-84082669D01*
X149846074Y-83946320D01*
X149865337Y-83800000D01*
X152834663Y-83800000D01*
X152853893Y-83946074D01*
X152853926Y-83946320D01*
X152910404Y-84082669D01*
X153000246Y-84199754D01*
X153000250Y-84199757D01*
X153000251Y-84199758D01*
X153000568Y-84200001D01*
X153117331Y-84289596D01*
X153253680Y-84346074D01*
X153363420Y-84360521D01*
X153399999Y-84365337D01*
X153400000Y-84365337D01*
X153400001Y-84365337D01*
X153429264Y-84361484D01*
X153546320Y-84346074D01*
X153682669Y-84289596D01*
X153799433Y-84200000D01*
X159034663Y-84200000D01*
X159053893Y-84346074D01*
X159053926Y-84346320D01*
X159110404Y-84482669D01*
X159126715Y-84503926D01*
X159191266Y-84588052D01*
X159200246Y-84599754D01*
X159200250Y-84599757D01*
X159200251Y-84599758D01*
X159200568Y-84600001D01*
X159317331Y-84689596D01*
X159453680Y-84746074D01*
X159563420Y-84760521D01*
X159599999Y-84765337D01*
X159600000Y-84765337D01*
X159600001Y-84765337D01*
X159629264Y-84761484D01*
X159746320Y-84746074D01*
X159882669Y-84689596D01*
X159999754Y-84599754D01*
X160089596Y-84482669D01*
X160146074Y-84346320D01*
X160165337Y-84200001D01*
X161584282Y-84200001D01*
X161605078Y-84371281D01*
X161605079Y-84371283D01*
X161648079Y-84484663D01*
X161666263Y-84532611D01*
X161764275Y-84674607D01*
X161764276Y-84674608D01*
X161764277Y-84674609D01*
X161893426Y-84789024D01*
X162046203Y-84869208D01*
X162213730Y-84910500D01*
X162213733Y-84910500D01*
X162386267Y-84910500D01*
X162386270Y-84910500D01*
X162553797Y-84869208D01*
X162706574Y-84789024D01*
X162835723Y-84674609D01*
X162933737Y-84532611D01*
X162994921Y-84371283D01*
X163012231Y-84228717D01*
X163015718Y-84200001D01*
X163015718Y-84199998D01*
X163001472Y-84082667D01*
X162994921Y-84028717D01*
X162933737Y-83867389D01*
X162839451Y-83730792D01*
X162835724Y-83725392D01*
X162706575Y-83610977D01*
X162706574Y-83610976D01*
X162553797Y-83530792D01*
X162553796Y-83530791D01*
X162553795Y-83530791D01*
X162386272Y-83489500D01*
X162386270Y-83489500D01*
X162213730Y-83489500D01*
X162213727Y-83489500D01*
X162046204Y-83530791D01*
X161893424Y-83610977D01*
X161764275Y-83725392D01*
X161666263Y-83867388D01*
X161605079Y-84028717D01*
X161605078Y-84028718D01*
X161584282Y-84199998D01*
X161584282Y-84200001D01*
X160165337Y-84200001D01*
X160165337Y-84200000D01*
X160146074Y-84053680D01*
X160089596Y-83917332D01*
X159999754Y-83800246D01*
X159999749Y-83800242D01*
X159999748Y-83800241D01*
X159909238Y-83730791D01*
X159882669Y-83710404D01*
X159746320Y-83653926D01*
X159746317Y-83653925D01*
X159746316Y-83653925D01*
X159600001Y-83634663D01*
X159599999Y-83634663D01*
X159453683Y-83653925D01*
X159453678Y-83653927D01*
X159317333Y-83710403D01*
X159200250Y-83800242D01*
X159200242Y-83800250D01*
X159110403Y-83917333D01*
X159053927Y-84053678D01*
X159053925Y-84053683D01*
X159034663Y-84199999D01*
X159034663Y-84200000D01*
X153799433Y-84200000D01*
X153799754Y-84199754D01*
X153889596Y-84082669D01*
X153946074Y-83946320D01*
X153965337Y-83800000D01*
X153965304Y-83799753D01*
X153953542Y-83710404D01*
X153946074Y-83653680D01*
X153889596Y-83517332D01*
X153799754Y-83400246D01*
X153799749Y-83400242D01*
X153799748Y-83400241D01*
X153749924Y-83362010D01*
X153682669Y-83310404D01*
X153546320Y-83253926D01*
X153546317Y-83253925D01*
X153546316Y-83253925D01*
X153400001Y-83234663D01*
X153399999Y-83234663D01*
X153253683Y-83253925D01*
X153253678Y-83253927D01*
X153117333Y-83310403D01*
X153000250Y-83400242D01*
X153000242Y-83400250D01*
X152910403Y-83517333D01*
X152853927Y-83653678D01*
X152853925Y-83653683D01*
X152834663Y-83799999D01*
X152834663Y-83800000D01*
X149865337Y-83800000D01*
X149865304Y-83799753D01*
X149853542Y-83710404D01*
X149846074Y-83653680D01*
X149789596Y-83517332D01*
X149699754Y-83400246D01*
X149699749Y-83400242D01*
X149699748Y-83400241D01*
X149649924Y-83362010D01*
X149582669Y-83310404D01*
X149446320Y-83253926D01*
X149446317Y-83253925D01*
X149446316Y-83253925D01*
X149300001Y-83234663D01*
X149299999Y-83234663D01*
X149153683Y-83253925D01*
X149153678Y-83253927D01*
X149017333Y-83310403D01*
X148900250Y-83400242D01*
X148900242Y-83400250D01*
X148810403Y-83517333D01*
X148753927Y-83653678D01*
X148753925Y-83653683D01*
X148734663Y-83799999D01*
X148734663Y-83800000D01*
X146649433Y-83800000D01*
X146649754Y-83799754D01*
X146739596Y-83682669D01*
X146796074Y-83546320D01*
X146815337Y-83400000D01*
X146796074Y-83253680D01*
X146739596Y-83117332D01*
X146649754Y-83000246D01*
X146649749Y-83000242D01*
X146649748Y-83000241D01*
X146599924Y-82962010D01*
X146532669Y-82910404D01*
X146396320Y-82853926D01*
X146396317Y-82853925D01*
X146396316Y-82853925D01*
X146250001Y-82834663D01*
X146249999Y-82834663D01*
X146103683Y-82853925D01*
X146103678Y-82853927D01*
X145967333Y-82910403D01*
X145850250Y-83000242D01*
X145850242Y-83000250D01*
X145760403Y-83117333D01*
X145703925Y-83253680D01*
X145695480Y-83317830D01*
X145669139Y-83373055D01*
X145615368Y-83402249D01*
X145610257Y-83403059D01*
X145603683Y-83403925D01*
X145603682Y-83403925D01*
X145467333Y-83460403D01*
X145350250Y-83550242D01*
X145350242Y-83550250D01*
X145260403Y-83667333D01*
X145216720Y-83772791D01*
X145205349Y-83800246D01*
X145203927Y-83803678D01*
X145203925Y-83803683D01*
X145184663Y-83949999D01*
X145184663Y-83950000D01*
X145202128Y-84082669D01*
X145203926Y-84096320D01*
X145246768Y-84199748D01*
X145254051Y-84217333D01*
X145260404Y-84232669D01*
X145304085Y-84289596D01*
X145347611Y-84346321D01*
X145350246Y-84349754D01*
X145350250Y-84349757D01*
X145350251Y-84349758D01*
X145443693Y-84421458D01*
X145478349Y-84471882D01*
X145476748Y-84533047D01*
X145443693Y-84578542D01*
X145350251Y-84650241D01*
X145350242Y-84650250D01*
X145256454Y-84772480D01*
X145255334Y-84771621D01*
X145215261Y-84807700D01*
X145154411Y-84814091D01*
X145101424Y-84783495D01*
X145091211Y-84769437D01*
X145018446Y-84674607D01*
X144999754Y-84650246D01*
X144999749Y-84650242D01*
X144999748Y-84650241D01*
X144933943Y-84599748D01*
X144882669Y-84560404D01*
X144746320Y-84503926D01*
X144746317Y-84503925D01*
X144746316Y-84503925D01*
X144600001Y-84484663D01*
X144599999Y-84484663D01*
X144453683Y-84503925D01*
X144453678Y-84503927D01*
X144317330Y-84560404D01*
X144285265Y-84585008D01*
X144227588Y-84605431D01*
X144168923Y-84588052D01*
X144164745Y-84585017D01*
X144132669Y-84560404D01*
X143996320Y-84503926D01*
X143996317Y-84503925D01*
X143996316Y-84503925D01*
X143850001Y-84484663D01*
X143849999Y-84484663D01*
X143703683Y-84503925D01*
X143703678Y-84503927D01*
X143567333Y-84560403D01*
X143450250Y-84650242D01*
X143450242Y-84650250D01*
X143360402Y-84767333D01*
X143360401Y-84767336D01*
X143343320Y-84808572D01*
X143303583Y-84855097D01*
X143244088Y-84869380D01*
X143187560Y-84845964D01*
X143173314Y-84830951D01*
X143156142Y-84808572D01*
X143149754Y-84800246D01*
X143149749Y-84800242D01*
X143149748Y-84800241D01*
X143079155Y-84746074D01*
X143032669Y-84710404D01*
X142896320Y-84653926D01*
X142896317Y-84653925D01*
X142896316Y-84653925D01*
X142750001Y-84634663D01*
X142749999Y-84634663D01*
X142603683Y-84653925D01*
X142603678Y-84653927D01*
X142467333Y-84710403D01*
X142350250Y-84800242D01*
X142350242Y-84800250D01*
X142260403Y-84917333D01*
X142230708Y-84989024D01*
X142207078Y-85046072D01*
X142203927Y-85053678D01*
X142203925Y-85053683D01*
X142184663Y-85199999D01*
X142184663Y-85200000D01*
X123885661Y-85200000D01*
X123906574Y-85189024D01*
X124035723Y-85074609D01*
X124133737Y-84932611D01*
X124194921Y-84771283D01*
X124215718Y-84600000D01*
X124215687Y-84599748D01*
X124194921Y-84428718D01*
X124194921Y-84428717D01*
X124184030Y-84400001D01*
X130984282Y-84400001D01*
X131005078Y-84571281D01*
X131005079Y-84571283D01*
X131057841Y-84710403D01*
X131066263Y-84732611D01*
X131164275Y-84874607D01*
X131164276Y-84874608D01*
X131164277Y-84874609D01*
X131293426Y-84989024D01*
X131446203Y-85069208D01*
X131613730Y-85110500D01*
X131613733Y-85110500D01*
X131786267Y-85110500D01*
X131786270Y-85110500D01*
X131953797Y-85069208D01*
X132106574Y-84989024D01*
X132235723Y-84874609D01*
X132333737Y-84732611D01*
X132394921Y-84571283D01*
X132415718Y-84400000D01*
X132409616Y-84349748D01*
X132401853Y-84285811D01*
X132394921Y-84228717D01*
X132333737Y-84067389D01*
X132255419Y-83953926D01*
X132235724Y-83925392D01*
X132226200Y-83916954D01*
X132106574Y-83810976D01*
X131953797Y-83730792D01*
X131953796Y-83730791D01*
X131953795Y-83730791D01*
X131786272Y-83689500D01*
X131786270Y-83689500D01*
X131613730Y-83689500D01*
X131613727Y-83689500D01*
X131446204Y-83730791D01*
X131293424Y-83810977D01*
X131164275Y-83925392D01*
X131066263Y-84067388D01*
X131005079Y-84228717D01*
X131005078Y-84228718D01*
X130984282Y-84399998D01*
X130984282Y-84400001D01*
X124184030Y-84400001D01*
X124133737Y-84267389D01*
X124035723Y-84125391D01*
X123906574Y-84010976D01*
X123753797Y-83930792D01*
X123753796Y-83930791D01*
X123753795Y-83930791D01*
X123586272Y-83889500D01*
X123586270Y-83889500D01*
X123413730Y-83889500D01*
X123413727Y-83889500D01*
X123246204Y-83930791D01*
X123093424Y-84010977D01*
X122964275Y-84125392D01*
X122866263Y-84267388D01*
X122805079Y-84428717D01*
X122805078Y-84428718D01*
X122784282Y-84599998D01*
X122784282Y-84600001D01*
X122000500Y-84600001D01*
X122000500Y-82700000D01*
X149534663Y-82700000D01*
X149553926Y-82846320D01*
X149610404Y-82982669D01*
X149700246Y-83099754D01*
X149817331Y-83189596D01*
X149953680Y-83246074D01*
X150063420Y-83260521D01*
X150099999Y-83265337D01*
X150100000Y-83265337D01*
X150100001Y-83265337D01*
X150129264Y-83261484D01*
X150246320Y-83246074D01*
X150382669Y-83189596D01*
X150499754Y-83099754D01*
X150589596Y-82982669D01*
X150646074Y-82846320D01*
X150665337Y-82700000D01*
X151734663Y-82700000D01*
X151753926Y-82846320D01*
X151810404Y-82982669D01*
X151900246Y-83099754D01*
X152017331Y-83189596D01*
X152153680Y-83246074D01*
X152263420Y-83260521D01*
X152299999Y-83265337D01*
X152300000Y-83265337D01*
X152300001Y-83265337D01*
X152329264Y-83261484D01*
X152446320Y-83246074D01*
X152582669Y-83189596D01*
X152699754Y-83099754D01*
X152789596Y-82982669D01*
X152846074Y-82846320D01*
X152865337Y-82700000D01*
X152846074Y-82553680D01*
X152789596Y-82417332D01*
X152699754Y-82300246D01*
X152699749Y-82300242D01*
X152699748Y-82300241D01*
X152649924Y-82262010D01*
X152582669Y-82210404D01*
X152446320Y-82153926D01*
X152446317Y-82153925D01*
X152446316Y-82153925D01*
X152300001Y-82134663D01*
X152299999Y-82134663D01*
X152153683Y-82153925D01*
X152153678Y-82153927D01*
X152017333Y-82210403D01*
X151900250Y-82300242D01*
X151900242Y-82300250D01*
X151810403Y-82417333D01*
X151753927Y-82553678D01*
X151753925Y-82553683D01*
X151734663Y-82699999D01*
X151734663Y-82700000D01*
X150665337Y-82700000D01*
X150646074Y-82553680D01*
X150589596Y-82417332D01*
X150499754Y-82300246D01*
X150499749Y-82300242D01*
X150499748Y-82300241D01*
X150449924Y-82262010D01*
X150382669Y-82210404D01*
X150246320Y-82153926D01*
X150246317Y-82153925D01*
X150246316Y-82153925D01*
X150100001Y-82134663D01*
X150099999Y-82134663D01*
X149953683Y-82153925D01*
X149953678Y-82153927D01*
X149817333Y-82210403D01*
X149700250Y-82300242D01*
X149700242Y-82300250D01*
X149610403Y-82417333D01*
X149553927Y-82553678D01*
X149553925Y-82553683D01*
X149534663Y-82699999D01*
X149534663Y-82700000D01*
X122000500Y-82700000D01*
X122000500Y-81750001D01*
X161259649Y-81750001D01*
X161278982Y-81909226D01*
X161278982Y-81909227D01*
X161278983Y-81909229D01*
X161335861Y-82059204D01*
X161426978Y-82191209D01*
X161426979Y-82191210D01*
X161426980Y-82191211D01*
X161487008Y-82244391D01*
X161547038Y-82297573D01*
X161689063Y-82372114D01*
X161844801Y-82410500D01*
X161844804Y-82410500D01*
X162005196Y-82410500D01*
X162005199Y-82410500D01*
X162160937Y-82372114D01*
X162302962Y-82297573D01*
X162423022Y-82191209D01*
X162514139Y-82059204D01*
X162571017Y-81909229D01*
X162590351Y-81750000D01*
X162571017Y-81590771D01*
X162514139Y-81440796D01*
X162423022Y-81308791D01*
X162423020Y-81308789D01*
X162421260Y-81306239D01*
X162403764Y-81247608D01*
X162421260Y-81193761D01*
X162423022Y-81191209D01*
X162514139Y-81059204D01*
X162571017Y-80909229D01*
X162590351Y-80750000D01*
X162582175Y-80682669D01*
X162571017Y-80590773D01*
X162571017Y-80590771D01*
X162514139Y-80440796D01*
X162423022Y-80308791D01*
X162356938Y-80250246D01*
X162302963Y-80202428D01*
X162302962Y-80202427D01*
X162160937Y-80127886D01*
X162160936Y-80127885D01*
X162160935Y-80127885D01*
X162005201Y-80089500D01*
X162005199Y-80089500D01*
X161844801Y-80089500D01*
X161844798Y-80089500D01*
X161689064Y-80127885D01*
X161547036Y-80202428D01*
X161426980Y-80308788D01*
X161335861Y-80440795D01*
X161278983Y-80590771D01*
X161278982Y-80590773D01*
X161259649Y-80749998D01*
X161259649Y-80750001D01*
X161278982Y-80909226D01*
X161278982Y-80909227D01*
X161278983Y-80909229D01*
X161294350Y-80949748D01*
X161335861Y-81059204D01*
X161428739Y-81193762D01*
X161446234Y-81252393D01*
X161428739Y-81306238D01*
X161335861Y-81440795D01*
X161278983Y-81590771D01*
X161278982Y-81590773D01*
X161259649Y-81749998D01*
X161259649Y-81750001D01*
X122000500Y-81750001D01*
X122000500Y-80400000D01*
X149534663Y-80400000D01*
X149548811Y-80507472D01*
X149553926Y-80546320D01*
X149610404Y-80682669D01*
X149662010Y-80749924D01*
X149697611Y-80796321D01*
X149700246Y-80799754D01*
X149817331Y-80889596D01*
X149953680Y-80946074D01*
X150063420Y-80960521D01*
X150099999Y-80965337D01*
X150100000Y-80965337D01*
X150100001Y-80965337D01*
X150129264Y-80961484D01*
X150246320Y-80946074D01*
X150382669Y-80889596D01*
X150499754Y-80799754D01*
X150589596Y-80682669D01*
X150646074Y-80546320D01*
X150665337Y-80400000D01*
X151734663Y-80400000D01*
X151748811Y-80507472D01*
X151753926Y-80546320D01*
X151810404Y-80682669D01*
X151862010Y-80749924D01*
X151897611Y-80796321D01*
X151900246Y-80799754D01*
X152017331Y-80889596D01*
X152153680Y-80946074D01*
X152263420Y-80960521D01*
X152299999Y-80965337D01*
X152300000Y-80965337D01*
X152300001Y-80965337D01*
X152329264Y-80961484D01*
X152446320Y-80946074D01*
X152582669Y-80889596D01*
X152699754Y-80799754D01*
X152789596Y-80682669D01*
X152846074Y-80546320D01*
X152865337Y-80400000D01*
X152846074Y-80253680D01*
X152789596Y-80117332D01*
X152699754Y-80000246D01*
X152699749Y-80000242D01*
X152699748Y-80000241D01*
X152634272Y-79950000D01*
X152582669Y-79910404D01*
X152446320Y-79853926D01*
X152446317Y-79853925D01*
X152446316Y-79853925D01*
X152300001Y-79834663D01*
X152299999Y-79834663D01*
X152153683Y-79853925D01*
X152153678Y-79853927D01*
X152017333Y-79910403D01*
X151900250Y-80000242D01*
X151900242Y-80000250D01*
X151810403Y-80117333D01*
X151766720Y-80222791D01*
X151755349Y-80250246D01*
X151753927Y-80253678D01*
X151753925Y-80253683D01*
X151734663Y-80399999D01*
X151734663Y-80400000D01*
X150665337Y-80400000D01*
X150646074Y-80253680D01*
X150589596Y-80117332D01*
X150499754Y-80000246D01*
X150499749Y-80000242D01*
X150499748Y-80000241D01*
X150434272Y-79950000D01*
X150382669Y-79910404D01*
X150246320Y-79853926D01*
X150246317Y-79853925D01*
X150246316Y-79853925D01*
X150100001Y-79834663D01*
X150099999Y-79834663D01*
X149953683Y-79853925D01*
X149953678Y-79853927D01*
X149817333Y-79910403D01*
X149700250Y-80000242D01*
X149700242Y-80000250D01*
X149610403Y-80117333D01*
X149566720Y-80222791D01*
X149555349Y-80250246D01*
X149553927Y-80253678D01*
X149553925Y-80253683D01*
X149534663Y-80399999D01*
X149534663Y-80400000D01*
X122000500Y-80400000D01*
X122000500Y-79825000D01*
X148309663Y-79825000D01*
X148319019Y-79896072D01*
X148328926Y-79971320D01*
X148341239Y-80001046D01*
X148383853Y-80103926D01*
X148385404Y-80107669D01*
X148475246Y-80224754D01*
X148592331Y-80314596D01*
X148728680Y-80371074D01*
X148838420Y-80385521D01*
X148874999Y-80390337D01*
X148875000Y-80390337D01*
X148875001Y-80390337D01*
X148904264Y-80386484D01*
X149021320Y-80371074D01*
X149157669Y-80314596D01*
X149274754Y-80224754D01*
X149364596Y-80107669D01*
X149421074Y-79971320D01*
X149440337Y-79825000D01*
X149421074Y-79678680D01*
X149364596Y-79542332D01*
X149274754Y-79425246D01*
X149274749Y-79425242D01*
X149274748Y-79425241D01*
X149201723Y-79369208D01*
X149157669Y-79335404D01*
X149072197Y-79300000D01*
X152834663Y-79300000D01*
X152851151Y-79425246D01*
X152853926Y-79446320D01*
X152910404Y-79582669D01*
X152913445Y-79586632D01*
X152975368Y-79667333D01*
X153000246Y-79699754D01*
X153117331Y-79789596D01*
X153253680Y-79846074D01*
X153363420Y-79860521D01*
X153399999Y-79865337D01*
X153400000Y-79865337D01*
X153400001Y-79865337D01*
X153429264Y-79861484D01*
X153546320Y-79846074D01*
X153682669Y-79789596D01*
X153799754Y-79699754D01*
X153889596Y-79582669D01*
X153946074Y-79446320D01*
X153965337Y-79300000D01*
X153962562Y-79278925D01*
X153948829Y-79174607D01*
X153946074Y-79153680D01*
X153889596Y-79017332D01*
X153799754Y-78900246D01*
X153799749Y-78900242D01*
X153799748Y-78900241D01*
X153729476Y-78846320D01*
X153682669Y-78810404D01*
X153667027Y-78803925D01*
X153639510Y-78792527D01*
X153546320Y-78753926D01*
X153546317Y-78753925D01*
X153546316Y-78753925D01*
X153516502Y-78750000D01*
X155184663Y-78750000D01*
X155200629Y-78871283D01*
X155203926Y-78896320D01*
X155243490Y-78991835D01*
X155254051Y-79017333D01*
X155260404Y-79032669D01*
X155350246Y-79149754D01*
X155467331Y-79239596D01*
X155603680Y-79296074D01*
X155603690Y-79296075D01*
X155609948Y-79297753D01*
X155609625Y-79298956D01*
X155658766Y-79322388D01*
X155687968Y-79376155D01*
X155688781Y-79381286D01*
X155703925Y-79496317D01*
X155703925Y-79496318D01*
X155703926Y-79496320D01*
X155760404Y-79632669D01*
X155850246Y-79749754D01*
X155967331Y-79839596D01*
X156103680Y-79896074D01*
X156103690Y-79896075D01*
X156109948Y-79897753D01*
X156109625Y-79898956D01*
X156158766Y-79922388D01*
X156187968Y-79976155D01*
X156188781Y-79981286D01*
X156203925Y-80096317D01*
X156203925Y-80096318D01*
X156203926Y-80096320D01*
X156260404Y-80232669D01*
X156350246Y-80349754D01*
X156467331Y-80439596D01*
X156603680Y-80496074D01*
X156603690Y-80496075D01*
X156609948Y-80497753D01*
X156609625Y-80498956D01*
X156658766Y-80522388D01*
X156687968Y-80576155D01*
X156688781Y-80581286D01*
X156703925Y-80696317D01*
X156703925Y-80696318D01*
X156703926Y-80696320D01*
X156760404Y-80832669D01*
X156804085Y-80889596D01*
X156847420Y-80946072D01*
X156850246Y-80949754D01*
X156967331Y-81039596D01*
X157103680Y-81096074D01*
X157213420Y-81110521D01*
X157249999Y-81115337D01*
X157250000Y-81115337D01*
X157250001Y-81115337D01*
X157279264Y-81111484D01*
X157396320Y-81096074D01*
X157532669Y-81039596D01*
X157649754Y-80949754D01*
X157739596Y-80832669D01*
X157796074Y-80696320D01*
X157802172Y-80650000D01*
X158534663Y-80650000D01*
X158547827Y-80749998D01*
X158553926Y-80796320D01*
X158597609Y-80901779D01*
X158600693Y-80909226D01*
X158610404Y-80932669D01*
X158623514Y-80949754D01*
X158692451Y-81039596D01*
X158700246Y-81049754D01*
X158700250Y-81049757D01*
X158700251Y-81049758D01*
X158720804Y-81065529D01*
X158817331Y-81139596D01*
X158953680Y-81196074D01*
X159063420Y-81210521D01*
X159099999Y-81215337D01*
X159100000Y-81215337D01*
X159100001Y-81215337D01*
X159129264Y-81211484D01*
X159246320Y-81196074D01*
X159382669Y-81139596D01*
X159499754Y-81049754D01*
X159589596Y-80932669D01*
X159646074Y-80796320D01*
X159665337Y-80650000D01*
X159646074Y-80503680D01*
X159589596Y-80367332D01*
X159499754Y-80250246D01*
X159499749Y-80250242D01*
X159499748Y-80250241D01*
X159437435Y-80202427D01*
X159382669Y-80160404D01*
X159246320Y-80103926D01*
X159246317Y-80103925D01*
X159246316Y-80103925D01*
X159100001Y-80084663D01*
X159099999Y-80084663D01*
X158953683Y-80103925D01*
X158953678Y-80103927D01*
X158817333Y-80160403D01*
X158700250Y-80250242D01*
X158700242Y-80250250D01*
X158610403Y-80367333D01*
X158580471Y-80439596D01*
X158557078Y-80496072D01*
X158553927Y-80503678D01*
X158553925Y-80503683D01*
X158534663Y-80649999D01*
X158534663Y-80650000D01*
X157802172Y-80650000D01*
X157815337Y-80550000D01*
X157796074Y-80403680D01*
X157739596Y-80267332D01*
X157649754Y-80150246D01*
X157649749Y-80150242D01*
X157649748Y-80150241D01*
X157594264Y-80107667D01*
X157532669Y-80060404D01*
X157396320Y-80003926D01*
X157396319Y-80003925D01*
X157396317Y-80003925D01*
X157390051Y-80002246D01*
X157390372Y-80001046D01*
X157341214Y-79977593D01*
X157312026Y-79923818D01*
X157311221Y-79918735D01*
X157296074Y-79803680D01*
X157239596Y-79667332D01*
X157149754Y-79550246D01*
X157149749Y-79550242D01*
X157149748Y-79550241D01*
X157079472Y-79496317D01*
X157032669Y-79460404D01*
X156998667Y-79446320D01*
X156947800Y-79425250D01*
X156896320Y-79403926D01*
X156896319Y-79403925D01*
X156896317Y-79403925D01*
X156890051Y-79402246D01*
X156890372Y-79401046D01*
X156841214Y-79377593D01*
X156812026Y-79323818D01*
X156811221Y-79318735D01*
X156796074Y-79203680D01*
X156739596Y-79067332D01*
X156649754Y-78950246D01*
X156649749Y-78950242D01*
X156649748Y-78950241D01*
X156599924Y-78912010D01*
X156532669Y-78860404D01*
X156498667Y-78846320D01*
X156411959Y-78810404D01*
X156396320Y-78803926D01*
X156396319Y-78803925D01*
X156396317Y-78803925D01*
X156390051Y-78802246D01*
X156390372Y-78801046D01*
X156341214Y-78777593D01*
X156312026Y-78723818D01*
X156311221Y-78718735D01*
X156308755Y-78700000D01*
X157334663Y-78700000D01*
X157349197Y-78810404D01*
X157353926Y-78846320D01*
X157410404Y-78982669D01*
X157448726Y-79032611D01*
X157475368Y-79067333D01*
X157500246Y-79099754D01*
X157617331Y-79189596D01*
X157753680Y-79246074D01*
X157856901Y-79259663D01*
X157899999Y-79265337D01*
X157900000Y-79265337D01*
X157900001Y-79265337D01*
X157943099Y-79259663D01*
X158046320Y-79246074D01*
X158182669Y-79189596D01*
X158299754Y-79099754D01*
X158389596Y-78982669D01*
X158446074Y-78846320D01*
X158452364Y-78798543D01*
X168399500Y-78798543D01*
X168409003Y-78846316D01*
X168436125Y-78982667D01*
X168437949Y-78991834D01*
X168437949Y-78991836D01*
X168513367Y-79173913D01*
X168513368Y-79173914D01*
X168622861Y-79337782D01*
X168762218Y-79477139D01*
X168926086Y-79586632D01*
X169108165Y-79662051D01*
X169301459Y-79700500D01*
X169301460Y-79700500D01*
X171498540Y-79700500D01*
X171498541Y-79700500D01*
X171691835Y-79662051D01*
X171873914Y-79586632D01*
X172037782Y-79477139D01*
X172177139Y-79337782D01*
X172286632Y-79173914D01*
X172362051Y-78991835D01*
X172400500Y-78798541D01*
X172400500Y-78700001D01*
X173784282Y-78700001D01*
X173805078Y-78871281D01*
X173805079Y-78871283D01*
X173850798Y-78991834D01*
X173866263Y-79032611D01*
X173964275Y-79174607D01*
X173964276Y-79174608D01*
X173964277Y-79174609D01*
X174093426Y-79289024D01*
X174246203Y-79369208D01*
X174413730Y-79410500D01*
X174413733Y-79410500D01*
X174586267Y-79410500D01*
X174586270Y-79410500D01*
X174753797Y-79369208D01*
X174906574Y-79289024D01*
X175035723Y-79174609D01*
X175133737Y-79032611D01*
X175194921Y-78871283D01*
X175215718Y-78700000D01*
X175194921Y-78528717D01*
X175133737Y-78367389D01*
X175035723Y-78225391D01*
X174906574Y-78110976D01*
X174753797Y-78030792D01*
X174753796Y-78030791D01*
X174753795Y-78030791D01*
X174586272Y-77989500D01*
X174586270Y-77989500D01*
X174413730Y-77989500D01*
X174413727Y-77989500D01*
X174246204Y-78030791D01*
X174093424Y-78110977D01*
X173964275Y-78225392D01*
X173866263Y-78367388D01*
X173805079Y-78528717D01*
X173805078Y-78528718D01*
X173784282Y-78699998D01*
X173784282Y-78700001D01*
X172400500Y-78700001D01*
X172400500Y-68201459D01*
X172362051Y-68008165D01*
X172286632Y-67826086D01*
X172177139Y-67662218D01*
X172037782Y-67522861D01*
X171873914Y-67413368D01*
X171873915Y-67413368D01*
X171873913Y-67413367D01*
X171691835Y-67337949D01*
X171498543Y-67299500D01*
X171498541Y-67299500D01*
X169498541Y-67299500D01*
X169301459Y-67299500D01*
X169301456Y-67299500D01*
X169108165Y-67337949D01*
X169108163Y-67337949D01*
X168926086Y-67413367D01*
X168762218Y-67522861D01*
X168762214Y-67522864D01*
X168622864Y-67662214D01*
X168622861Y-67662218D01*
X168513367Y-67826086D01*
X168437949Y-68008163D01*
X168437949Y-68008165D01*
X168399500Y-68201456D01*
X168399500Y-78798543D01*
X158452364Y-78798543D01*
X158465337Y-78700000D01*
X158446074Y-78553680D01*
X158389596Y-78417332D01*
X158299754Y-78300246D01*
X158299749Y-78300242D01*
X158299748Y-78300241D01*
X158247829Y-78260403D01*
X158182669Y-78210404D01*
X158176061Y-78207667D01*
X158120525Y-78184663D01*
X158046320Y-78153926D01*
X158046317Y-78153925D01*
X158046316Y-78153925D01*
X157900001Y-78134663D01*
X157899999Y-78134663D01*
X157753683Y-78153925D01*
X157753678Y-78153927D01*
X157617333Y-78210403D01*
X157500250Y-78300242D01*
X157500242Y-78300250D01*
X157410403Y-78417333D01*
X157353927Y-78553678D01*
X157353925Y-78553683D01*
X157334663Y-78699999D01*
X157334663Y-78700000D01*
X156308755Y-78700000D01*
X156296074Y-78603680D01*
X156239596Y-78467332D01*
X156149754Y-78350246D01*
X156149749Y-78350242D01*
X156149748Y-78350241D01*
X156099924Y-78312010D01*
X156032669Y-78260404D01*
X155896320Y-78203926D01*
X155896317Y-78203925D01*
X155896316Y-78203925D01*
X155750001Y-78184663D01*
X155749999Y-78184663D01*
X155603683Y-78203925D01*
X155603680Y-78203925D01*
X155603680Y-78203926D01*
X155588041Y-78210404D01*
X155467333Y-78260403D01*
X155350250Y-78350242D01*
X155350242Y-78350250D01*
X155260403Y-78467333D01*
X155203927Y-78603678D01*
X155203925Y-78603683D01*
X155184663Y-78749999D01*
X155184663Y-78750000D01*
X153516502Y-78750000D01*
X153400001Y-78734663D01*
X153399999Y-78734663D01*
X153253683Y-78753925D01*
X153253678Y-78753927D01*
X153117333Y-78810403D01*
X153000250Y-78900242D01*
X153000242Y-78900250D01*
X152910403Y-79017333D01*
X152853927Y-79153678D01*
X152853925Y-79153683D01*
X152834663Y-79299999D01*
X152834663Y-79300000D01*
X149072197Y-79300000D01*
X149021320Y-79278926D01*
X149021317Y-79278925D01*
X149021316Y-79278925D01*
X148875001Y-79259663D01*
X148874999Y-79259663D01*
X148728683Y-79278925D01*
X148728680Y-79278925D01*
X148728680Y-79278926D01*
X148704302Y-79289024D01*
X148592333Y-79335403D01*
X148475250Y-79425242D01*
X148475242Y-79425250D01*
X148385403Y-79542333D01*
X148367054Y-79586632D01*
X148335815Y-79662050D01*
X148328927Y-79678678D01*
X148328925Y-79678683D01*
X148309663Y-79824999D01*
X148309663Y-79825000D01*
X122000500Y-79825000D01*
X122000500Y-77925000D01*
X139259663Y-77925000D01*
X139278926Y-78071320D01*
X139295353Y-78110977D01*
X139333853Y-78203926D01*
X139335404Y-78207669D01*
X139375868Y-78260403D01*
X139406443Y-78300250D01*
X139425246Y-78324754D01*
X139542331Y-78414596D01*
X139678680Y-78471074D01*
X139788420Y-78485521D01*
X139824999Y-78490337D01*
X139825000Y-78490337D01*
X139825001Y-78490337D01*
X139854264Y-78486484D01*
X139971320Y-78471074D01*
X140107669Y-78414596D01*
X140224754Y-78324754D01*
X140314596Y-78207669D01*
X140371074Y-78071320D01*
X140390337Y-77925000D01*
X140371074Y-77778680D01*
X140314596Y-77642332D01*
X140224754Y-77525246D01*
X140224749Y-77525242D01*
X140224748Y-77525241D01*
X140174924Y-77487010D01*
X140107669Y-77435404D01*
X139971320Y-77378926D01*
X139971317Y-77378925D01*
X139971316Y-77378925D01*
X139825001Y-77359663D01*
X139824999Y-77359663D01*
X139678683Y-77378925D01*
X139678678Y-77378927D01*
X139542333Y-77435403D01*
X139425250Y-77525242D01*
X139425242Y-77525250D01*
X139335403Y-77642333D01*
X139278927Y-77778678D01*
X139278925Y-77778683D01*
X139277564Y-77789022D01*
X139259663Y-77925000D01*
X122000500Y-77925000D01*
X122000500Y-76900001D01*
X125284282Y-76900001D01*
X125305078Y-77071281D01*
X125305079Y-77071283D01*
X125353895Y-77200000D01*
X125366263Y-77232611D01*
X125464275Y-77374607D01*
X125464276Y-77374608D01*
X125464277Y-77374609D01*
X125593426Y-77489024D01*
X125746203Y-77569208D01*
X125913730Y-77610500D01*
X125913733Y-77610500D01*
X126086267Y-77610500D01*
X126086270Y-77610500D01*
X126253797Y-77569208D01*
X126406574Y-77489024D01*
X126535723Y-77374609D01*
X126633737Y-77232611D01*
X126694921Y-77071283D01*
X126715718Y-76900000D01*
X126711758Y-76867389D01*
X126700541Y-76775000D01*
X151034663Y-76775000D01*
X151053926Y-76921320D01*
X151110404Y-77057669D01*
X151200246Y-77174754D01*
X151317331Y-77264596D01*
X151453680Y-77321074D01*
X151563420Y-77335521D01*
X151599999Y-77340337D01*
X151600000Y-77340337D01*
X151600001Y-77340337D01*
X151629264Y-77336484D01*
X151746320Y-77321074D01*
X151882669Y-77264596D01*
X151966851Y-77200001D01*
X163684282Y-77200001D01*
X163705078Y-77371281D01*
X163705079Y-77371283D01*
X163707978Y-77378926D01*
X163766263Y-77532611D01*
X163864275Y-77674607D01*
X163864276Y-77674608D01*
X163864277Y-77674609D01*
X163993426Y-77789024D01*
X164146203Y-77869208D01*
X164313730Y-77910500D01*
X164313733Y-77910500D01*
X164486267Y-77910500D01*
X164486270Y-77910500D01*
X164653797Y-77869208D01*
X164806574Y-77789024D01*
X164935723Y-77674609D01*
X165033737Y-77532611D01*
X165094921Y-77371283D01*
X165115718Y-77200000D01*
X165094921Y-77028717D01*
X165033737Y-76867389D01*
X164969965Y-76774999D01*
X164935724Y-76725392D01*
X164826556Y-76628678D01*
X164806574Y-76610976D01*
X164653797Y-76530792D01*
X164653796Y-76530791D01*
X164653795Y-76530791D01*
X164486272Y-76489500D01*
X164486270Y-76489500D01*
X164313730Y-76489500D01*
X164313727Y-76489500D01*
X164146204Y-76530791D01*
X163993424Y-76610977D01*
X163864275Y-76725392D01*
X163766263Y-76867388D01*
X163705079Y-77028717D01*
X163705078Y-77028718D01*
X163684282Y-77199998D01*
X163684282Y-77200001D01*
X151966851Y-77200001D01*
X151999754Y-77174754D01*
X152089596Y-77057669D01*
X152146074Y-76921320D01*
X152165337Y-76775000D01*
X152146074Y-76628680D01*
X152089596Y-76492332D01*
X151999754Y-76375246D01*
X151999749Y-76375242D01*
X151999748Y-76375241D01*
X151949924Y-76337010D01*
X151882669Y-76285404D01*
X151746320Y-76228926D01*
X151746317Y-76228925D01*
X151746316Y-76228925D01*
X151600001Y-76209663D01*
X151599999Y-76209663D01*
X151453683Y-76228925D01*
X151453678Y-76228927D01*
X151317333Y-76285403D01*
X151200250Y-76375242D01*
X151200242Y-76375250D01*
X151110403Y-76492333D01*
X151053927Y-76628678D01*
X151053925Y-76628683D01*
X151041194Y-76725391D01*
X151034663Y-76775000D01*
X126700541Y-76775000D01*
X126694921Y-76728717D01*
X126633737Y-76567389D01*
X126535723Y-76425391D01*
X126406574Y-76310976D01*
X126253797Y-76230792D01*
X126253796Y-76230791D01*
X126253795Y-76230791D01*
X126086272Y-76189500D01*
X126086270Y-76189500D01*
X125913730Y-76189500D01*
X125913727Y-76189500D01*
X125746204Y-76230791D01*
X125593424Y-76310977D01*
X125464275Y-76425392D01*
X125366263Y-76567388D01*
X125305079Y-76728717D01*
X125305078Y-76728718D01*
X125284282Y-76899998D01*
X125284282Y-76900001D01*
X122000500Y-76900001D01*
X122000500Y-75900001D01*
X131384282Y-75900001D01*
X131405078Y-76071281D01*
X131405079Y-76071283D01*
X131449732Y-76189022D01*
X131466263Y-76232611D01*
X131564275Y-76374607D01*
X131564276Y-76374608D01*
X131564277Y-76374609D01*
X131693426Y-76489024D01*
X131846203Y-76569208D01*
X132013730Y-76610500D01*
X132013733Y-76610500D01*
X132186267Y-76610500D01*
X132186270Y-76610500D01*
X132353797Y-76569208D01*
X132506574Y-76489024D01*
X132635723Y-76374609D01*
X132733737Y-76232611D01*
X132794921Y-76071283D01*
X132815718Y-75900000D01*
X132815687Y-75899748D01*
X132794921Y-75728718D01*
X132794921Y-75728717D01*
X132733737Y-75567389D01*
X132684730Y-75496390D01*
X132635724Y-75425392D01*
X132506575Y-75310977D01*
X132506574Y-75310976D01*
X132353797Y-75230792D01*
X132353796Y-75230791D01*
X132353795Y-75230791D01*
X132186272Y-75189500D01*
X132186270Y-75189500D01*
X132013730Y-75189500D01*
X132013727Y-75189500D01*
X131846204Y-75230791D01*
X131693424Y-75310977D01*
X131564275Y-75425392D01*
X131466263Y-75567388D01*
X131405079Y-75728717D01*
X131405078Y-75728718D01*
X131384282Y-75899998D01*
X131384282Y-75900001D01*
X122000500Y-75900001D01*
X122000500Y-74550000D01*
X138634663Y-74550000D01*
X138653926Y-74696320D01*
X138710404Y-74832669D01*
X138735462Y-74865325D01*
X138794495Y-74942260D01*
X138800246Y-74949754D01*
X138917331Y-75039596D01*
X139053680Y-75096074D01*
X139163420Y-75110521D01*
X139199999Y-75115337D01*
X139200000Y-75115337D01*
X139200001Y-75115337D01*
X139229264Y-75111484D01*
X139346320Y-75096074D01*
X139482669Y-75039596D01*
X139495538Y-75029720D01*
X139553210Y-75009296D01*
X139611876Y-75026671D01*
X139649125Y-75075212D01*
X139650729Y-75136376D01*
X139637281Y-75164500D01*
X139566263Y-75267388D01*
X139505079Y-75428717D01*
X139505078Y-75428718D01*
X139484282Y-75599998D01*
X139484282Y-75600001D01*
X139505078Y-75771281D01*
X139505079Y-75771283D01*
X139553895Y-75900000D01*
X139566263Y-75932611D01*
X139664275Y-76074607D01*
X139664276Y-76074608D01*
X139664277Y-76074609D01*
X139793426Y-76189024D01*
X139946203Y-76269208D01*
X140113730Y-76310500D01*
X140113733Y-76310500D01*
X140286267Y-76310500D01*
X140286270Y-76310500D01*
X140453797Y-76269208D01*
X140606574Y-76189024D01*
X140735723Y-76074609D01*
X140833737Y-75932611D01*
X140894921Y-75771283D01*
X140915718Y-75600000D01*
X140911758Y-75567389D01*
X140903576Y-75500000D01*
X155134663Y-75500000D01*
X155147827Y-75599998D01*
X155153926Y-75646320D01*
X155210404Y-75782669D01*
X155300246Y-75899754D01*
X155300250Y-75899757D01*
X155300251Y-75899758D01*
X155300568Y-75900001D01*
X155417331Y-75989596D01*
X155553680Y-76046074D01*
X155663420Y-76060521D01*
X155699999Y-76065337D01*
X155700000Y-76065337D01*
X155700001Y-76065337D01*
X155729264Y-76061484D01*
X155846320Y-76046074D01*
X155982669Y-75989596D01*
X156099754Y-75899754D01*
X156189596Y-75782669D01*
X156246074Y-75646320D01*
X156265337Y-75500000D01*
X156246074Y-75353680D01*
X156189596Y-75217332D01*
X156099754Y-75100246D01*
X156099749Y-75100242D01*
X156099748Y-75100241D01*
X156020713Y-75039596D01*
X155982669Y-75010404D01*
X155846320Y-74953926D01*
X155846317Y-74953925D01*
X155846316Y-74953925D01*
X155700001Y-74934663D01*
X155699999Y-74934663D01*
X155553683Y-74953925D01*
X155553678Y-74953927D01*
X155417333Y-75010403D01*
X155300250Y-75100242D01*
X155300242Y-75100250D01*
X155210403Y-75217333D01*
X155153927Y-75353678D01*
X155153925Y-75353683D01*
X155134663Y-75499999D01*
X155134663Y-75500000D01*
X140903576Y-75500000D01*
X140894921Y-75428718D01*
X140894921Y-75428717D01*
X140833737Y-75267389D01*
X140762718Y-75164500D01*
X140735724Y-75125392D01*
X140638880Y-75039596D01*
X140606574Y-75010976D01*
X140453797Y-74930792D01*
X140453796Y-74930791D01*
X140453795Y-74930791D01*
X140286272Y-74889500D01*
X140286270Y-74889500D01*
X140113730Y-74889500D01*
X140113727Y-74889500D01*
X139946204Y-74930791D01*
X139789087Y-75013253D01*
X139728775Y-75023554D01*
X139673926Y-74996437D01*
X139645492Y-74942260D01*
X139654333Y-74881717D01*
X139664531Y-74865334D01*
X139689596Y-74832669D01*
X139746074Y-74696320D01*
X139765337Y-74550000D01*
X139746074Y-74403680D01*
X139689596Y-74267332D01*
X139599754Y-74150246D01*
X139599749Y-74150242D01*
X139599748Y-74150241D01*
X139549924Y-74112010D01*
X139482669Y-74060404D01*
X139346320Y-74003926D01*
X139346317Y-74003925D01*
X139346316Y-74003925D01*
X139200001Y-73984663D01*
X139199999Y-73984663D01*
X139053683Y-74003925D01*
X139053678Y-74003927D01*
X138917333Y-74060403D01*
X138800250Y-74150242D01*
X138800242Y-74150250D01*
X138710403Y-74267333D01*
X138653927Y-74403678D01*
X138653925Y-74403683D01*
X138653028Y-74410499D01*
X138634663Y-74550000D01*
X122000500Y-74550000D01*
X122000500Y-73700001D01*
X132684282Y-73700001D01*
X132705078Y-73871281D01*
X132705079Y-73871283D01*
X132748079Y-73984663D01*
X132766263Y-74032611D01*
X132864275Y-74174607D01*
X132864276Y-74174608D01*
X132864277Y-74174609D01*
X132993426Y-74289024D01*
X133146203Y-74369208D01*
X133313730Y-74410500D01*
X133313733Y-74410500D01*
X133486267Y-74410500D01*
X133486270Y-74410500D01*
X133653797Y-74369208D01*
X133806574Y-74289024D01*
X133935723Y-74174609D01*
X134033737Y-74032611D01*
X134094921Y-73871283D01*
X134115718Y-73700000D01*
X134094921Y-73528717D01*
X134085549Y-73504006D01*
X161234663Y-73504006D01*
X161253926Y-73650326D01*
X161310404Y-73786675D01*
X161400246Y-73903760D01*
X161517331Y-73993602D01*
X161653680Y-74050080D01*
X161763420Y-74064527D01*
X161799999Y-74069343D01*
X161800000Y-74069343D01*
X161800001Y-74069343D01*
X161829264Y-74065490D01*
X161946320Y-74050080D01*
X162082669Y-73993602D01*
X162199754Y-73903760D01*
X162289596Y-73786675D01*
X162346074Y-73650326D01*
X162365337Y-73504006D01*
X162346074Y-73357686D01*
X162289596Y-73221338D01*
X162273814Y-73200770D01*
X162253391Y-73143096D01*
X162270769Y-73084431D01*
X162273805Y-73080250D01*
X162289596Y-73059672D01*
X162346074Y-72923323D01*
X162365337Y-72777003D01*
X162346074Y-72630683D01*
X162289596Y-72494335D01*
X162273814Y-72473767D01*
X162253391Y-72416093D01*
X162270769Y-72357428D01*
X162273805Y-72353247D01*
X162289596Y-72332669D01*
X162346074Y-72196320D01*
X162365337Y-72050000D01*
X162346074Y-71903680D01*
X162289596Y-71767332D01*
X162245808Y-71710266D01*
X162225385Y-71652591D01*
X162242763Y-71593925D01*
X162245809Y-71589733D01*
X162289596Y-71532669D01*
X162346074Y-71396320D01*
X162365337Y-71250000D01*
X162358755Y-71200001D01*
X166584282Y-71200001D01*
X166605078Y-71371281D01*
X166605079Y-71371283D01*
X166643004Y-71471282D01*
X166666263Y-71532611D01*
X166764275Y-71674607D01*
X166764276Y-71674608D01*
X166764277Y-71674609D01*
X166893426Y-71789024D01*
X167046203Y-71869208D01*
X167213730Y-71910500D01*
X167213733Y-71910500D01*
X167386267Y-71910500D01*
X167386270Y-71910500D01*
X167553797Y-71869208D01*
X167706574Y-71789024D01*
X167835723Y-71674609D01*
X167933737Y-71532611D01*
X167994921Y-71371283D01*
X168015718Y-71200000D01*
X167994921Y-71028717D01*
X167933737Y-70867389D01*
X167835723Y-70725391D01*
X167706574Y-70610976D01*
X167553797Y-70530792D01*
X167553796Y-70530791D01*
X167553795Y-70530791D01*
X167386272Y-70489500D01*
X167386270Y-70489500D01*
X167213730Y-70489500D01*
X167213727Y-70489500D01*
X167046204Y-70530791D01*
X166893424Y-70610977D01*
X166764275Y-70725392D01*
X166666263Y-70867388D01*
X166605079Y-71028717D01*
X166605078Y-71028718D01*
X166584282Y-71199998D01*
X166584282Y-71200001D01*
X162358755Y-71200001D01*
X162346074Y-71103680D01*
X162289596Y-70967332D01*
X162199754Y-70850246D01*
X162199749Y-70850242D01*
X162199748Y-70850241D01*
X162133943Y-70799748D01*
X162082669Y-70760404D01*
X161946320Y-70703926D01*
X161946317Y-70703925D01*
X161946316Y-70703925D01*
X161800001Y-70684663D01*
X161799999Y-70684663D01*
X161653683Y-70703925D01*
X161653678Y-70703927D01*
X161517333Y-70760403D01*
X161400250Y-70850242D01*
X161400242Y-70850250D01*
X161310403Y-70967333D01*
X161253927Y-71103678D01*
X161253925Y-71103683D01*
X161234663Y-71249999D01*
X161234663Y-71250000D01*
X161250629Y-71371283D01*
X161253926Y-71396320D01*
X161284977Y-71471283D01*
X161309626Y-71530792D01*
X161310404Y-71532669D01*
X161354191Y-71589733D01*
X161374614Y-71647409D01*
X161357236Y-71706075D01*
X161354191Y-71710266D01*
X161310403Y-71767333D01*
X161253927Y-71903678D01*
X161253925Y-71903683D01*
X161234663Y-72049999D01*
X161234663Y-72050000D01*
X161237902Y-72074607D01*
X161253926Y-72196320D01*
X161255451Y-72200001D01*
X161310403Y-72332668D01*
X161326184Y-72353234D01*
X161346608Y-72410910D01*
X161329230Y-72469576D01*
X161326185Y-72473767D01*
X161310405Y-72494332D01*
X161253926Y-72630681D01*
X161253925Y-72630686D01*
X161234663Y-72777002D01*
X161234663Y-72777003D01*
X161252237Y-72910500D01*
X161253926Y-72923323D01*
X161281338Y-72989500D01*
X161310403Y-73059671D01*
X161326184Y-73080237D01*
X161346608Y-73137913D01*
X161329230Y-73196579D01*
X161326185Y-73200770D01*
X161310405Y-73221335D01*
X161253926Y-73357684D01*
X161253925Y-73357689D01*
X161234663Y-73504005D01*
X161234663Y-73504006D01*
X134085549Y-73504006D01*
X134033737Y-73367389D01*
X133935723Y-73225391D01*
X133806574Y-73110976D01*
X133653797Y-73030792D01*
X133653796Y-73030791D01*
X133653795Y-73030791D01*
X133486272Y-72989500D01*
X133486270Y-72989500D01*
X133313730Y-72989500D01*
X133313727Y-72989500D01*
X133146204Y-73030791D01*
X132993424Y-73110977D01*
X132864275Y-73225392D01*
X132766263Y-73367388D01*
X132705079Y-73528717D01*
X132705078Y-73528718D01*
X132684282Y-73699998D01*
X132684282Y-73700001D01*
X122000500Y-73700001D01*
X122000500Y-71300001D01*
X124984282Y-71300001D01*
X125005078Y-71471281D01*
X125005079Y-71471283D01*
X125053895Y-71600000D01*
X125066263Y-71632611D01*
X125164275Y-71774607D01*
X125164276Y-71774608D01*
X125164277Y-71774609D01*
X125293426Y-71889024D01*
X125446203Y-71969208D01*
X125613730Y-72010500D01*
X125613733Y-72010500D01*
X125786267Y-72010500D01*
X125786270Y-72010500D01*
X125953797Y-71969208D01*
X126106574Y-71889024D01*
X126235723Y-71774609D01*
X126333737Y-71632611D01*
X126346104Y-71600001D01*
X142684282Y-71600001D01*
X142705078Y-71771281D01*
X142705079Y-71771283D01*
X142742217Y-71869208D01*
X142766263Y-71932611D01*
X142864275Y-72074607D01*
X142864276Y-72074608D01*
X142864277Y-72074609D01*
X142993426Y-72189024D01*
X143146203Y-72269208D01*
X143313730Y-72310500D01*
X143313733Y-72310500D01*
X143486267Y-72310500D01*
X143486270Y-72310500D01*
X143653797Y-72269208D01*
X143785659Y-72200001D01*
X153284282Y-72200001D01*
X153305078Y-72371281D01*
X153305079Y-72371283D01*
X153342357Y-72469576D01*
X153366263Y-72532611D01*
X153464275Y-72674607D01*
X153464276Y-72674608D01*
X153464277Y-72674609D01*
X153593426Y-72789024D01*
X153746203Y-72869208D01*
X153913730Y-72910500D01*
X153913733Y-72910500D01*
X154086267Y-72910500D01*
X154086270Y-72910500D01*
X154253797Y-72869208D01*
X154406574Y-72789024D01*
X154535723Y-72674609D01*
X154633737Y-72532611D01*
X154694921Y-72371283D01*
X154715718Y-72200000D01*
X154715271Y-72196321D01*
X154694921Y-72028718D01*
X154694921Y-72028717D01*
X154633737Y-71867389D01*
X154567399Y-71771281D01*
X154535724Y-71725392D01*
X154513920Y-71706075D01*
X154406574Y-71610976D01*
X154253797Y-71530792D01*
X154253796Y-71530791D01*
X154253795Y-71530791D01*
X154086272Y-71489500D01*
X154086270Y-71489500D01*
X153913730Y-71489500D01*
X153913727Y-71489500D01*
X153746204Y-71530791D01*
X153593424Y-71610977D01*
X153464275Y-71725392D01*
X153366263Y-71867388D01*
X153305079Y-72028717D01*
X153305078Y-72028718D01*
X153284282Y-72199998D01*
X153284282Y-72200001D01*
X143785659Y-72200001D01*
X143806574Y-72189024D01*
X143935723Y-72074609D01*
X144033737Y-71932611D01*
X144094921Y-71771283D01*
X144115718Y-71600000D01*
X144114980Y-71593925D01*
X144094921Y-71428718D01*
X144094921Y-71428717D01*
X144033737Y-71267389D01*
X143965968Y-71169208D01*
X143935724Y-71125392D01*
X143911220Y-71103683D01*
X143806574Y-71010976D01*
X143653797Y-70930792D01*
X143653796Y-70930791D01*
X143653795Y-70930791D01*
X143486272Y-70889500D01*
X143486270Y-70889500D01*
X143313730Y-70889500D01*
X143313727Y-70889500D01*
X143146204Y-70930791D01*
X142993424Y-71010977D01*
X142864275Y-71125392D01*
X142766263Y-71267388D01*
X142705079Y-71428717D01*
X142705078Y-71428718D01*
X142684282Y-71599998D01*
X142684282Y-71600001D01*
X126346104Y-71600001D01*
X126394921Y-71471283D01*
X126415718Y-71300000D01*
X126411758Y-71267389D01*
X126394921Y-71128718D01*
X126394921Y-71128717D01*
X126333737Y-70967389D01*
X126264712Y-70867389D01*
X126235724Y-70825392D01*
X126206785Y-70799754D01*
X126106574Y-70710976D01*
X125953797Y-70630792D01*
X125953796Y-70630791D01*
X125953795Y-70630791D01*
X125786272Y-70589500D01*
X125786270Y-70589500D01*
X125613730Y-70589500D01*
X125613727Y-70589500D01*
X125446204Y-70630791D01*
X125293424Y-70710977D01*
X125164275Y-70825392D01*
X125066263Y-70967388D01*
X125005079Y-71128717D01*
X125005078Y-71128718D01*
X124984282Y-71299998D01*
X124984282Y-71300001D01*
X122000500Y-71300001D01*
X122000500Y-70100001D01*
X146684282Y-70100001D01*
X146705078Y-70271281D01*
X146705079Y-70271283D01*
X146753895Y-70400000D01*
X146766263Y-70432611D01*
X146864275Y-70574607D01*
X146864276Y-70574608D01*
X146864277Y-70574609D01*
X146993426Y-70689024D01*
X147146203Y-70769208D01*
X147313730Y-70810500D01*
X147313733Y-70810500D01*
X147486267Y-70810500D01*
X147486270Y-70810500D01*
X147653797Y-70769208D01*
X147806574Y-70689024D01*
X147935723Y-70574609D01*
X148033737Y-70432611D01*
X148094921Y-70271283D01*
X148108785Y-70157094D01*
X148115718Y-70100001D01*
X148115718Y-70099998D01*
X148094921Y-69928718D01*
X148094921Y-69928717D01*
X148084030Y-69900000D01*
X148334663Y-69900000D01*
X148353708Y-70044670D01*
X148353926Y-70046320D01*
X148410404Y-70182669D01*
X148462010Y-70249924D01*
X148478399Y-70271283D01*
X148500246Y-70299754D01*
X148617331Y-70389596D01*
X148753680Y-70446074D01*
X148817829Y-70454518D01*
X148873053Y-70480858D01*
X148902249Y-70534628D01*
X148903059Y-70539743D01*
X148903924Y-70546315D01*
X148903925Y-70546317D01*
X148903925Y-70546319D01*
X148903926Y-70546320D01*
X148960404Y-70682669D01*
X149050246Y-70799754D01*
X149050250Y-70799757D01*
X149050251Y-70799758D01*
X149070804Y-70815529D01*
X149167331Y-70889596D01*
X149303680Y-70946074D01*
X149413420Y-70960521D01*
X149449999Y-70965337D01*
X149450000Y-70965337D01*
X149450001Y-70965337D01*
X149479264Y-70961484D01*
X149596320Y-70946074D01*
X149732669Y-70889596D01*
X149849754Y-70799754D01*
X149939596Y-70682669D01*
X149996074Y-70546320D01*
X150002344Y-70498687D01*
X150028684Y-70443463D01*
X150082454Y-70414267D01*
X150143116Y-70422252D01*
X150181972Y-70455371D01*
X150264272Y-70574604D01*
X150264274Y-70574606D01*
X150264276Y-70574608D01*
X150264277Y-70574609D01*
X150393426Y-70689024D01*
X150546203Y-70769208D01*
X150713730Y-70810500D01*
X150713733Y-70810500D01*
X150886267Y-70810500D01*
X150886270Y-70810500D01*
X151053797Y-70769208D01*
X151206574Y-70689024D01*
X151335723Y-70574609D01*
X151433737Y-70432611D01*
X151494921Y-70271283D01*
X151508785Y-70157094D01*
X151515718Y-70100001D01*
X151515718Y-70099998D01*
X151494921Y-69928718D01*
X151494921Y-69928717D01*
X151433737Y-69767389D01*
X151335723Y-69625391D01*
X151206574Y-69510976D01*
X151053797Y-69430792D01*
X151053796Y-69430791D01*
X151053795Y-69430791D01*
X150886272Y-69389500D01*
X150886270Y-69389500D01*
X150713730Y-69389500D01*
X150713727Y-69389500D01*
X150546204Y-69430791D01*
X150393424Y-69510977D01*
X150264275Y-69625392D01*
X150166263Y-69767388D01*
X150105079Y-69928717D01*
X150105078Y-69928718D01*
X150091922Y-70037076D01*
X150066139Y-70092564D01*
X150012665Y-70122299D01*
X149951925Y-70114924D01*
X149915102Y-70085410D01*
X149849757Y-70000250D01*
X149849754Y-70000246D01*
X149849749Y-70000242D01*
X149849748Y-70000241D01*
X149756535Y-69928717D01*
X149732669Y-69910404D01*
X149596320Y-69853926D01*
X149596318Y-69853925D01*
X149596317Y-69853925D01*
X149532168Y-69845480D01*
X149476943Y-69819139D01*
X149447749Y-69765368D01*
X149446943Y-69760286D01*
X149446074Y-69753680D01*
X149389596Y-69617332D01*
X149299754Y-69500246D01*
X149299749Y-69500242D01*
X149299748Y-69500241D01*
X149209238Y-69430791D01*
X149182669Y-69410404D01*
X149046320Y-69353926D01*
X149046317Y-69353925D01*
X149046316Y-69353925D01*
X148900001Y-69334663D01*
X148899999Y-69334663D01*
X148753683Y-69353925D01*
X148753678Y-69353927D01*
X148617333Y-69410403D01*
X148500250Y-69500242D01*
X148500242Y-69500250D01*
X148410403Y-69617333D01*
X148353927Y-69753678D01*
X148353925Y-69753683D01*
X148334663Y-69899999D01*
X148334663Y-69900000D01*
X148084030Y-69900000D01*
X148033737Y-69767389D01*
X147935723Y-69625391D01*
X147806574Y-69510976D01*
X147653797Y-69430792D01*
X147653796Y-69430791D01*
X147653795Y-69430791D01*
X147486272Y-69389500D01*
X147486270Y-69389500D01*
X147313730Y-69389500D01*
X147313727Y-69389500D01*
X147146204Y-69430791D01*
X146993424Y-69510977D01*
X146864275Y-69625392D01*
X146766263Y-69767388D01*
X146705079Y-69928717D01*
X146705078Y-69928718D01*
X146684282Y-70099998D01*
X146684282Y-70100001D01*
X122000500Y-70100001D01*
X122000500Y-68900001D01*
X142984282Y-68900001D01*
X143005078Y-69071281D01*
X143005079Y-69071282D01*
X143066263Y-69232611D01*
X143164275Y-69374607D01*
X143164276Y-69374608D01*
X143164277Y-69374609D01*
X143293426Y-69489024D01*
X143446203Y-69569208D01*
X143613730Y-69610500D01*
X143613733Y-69610500D01*
X143786267Y-69610500D01*
X143786270Y-69610500D01*
X143953797Y-69569208D01*
X144106574Y-69489024D01*
X144235723Y-69374609D01*
X144333737Y-69232611D01*
X144394921Y-69071283D01*
X144415718Y-68900000D01*
X144394921Y-68728717D01*
X144333737Y-68567389D01*
X144235723Y-68425391D01*
X144106574Y-68310976D01*
X143953797Y-68230792D01*
X143953796Y-68230791D01*
X143953795Y-68230791D01*
X143786272Y-68189500D01*
X143786270Y-68189500D01*
X143613730Y-68189500D01*
X143613727Y-68189500D01*
X143446204Y-68230791D01*
X143293424Y-68310977D01*
X143164275Y-68425392D01*
X143066263Y-68567388D01*
X143005079Y-68728717D01*
X143005078Y-68728718D01*
X142984282Y-68899998D01*
X142984282Y-68900001D01*
X122000500Y-68900001D01*
X122000500Y-67950000D01*
X124534663Y-67950000D01*
X124544020Y-68021079D01*
X124553926Y-68096320D01*
X124575415Y-68148198D01*
X124609626Y-68230792D01*
X124610404Y-68232669D01*
X124630788Y-68259234D01*
X124688282Y-68334163D01*
X124700246Y-68349754D01*
X124817331Y-68439596D01*
X124953680Y-68496074D01*
X125063420Y-68510521D01*
X125099999Y-68515337D01*
X125100000Y-68515337D01*
X125100001Y-68515337D01*
X125129264Y-68511484D01*
X125246320Y-68496074D01*
X125382669Y-68439596D01*
X125499754Y-68349754D01*
X125589596Y-68232669D01*
X125646074Y-68096320D01*
X125665337Y-67950000D01*
X125646074Y-67803680D01*
X125589596Y-67667332D01*
X125499754Y-67550246D01*
X125499749Y-67550242D01*
X125499748Y-67550241D01*
X125393380Y-67468623D01*
X125382669Y-67460404D01*
X125246320Y-67403926D01*
X125246317Y-67403925D01*
X125246316Y-67403925D01*
X125100001Y-67384663D01*
X125099999Y-67384663D01*
X124953683Y-67403925D01*
X124953678Y-67403927D01*
X124817333Y-67460403D01*
X124700250Y-67550242D01*
X124700242Y-67550250D01*
X124610403Y-67667333D01*
X124553927Y-67803678D01*
X124553925Y-67803683D01*
X124534663Y-67949999D01*
X124534663Y-67950000D01*
X122000500Y-67950000D01*
X122000500Y-66400001D01*
X132684282Y-66400001D01*
X132705078Y-66571281D01*
X132705079Y-66571283D01*
X132746100Y-66679445D01*
X132766263Y-66732611D01*
X132864275Y-66874607D01*
X132864276Y-66874608D01*
X132864277Y-66874609D01*
X132993426Y-66989024D01*
X133146203Y-67069208D01*
X133313730Y-67110500D01*
X133313733Y-67110500D01*
X133486267Y-67110500D01*
X133486270Y-67110500D01*
X133589727Y-67085000D01*
X143896996Y-67085000D01*
X143916969Y-67300540D01*
X143976206Y-67508738D01*
X144063974Y-67685000D01*
X144072692Y-67702507D01*
X144203140Y-67875248D01*
X144363107Y-68021077D01*
X144547147Y-68135030D01*
X144748992Y-68213225D01*
X144943692Y-68249620D01*
X144997417Y-68278897D01*
X145023673Y-68334163D01*
X145024500Y-68346934D01*
X145024500Y-68410766D01*
X145047358Y-68496074D01*
X145063720Y-68557139D01*
X145139481Y-68688360D01*
X145139483Y-68688362D01*
X145139485Y-68688365D01*
X145246635Y-68795515D01*
X145246637Y-68795516D01*
X145246639Y-68795518D01*
X145377861Y-68871279D01*
X145377859Y-68871279D01*
X145377863Y-68871280D01*
X145377865Y-68871281D01*
X145524234Y-68910500D01*
X145524236Y-68910500D01*
X145675764Y-68910500D01*
X145675766Y-68910500D01*
X145822135Y-68871281D01*
X145822137Y-68871279D01*
X145822139Y-68871279D01*
X145953360Y-68795518D01*
X145953360Y-68795517D01*
X145953365Y-68795515D01*
X146060515Y-68688365D01*
X146130361Y-68567389D01*
X146136279Y-68557139D01*
X146136279Y-68557137D01*
X146136281Y-68557135D01*
X146175500Y-68410766D01*
X146175500Y-68363927D01*
X146194407Y-68305736D01*
X146243907Y-68269772D01*
X146287421Y-68265774D01*
X146317790Y-68269772D01*
X146399999Y-68280595D01*
X146400000Y-68280595D01*
X146400001Y-68280595D01*
X146430830Y-68276536D01*
X146554151Y-68260301D01*
X146697798Y-68200800D01*
X146821149Y-68106149D01*
X146915800Y-67982798D01*
X146975301Y-67839151D01*
X146995595Y-67685000D01*
X146987799Y-67625784D01*
X146998949Y-67565625D01*
X147043331Y-67523507D01*
X147048040Y-67521410D01*
X147097798Y-67500800D01*
X147139732Y-67468623D01*
X147197408Y-67448198D01*
X147256073Y-67465575D01*
X147260268Y-67468623D01*
X147302199Y-67500798D01*
X147302204Y-67500801D01*
X147351932Y-67521399D01*
X147398458Y-67561135D01*
X147412742Y-67620630D01*
X147412200Y-67625784D01*
X147404405Y-67684998D01*
X147404405Y-67685000D01*
X147420029Y-67803683D01*
X147424699Y-67839151D01*
X147484200Y-67982798D01*
X147578851Y-68106149D01*
X147702202Y-68200800D01*
X147845849Y-68260301D01*
X147961462Y-68275521D01*
X147999999Y-68280595D01*
X148000000Y-68280595D01*
X148000001Y-68280595D01*
X148030830Y-68276536D01*
X148154151Y-68260301D01*
X148297798Y-68200800D01*
X148339732Y-68168623D01*
X148397408Y-68148198D01*
X148456073Y-68165575D01*
X148460268Y-68168623D01*
X148502199Y-68200798D01*
X148502202Y-68200800D01*
X148645849Y-68260301D01*
X148761462Y-68275521D01*
X148799999Y-68280595D01*
X148800000Y-68280595D01*
X148800001Y-68280595D01*
X148830830Y-68276536D01*
X148954151Y-68260301D01*
X149097798Y-68200800D01*
X149139732Y-68168623D01*
X149197408Y-68148198D01*
X149256073Y-68165575D01*
X149260268Y-68168623D01*
X149302199Y-68200798D01*
X149302202Y-68200800D01*
X149445849Y-68260301D01*
X149561462Y-68275521D01*
X149599999Y-68280595D01*
X149600000Y-68280595D01*
X149600001Y-68280595D01*
X149630830Y-68276536D01*
X149754151Y-68260301D01*
X149897798Y-68200800D01*
X149939732Y-68168623D01*
X149997408Y-68148198D01*
X150056073Y-68165575D01*
X150060268Y-68168623D01*
X150102199Y-68200798D01*
X150102202Y-68200800D01*
X150245849Y-68260301D01*
X150361462Y-68275521D01*
X150399999Y-68280595D01*
X150400000Y-68280595D01*
X150400001Y-68280595D01*
X150430830Y-68276536D01*
X150554151Y-68260301D01*
X150697798Y-68200800D01*
X150821149Y-68106149D01*
X150915800Y-67982798D01*
X150975301Y-67839151D01*
X150995595Y-67685000D01*
X150987799Y-67625784D01*
X150998949Y-67565625D01*
X151043331Y-67523507D01*
X151048040Y-67521410D01*
X151097798Y-67500800D01*
X151139732Y-67468623D01*
X151197408Y-67448198D01*
X151256073Y-67465575D01*
X151260268Y-67468623D01*
X151302199Y-67500798D01*
X151302204Y-67500801D01*
X151351932Y-67521399D01*
X151398458Y-67561135D01*
X151412742Y-67620630D01*
X151412200Y-67625784D01*
X151404405Y-67684998D01*
X151404405Y-67685000D01*
X151420029Y-67803683D01*
X151424699Y-67839151D01*
X151484200Y-67982798D01*
X151578851Y-68106149D01*
X151702202Y-68200800D01*
X151845849Y-68260301D01*
X151961462Y-68275521D01*
X151999999Y-68280595D01*
X152000000Y-68280595D01*
X152000001Y-68280595D01*
X152082210Y-68269772D01*
X152112578Y-68265774D01*
X152172739Y-68276924D01*
X152214856Y-68321306D01*
X152224500Y-68363927D01*
X152224500Y-68410766D01*
X152247358Y-68496074D01*
X152263720Y-68557139D01*
X152339481Y-68688360D01*
X152339483Y-68688362D01*
X152339485Y-68688365D01*
X152446635Y-68795515D01*
X152446637Y-68795516D01*
X152446639Y-68795518D01*
X152577861Y-68871279D01*
X152577859Y-68871279D01*
X152577863Y-68871280D01*
X152577865Y-68871281D01*
X152724234Y-68910500D01*
X152724236Y-68910500D01*
X152875764Y-68910500D01*
X152875766Y-68910500D01*
X153022135Y-68871281D01*
X153022137Y-68871279D01*
X153022139Y-68871279D01*
X153153360Y-68795518D01*
X153153360Y-68795517D01*
X153153365Y-68795515D01*
X153260515Y-68688365D01*
X153330361Y-68567389D01*
X153336279Y-68557139D01*
X153336279Y-68557137D01*
X153336281Y-68557135D01*
X153375500Y-68410766D01*
X153375500Y-68346934D01*
X153394407Y-68288743D01*
X153443907Y-68252779D01*
X153456299Y-68249622D01*
X153651008Y-68213225D01*
X153852853Y-68135030D01*
X154036893Y-68021077D01*
X154196860Y-67875248D01*
X154327308Y-67702507D01*
X154423794Y-67508738D01*
X154483031Y-67300539D01*
X154503004Y-67085000D01*
X154483031Y-66869461D01*
X154423794Y-66661262D01*
X154327308Y-66467493D01*
X154196860Y-66294752D01*
X154036893Y-66148923D01*
X153852853Y-66034970D01*
X153651008Y-65956775D01*
X153651007Y-65956774D01*
X153651005Y-65956774D01*
X153438231Y-65917000D01*
X153221769Y-65917000D01*
X153008994Y-65956774D01*
X152807146Y-66034970D01*
X152807141Y-66034973D01*
X152623111Y-66148920D01*
X152623109Y-66148921D01*
X152623107Y-66148923D01*
X152535577Y-66228717D01*
X152463141Y-66294751D01*
X152332693Y-66467491D01*
X152332688Y-66467500D01*
X152251647Y-66630252D01*
X152208784Y-66673915D01*
X152148443Y-66684044D01*
X152093672Y-66656771D01*
X152084484Y-66646391D01*
X152021153Y-66563856D01*
X152021152Y-66563855D01*
X152021149Y-66563851D01*
X151897798Y-66469200D01*
X151897793Y-66469198D01*
X151865255Y-66455720D01*
X151754151Y-66409699D01*
X151754148Y-66409698D01*
X151754147Y-66409698D01*
X151600001Y-66389405D01*
X151599999Y-66389405D01*
X151445852Y-66409698D01*
X151445847Y-66409699D01*
X151302206Y-66469198D01*
X151302203Y-66469199D01*
X151302203Y-66469200D01*
X151260264Y-66501379D01*
X151202590Y-66521802D01*
X151143925Y-66504424D01*
X151139740Y-66501383D01*
X151097798Y-66469200D01*
X151097793Y-66469198D01*
X151065255Y-66455720D01*
X150954151Y-66409699D01*
X150954148Y-66409698D01*
X150954147Y-66409698D01*
X150800001Y-66389405D01*
X150799999Y-66389405D01*
X150645852Y-66409698D01*
X150645847Y-66409699D01*
X150502206Y-66469198D01*
X150502203Y-66469199D01*
X150502203Y-66469200D01*
X150460264Y-66501379D01*
X150402590Y-66521802D01*
X150343925Y-66504424D01*
X150339740Y-66501383D01*
X150297798Y-66469200D01*
X150297793Y-66469198D01*
X150265255Y-66455720D01*
X150154151Y-66409699D01*
X150154148Y-66409698D01*
X150154147Y-66409698D01*
X150000001Y-66389405D01*
X149999999Y-66389405D01*
X149845852Y-66409698D01*
X149845847Y-66409699D01*
X149702204Y-66469199D01*
X149578856Y-66563846D01*
X149578846Y-66563856D01*
X149484199Y-66687204D01*
X149424699Y-66830847D01*
X149424698Y-66830852D01*
X149404405Y-66984999D01*
X149404405Y-66985001D01*
X149412200Y-67044214D01*
X149401049Y-67104374D01*
X149356667Y-67146491D01*
X149351935Y-67148598D01*
X149302207Y-67169197D01*
X149302203Y-67169199D01*
X149302203Y-67169200D01*
X149260264Y-67201379D01*
X149202590Y-67221802D01*
X149143925Y-67204424D01*
X149139740Y-67201383D01*
X149097798Y-67169200D01*
X149097797Y-67169199D01*
X149097795Y-67169198D01*
X149097793Y-67169197D01*
X149048065Y-67148598D01*
X149001540Y-67108861D01*
X148987257Y-67049366D01*
X148987799Y-67044214D01*
X148995595Y-66985000D01*
X148975301Y-66830849D01*
X148915800Y-66687203D01*
X148821149Y-66563851D01*
X148697798Y-66469200D01*
X148697793Y-66469198D01*
X148665255Y-66455720D01*
X148554151Y-66409699D01*
X148554148Y-66409698D01*
X148554147Y-66409698D01*
X148400001Y-66389405D01*
X148399999Y-66389405D01*
X148245852Y-66409698D01*
X148245847Y-66409699D01*
X148102206Y-66469198D01*
X148102203Y-66469199D01*
X148102203Y-66469200D01*
X148060264Y-66501379D01*
X148002590Y-66521802D01*
X147943925Y-66504424D01*
X147939740Y-66501383D01*
X147897798Y-66469200D01*
X147897793Y-66469198D01*
X147865255Y-66455720D01*
X147754151Y-66409699D01*
X147754148Y-66409698D01*
X147754147Y-66409698D01*
X147600001Y-66389405D01*
X147599999Y-66389405D01*
X147445852Y-66409698D01*
X147445847Y-66409699D01*
X147302206Y-66469198D01*
X147302203Y-66469199D01*
X147302203Y-66469200D01*
X147260264Y-66501379D01*
X147202590Y-66521802D01*
X147143925Y-66504424D01*
X147139740Y-66501383D01*
X147097798Y-66469200D01*
X147097793Y-66469198D01*
X147065255Y-66455720D01*
X146954151Y-66409699D01*
X146954148Y-66409698D01*
X146954147Y-66409698D01*
X146800001Y-66389405D01*
X146799999Y-66389405D01*
X146645852Y-66409698D01*
X146645847Y-66409699D01*
X146502204Y-66469199D01*
X146378856Y-66563846D01*
X146378849Y-66563853D01*
X146315515Y-66646392D01*
X146265090Y-66681047D01*
X146203926Y-66679445D01*
X146155384Y-66642198D01*
X146148357Y-66630260D01*
X146067308Y-66467493D01*
X145936860Y-66294752D01*
X145776893Y-66148923D01*
X145592853Y-66034970D01*
X145391008Y-65956775D01*
X145391007Y-65956774D01*
X145391005Y-65956774D01*
X145178231Y-65917000D01*
X144961769Y-65917000D01*
X144748994Y-65956774D01*
X144547146Y-66034970D01*
X144547141Y-66034973D01*
X144363111Y-66148920D01*
X144363109Y-66148921D01*
X144363107Y-66148923D01*
X144275577Y-66228717D01*
X144203141Y-66294751D01*
X144072693Y-66467491D01*
X144072688Y-66467500D01*
X143976206Y-66661261D01*
X143916969Y-66869459D01*
X143896996Y-67085000D01*
X133589727Y-67085000D01*
X133653797Y-67069208D01*
X133806574Y-66989024D01*
X133935723Y-66874609D01*
X134033737Y-66732611D01*
X134094921Y-66571283D01*
X134114540Y-66409699D01*
X134115718Y-66400001D01*
X134115718Y-66399998D01*
X134094921Y-66228718D01*
X134094921Y-66228717D01*
X134033737Y-66067389D01*
X133935723Y-65925391D01*
X133806574Y-65810976D01*
X133653797Y-65730792D01*
X133653796Y-65730791D01*
X133653795Y-65730791D01*
X133486272Y-65689500D01*
X133486270Y-65689500D01*
X133313730Y-65689500D01*
X133313727Y-65689500D01*
X133146204Y-65730791D01*
X132993424Y-65810977D01*
X132864275Y-65925392D01*
X132766263Y-66067388D01*
X132705079Y-66228717D01*
X132705078Y-66228718D01*
X132684282Y-66399998D01*
X132684282Y-66400001D01*
X122000500Y-66400001D01*
X122000500Y-65000001D01*
X142984282Y-65000001D01*
X143005078Y-65171281D01*
X143005079Y-65171282D01*
X143066263Y-65332611D01*
X143164275Y-65474607D01*
X143164276Y-65474608D01*
X143164277Y-65474609D01*
X143293426Y-65589024D01*
X143446203Y-65669208D01*
X143613730Y-65710500D01*
X143613733Y-65710500D01*
X143786267Y-65710500D01*
X143786270Y-65710500D01*
X143953797Y-65669208D01*
X144106574Y-65589024D01*
X144235723Y-65474609D01*
X144333737Y-65332611D01*
X144394921Y-65171283D01*
X144415718Y-65000001D01*
X154084282Y-65000001D01*
X154105078Y-65171281D01*
X154105079Y-65171282D01*
X154166263Y-65332611D01*
X154264275Y-65474607D01*
X154264276Y-65474608D01*
X154264277Y-65474609D01*
X154393426Y-65589024D01*
X154546203Y-65669208D01*
X154713730Y-65710500D01*
X154713733Y-65710500D01*
X154886267Y-65710500D01*
X154886270Y-65710500D01*
X155053797Y-65669208D01*
X155206574Y-65589024D01*
X155335723Y-65474609D01*
X155433737Y-65332611D01*
X155494921Y-65171283D01*
X155515718Y-65000000D01*
X155494921Y-64828717D01*
X155433737Y-64667389D01*
X155335723Y-64525391D01*
X155206574Y-64410976D01*
X155053797Y-64330792D01*
X155053796Y-64330791D01*
X155053795Y-64330791D01*
X154886272Y-64289500D01*
X154886270Y-64289500D01*
X154713730Y-64289500D01*
X154713727Y-64289500D01*
X154546204Y-64330791D01*
X154393424Y-64410977D01*
X154264275Y-64525392D01*
X154166263Y-64667388D01*
X154105079Y-64828717D01*
X154105078Y-64828718D01*
X154084282Y-64999998D01*
X154084282Y-65000001D01*
X144415718Y-65000001D01*
X144415718Y-65000000D01*
X144394921Y-64828717D01*
X144333737Y-64667389D01*
X144235723Y-64525391D01*
X144106574Y-64410976D01*
X143953797Y-64330792D01*
X143953796Y-64330791D01*
X143953795Y-64330791D01*
X143786272Y-64289500D01*
X143786270Y-64289500D01*
X143613730Y-64289500D01*
X143613727Y-64289500D01*
X143446204Y-64330791D01*
X143293424Y-64410977D01*
X143164275Y-64525392D01*
X143066263Y-64667388D01*
X143005079Y-64828717D01*
X143005078Y-64828718D01*
X142984282Y-64999998D01*
X142984282Y-65000001D01*
X122000500Y-65000001D01*
X122000500Y-64799000D01*
X122019407Y-64740809D01*
X122068907Y-64704845D01*
X122099500Y-64700000D01*
X138499999Y-64700000D01*
X138500000Y-64700000D01*
X138500000Y-62695000D01*
X143536996Y-62695000D01*
X143556969Y-62910539D01*
X143616206Y-63118738D01*
X143712692Y-63312507D01*
X143843140Y-63485248D01*
X144003107Y-63631077D01*
X144187147Y-63745030D01*
X144388992Y-63823225D01*
X144601769Y-63863000D01*
X144818231Y-63863000D01*
X145031008Y-63823225D01*
X145232853Y-63745030D01*
X145416893Y-63631077D01*
X145576860Y-63485248D01*
X145707308Y-63312507D01*
X145803794Y-63118738D01*
X145863031Y-62910539D01*
X145882541Y-62700001D01*
X146684282Y-62700001D01*
X146705078Y-62871281D01*
X146705079Y-62871283D01*
X146766263Y-63032611D01*
X146864275Y-63174607D01*
X146864276Y-63174608D01*
X146864277Y-63174609D01*
X146993426Y-63289024D01*
X147146203Y-63369208D01*
X147313730Y-63410500D01*
X147313733Y-63410500D01*
X147486267Y-63410500D01*
X147486270Y-63410500D01*
X147653797Y-63369208D01*
X147806574Y-63289024D01*
X147935723Y-63174609D01*
X148033737Y-63032611D01*
X148094921Y-62871283D01*
X148115718Y-62700001D01*
X150084282Y-62700001D01*
X150105078Y-62871281D01*
X150105079Y-62871283D01*
X150166263Y-63032611D01*
X150264275Y-63174607D01*
X150264276Y-63174608D01*
X150264277Y-63174609D01*
X150393426Y-63289024D01*
X150546203Y-63369208D01*
X150713730Y-63410500D01*
X150713733Y-63410500D01*
X150886267Y-63410500D01*
X150886270Y-63410500D01*
X151053797Y-63369208D01*
X151206574Y-63289024D01*
X151335723Y-63174609D01*
X151433737Y-63032611D01*
X151494921Y-62871283D01*
X151515718Y-62700000D01*
X151515111Y-62695000D01*
X152516996Y-62695000D01*
X152536969Y-62910539D01*
X152596206Y-63118738D01*
X152692692Y-63312507D01*
X152823140Y-63485248D01*
X152983107Y-63631077D01*
X153167147Y-63745030D01*
X153368992Y-63823225D01*
X153581769Y-63863000D01*
X153798231Y-63863000D01*
X154011008Y-63823225D01*
X154212853Y-63745030D01*
X154396893Y-63631077D01*
X154556860Y-63485248D01*
X154687308Y-63312507D01*
X154693535Y-63300001D01*
X168084282Y-63300001D01*
X168105078Y-63471281D01*
X168105079Y-63471283D01*
X168165681Y-63631077D01*
X168166263Y-63632611D01*
X168264275Y-63774607D01*
X168264276Y-63774608D01*
X168264277Y-63774609D01*
X168393426Y-63889024D01*
X168546203Y-63969208D01*
X168713730Y-64010500D01*
X168713733Y-64010500D01*
X168886267Y-64010500D01*
X168886270Y-64010500D01*
X169053797Y-63969208D01*
X169206574Y-63889024D01*
X169335723Y-63774609D01*
X169433737Y-63632611D01*
X169494921Y-63471283D01*
X169514199Y-63312508D01*
X169515718Y-63300001D01*
X172884282Y-63300001D01*
X172905078Y-63471281D01*
X172905079Y-63471283D01*
X172965681Y-63631077D01*
X172966263Y-63632611D01*
X173064275Y-63774607D01*
X173064276Y-63774608D01*
X173064277Y-63774609D01*
X173193426Y-63889024D01*
X173346203Y-63969208D01*
X173513730Y-64010500D01*
X173513733Y-64010500D01*
X173686267Y-64010500D01*
X173686270Y-64010500D01*
X173853797Y-63969208D01*
X174006574Y-63889024D01*
X174135723Y-63774609D01*
X174233737Y-63632611D01*
X174294921Y-63471283D01*
X174314199Y-63312508D01*
X174315718Y-63300001D01*
X174315718Y-63299998D01*
X174294921Y-63128718D01*
X174294921Y-63128717D01*
X174233737Y-62967389D01*
X174135723Y-62825391D01*
X174006574Y-62710976D01*
X173853797Y-62630792D01*
X173853796Y-62630791D01*
X173853795Y-62630791D01*
X173686272Y-62589500D01*
X173686270Y-62589500D01*
X173513730Y-62589500D01*
X173513727Y-62589500D01*
X173346204Y-62630791D01*
X173193424Y-62710977D01*
X173064275Y-62825392D01*
X172966263Y-62967388D01*
X172905079Y-63128717D01*
X172905078Y-63128718D01*
X172884282Y-63299998D01*
X172884282Y-63300001D01*
X169515718Y-63300001D01*
X169515718Y-63299998D01*
X169494921Y-63128718D01*
X169494921Y-63128717D01*
X169433737Y-62967389D01*
X169335723Y-62825391D01*
X169206574Y-62710976D01*
X169053797Y-62630792D01*
X169053796Y-62630791D01*
X169053795Y-62630791D01*
X168886272Y-62589500D01*
X168886270Y-62589500D01*
X168713730Y-62589500D01*
X168713727Y-62589500D01*
X168546204Y-62630791D01*
X168393424Y-62710977D01*
X168264275Y-62825392D01*
X168166263Y-62967388D01*
X168105079Y-63128717D01*
X168105078Y-63128718D01*
X168084282Y-63299998D01*
X168084282Y-63300001D01*
X154693535Y-63300001D01*
X154783794Y-63118738D01*
X154843031Y-62910539D01*
X154863004Y-62695000D01*
X154843031Y-62479461D01*
X154783794Y-62271262D01*
X154687308Y-62077493D01*
X154556860Y-61904752D01*
X154396893Y-61758923D01*
X154212853Y-61644970D01*
X154011008Y-61566775D01*
X154011007Y-61566774D01*
X154011005Y-61566774D01*
X153798231Y-61527000D01*
X153581769Y-61527000D01*
X153368994Y-61566774D01*
X153167146Y-61644970D01*
X153167141Y-61644973D01*
X152983111Y-61758920D01*
X152983109Y-61758921D01*
X152983107Y-61758923D01*
X152842380Y-61887212D01*
X152823141Y-61904751D01*
X152692693Y-62077491D01*
X152692688Y-62077500D01*
X152596206Y-62271261D01*
X152536969Y-62479459D01*
X152526772Y-62589500D01*
X152516996Y-62695000D01*
X151515111Y-62695000D01*
X151494921Y-62528717D01*
X151433737Y-62367389D01*
X151384730Y-62296390D01*
X151335724Y-62225392D01*
X151206575Y-62110977D01*
X151206574Y-62110976D01*
X151053797Y-62030792D01*
X151053796Y-62030791D01*
X151053795Y-62030791D01*
X150886272Y-61989500D01*
X150886270Y-61989500D01*
X150713730Y-61989500D01*
X150713727Y-61989500D01*
X150546204Y-62030791D01*
X150393424Y-62110977D01*
X150264275Y-62225392D01*
X150166263Y-62367388D01*
X150105079Y-62528717D01*
X150105078Y-62528718D01*
X150084282Y-62699998D01*
X150084282Y-62700001D01*
X148115718Y-62700001D01*
X148115718Y-62700000D01*
X148094921Y-62528717D01*
X148033737Y-62367389D01*
X147984730Y-62296390D01*
X147935724Y-62225392D01*
X147806575Y-62110977D01*
X147806574Y-62110976D01*
X147653797Y-62030792D01*
X147653796Y-62030791D01*
X147653795Y-62030791D01*
X147486272Y-61989500D01*
X147486270Y-61989500D01*
X147313730Y-61989500D01*
X147313727Y-61989500D01*
X147146204Y-62030791D01*
X146993424Y-62110977D01*
X146864275Y-62225392D01*
X146766263Y-62367388D01*
X146705079Y-62528717D01*
X146705078Y-62528718D01*
X146684282Y-62699998D01*
X146684282Y-62700001D01*
X145882541Y-62700001D01*
X145883004Y-62695000D01*
X145863031Y-62479461D01*
X145803794Y-62271262D01*
X145707308Y-62077493D01*
X145576860Y-61904752D01*
X145416893Y-61758923D01*
X145232853Y-61644970D01*
X145031008Y-61566775D01*
X145031007Y-61566774D01*
X145031005Y-61566774D01*
X144818231Y-61527000D01*
X144601769Y-61527000D01*
X144388994Y-61566774D01*
X144187146Y-61644970D01*
X144187141Y-61644973D01*
X144003111Y-61758920D01*
X144003109Y-61758921D01*
X144003107Y-61758923D01*
X143862380Y-61887212D01*
X143843141Y-61904751D01*
X143712693Y-62077491D01*
X143712688Y-62077500D01*
X143616206Y-62271261D01*
X143556969Y-62479459D01*
X143546772Y-62589500D01*
X143536996Y-62695000D01*
X138500000Y-62695000D01*
X138500000Y-60324500D01*
X138518907Y-60266309D01*
X138568407Y-60230345D01*
X138599000Y-60225500D01*
X176300500Y-60225500D01*
X176358691Y-60244407D01*
G37*
%TD.AperFunction*%
%TD*%
M02*
