%TF.GenerationSoftware,KiCad,Pcbnew,8.0.1*%
%TF.CreationDate,2024-04-03T20:32:23+03:00*%
%TF.ProjectId,gkos_pebble,676b6f73-5f70-4656-9262-6c652e6b6963,1*%
%TF.SameCoordinates,Original*%
%TF.FileFunction,Legend,Top*%
%TF.FilePolarity,Positive*%
%FSLAX46Y46*%
G04 Gerber Fmt 4.6, Leading zero omitted, Abs format (unit mm)*
G04 Created by KiCad (PCBNEW 8.0.1) date 2024-04-03 20:32:23*
%MOMM*%
%LPD*%
G01*
G04 APERTURE LIST*
G04 Aperture macros list*
%AMRoundRect*
0 Rectangle with rounded corners*
0 $1 Rounding radius*
0 $2 $3 $4 $5 $6 $7 $8 $9 X,Y pos of 4 corners*
0 Add a 4 corners polygon primitive as box body*
4,1,4,$2,$3,$4,$5,$6,$7,$8,$9,$2,$3,0*
0 Add four circle primitives for the rounded corners*
1,1,$1+$1,$2,$3*
1,1,$1+$1,$4,$5*
1,1,$1+$1,$6,$7*
1,1,$1+$1,$8,$9*
0 Add four rect primitives between the rounded corners*
20,1,$1+$1,$2,$3,$4,$5,0*
20,1,$1+$1,$4,$5,$6,$7,0*
20,1,$1+$1,$6,$7,$8,$9,0*
20,1,$1+$1,$8,$9,$2,$3,0*%
G04 Aperture macros list end*
%ADD10C,0.200000*%
%ADD11C,0.360000*%
%ADD12C,0.160000*%
%ADD13C,0.120000*%
%ADD14C,0.100000*%
%ADD15C,2.200000*%
%ADD16RoundRect,0.200000X0.275000X-0.200000X0.275000X0.200000X-0.275000X0.200000X-0.275000X-0.200000X0*%
%ADD17R,3.200000X1.200000*%
%ADD18RoundRect,0.200000X-0.275000X0.200000X-0.275000X-0.200000X0.275000X-0.200000X0.275000X0.200000X0*%
%ADD19RoundRect,0.225000X-0.250000X0.225000X-0.250000X-0.225000X0.250000X-0.225000X0.250000X0.225000X0*%
%ADD20R,1.000000X0.700000*%
%ADD21RoundRect,0.225000X0.250000X-0.225000X0.250000X0.225000X-0.250000X0.225000X-0.250000X-0.225000X0*%
%ADD22RoundRect,0.200000X-0.200000X-0.275000X0.200000X-0.275000X0.200000X0.275000X-0.200000X0.275000X0*%
%ADD23RoundRect,0.225000X-0.225000X-0.250000X0.225000X-0.250000X0.225000X0.250000X-0.225000X0.250000X0*%
%ADD24RoundRect,0.200000X0.200000X0.275000X-0.200000X0.275000X-0.200000X-0.275000X0.200000X-0.275000X0*%
%ADD25C,1.100000*%
%ADD26C,0.650000*%
%ADD27C,0.660000*%
%ADD28C,1.815000*%
G04 APERTURE END LIST*
D10*
X133255387Y-103267219D02*
X133255387Y-103981504D01*
X133255387Y-103981504D02*
X133207768Y-104124361D01*
X133207768Y-104124361D02*
X133112530Y-104219600D01*
X133112530Y-104219600D02*
X132969673Y-104267219D01*
X132969673Y-104267219D02*
X132874435Y-104267219D01*
X134207768Y-104267219D02*
X133731578Y-104267219D01*
X133731578Y-104267219D02*
X133731578Y-103267219D01*
X135112530Y-104171980D02*
X135064911Y-104219600D01*
X135064911Y-104219600D02*
X134922054Y-104267219D01*
X134922054Y-104267219D02*
X134826816Y-104267219D01*
X134826816Y-104267219D02*
X134683959Y-104219600D01*
X134683959Y-104219600D02*
X134588721Y-104124361D01*
X134588721Y-104124361D02*
X134541102Y-104029123D01*
X134541102Y-104029123D02*
X134493483Y-103838647D01*
X134493483Y-103838647D02*
X134493483Y-103695790D01*
X134493483Y-103695790D02*
X134541102Y-103505314D01*
X134541102Y-103505314D02*
X134588721Y-103410076D01*
X134588721Y-103410076D02*
X134683959Y-103314838D01*
X134683959Y-103314838D02*
X134826816Y-103267219D01*
X134826816Y-103267219D02*
X134922054Y-103267219D01*
X134922054Y-103267219D02*
X135064911Y-103314838D01*
X135064911Y-103314838D02*
X135112530Y-103362457D01*
X135826816Y-103267219D02*
X135826816Y-103981504D01*
X135826816Y-103981504D02*
X135779197Y-104124361D01*
X135779197Y-104124361D02*
X135683959Y-104219600D01*
X135683959Y-104219600D02*
X135541102Y-104267219D01*
X135541102Y-104267219D02*
X135445864Y-104267219D01*
X136779197Y-104267219D02*
X136303007Y-104267219D01*
X136303007Y-104267219D02*
X136303007Y-103267219D01*
X137683959Y-104171980D02*
X137636340Y-104219600D01*
X137636340Y-104219600D02*
X137493483Y-104267219D01*
X137493483Y-104267219D02*
X137398245Y-104267219D01*
X137398245Y-104267219D02*
X137255388Y-104219600D01*
X137255388Y-104219600D02*
X137160150Y-104124361D01*
X137160150Y-104124361D02*
X137112531Y-104029123D01*
X137112531Y-104029123D02*
X137064912Y-103838647D01*
X137064912Y-103838647D02*
X137064912Y-103695790D01*
X137064912Y-103695790D02*
X137112531Y-103505314D01*
X137112531Y-103505314D02*
X137160150Y-103410076D01*
X137160150Y-103410076D02*
X137255388Y-103314838D01*
X137255388Y-103314838D02*
X137398245Y-103267219D01*
X137398245Y-103267219D02*
X137493483Y-103267219D01*
X137493483Y-103267219D02*
X137636340Y-103314838D01*
X137636340Y-103314838D02*
X137683959Y-103362457D01*
X138398245Y-103267219D02*
X138398245Y-103981504D01*
X138398245Y-103981504D02*
X138350626Y-104124361D01*
X138350626Y-104124361D02*
X138255388Y-104219600D01*
X138255388Y-104219600D02*
X138112531Y-104267219D01*
X138112531Y-104267219D02*
X138017293Y-104267219D01*
X139350626Y-104267219D02*
X138874436Y-104267219D01*
X138874436Y-104267219D02*
X138874436Y-103267219D01*
X140255388Y-104171980D02*
X140207769Y-104219600D01*
X140207769Y-104219600D02*
X140064912Y-104267219D01*
X140064912Y-104267219D02*
X139969674Y-104267219D01*
X139969674Y-104267219D02*
X139826817Y-104219600D01*
X139826817Y-104219600D02*
X139731579Y-104124361D01*
X139731579Y-104124361D02*
X139683960Y-104029123D01*
X139683960Y-104029123D02*
X139636341Y-103838647D01*
X139636341Y-103838647D02*
X139636341Y-103695790D01*
X139636341Y-103695790D02*
X139683960Y-103505314D01*
X139683960Y-103505314D02*
X139731579Y-103410076D01*
X139731579Y-103410076D02*
X139826817Y-103314838D01*
X139826817Y-103314838D02*
X139969674Y-103267219D01*
X139969674Y-103267219D02*
X140064912Y-103267219D01*
X140064912Y-103267219D02*
X140207769Y-103314838D01*
X140207769Y-103314838D02*
X140255388Y-103362457D01*
X140969674Y-103267219D02*
X140969674Y-103981504D01*
X140969674Y-103981504D02*
X140922055Y-104124361D01*
X140922055Y-104124361D02*
X140826817Y-104219600D01*
X140826817Y-104219600D02*
X140683960Y-104267219D01*
X140683960Y-104267219D02*
X140588722Y-104267219D01*
X141922055Y-104267219D02*
X141445865Y-104267219D01*
X141445865Y-104267219D02*
X141445865Y-103267219D01*
X142826817Y-104171980D02*
X142779198Y-104219600D01*
X142779198Y-104219600D02*
X142636341Y-104267219D01*
X142636341Y-104267219D02*
X142541103Y-104267219D01*
X142541103Y-104267219D02*
X142398246Y-104219600D01*
X142398246Y-104219600D02*
X142303008Y-104124361D01*
X142303008Y-104124361D02*
X142255389Y-104029123D01*
X142255389Y-104029123D02*
X142207770Y-103838647D01*
X142207770Y-103838647D02*
X142207770Y-103695790D01*
X142207770Y-103695790D02*
X142255389Y-103505314D01*
X142255389Y-103505314D02*
X142303008Y-103410076D01*
X142303008Y-103410076D02*
X142398246Y-103314838D01*
X142398246Y-103314838D02*
X142541103Y-103267219D01*
X142541103Y-103267219D02*
X142636341Y-103267219D01*
X142636341Y-103267219D02*
X142779198Y-103314838D01*
X142779198Y-103314838D02*
X142826817Y-103362457D01*
D11*
G36*
X174426000Y-117098981D02*
G01*
X174108972Y-117098981D01*
X173034841Y-116233335D01*
X172940411Y-116176876D01*
X172924688Y-116171542D01*
X172827967Y-116157034D01*
X172717878Y-116178871D01*
X172627542Y-116234410D01*
X172560818Y-116318725D01*
X172534946Y-116427598D01*
X172534583Y-116443970D01*
X172551821Y-116550529D01*
X172608207Y-116647014D01*
X172613034Y-116652456D01*
X172702607Y-116716645D01*
X172806978Y-116745725D01*
X172844087Y-116749713D01*
X172844087Y-117098981D01*
X172724301Y-117089430D01*
X172614131Y-117062190D01*
X172513578Y-117017260D01*
X172422641Y-116954639D01*
X172374995Y-116910914D01*
X172303180Y-116825997D01*
X172242705Y-116720763D01*
X172205268Y-116606798D01*
X172191409Y-116499916D01*
X172190689Y-116468150D01*
X172199714Y-116349205D01*
X172226789Y-116239208D01*
X172271914Y-116138159D01*
X172335089Y-116046057D01*
X172379293Y-115997445D01*
X172465536Y-115923747D01*
X172559235Y-115868149D01*
X172660391Y-115830654D01*
X172769003Y-115811259D01*
X172834415Y-115808304D01*
X172944502Y-115816767D01*
X173059196Y-115846520D01*
X173164200Y-115897694D01*
X173228819Y-115943712D01*
X174082106Y-116629888D01*
X174082106Y-115808304D01*
X174426000Y-115808304D01*
X174426000Y-117098981D01*
G37*
G36*
X173922971Y-114325190D02*
G01*
X174040659Y-114350733D01*
X174144772Y-114395098D01*
X174235309Y-114458284D01*
X174291666Y-114514940D01*
X174357409Y-114603501D01*
X174412771Y-114710884D01*
X174447043Y-114824849D01*
X174460224Y-114945396D01*
X174460389Y-114960928D01*
X174452315Y-115068298D01*
X174423316Y-115184522D01*
X174373226Y-115293828D01*
X174312097Y-115383795D01*
X174291666Y-115408527D01*
X174210827Y-115484738D01*
X174116411Y-115542231D01*
X174008419Y-115581005D01*
X173886852Y-115601061D01*
X173811289Y-115604117D01*
X172841401Y-115604117D01*
X172729700Y-115597241D01*
X172611942Y-115571837D01*
X172507708Y-115527715D01*
X172416999Y-115464874D01*
X172360487Y-115408527D01*
X172294325Y-115320073D01*
X172238610Y-115212497D01*
X172204120Y-115098003D01*
X172190855Y-114976591D01*
X172190695Y-114961465D01*
X172534583Y-114961465D01*
X172553119Y-115074321D01*
X172613754Y-115169194D01*
X172618944Y-115174249D01*
X172713028Y-115231331D01*
X172818824Y-115252532D01*
X172855909Y-115253775D01*
X173795169Y-115253775D01*
X173908851Y-115240650D01*
X174011152Y-115192888D01*
X174033208Y-115174249D01*
X174095673Y-115081022D01*
X174116414Y-114969709D01*
X174116495Y-114961465D01*
X174098195Y-114849262D01*
X174038332Y-114754305D01*
X174033208Y-114749218D01*
X173939156Y-114691365D01*
X173832623Y-114669877D01*
X173795169Y-114668618D01*
X172855909Y-114668618D01*
X172743181Y-114681920D01*
X172641101Y-114730327D01*
X172618944Y-114749218D01*
X172555673Y-114842580D01*
X172534665Y-114953287D01*
X172534583Y-114961465D01*
X172190695Y-114961465D01*
X172190689Y-114960928D01*
X172201301Y-114839557D01*
X172233138Y-114724769D01*
X172286200Y-114616564D01*
X172350040Y-114527283D01*
X172360487Y-114514940D01*
X172441535Y-114438310D01*
X172536109Y-114380502D01*
X172644207Y-114341515D01*
X172765830Y-114321349D01*
X172841401Y-114318276D01*
X173811289Y-114318276D01*
X173922971Y-114325190D01*
G37*
G36*
X174426000Y-114145792D02*
G01*
X174108972Y-114145792D01*
X173034841Y-113280146D01*
X172940411Y-113223687D01*
X172924688Y-113218353D01*
X172827967Y-113203845D01*
X172717878Y-113225682D01*
X172627542Y-113281221D01*
X172560818Y-113365536D01*
X172534946Y-113474409D01*
X172534583Y-113490781D01*
X172551821Y-113597340D01*
X172608207Y-113693825D01*
X172613034Y-113699267D01*
X172702607Y-113763456D01*
X172806978Y-113792536D01*
X172844087Y-113796524D01*
X172844087Y-114145792D01*
X172724301Y-114136241D01*
X172614131Y-114109001D01*
X172513578Y-114064071D01*
X172422641Y-114001450D01*
X172374995Y-113957725D01*
X172303180Y-113872808D01*
X172242705Y-113767574D01*
X172205268Y-113653609D01*
X172191409Y-113546727D01*
X172190689Y-113514961D01*
X172199714Y-113396016D01*
X172226789Y-113286019D01*
X172271914Y-113184970D01*
X172335089Y-113092868D01*
X172379293Y-113044256D01*
X172465536Y-112970558D01*
X172559235Y-112914960D01*
X172660391Y-112877464D01*
X172769003Y-112858070D01*
X172834415Y-112855115D01*
X172944502Y-112863578D01*
X173059196Y-112893330D01*
X173164200Y-112944505D01*
X173228819Y-112990523D01*
X174082106Y-113676699D01*
X174082106Y-112855115D01*
X174426000Y-112855115D01*
X174426000Y-114145792D01*
G37*
G36*
X174116495Y-112730990D02*
G01*
X173786034Y-112730990D01*
X172190689Y-111986782D01*
X172190689Y-111597215D01*
X173772601Y-112342498D01*
X173772601Y-111812149D01*
X173138009Y-111812149D01*
X173138009Y-111461807D01*
X173772601Y-111461807D01*
X173772601Y-111285024D01*
X174116495Y-111285024D01*
X174116495Y-111461807D01*
X174426000Y-111461807D01*
X174426000Y-111812149D01*
X174116495Y-111812149D01*
X174116495Y-112730990D01*
G37*
G36*
X174426000Y-131374856D02*
G01*
X172844087Y-131374856D01*
X172844087Y-131024515D01*
X173003138Y-131035799D01*
X172996690Y-131041709D01*
X172914881Y-130960639D01*
X172856446Y-130864658D01*
X172821385Y-130753765D01*
X172809881Y-130644503D01*
X172809698Y-130627962D01*
X172816873Y-130519544D01*
X172843852Y-130412860D01*
X172870417Y-130358757D01*
X172934494Y-130265530D01*
X173005288Y-130185736D01*
X172929076Y-130100819D01*
X172871584Y-130002635D01*
X172832810Y-129891183D01*
X172814473Y-129785093D01*
X172809698Y-129689239D01*
X172823709Y-129572621D01*
X172860276Y-129469818D01*
X172919541Y-129369055D01*
X172953166Y-129324926D01*
X173032759Y-129248054D01*
X173128606Y-129193145D01*
X173240707Y-129160200D01*
X173352130Y-129149390D01*
X173369063Y-129149218D01*
X174426000Y-129149218D01*
X174426000Y-129499560D01*
X173473843Y-129499560D01*
X173361552Y-129513483D01*
X173259976Y-129564149D01*
X173237953Y-129583921D01*
X173174682Y-129677821D01*
X173153674Y-129784151D01*
X173153592Y-129791870D01*
X173172128Y-129902734D01*
X173232763Y-129998867D01*
X173237953Y-130004117D01*
X173331533Y-130063898D01*
X173436893Y-130086102D01*
X173473843Y-130087404D01*
X174426000Y-130087404D01*
X174426000Y-130436133D01*
X173473843Y-130436133D01*
X173361552Y-130450056D01*
X173259976Y-130500723D01*
X173237953Y-130520495D01*
X173174682Y-130614528D01*
X173153674Y-130721229D01*
X173153592Y-130728981D01*
X173172128Y-130839845D01*
X173232763Y-130935978D01*
X173237953Y-130941228D01*
X173331533Y-131001009D01*
X173436893Y-131023213D01*
X173473843Y-131024515D01*
X174426000Y-131024515D01*
X174426000Y-131374856D01*
G37*
G36*
X174426000Y-128761800D02*
G01*
X172822594Y-128761800D01*
X172822594Y-128411458D01*
X174426000Y-128411458D01*
X174426000Y-128761800D01*
G37*
G36*
X172534583Y-128761800D02*
G01*
X172190689Y-128761800D01*
X172190689Y-128411458D01*
X172534583Y-128411458D01*
X172534583Y-128761800D01*
G37*
G36*
X174426000Y-128033712D02*
G01*
X172844087Y-128033712D01*
X172844087Y-127683370D01*
X173003138Y-127694654D01*
X172996690Y-127700565D01*
X172914881Y-127620468D01*
X172856446Y-127524722D01*
X172821385Y-127413326D01*
X172809881Y-127303017D01*
X172809698Y-127286280D01*
X172823709Y-127169662D01*
X172860276Y-127066859D01*
X172919541Y-126966096D01*
X172953166Y-126921967D01*
X173032759Y-126845095D01*
X173128606Y-126790186D01*
X173240707Y-126757241D01*
X173352130Y-126746431D01*
X173369063Y-126746259D01*
X174426000Y-126746259D01*
X174426000Y-127096601D01*
X173473843Y-127096601D01*
X173361552Y-127110347D01*
X173259976Y-127160367D01*
X173237953Y-127179888D01*
X173174682Y-127273518D01*
X173153674Y-127380085D01*
X173153592Y-127387836D01*
X173172128Y-127498701D01*
X173232763Y-127594833D01*
X173237953Y-127600083D01*
X173331533Y-127659864D01*
X173436893Y-127682069D01*
X173473843Y-127683370D01*
X174426000Y-127683370D01*
X174426000Y-128033712D01*
G37*
G36*
X174426000Y-126362602D02*
G01*
X173084813Y-126362602D01*
X173084813Y-126519504D01*
X172809698Y-126519504D01*
X172809698Y-126362602D01*
X172573271Y-126362602D01*
X172198749Y-126012260D01*
X172809698Y-126012260D01*
X172809698Y-125782819D01*
X173084813Y-125782819D01*
X173084813Y-126012260D01*
X174426000Y-126012260D01*
X174426000Y-126362602D01*
G37*
G36*
X173772601Y-125259455D02*
G01*
X173885416Y-125245476D01*
X173983927Y-125198782D01*
X174026760Y-125160048D01*
X174084860Y-125069532D01*
X174113340Y-124960393D01*
X174116495Y-124903740D01*
X174101120Y-124789346D01*
X174054995Y-124681250D01*
X173987192Y-124589347D01*
X173959056Y-124559846D01*
X174177214Y-124307299D01*
X174258769Y-124381497D01*
X174331540Y-124467827D01*
X174389891Y-124567518D01*
X174398058Y-124586175D01*
X174433545Y-124690334D01*
X174454302Y-124797413D01*
X174460389Y-124897292D01*
X174452675Y-125004736D01*
X174429534Y-125110792D01*
X174390966Y-125215459D01*
X174336970Y-125318738D01*
X174299189Y-125377131D01*
X174212410Y-125467789D01*
X174112528Y-125527773D01*
X174011314Y-125565263D01*
X173893754Y-125591393D01*
X173759848Y-125606162D01*
X173640954Y-125609797D01*
X173528181Y-125606447D01*
X173399872Y-125592838D01*
X173285625Y-125568760D01*
X173167092Y-125526049D01*
X173068811Y-125468262D01*
X172990780Y-125395401D01*
X172920222Y-125300416D01*
X172866993Y-125203528D01*
X172827382Y-125090470D01*
X172810405Y-124974926D01*
X172809698Y-124945652D01*
X173153592Y-124945652D01*
X173169636Y-125053982D01*
X173222436Y-125150647D01*
X173237416Y-125167571D01*
X173328485Y-125231264D01*
X173436917Y-125257476D01*
X173463096Y-125258918D01*
X173463096Y-124632386D01*
X173357157Y-124651016D01*
X173259161Y-124705791D01*
X173237416Y-124726420D01*
X173177249Y-124817945D01*
X173153919Y-124929305D01*
X173153592Y-124945652D01*
X172809698Y-124945652D01*
X172818389Y-124832918D01*
X172844461Y-124726510D01*
X172887915Y-124626427D01*
X172948750Y-124532669D01*
X172991317Y-124481933D01*
X173076792Y-124404465D01*
X173174300Y-124346025D01*
X173283842Y-124306611D01*
X173405417Y-124286225D01*
X173480291Y-124283119D01*
X173772601Y-124283119D01*
X173772601Y-125259455D01*
G37*
G36*
X174351847Y-123656587D02*
G01*
X172809698Y-124225624D01*
X172809698Y-123855938D01*
X173917681Y-123490551D01*
X173917681Y-123496461D01*
X172809698Y-123131074D01*
X172809698Y-122760314D01*
X174753773Y-123442728D01*
X174860411Y-123490857D01*
X174950197Y-123555678D01*
X175011157Y-123632944D01*
X175055340Y-123735610D01*
X175076999Y-123847143D01*
X175079398Y-123901612D01*
X175079398Y-124024661D01*
X174735504Y-124024661D01*
X174735504Y-123913433D01*
X174704070Y-123805563D01*
X174609768Y-123740949D01*
X174351847Y-123656587D01*
G37*
G36*
X174426000Y-121794724D02*
G01*
X174298089Y-121784510D01*
X174377126Y-121841706D01*
X174417939Y-121908101D01*
X174448409Y-122011528D01*
X174459726Y-122121793D01*
X174460389Y-122159574D01*
X174451349Y-122270423D01*
X174425213Y-122381870D01*
X174375658Y-122487818D01*
X174313697Y-122564724D01*
X174228604Y-122637453D01*
X174131100Y-122686380D01*
X174021184Y-122711504D01*
X173954757Y-122715177D01*
X173843402Y-122704891D01*
X173732136Y-122669335D01*
X173633988Y-122608381D01*
X173607102Y-122585143D01*
X173538793Y-122502047D01*
X173492247Y-122399655D01*
X173469142Y-122292440D01*
X173463096Y-122202023D01*
X173463096Y-121794724D01*
X173772601Y-121794724D01*
X173772601Y-122144528D01*
X173785732Y-122254380D01*
X173835263Y-122353551D01*
X173940787Y-122393314D01*
X174040846Y-122351457D01*
X174060612Y-122329909D01*
X174107272Y-122226788D01*
X174116495Y-122121960D01*
X174112628Y-122005819D01*
X174091176Y-121897122D01*
X174073508Y-121859204D01*
X173980029Y-121805366D01*
X173867172Y-121794724D01*
X173772601Y-121794724D01*
X173463096Y-121794724D01*
X173325002Y-121794724D01*
X173217778Y-121835528D01*
X173167791Y-121933717D01*
X173153569Y-122054281D01*
X173153592Y-122090258D01*
X173160903Y-122197613D01*
X173176697Y-122264891D01*
X173248633Y-122350529D01*
X173285239Y-122373433D01*
X173068693Y-122644249D01*
X172978874Y-122567345D01*
X172908097Y-122479296D01*
X172856362Y-122380101D01*
X172823669Y-122269761D01*
X172810017Y-122148275D01*
X172809698Y-122105303D01*
X172814231Y-121983680D01*
X172830180Y-121872702D01*
X172862386Y-121758905D01*
X172909504Y-121659011D01*
X172923613Y-121636210D01*
X173006779Y-121549979D01*
X173103113Y-121496523D01*
X173220537Y-121464896D01*
X173340584Y-121455129D01*
X174426000Y-121455129D01*
X174426000Y-121794724D01*
G37*
G36*
X174351847Y-120810865D02*
G01*
X172809698Y-121379902D01*
X172809698Y-121010216D01*
X173917681Y-120644829D01*
X173917681Y-120650739D01*
X172809698Y-120285352D01*
X172809698Y-119914591D01*
X174753773Y-120597006D01*
X174860411Y-120645135D01*
X174950197Y-120709956D01*
X175011157Y-120787222D01*
X175055340Y-120889888D01*
X175076999Y-121001421D01*
X175079398Y-121055889D01*
X175079398Y-121178939D01*
X174735504Y-121178939D01*
X174735504Y-121067711D01*
X174704070Y-120959841D01*
X174609768Y-120895226D01*
X174351847Y-120810865D01*
G37*
G36*
X124668124Y-115548932D02*
G01*
X125012018Y-115548932D01*
X125012018Y-116366217D01*
X124542925Y-116366217D01*
X124420230Y-116358019D01*
X124304827Y-116333423D01*
X124196716Y-116292430D01*
X124095896Y-116235040D01*
X124002369Y-116161254D01*
X123972813Y-116133014D01*
X123893561Y-116041936D01*
X123830705Y-115943604D01*
X123784247Y-115838018D01*
X123754185Y-115725177D01*
X123740521Y-115605083D01*
X123739610Y-115563440D01*
X123745781Y-115451371D01*
X123767946Y-115333241D01*
X123806231Y-115225724D01*
X123860636Y-115128819D01*
X123868570Y-115117452D01*
X123942853Y-115024232D01*
X124020621Y-114947078D01*
X124111118Y-114880194D01*
X124148521Y-114858995D01*
X124246351Y-114814161D01*
X124352446Y-114784439D01*
X124367217Y-114781618D01*
X124482573Y-114769382D01*
X124591090Y-114764239D01*
X124705838Y-114761468D01*
X124816786Y-114760314D01*
X124890043Y-114760125D01*
X125009492Y-114760650D01*
X125134372Y-114762665D01*
X125254614Y-114766926D01*
X125368935Y-114775427D01*
X125412869Y-114781618D01*
X125520066Y-114809325D01*
X125618998Y-114852144D01*
X125631564Y-114858995D01*
X125722911Y-114917944D01*
X125810899Y-114996728D01*
X125887218Y-115084594D01*
X125912053Y-115117452D01*
X125969648Y-115213031D01*
X126010788Y-115319221D01*
X126035471Y-115436024D01*
X126043571Y-115546933D01*
X126043699Y-115563440D01*
X126036767Y-115679441D01*
X126015968Y-115787659D01*
X125974178Y-115904077D01*
X125913516Y-116009902D01*
X125846498Y-116092177D01*
X125755620Y-116176348D01*
X125655536Y-116245966D01*
X125546248Y-116301030D01*
X125427755Y-116341542D01*
X125355912Y-116358157D01*
X125355912Y-115972889D01*
X125455173Y-115927061D01*
X125540778Y-115860304D01*
X125575681Y-115822435D01*
X125633781Y-115728106D01*
X125662261Y-115618878D01*
X125665416Y-115563440D01*
X125652223Y-115451620D01*
X125618668Y-115367313D01*
X125554566Y-115277519D01*
X125510664Y-115236741D01*
X125412735Y-115179030D01*
X125329045Y-115151304D01*
X125221192Y-115137552D01*
X125111844Y-115131910D01*
X124991592Y-115129287D01*
X124891655Y-115128736D01*
X124772568Y-115129530D01*
X124655026Y-115132461D01*
X124537753Y-115139403D01*
X124452115Y-115151304D01*
X124347008Y-115189709D01*
X124273720Y-115236741D01*
X124197432Y-115314792D01*
X124163567Y-115367313D01*
X124126636Y-115470097D01*
X124117893Y-115563440D01*
X124130120Y-115672344D01*
X124171812Y-115779170D01*
X124243092Y-115872407D01*
X124329181Y-115938713D01*
X124430278Y-115980462D01*
X124546382Y-115997652D01*
X124571404Y-115998143D01*
X124668124Y-115998143D01*
X124668124Y-115548932D01*
G37*
G36*
X123774000Y-116712798D02*
G01*
X126009310Y-116712798D01*
X126009310Y-117081409D01*
X124865325Y-117071737D01*
X124873385Y-117064214D01*
X126009310Y-117968548D01*
X126009310Y-118410237D01*
X125122171Y-117689672D01*
X123774000Y-118478478D01*
X123774000Y-118042163D01*
X124838459Y-117447334D01*
X124454802Y-117081409D01*
X123774000Y-117081409D01*
X123774000Y-116712798D01*
G37*
G36*
X125009492Y-118577872D02*
G01*
X125134372Y-118579887D01*
X125254614Y-118584148D01*
X125368935Y-118592649D01*
X125412869Y-118598841D01*
X125520066Y-118626547D01*
X125618998Y-118669366D01*
X125631564Y-118676217D01*
X125722911Y-118735167D01*
X125810899Y-118813951D01*
X125887218Y-118901816D01*
X125912053Y-118934675D01*
X125969648Y-119030253D01*
X126010788Y-119136444D01*
X126035471Y-119253247D01*
X126043571Y-119364155D01*
X126043699Y-119380662D01*
X126037400Y-119491868D01*
X126014773Y-119609200D01*
X125975690Y-119716121D01*
X125920152Y-119812631D01*
X125912053Y-119823963D01*
X125836858Y-119917699D01*
X125758774Y-119995793D01*
X125668623Y-120064219D01*
X125631564Y-120086182D01*
X125526918Y-120132259D01*
X125420273Y-120160571D01*
X125412869Y-120161946D01*
X125297755Y-120174183D01*
X125189260Y-120179326D01*
X125074449Y-120182096D01*
X124963390Y-120183251D01*
X124890043Y-120183440D01*
X124770735Y-120182915D01*
X124645956Y-120180900D01*
X124525736Y-120176639D01*
X124411292Y-120168138D01*
X124367217Y-120161946D01*
X124260020Y-120134594D01*
X124154786Y-120089542D01*
X124148521Y-120086182D01*
X124056304Y-120025480D01*
X123968389Y-119945468D01*
X123892944Y-119856946D01*
X123868570Y-119823963D01*
X123812150Y-119728754D01*
X123771850Y-119623135D01*
X123747670Y-119507104D01*
X123739736Y-119397037D01*
X123739610Y-119380662D01*
X124117893Y-119380662D01*
X124130784Y-119492330D01*
X124163567Y-119576252D01*
X124228257Y-119666256D01*
X124273720Y-119707362D01*
X124369307Y-119764903D01*
X124452115Y-119792260D01*
X124560523Y-119806340D01*
X124670407Y-119812117D01*
X124791240Y-119814802D01*
X124891655Y-119815366D01*
X125010175Y-119814554D01*
X125127151Y-119811553D01*
X125243848Y-119804445D01*
X125329045Y-119792260D01*
X125435437Y-119754290D01*
X125510664Y-119707362D01*
X125584814Y-119629553D01*
X125618668Y-119576789D01*
X125656468Y-119474005D01*
X125665416Y-119380662D01*
X125652223Y-119268843D01*
X125618668Y-119184535D01*
X125554566Y-119094742D01*
X125510664Y-119053963D01*
X125412735Y-118996252D01*
X125329045Y-118968527D01*
X125221192Y-118954775D01*
X125111844Y-118949133D01*
X124991592Y-118946510D01*
X124891655Y-118945959D01*
X124772568Y-118946752D01*
X124655026Y-118949684D01*
X124537753Y-118956626D01*
X124452115Y-118968527D01*
X124347008Y-119006932D01*
X124273720Y-119053963D01*
X124197432Y-119132015D01*
X124163567Y-119184535D01*
X124126636Y-119287320D01*
X124117893Y-119380662D01*
X123739610Y-119380662D01*
X123745781Y-119268594D01*
X123767946Y-119150464D01*
X123806231Y-119042947D01*
X123860636Y-118946042D01*
X123868570Y-118934675D01*
X123942853Y-118841454D01*
X124020621Y-118764300D01*
X124111118Y-118697417D01*
X124148521Y-118676217D01*
X124246351Y-118631383D01*
X124352446Y-118601662D01*
X124367217Y-118598841D01*
X124482573Y-118586604D01*
X124591090Y-118581462D01*
X124705838Y-118578691D01*
X124816786Y-118577537D01*
X124890043Y-118577348D01*
X125009492Y-118577872D01*
G37*
G36*
X124067921Y-120331207D02*
G01*
X124345186Y-120573545D01*
X124276341Y-120669125D01*
X124219053Y-120770421D01*
X124177000Y-120867466D01*
X124143349Y-120978528D01*
X124123666Y-121093019D01*
X124117893Y-121200076D01*
X124125817Y-121315677D01*
X124152836Y-121422836D01*
X124199031Y-121509043D01*
X124279488Y-121584711D01*
X124386693Y-121618761D01*
X124410741Y-121619734D01*
X124521129Y-121602741D01*
X124613764Y-121542999D01*
X124672991Y-121440244D01*
X124693916Y-121347843D01*
X124707618Y-121239940D01*
X124712185Y-121206524D01*
X124727701Y-121097513D01*
X124733678Y-121056071D01*
X124758024Y-120934793D01*
X124795329Y-120826732D01*
X124853831Y-120719416D01*
X124929260Y-120629362D01*
X124950762Y-120609546D01*
X125043653Y-120542312D01*
X125145545Y-120494288D01*
X125256438Y-120465473D01*
X125376330Y-120455868D01*
X125498600Y-120465099D01*
X125611047Y-120492791D01*
X125713672Y-120538945D01*
X125806475Y-120603560D01*
X125855095Y-120648771D01*
X125928584Y-120740832D01*
X125984024Y-120847755D01*
X126017177Y-120951232D01*
X126037069Y-121065627D01*
X126043699Y-121190942D01*
X126038344Y-121305613D01*
X126022277Y-121416288D01*
X125995500Y-121522969D01*
X125975995Y-121580509D01*
X125934601Y-121681739D01*
X125885981Y-121780504D01*
X125830136Y-121876804D01*
X125795988Y-121929239D01*
X125489708Y-121724515D01*
X125547211Y-121624117D01*
X125593984Y-121522813D01*
X125619205Y-121454773D01*
X125649125Y-121342905D01*
X125663792Y-121229086D01*
X125665416Y-121175896D01*
X125653001Y-121063114D01*
X125611861Y-120958913D01*
X125590189Y-120926036D01*
X125503135Y-120853141D01*
X125392058Y-120825372D01*
X125364509Y-120824480D01*
X125258343Y-120851136D01*
X125198473Y-120892721D01*
X125134127Y-120984337D01*
X125101035Y-121093196D01*
X125095842Y-121122700D01*
X125079722Y-121228018D01*
X125066472Y-121335721D01*
X125062527Y-121369874D01*
X125042396Y-121482374D01*
X125005205Y-121599012D01*
X124953255Y-121699915D01*
X124886546Y-121785081D01*
X124829861Y-121836280D01*
X124730857Y-121902574D01*
X124626749Y-121949926D01*
X124517536Y-121978338D01*
X124403218Y-121987808D01*
X124289905Y-121980214D01*
X124170266Y-121952158D01*
X124064152Y-121903430D01*
X123971562Y-121834029D01*
X123913706Y-121771800D01*
X123845870Y-121670640D01*
X123800986Y-121572963D01*
X123768343Y-121465160D01*
X123747941Y-121347232D01*
X123739780Y-121219179D01*
X123739610Y-121196852D01*
X123744740Y-121073190D01*
X123760130Y-120953944D01*
X123785779Y-120839114D01*
X123821688Y-120728700D01*
X123867857Y-120622702D01*
X123924285Y-120521121D01*
X123990973Y-120423956D01*
X124067921Y-120331207D01*
G37*
G36*
X125355912Y-123356936D02*
G01*
X125238235Y-123356936D01*
X125311744Y-123444324D01*
X125361195Y-123548714D01*
X125384955Y-123655778D01*
X125390301Y-123744891D01*
X125380280Y-123858301D01*
X125347074Y-123965558D01*
X125329582Y-124000125D01*
X125266314Y-124093114D01*
X125189351Y-124169574D01*
X125178054Y-124178520D01*
X125082811Y-124235209D01*
X124973330Y-124269867D01*
X124861270Y-124284602D01*
X124744398Y-124291190D01*
X124634045Y-124293669D01*
X124563344Y-124294047D01*
X124443840Y-124292890D01*
X124327793Y-124288734D01*
X124213525Y-124279289D01*
X124153895Y-124269867D01*
X124050925Y-124238020D01*
X123956186Y-124182709D01*
X123950782Y-124178520D01*
X123870686Y-124104264D01*
X123805702Y-124013479D01*
X123798180Y-124000125D01*
X123758142Y-123898378D01*
X123741040Y-123790085D01*
X123739610Y-123744891D01*
X123748943Y-123649783D01*
X124083504Y-123649783D01*
X124097987Y-123764156D01*
X124153601Y-123858458D01*
X124231808Y-123901256D01*
X124338264Y-123925424D01*
X124452974Y-123939560D01*
X124564418Y-123943705D01*
X124675632Y-123939560D01*
X124790330Y-123925424D01*
X124897028Y-123901256D01*
X124993745Y-123839274D01*
X125039259Y-123733260D01*
X125046407Y-123649783D01*
X125031295Y-123535463D01*
X124973262Y-123441363D01*
X124891655Y-123398848D01*
X124783167Y-123374986D01*
X124670489Y-123361029D01*
X124564418Y-123356936D01*
X124447688Y-123361825D01*
X124335403Y-123376492D01*
X124237182Y-123398311D01*
X124143534Y-123453320D01*
X124093109Y-123555481D01*
X124083504Y-123649783D01*
X123748943Y-123649783D01*
X123750708Y-123631791D01*
X123787012Y-123523905D01*
X123790120Y-123517599D01*
X123846025Y-123422211D01*
X123898124Y-123356936D01*
X123120601Y-123356936D01*
X123120601Y-123006594D01*
X125355912Y-123006594D01*
X125355912Y-123356936D01*
G37*
G36*
X124671818Y-124522540D02*
G01*
X124800127Y-124536149D01*
X124914374Y-124560227D01*
X125032907Y-124602939D01*
X125131188Y-124660725D01*
X125209219Y-124733586D01*
X125279777Y-124828571D01*
X125333006Y-124925459D01*
X125372617Y-125038517D01*
X125389594Y-125154061D01*
X125390301Y-125183335D01*
X125381610Y-125296069D01*
X125355538Y-125402477D01*
X125312084Y-125502561D01*
X125251249Y-125596319D01*
X125208682Y-125647055D01*
X125123207Y-125724522D01*
X125025699Y-125782962D01*
X124916157Y-125822376D01*
X124794582Y-125842762D01*
X124719708Y-125845868D01*
X124427398Y-125845868D01*
X124427398Y-124870069D01*
X124736903Y-124870069D01*
X124736903Y-125496601D01*
X124842842Y-125477971D01*
X124940838Y-125423196D01*
X124962583Y-125402568D01*
X125022750Y-125311042D01*
X125046080Y-125199682D01*
X125046407Y-125183335D01*
X125030363Y-125075006D01*
X124977563Y-124978341D01*
X124962583Y-124961416D01*
X124871514Y-124897723D01*
X124763082Y-124871511D01*
X124736903Y-124870069D01*
X124427398Y-124870069D01*
X124427398Y-124869532D01*
X124314583Y-124883511D01*
X124216072Y-124930205D01*
X124173239Y-124968939D01*
X124115139Y-125059455D01*
X124086659Y-125168594D01*
X124083504Y-125225247D01*
X124098879Y-125339641D01*
X124145004Y-125447737D01*
X124212807Y-125539640D01*
X124240943Y-125569141D01*
X124022785Y-125821688D01*
X123941230Y-125747490D01*
X123868459Y-125661160D01*
X123810108Y-125561469D01*
X123801941Y-125542812D01*
X123766454Y-125438653D01*
X123745697Y-125331574D01*
X123739610Y-125231695D01*
X123747324Y-125124251D01*
X123770465Y-125018195D01*
X123809033Y-124913528D01*
X123863029Y-124810249D01*
X123900810Y-124751856D01*
X123987589Y-124661198D01*
X124087471Y-124601214D01*
X124188685Y-124563724D01*
X124306245Y-124537594D01*
X124440151Y-124522825D01*
X124559045Y-124519190D01*
X124671818Y-124522540D01*
G37*
G36*
X126009310Y-126486371D02*
G01*
X125230713Y-126486371D01*
X125298887Y-126577340D01*
X125338180Y-126647034D01*
X125377271Y-126754098D01*
X125390250Y-126866426D01*
X125390301Y-126874326D01*
X125380280Y-126987736D01*
X125347074Y-127094993D01*
X125329582Y-127129560D01*
X125266314Y-127222549D01*
X125189351Y-127299009D01*
X125178054Y-127307955D01*
X125082811Y-127364644D01*
X124973330Y-127399302D01*
X124861724Y-127414036D01*
X124745787Y-127420624D01*
X124636513Y-127423104D01*
X124566568Y-127423482D01*
X124446385Y-127422325D01*
X124329624Y-127418169D01*
X124214558Y-127408723D01*
X124154432Y-127399302D01*
X124051077Y-127367455D01*
X123956187Y-127312143D01*
X123950782Y-127307955D01*
X123870686Y-127233699D01*
X123805702Y-127142913D01*
X123798180Y-127129560D01*
X123758142Y-127027813D01*
X123741040Y-126919519D01*
X123739610Y-126874326D01*
X123747260Y-126779218D01*
X124083504Y-126779218D01*
X124097987Y-126893590D01*
X124153601Y-126987893D01*
X124231808Y-127030690D01*
X124338581Y-127054858D01*
X124454244Y-127068994D01*
X124567105Y-127073140D01*
X124677647Y-127068994D01*
X124791606Y-127054858D01*
X124897565Y-127030690D01*
X124993935Y-126968709D01*
X125039285Y-126862695D01*
X125046407Y-126779218D01*
X125031295Y-126664898D01*
X124973262Y-126570797D01*
X124891655Y-126528283D01*
X124783485Y-126504421D01*
X124671759Y-126490464D01*
X124567105Y-126486371D01*
X124449699Y-126491323D01*
X124336866Y-126506181D01*
X124238256Y-126528283D01*
X124143954Y-126583217D01*
X124093176Y-126685151D01*
X124083504Y-126779218D01*
X123747260Y-126779218D01*
X123749081Y-126756583D01*
X123777492Y-126652676D01*
X123832096Y-126552319D01*
X123891138Y-126486371D01*
X123774000Y-126486371D01*
X123774000Y-126136029D01*
X126009310Y-126136029D01*
X126009310Y-126486371D01*
G37*
G36*
X126009310Y-128083328D02*
G01*
X125230713Y-128083328D01*
X125298887Y-128174297D01*
X125338180Y-128243991D01*
X125377271Y-128351055D01*
X125390250Y-128463384D01*
X125390301Y-128471284D01*
X125380280Y-128584693D01*
X125347074Y-128691950D01*
X125329582Y-128726517D01*
X125266314Y-128819507D01*
X125189351Y-128895966D01*
X125178054Y-128904912D01*
X125082811Y-128961601D01*
X124973330Y-128996259D01*
X124861724Y-129010994D01*
X124745787Y-129017582D01*
X124636513Y-129020061D01*
X124566568Y-129020439D01*
X124446385Y-129019282D01*
X124329624Y-129015126D01*
X124214558Y-129005681D01*
X124154432Y-128996259D01*
X124051077Y-128964413D01*
X123956187Y-128909101D01*
X123950782Y-128904912D01*
X123870686Y-128830656D01*
X123805702Y-128739871D01*
X123798180Y-128726517D01*
X123758142Y-128624770D01*
X123741040Y-128516477D01*
X123739610Y-128471284D01*
X123747260Y-128376175D01*
X124083504Y-128376175D01*
X124097987Y-128490548D01*
X124153601Y-128584850D01*
X124231808Y-128627648D01*
X124338581Y-128651816D01*
X124454244Y-128665952D01*
X124567105Y-128670097D01*
X124677647Y-128665952D01*
X124791606Y-128651816D01*
X124897565Y-128627648D01*
X124993935Y-128565666D01*
X125039285Y-128459652D01*
X125046407Y-128376175D01*
X125031295Y-128261855D01*
X124973262Y-128167755D01*
X124891655Y-128125240D01*
X124783485Y-128101378D01*
X124671759Y-128087421D01*
X124567105Y-128083328D01*
X124449699Y-128088281D01*
X124336866Y-128103138D01*
X124238256Y-128125240D01*
X124143954Y-128180174D01*
X124093176Y-128282108D01*
X124083504Y-128376175D01*
X123747260Y-128376175D01*
X123749081Y-128353540D01*
X123777492Y-128249633D01*
X123832096Y-128149277D01*
X123891138Y-128083328D01*
X123774000Y-128083328D01*
X123774000Y-127732986D01*
X126009310Y-127732986D01*
X126009310Y-128083328D01*
G37*
G36*
X124170552Y-129329944D02*
G01*
X126009310Y-129329944D01*
X126009310Y-129680286D01*
X124208703Y-129680286D01*
X124121086Y-129746619D01*
X124117893Y-129780767D01*
X124117893Y-129905429D01*
X123774000Y-129905429D01*
X123774000Y-129749064D01*
X123784412Y-129633824D01*
X123819524Y-129523313D01*
X123862122Y-129450844D01*
X123946803Y-129377170D01*
X124057085Y-129339507D01*
X124170552Y-129329944D01*
G37*
G36*
X124671818Y-130042038D02*
G01*
X124800127Y-130055647D01*
X124914374Y-130079724D01*
X125032907Y-130122436D01*
X125131188Y-130180223D01*
X125209219Y-130253084D01*
X125279777Y-130348069D01*
X125333006Y-130444956D01*
X125372617Y-130558015D01*
X125389594Y-130673558D01*
X125390301Y-130702833D01*
X125381610Y-130815566D01*
X125355538Y-130921975D01*
X125312084Y-131022058D01*
X125251249Y-131115816D01*
X125208682Y-131166552D01*
X125123207Y-131244020D01*
X125025699Y-131302460D01*
X124916157Y-131341873D01*
X124794582Y-131362259D01*
X124719708Y-131365366D01*
X124427398Y-131365366D01*
X124427398Y-130389567D01*
X124736903Y-130389567D01*
X124736903Y-131016099D01*
X124842842Y-130997469D01*
X124940838Y-130942694D01*
X124962583Y-130922065D01*
X125022750Y-130830540D01*
X125046080Y-130719179D01*
X125046407Y-130702833D01*
X125030363Y-130594503D01*
X124977563Y-130497838D01*
X124962583Y-130480914D01*
X124871514Y-130417221D01*
X124763082Y-130391009D01*
X124736903Y-130389567D01*
X124427398Y-130389567D01*
X124427398Y-130389030D01*
X124314583Y-130403009D01*
X124216072Y-130449703D01*
X124173239Y-130488436D01*
X124115139Y-130578953D01*
X124086659Y-130688092D01*
X124083504Y-130744745D01*
X124098879Y-130859138D01*
X124145004Y-130967235D01*
X124212807Y-131059138D01*
X124240943Y-131088639D01*
X124022785Y-131341186D01*
X123941230Y-131266988D01*
X123868459Y-131180658D01*
X123810108Y-131080967D01*
X123801941Y-131062309D01*
X123766454Y-130958151D01*
X123745697Y-130851072D01*
X123739610Y-130751193D01*
X123747324Y-130643749D01*
X123770465Y-130537693D01*
X123809033Y-130433025D01*
X123863029Y-130329746D01*
X123900810Y-130271353D01*
X123987589Y-130180695D01*
X124087471Y-130120711D01*
X124188685Y-130083221D01*
X124306245Y-130057092D01*
X124440151Y-130042323D01*
X124559045Y-130038688D01*
X124671818Y-130042038D01*
G37*
D12*
G36*
X159098000Y-89522875D02*
G01*
X158591538Y-89770830D01*
X158591538Y-89988890D01*
X159098000Y-89988890D01*
X159098000Y-90189951D01*
X157878739Y-90189951D01*
X157878739Y-89988890D01*
X158066318Y-89988890D01*
X158403959Y-89988890D01*
X158403959Y-89723056D01*
X158397725Y-89661608D01*
X158374284Y-89604079D01*
X158351203Y-89576803D01*
X158301450Y-89543544D01*
X158244517Y-89528910D01*
X158226932Y-89528150D01*
X158165269Y-89537583D01*
X158114876Y-89568838D01*
X158100903Y-89585303D01*
X158074964Y-89641284D01*
X158066453Y-89702769D01*
X158066318Y-89712505D01*
X158066318Y-89988890D01*
X157878739Y-89988890D01*
X157878739Y-89710746D01*
X157882638Y-89644887D01*
X157894335Y-89585284D01*
X157917251Y-89524824D01*
X157950352Y-89472535D01*
X157960219Y-89460739D01*
X158003832Y-89418576D01*
X158052166Y-89384750D01*
X158072766Y-89373105D01*
X158130291Y-89349764D01*
X158192846Y-89338322D01*
X158223415Y-89337055D01*
X158288358Y-89342132D01*
X158348990Y-89357364D01*
X158405309Y-89382750D01*
X158434734Y-89401242D01*
X158481792Y-89440126D01*
X158519762Y-89484900D01*
X158551292Y-89541555D01*
X158560763Y-89566252D01*
X159098000Y-89285471D01*
X159098000Y-89522875D01*
G37*
G36*
X158929179Y-89271695D02*
G01*
X158748928Y-89271695D01*
X157878739Y-88865764D01*
X157878739Y-88653272D01*
X158741600Y-89059790D01*
X158741600Y-88770509D01*
X158395459Y-88770509D01*
X158395459Y-88579413D01*
X158741600Y-88579413D01*
X158741600Y-88482986D01*
X158929179Y-88482986D01*
X158929179Y-88579413D01*
X159098000Y-88579413D01*
X159098000Y-88770509D01*
X158929179Y-88770509D01*
X158929179Y-89271695D01*
G37*
G36*
X158823620Y-87725013D02*
G01*
X158887814Y-87738946D01*
X158944603Y-87763145D01*
X158993986Y-87797610D01*
X159024727Y-87828513D01*
X159060586Y-87876819D01*
X159090784Y-87935391D01*
X159109478Y-87997554D01*
X159116667Y-88063307D01*
X159116757Y-88071779D01*
X159112354Y-88130345D01*
X159096536Y-88193740D01*
X159069214Y-88253361D01*
X159035871Y-88302434D01*
X159024727Y-88315924D01*
X158980632Y-88357494D01*
X158929133Y-88388854D01*
X158870229Y-88410003D01*
X158803919Y-88420942D01*
X158762703Y-88422609D01*
X158233673Y-88422609D01*
X158172745Y-88418859D01*
X158108513Y-88405002D01*
X158051659Y-88380935D01*
X158002181Y-88346659D01*
X157971356Y-88315924D01*
X157935268Y-88267677D01*
X157904878Y-88208999D01*
X157886065Y-88146547D01*
X157878830Y-88080322D01*
X157878742Y-88072072D01*
X158066318Y-88072072D01*
X158076429Y-88133630D01*
X158109502Y-88185379D01*
X158112333Y-88188136D01*
X158163651Y-88219272D01*
X158221358Y-88230836D01*
X158241586Y-88231514D01*
X158753910Y-88231514D01*
X158815919Y-88224355D01*
X158871719Y-88198303D01*
X158883750Y-88188136D01*
X158917822Y-88137285D01*
X158929134Y-88076569D01*
X158929179Y-88072072D01*
X158919197Y-88010871D01*
X158886545Y-87959076D01*
X158883750Y-87956301D01*
X158832449Y-87924745D01*
X158774340Y-87913024D01*
X158753910Y-87912337D01*
X158241586Y-87912337D01*
X158180099Y-87919593D01*
X158124419Y-87945997D01*
X158112333Y-87956301D01*
X158077822Y-88007226D01*
X158066363Y-88067611D01*
X158066318Y-88072072D01*
X157878742Y-88072072D01*
X157878739Y-88071779D01*
X157884528Y-88005577D01*
X157901893Y-87942965D01*
X157930836Y-87883944D01*
X157965658Y-87835246D01*
X157971356Y-87828513D01*
X158015565Y-87786715D01*
X158067150Y-87755183D01*
X158126113Y-87733917D01*
X158192452Y-87722918D01*
X158233673Y-87721242D01*
X158762703Y-87721242D01*
X158823620Y-87725013D01*
G37*
G36*
X166036651Y-92637678D02*
G01*
X166168835Y-92486443D01*
X166220970Y-92523995D01*
X166276222Y-92555243D01*
X166329156Y-92578181D01*
X166389735Y-92596536D01*
X166452184Y-92607273D01*
X166510579Y-92610421D01*
X166573634Y-92606099D01*
X166632085Y-92591361D01*
X166679107Y-92566164D01*
X166720380Y-92522278D01*
X166738953Y-92463803D01*
X166739484Y-92450686D01*
X166730215Y-92390474D01*
X166697628Y-92339946D01*
X166641580Y-92307640D01*
X166591179Y-92296227D01*
X166532323Y-92288753D01*
X166514096Y-92286262D01*
X166454636Y-92277799D01*
X166432031Y-92274538D01*
X166365879Y-92261259D01*
X166306937Y-92240911D01*
X166248401Y-92209000D01*
X166199281Y-92167858D01*
X166188472Y-92156129D01*
X166151799Y-92105461D01*
X166125604Y-92049884D01*
X166109887Y-91989397D01*
X166104648Y-91924001D01*
X166109683Y-91857309D01*
X166124787Y-91795974D01*
X166149962Y-91739996D01*
X166185207Y-91689377D01*
X166209868Y-91662856D01*
X166260083Y-91622771D01*
X166318404Y-91592532D01*
X166374846Y-91574448D01*
X166437244Y-91563598D01*
X166505597Y-91559981D01*
X166568145Y-91562903D01*
X166628513Y-91571666D01*
X166686702Y-91586272D01*
X166718088Y-91596911D01*
X166773305Y-91619490D01*
X166827176Y-91646009D01*
X166879704Y-91676471D01*
X166908304Y-91695096D01*
X166796637Y-91862159D01*
X166741874Y-91830793D01*
X166686617Y-91805281D01*
X166649505Y-91791524D01*
X166588486Y-91775204D01*
X166526403Y-91767204D01*
X166497390Y-91766318D01*
X166435873Y-91773090D01*
X166379036Y-91795530D01*
X166361103Y-91807351D01*
X166321342Y-91854835D01*
X166306195Y-91915422D01*
X166305708Y-91930449D01*
X166320249Y-91988357D01*
X166342931Y-92021014D01*
X166392903Y-92056112D01*
X166452281Y-92074162D01*
X166468374Y-92076995D01*
X166525820Y-92085787D01*
X166584567Y-92093014D01*
X166603196Y-92095166D01*
X166664560Y-92106147D01*
X166728181Y-92126433D01*
X166783218Y-92154769D01*
X166829673Y-92191156D01*
X166857600Y-92222075D01*
X166893760Y-92276077D01*
X166919588Y-92332863D01*
X166935086Y-92392434D01*
X166940251Y-92454789D01*
X166936109Y-92516596D01*
X166920806Y-92581854D01*
X166894227Y-92639735D01*
X166856372Y-92690238D01*
X166822429Y-92721796D01*
X166767251Y-92758797D01*
X166713972Y-92783280D01*
X166655171Y-92801085D01*
X166590846Y-92812213D01*
X166520999Y-92816665D01*
X166508821Y-92816757D01*
X166441369Y-92813959D01*
X166376325Y-92805565D01*
X166313691Y-92791574D01*
X166253465Y-92771988D01*
X166195648Y-92746805D01*
X166140240Y-92716025D01*
X166087241Y-92679650D01*
X166036651Y-92637678D01*
G37*
G36*
X167303685Y-92798000D02*
G01*
X166998283Y-91578739D01*
X167210775Y-91578739D01*
X167395129Y-92437497D01*
X167391905Y-92437497D01*
X167621396Y-91578739D01*
X167766476Y-91578739D01*
X167995967Y-92437497D01*
X167992743Y-92437497D01*
X168177097Y-91578739D01*
X168389588Y-91578739D01*
X168084187Y-92798000D01*
X167917711Y-92798000D01*
X167691738Y-91928104D01*
X167695255Y-91928104D01*
X167470161Y-92798000D01*
X167303685Y-92798000D01*
G37*
G36*
X168856120Y-91583718D02*
G01*
X168914786Y-91598655D01*
X168968880Y-91623549D01*
X169018402Y-91658401D01*
X169044648Y-91682787D01*
X169084504Y-91730439D01*
X169114572Y-91782355D01*
X169134850Y-91838535D01*
X169145338Y-91898978D01*
X169146937Y-91935431D01*
X169141180Y-91998054D01*
X169122107Y-92057487D01*
X169112059Y-92076702D01*
X169077510Y-92128359D01*
X169035974Y-92174374D01*
X169033217Y-92176939D01*
X169079135Y-92214322D01*
X169120699Y-92265749D01*
X169149332Y-92325591D01*
X169163582Y-92383582D01*
X169168332Y-92447755D01*
X169164417Y-92507041D01*
X169149951Y-92570764D01*
X169124827Y-92628625D01*
X169089043Y-92680623D01*
X169056958Y-92714175D01*
X169006254Y-92754146D01*
X168951595Y-92784300D01*
X168892981Y-92804636D01*
X168830412Y-92815155D01*
X168792882Y-92816757D01*
X168727739Y-92811779D01*
X168666690Y-92796842D01*
X168609737Y-92771948D01*
X168556880Y-92737096D01*
X168528514Y-92712710D01*
X168485345Y-92664102D01*
X168452779Y-92609575D01*
X168430816Y-92549130D01*
X168419456Y-92482766D01*
X168417725Y-92442187D01*
X168417746Y-92441893D01*
X168608821Y-92441893D01*
X168617915Y-92503214D01*
X168645196Y-92555247D01*
X168663922Y-92576129D01*
X168711977Y-92610477D01*
X168770545Y-92627884D01*
X168793175Y-92629179D01*
X168853578Y-92619025D01*
X168907586Y-92588563D01*
X168921842Y-92576129D01*
X168958277Y-92528383D01*
X168976138Y-92471349D01*
X168978116Y-92441893D01*
X168968829Y-92380715D01*
X168940967Y-92328630D01*
X168921842Y-92307658D01*
X168873601Y-92272931D01*
X168815482Y-92255331D01*
X168793175Y-92254022D01*
X168732083Y-92264288D01*
X168678059Y-92295087D01*
X168663922Y-92307658D01*
X168628246Y-92355545D01*
X168610758Y-92412527D01*
X168608821Y-92441893D01*
X168417746Y-92441893D01*
X168422506Y-92376698D01*
X168436849Y-92317618D01*
X168465669Y-92256792D01*
X168507503Y-92204690D01*
X168553720Y-92166974D01*
X168510782Y-92122424D01*
X168475585Y-92072140D01*
X168473413Y-92068495D01*
X168449971Y-92012852D01*
X168439958Y-91953850D01*
X168439121Y-91929277D01*
X168439399Y-91925759D01*
X168630216Y-91925759D01*
X168639809Y-91987397D01*
X168671378Y-92037126D01*
X168680335Y-92045048D01*
X168733531Y-92075163D01*
X168792882Y-92085201D01*
X168852453Y-92075163D01*
X168905722Y-92045048D01*
X168941696Y-91998693D01*
X168955401Y-91940205D01*
X168955841Y-91925759D01*
X168946248Y-91864667D01*
X168914679Y-91815023D01*
X168905722Y-91807057D01*
X168852453Y-91776503D01*
X168792882Y-91766318D01*
X168733531Y-91776503D01*
X168680335Y-91807057D01*
X168644361Y-91853430D01*
X168630657Y-91911469D01*
X168630216Y-91925759D01*
X168439399Y-91925759D01*
X168444002Y-91867509D01*
X168458644Y-91809921D01*
X168483047Y-91756512D01*
X168517211Y-91707283D01*
X168541117Y-91681028D01*
X168588126Y-91641171D01*
X168639652Y-91611104D01*
X168695693Y-91590826D01*
X168756250Y-91580337D01*
X168792882Y-91578739D01*
X168856120Y-91583718D01*
G37*
G36*
X127147425Y-93348000D02*
G01*
X127147425Y-92128739D01*
X127335297Y-92128739D01*
X127673818Y-92897518D01*
X128004718Y-92128739D01*
X128192589Y-92128739D01*
X128192589Y-93348000D01*
X127991529Y-93348000D01*
X127997684Y-92592996D01*
X128000908Y-92594755D01*
X127752366Y-93177127D01*
X127588528Y-93177127D01*
X127339107Y-92595927D01*
X127343210Y-92593875D01*
X127348486Y-93348000D01*
X127147425Y-93348000D01*
G37*
G36*
X128878997Y-92113417D02*
G01*
X128942996Y-92125759D01*
X129001317Y-92147077D01*
X129053959Y-92177371D01*
X129060140Y-92181789D01*
X129111268Y-92222804D01*
X129153865Y-92265395D01*
X129191188Y-92314568D01*
X129203169Y-92334782D01*
X129228301Y-92391862D01*
X129243744Y-92450032D01*
X129244494Y-92454071D01*
X129251169Y-92516860D01*
X129253974Y-92576039D01*
X129255485Y-92638663D01*
X129256115Y-92699241D01*
X129256218Y-92739249D01*
X129255932Y-92804326D01*
X129254833Y-92872387D01*
X129252509Y-92937961D01*
X129247872Y-93000385D01*
X129244494Y-93024427D01*
X129229575Y-93082897D01*
X129205001Y-93140298D01*
X129203169Y-93143715D01*
X129170058Y-93194015D01*
X129126415Y-93241969D01*
X129078131Y-93283121D01*
X129060140Y-93296415D01*
X129008208Y-93327190D01*
X128950597Y-93349172D01*
X128887308Y-93362361D01*
X128827271Y-93366689D01*
X128818340Y-93366757D01*
X128757211Y-93363391D01*
X128692777Y-93351301D01*
X128634131Y-93330419D01*
X128581274Y-93300743D01*
X128575074Y-93296415D01*
X128524226Y-93255898D01*
X128482142Y-93213479D01*
X128445660Y-93164117D01*
X128434097Y-93143715D01*
X128409642Y-93090353D01*
X128393430Y-93032483D01*
X128391892Y-93024427D01*
X128385217Y-92961505D01*
X128382412Y-92902314D01*
X128380901Y-92839724D01*
X128380271Y-92779207D01*
X128380168Y-92739249D01*
X128380172Y-92738369D01*
X128581229Y-92738369D01*
X128581661Y-92803326D01*
X128583260Y-92867439D01*
X128587047Y-92931407D01*
X128593538Y-92978118D01*
X128614486Y-93035450D01*
X128640140Y-93075424D01*
X128682713Y-93117036D01*
X128711361Y-93135508D01*
X128767425Y-93155653D01*
X128818340Y-93160421D01*
X128879249Y-93153390D01*
X128925025Y-93135508D01*
X128974118Y-93100223D01*
X128996539Y-93075424D01*
X129027925Y-93023286D01*
X129042848Y-92978118D01*
X129050527Y-92918987D01*
X129053678Y-92859050D01*
X129055143Y-92793141D01*
X129055450Y-92738369D01*
X129055007Y-92673722D01*
X129053371Y-92609917D01*
X129049494Y-92546264D01*
X129042848Y-92499793D01*
X129022137Y-92441761D01*
X128996539Y-92400728D01*
X128954098Y-92360282D01*
X128925318Y-92341817D01*
X128869254Y-92321198D01*
X128818340Y-92316318D01*
X128757347Y-92323514D01*
X128711361Y-92341817D01*
X128662383Y-92376782D01*
X128640140Y-92400728D01*
X128608661Y-92454144D01*
X128593538Y-92499793D01*
X128586037Y-92558622D01*
X128582960Y-92618266D01*
X128581529Y-92683858D01*
X128581229Y-92738369D01*
X128380172Y-92738369D01*
X128380454Y-92674094D01*
X128381553Y-92605978D01*
X128383877Y-92540392D01*
X128388514Y-92478035D01*
X128391892Y-92454071D01*
X128407004Y-92395600D01*
X128430360Y-92341637D01*
X128434097Y-92334782D01*
X128466251Y-92284957D01*
X128509224Y-92236963D01*
X128557151Y-92195335D01*
X128575074Y-92181789D01*
X128627207Y-92150373D01*
X128685129Y-92127933D01*
X128748840Y-92114469D01*
X128809336Y-92110051D01*
X128818340Y-92109981D01*
X128878997Y-92113417D01*
G37*
G36*
X129935856Y-92131968D02*
G01*
X130006328Y-92145084D01*
X130070489Y-92168289D01*
X130128339Y-92201584D01*
X130179877Y-92244968D01*
X130225105Y-92298442D01*
X130249212Y-92335369D01*
X130276254Y-92387825D01*
X130297407Y-92446872D01*
X130304606Y-92481621D01*
X130310280Y-92542673D01*
X130312927Y-92605042D01*
X130314221Y-92672027D01*
X130314571Y-92738662D01*
X130314228Y-92799041D01*
X130312909Y-92862843D01*
X130310120Y-92925350D01*
X130304556Y-92986839D01*
X130300503Y-93011824D01*
X130283176Y-93071337D01*
X130257643Y-93124791D01*
X130245402Y-93144887D01*
X130207294Y-93195898D01*
X130161115Y-93241584D01*
X130112653Y-93278151D01*
X130095046Y-93289381D01*
X130038101Y-93317717D01*
X129982111Y-93335120D01*
X129921066Y-93345195D01*
X129863504Y-93348000D01*
X129445262Y-93348000D01*
X129445262Y-92316318D01*
X129646323Y-92316318D01*
X129646323Y-93160421D01*
X129855297Y-93160421D01*
X129915151Y-93155568D01*
X129974694Y-93138139D01*
X130030382Y-93103378D01*
X130069840Y-93059011D01*
X130096509Y-93004466D01*
X130106183Y-92964050D01*
X130111117Y-92903172D01*
X130113059Y-92838528D01*
X130113737Y-92775522D01*
X130113804Y-92745110D01*
X130113397Y-92679053D01*
X130111936Y-92615443D01*
X130108616Y-92553757D01*
X130105304Y-92522361D01*
X130090210Y-92464695D01*
X130061926Y-92413624D01*
X130016432Y-92366586D01*
X129961061Y-92334943D01*
X129903551Y-92319739D01*
X129855297Y-92316318D01*
X129646323Y-92316318D01*
X129445262Y-92316318D01*
X129445262Y-92128739D01*
X129874934Y-92128739D01*
X129935856Y-92131968D01*
G37*
G36*
X130430049Y-93348000D02*
G01*
X130430049Y-93175076D01*
X130902219Y-92589186D01*
X130933016Y-92537679D01*
X130935925Y-92529102D01*
X130943838Y-92476346D01*
X130931927Y-92416297D01*
X130901633Y-92367023D01*
X130855643Y-92330628D01*
X130796258Y-92316516D01*
X130787328Y-92316318D01*
X130729205Y-92325720D01*
X130676576Y-92356476D01*
X130673608Y-92359109D01*
X130638596Y-92407967D01*
X130622734Y-92464897D01*
X130620559Y-92485138D01*
X130430049Y-92485138D01*
X130435258Y-92419800D01*
X130450117Y-92359708D01*
X130474624Y-92304861D01*
X130508781Y-92255259D01*
X130532631Y-92229270D01*
X130578949Y-92190098D01*
X130636350Y-92157112D01*
X130698512Y-92136691D01*
X130756812Y-92129132D01*
X130774139Y-92128739D01*
X130839018Y-92133662D01*
X130899016Y-92148430D01*
X130954134Y-92173044D01*
X131004371Y-92207503D01*
X131030887Y-92231614D01*
X131071086Y-92278656D01*
X131101412Y-92329764D01*
X131121864Y-92384940D01*
X131132443Y-92444183D01*
X131134055Y-92479863D01*
X131129439Y-92539910D01*
X131113210Y-92602471D01*
X131085296Y-92659745D01*
X131060196Y-92694992D01*
X130685918Y-93160421D01*
X131134055Y-93160421D01*
X131134055Y-93348000D01*
X130430049Y-93348000D01*
G37*
G36*
X129298000Y-80422875D02*
G01*
X128791538Y-80670830D01*
X128791538Y-80888890D01*
X129298000Y-80888890D01*
X129298000Y-81089951D01*
X128078739Y-81089951D01*
X128078739Y-80888890D01*
X128266318Y-80888890D01*
X128603959Y-80888890D01*
X128603959Y-80623056D01*
X128597725Y-80561608D01*
X128574284Y-80504079D01*
X128551203Y-80476803D01*
X128501450Y-80443544D01*
X128444517Y-80428910D01*
X128426932Y-80428150D01*
X128365269Y-80437583D01*
X128314876Y-80468838D01*
X128300903Y-80485303D01*
X128274964Y-80541284D01*
X128266453Y-80602769D01*
X128266318Y-80612505D01*
X128266318Y-80888890D01*
X128078739Y-80888890D01*
X128078739Y-80610746D01*
X128082638Y-80544887D01*
X128094335Y-80485284D01*
X128117251Y-80424824D01*
X128150352Y-80372535D01*
X128160219Y-80360739D01*
X128203832Y-80318576D01*
X128252166Y-80284750D01*
X128272766Y-80273105D01*
X128330291Y-80249764D01*
X128392846Y-80238322D01*
X128423415Y-80237055D01*
X128488358Y-80242132D01*
X128548990Y-80257364D01*
X128605309Y-80282750D01*
X128634734Y-80301242D01*
X128681792Y-80340126D01*
X128719762Y-80384900D01*
X128751292Y-80441555D01*
X128760763Y-80466252D01*
X129298000Y-80185471D01*
X129298000Y-80422875D01*
G37*
G36*
X128754022Y-79894724D02*
G01*
X128585201Y-79894724D01*
X128585201Y-79825847D01*
X128577849Y-79765163D01*
X128551093Y-79709449D01*
X128540651Y-79697180D01*
X128490093Y-79661789D01*
X128431781Y-79650039D01*
X128427518Y-79649993D01*
X128368472Y-79660812D01*
X128318828Y-79693269D01*
X128312919Y-79699232D01*
X128279470Y-79749305D01*
X128266500Y-79807750D01*
X128266318Y-79816175D01*
X128278820Y-79874979D01*
X128301782Y-79913189D01*
X128348163Y-79951364D01*
X128406659Y-79971904D01*
X128416381Y-79973859D01*
X128416381Y-80164368D01*
X128356751Y-80155288D01*
X128293617Y-80134607D01*
X128235832Y-80102934D01*
X128189658Y-80066205D01*
X128177218Y-80054166D01*
X128138846Y-80009226D01*
X128106533Y-79953951D01*
X128086529Y-79894499D01*
X128078835Y-79830871D01*
X128078739Y-79822623D01*
X128082490Y-79763152D01*
X128096346Y-79699577D01*
X128120413Y-79642258D01*
X128154690Y-79591193D01*
X128185424Y-79558548D01*
X128233333Y-79519719D01*
X128291109Y-79487021D01*
X128352109Y-79466779D01*
X128416332Y-79458994D01*
X128424587Y-79458897D01*
X128484862Y-79464282D01*
X128544127Y-79480439D01*
X128560875Y-79487034D01*
X128614097Y-79518353D01*
X128657334Y-79563585D01*
X128667853Y-79579064D01*
X128706509Y-79531136D01*
X128755324Y-79493558D01*
X128781279Y-79479706D01*
X128840054Y-79457694D01*
X128899217Y-79446903D01*
X128926653Y-79445708D01*
X128987869Y-79449520D01*
X129053167Y-79463605D01*
X129111873Y-79488069D01*
X129163987Y-79522910D01*
X129197176Y-79554152D01*
X129236462Y-79603810D01*
X129266098Y-79658152D01*
X129286086Y-79717179D01*
X129296424Y-79780890D01*
X129298000Y-79819399D01*
X129293072Y-79880436D01*
X129278289Y-79938394D01*
X129253651Y-79993276D01*
X129219158Y-80045080D01*
X129174590Y-80090692D01*
X129119727Y-80126999D01*
X129063276Y-80151134D01*
X128998944Y-80168144D01*
X128979116Y-80171695D01*
X128979116Y-79981772D01*
X129031881Y-79955308D01*
X129076422Y-79918464D01*
X129103913Y-79865069D01*
X129110421Y-79809434D01*
X129100053Y-79748954D01*
X129068947Y-79695558D01*
X129063233Y-79688974D01*
X129014988Y-79653310D01*
X128957731Y-79638077D01*
X128932515Y-79636803D01*
X128870264Y-79645365D01*
X128816857Y-79673735D01*
X128801210Y-79688681D01*
X128768952Y-79737944D01*
X128754759Y-79794949D01*
X128754022Y-79812658D01*
X128754022Y-79894724D01*
G37*
G36*
X128754022Y-79089309D02*
G01*
X128585201Y-79089309D01*
X128585201Y-79020432D01*
X128577849Y-78959748D01*
X128551093Y-78904034D01*
X128540651Y-78891765D01*
X128490093Y-78856374D01*
X128431781Y-78844623D01*
X128427518Y-78844577D01*
X128368472Y-78855396D01*
X128318828Y-78887854D01*
X128312919Y-78893817D01*
X128279470Y-78943890D01*
X128266500Y-79002335D01*
X128266318Y-79010760D01*
X128278820Y-79069564D01*
X128301782Y-79107773D01*
X128348163Y-79145949D01*
X128406659Y-79166489D01*
X128416381Y-79168443D01*
X128416381Y-79358953D01*
X128356751Y-79349873D01*
X128293617Y-79329191D01*
X128235832Y-79297519D01*
X128189658Y-79260790D01*
X128177218Y-79248750D01*
X128138846Y-79203811D01*
X128106533Y-79148535D01*
X128086529Y-79089084D01*
X128078835Y-79025455D01*
X128078739Y-79017208D01*
X128082490Y-78957737D01*
X128096346Y-78894162D01*
X128120413Y-78836842D01*
X128154690Y-78785778D01*
X128185424Y-78753133D01*
X128233333Y-78714304D01*
X128291109Y-78681606D01*
X128352109Y-78661364D01*
X128416332Y-78653579D01*
X128424587Y-78653482D01*
X128484862Y-78658867D01*
X128544127Y-78675024D01*
X128560875Y-78681618D01*
X128614097Y-78712938D01*
X128657334Y-78758170D01*
X128667853Y-78773649D01*
X128706509Y-78725720D01*
X128755324Y-78688143D01*
X128781279Y-78674291D01*
X128840054Y-78652278D01*
X128899217Y-78641488D01*
X128926653Y-78640293D01*
X128987869Y-78644105D01*
X129053167Y-78658190D01*
X129111873Y-78682653D01*
X129163987Y-78717495D01*
X129197176Y-78748736D01*
X129236462Y-78798395D01*
X129266098Y-78852737D01*
X129286086Y-78911764D01*
X129296424Y-78975475D01*
X129298000Y-79013984D01*
X129293072Y-79075020D01*
X129278289Y-79132979D01*
X129253651Y-79187861D01*
X129219158Y-79239665D01*
X129174590Y-79285277D01*
X129119727Y-79321584D01*
X129063276Y-79345718D01*
X128998944Y-79362729D01*
X128979116Y-79366280D01*
X128979116Y-79176357D01*
X129031881Y-79149893D01*
X129076422Y-79113049D01*
X129103913Y-79059654D01*
X129110421Y-79004019D01*
X129100053Y-78943539D01*
X129068947Y-78890143D01*
X129063233Y-78883558D01*
X129014988Y-78847895D01*
X128957731Y-78832662D01*
X128932515Y-78831388D01*
X128870264Y-78839950D01*
X128816857Y-78868320D01*
X128801210Y-78883265D01*
X128768952Y-78932529D01*
X128754759Y-78989534D01*
X128754022Y-79007243D01*
X128754022Y-79089309D01*
G37*
G36*
X132498000Y-73422875D02*
G01*
X131991538Y-73670830D01*
X131991538Y-73888890D01*
X132498000Y-73888890D01*
X132498000Y-74089951D01*
X131278739Y-74089951D01*
X131278739Y-73888890D01*
X131466318Y-73888890D01*
X131803959Y-73888890D01*
X131803959Y-73623056D01*
X131797725Y-73561608D01*
X131774284Y-73504079D01*
X131751203Y-73476803D01*
X131701450Y-73443544D01*
X131644517Y-73428910D01*
X131626932Y-73428150D01*
X131565269Y-73437583D01*
X131514876Y-73468838D01*
X131500903Y-73485303D01*
X131474964Y-73541284D01*
X131466453Y-73602769D01*
X131466318Y-73612505D01*
X131466318Y-73888890D01*
X131278739Y-73888890D01*
X131278739Y-73610746D01*
X131282638Y-73544887D01*
X131294335Y-73485284D01*
X131317251Y-73424824D01*
X131350352Y-73372535D01*
X131360219Y-73360739D01*
X131403832Y-73318576D01*
X131452166Y-73284750D01*
X131472766Y-73273105D01*
X131530291Y-73249764D01*
X131592846Y-73238322D01*
X131623415Y-73237055D01*
X131688358Y-73242132D01*
X131748990Y-73257364D01*
X131805309Y-73282750D01*
X131834734Y-73301242D01*
X131881792Y-73340126D01*
X131919762Y-73384900D01*
X131951292Y-73441555D01*
X131960763Y-73466252D01*
X132498000Y-73185471D01*
X132498000Y-73422875D01*
G37*
G36*
X131954022Y-72894724D02*
G01*
X131785201Y-72894724D01*
X131785201Y-72825847D01*
X131777849Y-72765163D01*
X131751093Y-72709449D01*
X131740651Y-72697180D01*
X131690093Y-72661789D01*
X131631781Y-72650039D01*
X131627518Y-72649993D01*
X131568472Y-72660812D01*
X131518828Y-72693269D01*
X131512919Y-72699232D01*
X131479470Y-72749305D01*
X131466500Y-72807750D01*
X131466318Y-72816175D01*
X131478820Y-72874979D01*
X131501782Y-72913189D01*
X131548163Y-72951364D01*
X131606659Y-72971904D01*
X131616381Y-72973859D01*
X131616381Y-73164368D01*
X131556751Y-73155288D01*
X131493617Y-73134607D01*
X131435832Y-73102934D01*
X131389658Y-73066205D01*
X131377218Y-73054166D01*
X131338846Y-73009226D01*
X131306533Y-72953951D01*
X131286529Y-72894499D01*
X131278835Y-72830871D01*
X131278739Y-72822623D01*
X131282490Y-72763152D01*
X131296346Y-72699577D01*
X131320413Y-72642258D01*
X131354690Y-72591193D01*
X131385424Y-72558548D01*
X131433333Y-72519719D01*
X131491109Y-72487021D01*
X131552109Y-72466779D01*
X131616332Y-72458994D01*
X131624587Y-72458897D01*
X131684862Y-72464282D01*
X131744127Y-72480439D01*
X131760875Y-72487034D01*
X131814097Y-72518353D01*
X131857334Y-72563585D01*
X131867853Y-72579064D01*
X131906509Y-72531136D01*
X131955324Y-72493558D01*
X131981279Y-72479706D01*
X132040054Y-72457694D01*
X132099217Y-72446903D01*
X132126653Y-72445708D01*
X132187869Y-72449520D01*
X132253167Y-72463605D01*
X132311873Y-72488069D01*
X132363987Y-72522910D01*
X132397176Y-72554152D01*
X132436462Y-72603810D01*
X132466098Y-72658152D01*
X132486086Y-72717179D01*
X132496424Y-72780890D01*
X132498000Y-72819399D01*
X132493072Y-72880436D01*
X132478289Y-72938394D01*
X132453651Y-72993276D01*
X132419158Y-73045080D01*
X132374590Y-73090692D01*
X132319727Y-73126999D01*
X132263276Y-73151134D01*
X132198944Y-73168144D01*
X132179116Y-73171695D01*
X132179116Y-72981772D01*
X132231881Y-72955308D01*
X132276422Y-72918464D01*
X132303913Y-72865069D01*
X132310421Y-72809434D01*
X132300053Y-72748954D01*
X132268947Y-72695558D01*
X132263233Y-72688974D01*
X132214988Y-72653310D01*
X132157731Y-72638077D01*
X132132515Y-72636803D01*
X132070264Y-72645365D01*
X132016857Y-72673735D01*
X132001210Y-72688681D01*
X131968952Y-72737944D01*
X131954759Y-72794949D01*
X131954022Y-72812658D01*
X131954022Y-72894724D01*
G37*
G36*
X131941126Y-72301800D02*
G01*
X131278739Y-72301800D01*
X131278739Y-71643517D01*
X131466318Y-71643517D01*
X131466318Y-72120669D01*
X131708411Y-72120669D01*
X131677374Y-72067621D01*
X131660338Y-72010560D01*
X131654109Y-71952010D01*
X131653896Y-71938073D01*
X131659170Y-71878680D01*
X131676523Y-71820398D01*
X131681447Y-71809406D01*
X131711415Y-71757016D01*
X131746220Y-71716496D01*
X131793111Y-71680035D01*
X131847287Y-71650832D01*
X131867560Y-71642930D01*
X131928862Y-71628642D01*
X131990959Y-71622254D01*
X132057756Y-71619689D01*
X132085620Y-71619483D01*
X132150538Y-71620920D01*
X132210976Y-71625889D01*
X132271147Y-71637655D01*
X132326385Y-71659456D01*
X132377244Y-71690789D01*
X132383694Y-71695687D01*
X132428100Y-71738169D01*
X132464189Y-71785927D01*
X132474845Y-71802665D01*
X132500385Y-71857441D01*
X132514138Y-71918894D01*
X132516757Y-71963572D01*
X132512233Y-72022704D01*
X132498659Y-72080809D01*
X132476036Y-72137889D01*
X132444364Y-72193942D01*
X132401133Y-72243695D01*
X132352006Y-72277971D01*
X132292332Y-72303609D01*
X132232788Y-72318708D01*
X132188788Y-72325247D01*
X132188788Y-72135031D01*
X132250209Y-72113305D01*
X132298331Y-72073362D01*
X132324243Y-72017004D01*
X132329179Y-71970314D01*
X132322432Y-71911192D01*
X132292448Y-71856670D01*
X132243889Y-71831095D01*
X132184913Y-71819414D01*
X132125659Y-71812582D01*
X132071551Y-71810579D01*
X132012086Y-71813727D01*
X131950097Y-71825817D01*
X131906248Y-71842819D01*
X131861969Y-71883844D01*
X131843752Y-71939815D01*
X131841475Y-71975003D01*
X131853250Y-72035245D01*
X131888575Y-72086206D01*
X131941126Y-72124480D01*
X131941126Y-72301800D01*
G37*
G36*
X172841600Y-83522288D02*
G01*
X172841600Y-83312727D01*
X172905581Y-83330059D01*
X172963215Y-83353037D01*
X173014501Y-83381661D01*
X173066313Y-83422193D01*
X173109486Y-83470410D01*
X173143975Y-83524194D01*
X173169993Y-83581680D01*
X173187540Y-83642868D01*
X173196616Y-83707760D01*
X173198000Y-83746503D01*
X173194690Y-83807617D01*
X173182801Y-83872001D01*
X173162266Y-83930560D01*
X173133085Y-83983293D01*
X173128830Y-83989475D01*
X173088830Y-84040346D01*
X173046975Y-84082500D01*
X172998294Y-84119113D01*
X172978181Y-84130745D01*
X172922054Y-84156391D01*
X172864910Y-84172182D01*
X172860944Y-84172951D01*
X172798904Y-84179625D01*
X172731031Y-84182739D01*
X172667551Y-84184113D01*
X172606419Y-84184628D01*
X172579870Y-84184674D01*
X172515750Y-84184388D01*
X172448706Y-84183289D01*
X172384135Y-84180965D01*
X172322713Y-84176328D01*
X172299088Y-84172951D01*
X172241377Y-84157838D01*
X172184646Y-84132632D01*
X172181265Y-84130745D01*
X172132173Y-84098437D01*
X172084912Y-84055366D01*
X172043943Y-84007401D01*
X172030616Y-83989475D01*
X171999714Y-83937470D01*
X171977640Y-83879639D01*
X171964396Y-83815984D01*
X171960050Y-83755506D01*
X171959981Y-83746503D01*
X171963763Y-83683229D01*
X171975108Y-83624201D01*
X171997902Y-83560700D01*
X172030991Y-83502978D01*
X172067546Y-83458101D01*
X172117116Y-83412189D01*
X172171707Y-83374216D01*
X172231318Y-83344181D01*
X172295951Y-83322083D01*
X172335138Y-83313020D01*
X172335138Y-83523460D01*
X172280996Y-83548457D01*
X172234302Y-83584870D01*
X172215264Y-83605526D01*
X172183573Y-83656788D01*
X172168038Y-83716274D01*
X172166318Y-83746503D01*
X172173349Y-83807724D01*
X172191230Y-83853774D01*
X172225463Y-83902500D01*
X172248969Y-83924702D01*
X172301066Y-83956181D01*
X172345690Y-83971304D01*
X172409644Y-83979274D01*
X172469966Y-83982159D01*
X172535851Y-83983421D01*
X172578990Y-83983614D01*
X172642511Y-83983181D01*
X172705210Y-83981582D01*
X172767771Y-83977795D01*
X172813464Y-83971304D01*
X172869476Y-83950500D01*
X172908425Y-83924702D01*
X172949268Y-83882387D01*
X172967337Y-83853774D01*
X172987007Y-83797617D01*
X172991663Y-83746503D01*
X172984482Y-83685885D01*
X172958690Y-83624542D01*
X172920735Y-83577809D01*
X172868418Y-83537556D01*
X172841600Y-83522288D01*
G37*
G36*
X172654022Y-83040445D02*
G01*
X172485201Y-83040445D01*
X172485201Y-82971569D01*
X172477849Y-82910885D01*
X172451093Y-82855170D01*
X172440651Y-82842902D01*
X172390093Y-82807511D01*
X172331781Y-82795760D01*
X172327518Y-82795714D01*
X172268472Y-82806533D01*
X172218828Y-82838991D01*
X172212919Y-82844953D01*
X172179470Y-82895027D01*
X172166500Y-82953472D01*
X172166318Y-82961897D01*
X172178820Y-83020700D01*
X172201782Y-83058910D01*
X172248163Y-83097085D01*
X172306659Y-83117626D01*
X172316381Y-83119580D01*
X172316381Y-83310089D01*
X172256751Y-83301009D01*
X172193617Y-83280328D01*
X172135832Y-83248656D01*
X172089658Y-83211927D01*
X172077218Y-83199887D01*
X172038846Y-83154947D01*
X172006533Y-83099672D01*
X171986529Y-83040220D01*
X171978835Y-82976592D01*
X171978739Y-82968345D01*
X171982490Y-82908874D01*
X171996346Y-82845299D01*
X172020413Y-82787979D01*
X172054690Y-82736915D01*
X172085424Y-82704270D01*
X172133333Y-82665441D01*
X172191109Y-82632743D01*
X172252109Y-82612501D01*
X172316332Y-82604716D01*
X172324587Y-82604618D01*
X172384862Y-82610004D01*
X172444127Y-82626161D01*
X172460875Y-82632755D01*
X172514097Y-82664075D01*
X172557334Y-82709307D01*
X172567853Y-82724786D01*
X172606509Y-82676857D01*
X172655324Y-82639280D01*
X172681279Y-82625428D01*
X172740054Y-82603415D01*
X172799217Y-82592625D01*
X172826653Y-82591429D01*
X172887869Y-82595242D01*
X172953167Y-82609327D01*
X173011873Y-82633790D01*
X173063987Y-82668632D01*
X173097176Y-82699873D01*
X173136462Y-82749531D01*
X173166098Y-82803874D01*
X173186086Y-82862900D01*
X173196424Y-82926611D01*
X173198000Y-82965121D01*
X173193072Y-83026157D01*
X173178289Y-83084116D01*
X173153651Y-83138997D01*
X173119158Y-83190801D01*
X173074590Y-83236414D01*
X173019727Y-83272720D01*
X172963276Y-83296855D01*
X172898944Y-83313865D01*
X172879116Y-83317417D01*
X172879116Y-83127494D01*
X172931881Y-83101029D01*
X172976422Y-83064186D01*
X173003913Y-83010790D01*
X173010421Y-82955156D01*
X173000053Y-82894676D01*
X172968947Y-82841279D01*
X172963233Y-82834695D01*
X172914988Y-82799032D01*
X172857731Y-82783799D01*
X172832515Y-82782525D01*
X172770264Y-82791087D01*
X172716857Y-82819457D01*
X172701210Y-82834402D01*
X172668952Y-82883666D01*
X172654759Y-82940671D01*
X172654022Y-82958380D01*
X172654022Y-83040445D01*
G37*
G36*
X173198000Y-82478296D02*
G01*
X173025076Y-82478296D01*
X172439186Y-82006126D01*
X172387679Y-81975330D01*
X172379102Y-81972420D01*
X172326346Y-81964507D01*
X172266297Y-81976418D01*
X172217023Y-82006712D01*
X172180628Y-82052702D01*
X172166516Y-82112087D01*
X172166318Y-82121018D01*
X172175720Y-82179141D01*
X172206476Y-82231769D01*
X172209109Y-82234737D01*
X172257967Y-82269749D01*
X172314897Y-82285611D01*
X172335138Y-82287787D01*
X172335138Y-82478296D01*
X172269800Y-82473087D01*
X172209708Y-82458228D01*
X172154861Y-82433721D01*
X172105259Y-82399564D01*
X172079270Y-82375714D01*
X172040098Y-82329396D01*
X172007112Y-82271996D01*
X171986691Y-82209833D01*
X171979132Y-82151533D01*
X171978739Y-82134207D01*
X171983662Y-82069328D01*
X171998430Y-82009329D01*
X172023044Y-81954211D01*
X172057503Y-81903974D01*
X172081614Y-81877459D01*
X172128656Y-81837259D01*
X172179764Y-81806934D01*
X172234940Y-81786481D01*
X172294183Y-81775902D01*
X172329863Y-81774290D01*
X172389910Y-81778907D01*
X172452471Y-81795135D01*
X172509745Y-81823049D01*
X172544992Y-81848149D01*
X173010421Y-82222427D01*
X173010421Y-81774290D01*
X173198000Y-81774290D01*
X173198000Y-82478296D01*
G37*
G36*
X142173106Y-92337678D02*
G01*
X142305290Y-92186443D01*
X142357425Y-92223995D01*
X142412677Y-92255243D01*
X142465611Y-92278181D01*
X142526190Y-92296536D01*
X142588639Y-92307273D01*
X142647034Y-92310421D01*
X142710089Y-92306099D01*
X142768540Y-92291361D01*
X142815562Y-92266164D01*
X142856835Y-92222278D01*
X142875408Y-92163803D01*
X142875939Y-92150686D01*
X142866670Y-92090474D01*
X142834083Y-92039946D01*
X142778035Y-92007640D01*
X142727634Y-91996227D01*
X142668778Y-91988753D01*
X142650551Y-91986262D01*
X142591091Y-91977799D01*
X142568486Y-91974538D01*
X142502334Y-91961259D01*
X142443392Y-91940911D01*
X142384856Y-91909000D01*
X142335736Y-91867858D01*
X142324927Y-91856129D01*
X142288254Y-91805461D01*
X142262059Y-91749884D01*
X142246342Y-91689397D01*
X142241103Y-91624001D01*
X142246138Y-91557309D01*
X142261242Y-91495974D01*
X142286417Y-91439996D01*
X142321662Y-91389377D01*
X142346323Y-91362856D01*
X142396538Y-91322771D01*
X142454859Y-91292532D01*
X142511301Y-91274448D01*
X142573699Y-91263598D01*
X142642052Y-91259981D01*
X142704600Y-91262903D01*
X142764968Y-91271666D01*
X142823157Y-91286272D01*
X142854543Y-91296911D01*
X142909760Y-91319490D01*
X142963631Y-91346009D01*
X143016159Y-91376471D01*
X143044759Y-91395096D01*
X142933092Y-91562159D01*
X142878329Y-91530793D01*
X142823072Y-91505281D01*
X142785960Y-91491524D01*
X142724941Y-91475204D01*
X142662858Y-91467204D01*
X142633845Y-91466318D01*
X142572328Y-91473090D01*
X142515491Y-91495530D01*
X142497558Y-91507351D01*
X142457797Y-91554835D01*
X142442650Y-91615422D01*
X142442163Y-91630449D01*
X142456704Y-91688357D01*
X142479386Y-91721014D01*
X142529358Y-91756112D01*
X142588736Y-91774162D01*
X142604829Y-91776995D01*
X142662275Y-91785787D01*
X142721022Y-91793014D01*
X142739651Y-91795166D01*
X142801015Y-91806147D01*
X142864636Y-91826433D01*
X142919673Y-91854769D01*
X142966128Y-91891156D01*
X142994055Y-91922075D01*
X143030215Y-91976077D01*
X143056043Y-92032863D01*
X143071541Y-92092434D01*
X143076706Y-92154789D01*
X143072564Y-92216596D01*
X143057261Y-92281854D01*
X143030682Y-92339735D01*
X142992827Y-92390238D01*
X142958884Y-92421796D01*
X142903706Y-92458797D01*
X142850427Y-92483280D01*
X142791626Y-92501085D01*
X142727301Y-92512213D01*
X142657454Y-92516665D01*
X142645276Y-92516757D01*
X142577824Y-92513959D01*
X142512780Y-92505565D01*
X142450146Y-92491574D01*
X142389920Y-92471988D01*
X142332103Y-92446805D01*
X142276695Y-92416025D01*
X142223696Y-92379650D01*
X142173106Y-92337678D01*
G37*
G36*
X143440140Y-92498000D02*
G01*
X143134738Y-91278739D01*
X143347230Y-91278739D01*
X143531584Y-92137497D01*
X143528360Y-92137497D01*
X143757851Y-91278739D01*
X143902931Y-91278739D01*
X144132422Y-92137497D01*
X144129198Y-92137497D01*
X144313552Y-91278739D01*
X144526043Y-91278739D01*
X144220642Y-92498000D01*
X144054166Y-92498000D01*
X143828193Y-91628104D01*
X143831710Y-91628104D01*
X143606616Y-92498000D01*
X143440140Y-92498000D01*
G37*
G36*
X144797446Y-92498000D02*
G01*
X144797446Y-91488300D01*
X144625988Y-91613157D01*
X144625988Y-91407406D01*
X144803894Y-91278739D01*
X144989128Y-91278739D01*
X144989128Y-92498000D01*
X144797446Y-92498000D01*
G37*
G36*
X145363699Y-92498000D02*
G01*
X145363699Y-91488300D01*
X145192240Y-91613157D01*
X145192240Y-91407406D01*
X145370147Y-91278739D01*
X145555380Y-91278739D01*
X145555380Y-92498000D01*
X145363699Y-92498000D01*
G37*
G36*
X123437678Y-69975072D02*
G01*
X123286443Y-69842888D01*
X123323995Y-69790753D01*
X123355243Y-69735501D01*
X123378181Y-69682567D01*
X123396536Y-69621988D01*
X123407273Y-69559539D01*
X123410421Y-69501144D01*
X123406099Y-69438089D01*
X123391361Y-69379638D01*
X123366164Y-69332616D01*
X123322278Y-69291343D01*
X123263803Y-69272770D01*
X123250686Y-69272239D01*
X123190474Y-69281508D01*
X123139946Y-69314095D01*
X123107640Y-69370143D01*
X123096227Y-69420544D01*
X123088753Y-69479400D01*
X123086262Y-69497627D01*
X123077799Y-69557087D01*
X123074538Y-69579692D01*
X123061259Y-69645844D01*
X123040911Y-69704786D01*
X123009000Y-69763322D01*
X122967858Y-69812442D01*
X122956129Y-69823251D01*
X122905461Y-69859924D01*
X122849884Y-69886119D01*
X122789397Y-69901836D01*
X122724001Y-69907075D01*
X122657309Y-69902040D01*
X122595974Y-69886936D01*
X122539996Y-69861761D01*
X122489377Y-69826516D01*
X122462856Y-69801855D01*
X122422771Y-69751640D01*
X122392532Y-69693319D01*
X122374448Y-69636877D01*
X122363598Y-69574479D01*
X122359981Y-69506126D01*
X122362903Y-69443578D01*
X122371666Y-69383210D01*
X122386272Y-69325021D01*
X122396911Y-69293635D01*
X122419490Y-69238418D01*
X122446009Y-69184547D01*
X122476471Y-69132019D01*
X122495096Y-69103419D01*
X122662159Y-69215086D01*
X122630793Y-69269849D01*
X122605281Y-69325106D01*
X122591524Y-69362218D01*
X122575204Y-69423237D01*
X122567204Y-69485320D01*
X122566318Y-69514333D01*
X122573090Y-69575850D01*
X122595530Y-69632687D01*
X122607351Y-69650620D01*
X122654835Y-69690381D01*
X122715422Y-69705528D01*
X122730449Y-69706015D01*
X122788357Y-69691474D01*
X122821014Y-69668792D01*
X122856112Y-69618820D01*
X122874162Y-69559442D01*
X122876995Y-69543349D01*
X122885787Y-69485903D01*
X122893014Y-69427156D01*
X122895166Y-69408527D01*
X122906147Y-69347163D01*
X122926433Y-69283542D01*
X122954769Y-69228505D01*
X122991156Y-69182050D01*
X123022075Y-69154123D01*
X123076077Y-69117963D01*
X123132863Y-69092135D01*
X123192434Y-69076637D01*
X123254789Y-69071472D01*
X123316596Y-69075614D01*
X123381854Y-69090917D01*
X123439735Y-69117496D01*
X123490238Y-69155351D01*
X123521796Y-69189294D01*
X123558797Y-69244472D01*
X123583280Y-69297751D01*
X123601085Y-69356552D01*
X123612213Y-69420877D01*
X123616665Y-69490724D01*
X123616757Y-69502902D01*
X123613959Y-69570354D01*
X123605565Y-69635398D01*
X123591574Y-69698032D01*
X123571988Y-69758258D01*
X123546805Y-69816075D01*
X123516025Y-69871483D01*
X123479650Y-69924482D01*
X123437678Y-69975072D01*
G37*
G36*
X123598000Y-68708038D02*
G01*
X122378739Y-69013440D01*
X122378739Y-68800948D01*
X123237497Y-68616594D01*
X123237497Y-68619818D01*
X122378739Y-68390327D01*
X122378739Y-68245247D01*
X123237497Y-68015756D01*
X123237497Y-68018980D01*
X122378739Y-67834626D01*
X122378739Y-67622135D01*
X123598000Y-67927536D01*
X123598000Y-68094012D01*
X122728104Y-68319985D01*
X122728104Y-68316468D01*
X123598000Y-68541562D01*
X123598000Y-68708038D01*
G37*
G36*
X123322562Y-66874090D02*
G01*
X123386652Y-66887830D01*
X123443449Y-66910939D01*
X123492953Y-66943417D01*
X123523847Y-66972351D01*
X123563286Y-67023166D01*
X123591918Y-67079769D01*
X123609741Y-67142161D01*
X123616471Y-67201502D01*
X123616757Y-67210341D01*
X123611005Y-67269344D01*
X123594638Y-67331037D01*
X123567790Y-67387768D01*
X123544071Y-67422832D01*
X123503624Y-67466283D01*
X123454092Y-67501381D01*
X123395473Y-67528126D01*
X123336729Y-67544675D01*
X123327769Y-67546517D01*
X123327769Y-67356594D01*
X123381247Y-67325338D01*
X123417196Y-67275883D01*
X123429080Y-67217218D01*
X123429179Y-67210634D01*
X123420449Y-67151896D01*
X123390037Y-67101700D01*
X123337825Y-67069565D01*
X123274258Y-67056263D01*
X123253031Y-67055003D01*
X123152207Y-67055003D01*
X123169284Y-67116244D01*
X123180286Y-67176652D01*
X123185214Y-67236224D01*
X123185327Y-67268959D01*
X123179832Y-67332334D01*
X123160381Y-67390237D01*
X123126973Y-67442669D01*
X123102382Y-67469434D01*
X123055158Y-67505869D01*
X122996136Y-67531643D01*
X122934815Y-67545449D01*
X122875066Y-67550787D01*
X122842703Y-67551206D01*
X122731914Y-67551206D01*
X122671076Y-67547178D01*
X122606896Y-67533127D01*
X122550037Y-67509006D01*
X122500500Y-67474815D01*
X122469598Y-67444228D01*
X122429847Y-67393120D01*
X122401454Y-67337103D01*
X122384418Y-67276177D01*
X122378739Y-67210341D01*
X122566318Y-67210341D01*
X122576021Y-67269839D01*
X122606791Y-67320250D01*
X122658554Y-67351904D01*
X122721067Y-67364214D01*
X122741879Y-67365093D01*
X122840944Y-67365093D01*
X122899894Y-67359117D01*
X122959803Y-67334607D01*
X123001671Y-67284437D01*
X123016193Y-67219756D01*
X123016506Y-67210341D01*
X123007304Y-67151417D01*
X122976763Y-67101179D01*
X122924863Y-67069186D01*
X122861929Y-67056159D01*
X122840944Y-67055003D01*
X122742173Y-67055003D01*
X122683570Y-67062161D01*
X122623835Y-67087476D01*
X122581769Y-67137502D01*
X122566720Y-67201121D01*
X122566318Y-67210341D01*
X122378739Y-67210341D01*
X122383115Y-67151168D01*
X122398832Y-67088419D01*
X122425980Y-67030872D01*
X122464558Y-66978528D01*
X122470184Y-66972351D01*
X122514721Y-66933181D01*
X122566523Y-66903381D01*
X122625589Y-66882948D01*
X122691921Y-66871885D01*
X122733087Y-66869769D01*
X123261824Y-66869769D01*
X123322562Y-66874090D01*
G37*
G36*
X174598000Y-83522875D02*
G01*
X174091538Y-83770830D01*
X174091538Y-83988890D01*
X174598000Y-83988890D01*
X174598000Y-84189951D01*
X173378739Y-84189951D01*
X173378739Y-83988890D01*
X173566318Y-83988890D01*
X173903959Y-83988890D01*
X173903959Y-83723056D01*
X173897725Y-83661608D01*
X173874284Y-83604079D01*
X173851203Y-83576803D01*
X173801450Y-83543544D01*
X173744517Y-83528910D01*
X173726932Y-83528150D01*
X173665269Y-83537583D01*
X173614876Y-83568838D01*
X173600903Y-83585303D01*
X173574964Y-83641284D01*
X173566453Y-83702769D01*
X173566318Y-83712505D01*
X173566318Y-83988890D01*
X173378739Y-83988890D01*
X173378739Y-83710746D01*
X173382638Y-83644887D01*
X173394335Y-83585284D01*
X173417251Y-83524824D01*
X173450352Y-83472535D01*
X173460219Y-83460739D01*
X173503832Y-83418576D01*
X173552166Y-83384750D01*
X173572766Y-83373105D01*
X173630291Y-83349764D01*
X173692846Y-83338322D01*
X173723415Y-83337055D01*
X173788358Y-83342132D01*
X173848990Y-83357364D01*
X173905309Y-83382750D01*
X173934734Y-83401242D01*
X173981792Y-83440126D01*
X174019762Y-83484900D01*
X174051292Y-83541555D01*
X174060763Y-83566252D01*
X174598000Y-83285471D01*
X174598000Y-83522875D01*
G37*
G36*
X174054022Y-82994724D02*
G01*
X173885201Y-82994724D01*
X173885201Y-82925847D01*
X173877849Y-82865163D01*
X173851093Y-82809449D01*
X173840651Y-82797180D01*
X173790093Y-82761789D01*
X173731781Y-82750039D01*
X173727518Y-82749993D01*
X173668472Y-82760812D01*
X173618828Y-82793269D01*
X173612919Y-82799232D01*
X173579470Y-82849305D01*
X173566500Y-82907750D01*
X173566318Y-82916175D01*
X173578820Y-82974979D01*
X173601782Y-83013189D01*
X173648163Y-83051364D01*
X173706659Y-83071904D01*
X173716381Y-83073859D01*
X173716381Y-83264368D01*
X173656751Y-83255288D01*
X173593617Y-83234607D01*
X173535832Y-83202934D01*
X173489658Y-83166205D01*
X173477218Y-83154166D01*
X173438846Y-83109226D01*
X173406533Y-83053951D01*
X173386529Y-82994499D01*
X173378835Y-82930871D01*
X173378739Y-82922623D01*
X173382490Y-82863152D01*
X173396346Y-82799577D01*
X173420413Y-82742258D01*
X173454690Y-82691193D01*
X173485424Y-82658548D01*
X173533333Y-82619719D01*
X173591109Y-82587021D01*
X173652109Y-82566779D01*
X173716332Y-82558994D01*
X173724587Y-82558897D01*
X173784862Y-82564282D01*
X173844127Y-82580439D01*
X173860875Y-82587034D01*
X173914097Y-82618353D01*
X173957334Y-82663585D01*
X173967853Y-82679064D01*
X174006509Y-82631136D01*
X174055324Y-82593558D01*
X174081279Y-82579706D01*
X174140054Y-82557694D01*
X174199217Y-82546903D01*
X174226653Y-82545708D01*
X174287869Y-82549520D01*
X174353167Y-82563605D01*
X174411873Y-82588069D01*
X174463987Y-82622910D01*
X174497176Y-82654152D01*
X174536462Y-82703810D01*
X174566098Y-82758152D01*
X174586086Y-82817179D01*
X174596424Y-82880890D01*
X174598000Y-82919399D01*
X174593072Y-82980436D01*
X174578289Y-83038394D01*
X174553651Y-83093276D01*
X174519158Y-83145080D01*
X174474590Y-83190692D01*
X174419727Y-83226999D01*
X174363276Y-83251134D01*
X174298944Y-83268144D01*
X174279116Y-83271695D01*
X174279116Y-83081772D01*
X174331881Y-83055308D01*
X174376422Y-83018464D01*
X174403913Y-82965069D01*
X174410421Y-82909434D01*
X174400053Y-82848954D01*
X174368947Y-82795558D01*
X174363233Y-82788974D01*
X174314988Y-82753310D01*
X174257731Y-82738077D01*
X174232515Y-82736803D01*
X174170264Y-82745365D01*
X174116857Y-82773735D01*
X174101210Y-82788681D01*
X174068952Y-82837944D01*
X174054759Y-82894949D01*
X174054022Y-82912658D01*
X174054022Y-82994724D01*
G37*
G36*
X174323620Y-81725013D02*
G01*
X174387814Y-81738946D01*
X174444603Y-81763145D01*
X174493986Y-81797610D01*
X174524727Y-81828513D01*
X174560586Y-81876819D01*
X174590784Y-81935391D01*
X174609478Y-81997554D01*
X174616667Y-82063307D01*
X174616757Y-82071779D01*
X174612354Y-82130345D01*
X174596536Y-82193740D01*
X174569214Y-82253361D01*
X174535871Y-82302434D01*
X174524727Y-82315924D01*
X174480632Y-82357494D01*
X174429133Y-82388854D01*
X174370229Y-82410003D01*
X174303919Y-82420942D01*
X174262703Y-82422609D01*
X173733673Y-82422609D01*
X173672745Y-82418859D01*
X173608513Y-82405002D01*
X173551659Y-82380935D01*
X173502181Y-82346659D01*
X173471356Y-82315924D01*
X173435268Y-82267677D01*
X173404878Y-82208999D01*
X173386065Y-82146547D01*
X173378830Y-82080322D01*
X173378742Y-82072072D01*
X173566318Y-82072072D01*
X173576429Y-82133630D01*
X173609502Y-82185379D01*
X173612333Y-82188136D01*
X173663651Y-82219272D01*
X173721358Y-82230836D01*
X173741586Y-82231514D01*
X174253910Y-82231514D01*
X174315919Y-82224355D01*
X174371719Y-82198303D01*
X174383750Y-82188136D01*
X174417822Y-82137285D01*
X174429134Y-82076569D01*
X174429179Y-82072072D01*
X174419197Y-82010871D01*
X174386545Y-81959076D01*
X174383750Y-81956301D01*
X174332449Y-81924745D01*
X174274340Y-81913024D01*
X174253910Y-81912337D01*
X173741586Y-81912337D01*
X173680099Y-81919593D01*
X173624419Y-81945997D01*
X173612333Y-81956301D01*
X173577822Y-82007226D01*
X173566363Y-82067611D01*
X173566318Y-82072072D01*
X173378742Y-82072072D01*
X173378739Y-82071779D01*
X173384528Y-82005577D01*
X173401893Y-81942965D01*
X173430836Y-81883944D01*
X173465658Y-81835246D01*
X173471356Y-81828513D01*
X173515565Y-81786715D01*
X173567150Y-81755183D01*
X173626113Y-81733917D01*
X173692452Y-81722918D01*
X173733673Y-81721242D01*
X174262703Y-81721242D01*
X174323620Y-81725013D01*
G37*
G36*
X130541600Y-73422288D02*
G01*
X130541600Y-73212727D01*
X130605581Y-73230059D01*
X130663215Y-73253037D01*
X130714501Y-73281661D01*
X130766313Y-73322193D01*
X130809486Y-73370410D01*
X130843975Y-73424194D01*
X130869993Y-73481680D01*
X130887540Y-73542868D01*
X130896616Y-73607760D01*
X130898000Y-73646503D01*
X130894690Y-73707617D01*
X130882801Y-73772001D01*
X130862266Y-73830560D01*
X130833085Y-73883293D01*
X130828830Y-73889475D01*
X130788830Y-73940346D01*
X130746975Y-73982500D01*
X130698294Y-74019113D01*
X130678181Y-74030745D01*
X130622054Y-74056391D01*
X130564910Y-74072182D01*
X130560944Y-74072951D01*
X130498904Y-74079625D01*
X130431031Y-74082739D01*
X130367551Y-74084113D01*
X130306419Y-74084628D01*
X130279870Y-74084674D01*
X130215750Y-74084388D01*
X130148706Y-74083289D01*
X130084135Y-74080965D01*
X130022713Y-74076328D01*
X129999088Y-74072951D01*
X129941377Y-74057838D01*
X129884646Y-74032632D01*
X129881265Y-74030745D01*
X129832173Y-73998437D01*
X129784912Y-73955366D01*
X129743943Y-73907401D01*
X129730616Y-73889475D01*
X129699714Y-73837470D01*
X129677640Y-73779639D01*
X129664396Y-73715984D01*
X129660050Y-73655506D01*
X129659981Y-73646503D01*
X129663763Y-73583229D01*
X129675108Y-73524201D01*
X129697902Y-73460700D01*
X129730991Y-73402978D01*
X129767546Y-73358101D01*
X129817116Y-73312189D01*
X129871707Y-73274216D01*
X129931318Y-73244181D01*
X129995951Y-73222083D01*
X130035138Y-73213020D01*
X130035138Y-73423460D01*
X129980996Y-73448457D01*
X129934302Y-73484870D01*
X129915264Y-73505526D01*
X129883573Y-73556788D01*
X129868038Y-73616274D01*
X129866318Y-73646503D01*
X129873349Y-73707724D01*
X129891230Y-73753774D01*
X129925463Y-73802500D01*
X129948969Y-73824702D01*
X130001066Y-73856181D01*
X130045690Y-73871304D01*
X130109644Y-73879274D01*
X130169966Y-73882159D01*
X130235851Y-73883421D01*
X130278990Y-73883614D01*
X130342511Y-73883181D01*
X130405210Y-73881582D01*
X130467771Y-73877795D01*
X130513464Y-73871304D01*
X130569476Y-73850500D01*
X130608425Y-73824702D01*
X130649268Y-73782387D01*
X130667337Y-73753774D01*
X130687007Y-73697617D01*
X130691663Y-73646503D01*
X130684482Y-73585885D01*
X130658690Y-73524542D01*
X130620735Y-73477809D01*
X130568418Y-73437556D01*
X130541600Y-73422288D01*
G37*
G36*
X130354022Y-72940445D02*
G01*
X130185201Y-72940445D01*
X130185201Y-72871569D01*
X130177849Y-72810885D01*
X130151093Y-72755170D01*
X130140651Y-72742902D01*
X130090093Y-72707511D01*
X130031781Y-72695760D01*
X130027518Y-72695714D01*
X129968472Y-72706533D01*
X129918828Y-72738991D01*
X129912919Y-72744953D01*
X129879470Y-72795027D01*
X129866500Y-72853472D01*
X129866318Y-72861897D01*
X129878820Y-72920700D01*
X129901782Y-72958910D01*
X129948163Y-72997085D01*
X130006659Y-73017626D01*
X130016381Y-73019580D01*
X130016381Y-73210089D01*
X129956751Y-73201009D01*
X129893617Y-73180328D01*
X129835832Y-73148656D01*
X129789658Y-73111927D01*
X129777218Y-73099887D01*
X129738846Y-73054947D01*
X129706533Y-72999672D01*
X129686529Y-72940220D01*
X129678835Y-72876592D01*
X129678739Y-72868345D01*
X129682490Y-72808874D01*
X129696346Y-72745299D01*
X129720413Y-72687979D01*
X129754690Y-72636915D01*
X129785424Y-72604270D01*
X129833333Y-72565441D01*
X129891109Y-72532743D01*
X129952109Y-72512501D01*
X130016332Y-72504716D01*
X130024587Y-72504618D01*
X130084862Y-72510004D01*
X130144127Y-72526161D01*
X130160875Y-72532755D01*
X130214097Y-72564075D01*
X130257334Y-72609307D01*
X130267853Y-72624786D01*
X130306509Y-72576857D01*
X130355324Y-72539280D01*
X130381279Y-72525428D01*
X130440054Y-72503415D01*
X130499217Y-72492625D01*
X130526653Y-72491429D01*
X130587869Y-72495242D01*
X130653167Y-72509327D01*
X130711873Y-72533790D01*
X130763987Y-72568632D01*
X130797176Y-72599873D01*
X130836462Y-72649531D01*
X130866098Y-72703874D01*
X130886086Y-72762900D01*
X130896424Y-72826611D01*
X130898000Y-72865121D01*
X130893072Y-72926157D01*
X130878289Y-72984116D01*
X130853651Y-73038997D01*
X130819158Y-73090801D01*
X130774590Y-73136414D01*
X130719727Y-73172720D01*
X130663276Y-73196855D01*
X130598944Y-73213865D01*
X130579116Y-73217417D01*
X130579116Y-73027494D01*
X130631881Y-73001029D01*
X130676422Y-72964186D01*
X130703913Y-72910790D01*
X130710421Y-72855156D01*
X130700053Y-72794676D01*
X130668947Y-72741279D01*
X130663233Y-72734695D01*
X130614988Y-72699032D01*
X130557731Y-72683799D01*
X130532515Y-72682525D01*
X130470264Y-72691087D01*
X130416857Y-72719457D01*
X130401210Y-72734402D01*
X130368952Y-72783666D01*
X130354759Y-72840671D01*
X130354022Y-72858380D01*
X130354022Y-72940445D01*
G37*
G36*
X130354022Y-72135030D02*
G01*
X130185201Y-72135030D01*
X130185201Y-72066154D01*
X130177849Y-72005470D01*
X130151093Y-71949755D01*
X130140651Y-71937487D01*
X130090093Y-71902096D01*
X130031781Y-71890345D01*
X130027518Y-71890299D01*
X129968472Y-71901118D01*
X129918828Y-71933576D01*
X129912919Y-71939538D01*
X129879470Y-71989611D01*
X129866500Y-72048056D01*
X129866318Y-72056482D01*
X129878820Y-72115285D01*
X129901782Y-72153495D01*
X129948163Y-72191670D01*
X130006659Y-72212211D01*
X130016381Y-72214165D01*
X130016381Y-72404674D01*
X129956751Y-72395594D01*
X129893617Y-72374913D01*
X129835832Y-72343241D01*
X129789658Y-72306512D01*
X129777218Y-72294472D01*
X129738846Y-72249532D01*
X129706533Y-72194257D01*
X129686529Y-72134805D01*
X129678835Y-72071177D01*
X129678739Y-72062930D01*
X129682490Y-72003458D01*
X129696346Y-71939884D01*
X129720413Y-71882564D01*
X129754690Y-71831499D01*
X129785424Y-71798854D01*
X129833333Y-71760025D01*
X129891109Y-71727327D01*
X129952109Y-71707086D01*
X130016332Y-71699301D01*
X130024587Y-71699203D01*
X130084862Y-71704589D01*
X130144127Y-71720745D01*
X130160875Y-71727340D01*
X130214097Y-71758660D01*
X130257334Y-71803892D01*
X130267853Y-71819371D01*
X130306509Y-71771442D01*
X130355324Y-71733865D01*
X130381279Y-71720013D01*
X130440054Y-71698000D01*
X130499217Y-71687209D01*
X130526653Y-71686014D01*
X130587869Y-71689827D01*
X130653167Y-71703912D01*
X130711873Y-71728375D01*
X130763987Y-71763217D01*
X130797176Y-71794458D01*
X130836462Y-71844116D01*
X130866098Y-71898458D01*
X130886086Y-71957485D01*
X130896424Y-72021196D01*
X130898000Y-72059706D01*
X130893072Y-72120742D01*
X130878289Y-72178701D01*
X130853651Y-72233582D01*
X130819158Y-72285386D01*
X130774590Y-72330998D01*
X130719727Y-72367305D01*
X130663276Y-72391440D01*
X130598944Y-72408450D01*
X130579116Y-72412002D01*
X130579116Y-72222078D01*
X130631881Y-72195614D01*
X130676422Y-72158771D01*
X130703913Y-72105375D01*
X130710421Y-72049741D01*
X130700053Y-71989260D01*
X130668947Y-71935864D01*
X130663233Y-71929280D01*
X130614988Y-71893617D01*
X130557731Y-71878383D01*
X130532515Y-71877110D01*
X130470264Y-71885671D01*
X130416857Y-71914042D01*
X130401210Y-71928987D01*
X130368952Y-71978250D01*
X130354759Y-72035255D01*
X130354022Y-72052965D01*
X130354022Y-72135030D01*
G37*
G36*
X164753525Y-67837678D02*
G01*
X164885709Y-67686443D01*
X164937844Y-67723995D01*
X164993096Y-67755243D01*
X165046030Y-67778181D01*
X165106609Y-67796536D01*
X165169058Y-67807273D01*
X165227453Y-67810421D01*
X165290508Y-67806099D01*
X165348959Y-67791361D01*
X165395981Y-67766164D01*
X165437254Y-67722278D01*
X165455827Y-67663803D01*
X165456358Y-67650686D01*
X165447089Y-67590474D01*
X165414502Y-67539946D01*
X165358454Y-67507640D01*
X165308053Y-67496227D01*
X165249197Y-67488753D01*
X165230970Y-67486262D01*
X165171510Y-67477799D01*
X165148905Y-67474538D01*
X165082753Y-67461259D01*
X165023811Y-67440911D01*
X164965275Y-67409000D01*
X164916155Y-67367858D01*
X164905346Y-67356129D01*
X164868673Y-67305461D01*
X164842478Y-67249884D01*
X164826761Y-67189397D01*
X164821522Y-67124001D01*
X164826557Y-67057309D01*
X164841661Y-66995974D01*
X164866836Y-66939996D01*
X164902081Y-66889377D01*
X164926742Y-66862856D01*
X164976957Y-66822771D01*
X165035278Y-66792532D01*
X165091720Y-66774448D01*
X165154118Y-66763598D01*
X165222471Y-66759981D01*
X165285019Y-66762903D01*
X165345387Y-66771666D01*
X165403576Y-66786272D01*
X165434962Y-66796911D01*
X165490179Y-66819490D01*
X165544050Y-66846009D01*
X165596578Y-66876471D01*
X165625178Y-66895096D01*
X165513511Y-67062159D01*
X165458748Y-67030793D01*
X165403491Y-67005281D01*
X165366379Y-66991524D01*
X165305360Y-66975204D01*
X165243277Y-66967204D01*
X165214264Y-66966318D01*
X165152747Y-66973090D01*
X165095910Y-66995530D01*
X165077977Y-67007351D01*
X165038216Y-67054835D01*
X165023069Y-67115422D01*
X165022582Y-67130449D01*
X165037123Y-67188357D01*
X165059805Y-67221014D01*
X165109777Y-67256112D01*
X165169155Y-67274162D01*
X165185248Y-67276995D01*
X165242694Y-67285787D01*
X165301441Y-67293014D01*
X165320070Y-67295166D01*
X165381434Y-67306147D01*
X165445055Y-67326433D01*
X165500092Y-67354769D01*
X165546547Y-67391156D01*
X165574474Y-67422075D01*
X165610634Y-67476077D01*
X165636462Y-67532863D01*
X165651960Y-67592434D01*
X165657125Y-67654789D01*
X165652983Y-67716596D01*
X165637680Y-67781854D01*
X165611101Y-67839735D01*
X165573246Y-67890238D01*
X165539303Y-67921796D01*
X165484125Y-67958797D01*
X165430846Y-67983280D01*
X165372045Y-68001085D01*
X165307720Y-68012213D01*
X165237873Y-68016665D01*
X165225695Y-68016757D01*
X165158243Y-68013959D01*
X165093199Y-68005565D01*
X165030565Y-67991574D01*
X164970339Y-67971988D01*
X164912522Y-67946805D01*
X164857114Y-67916025D01*
X164804115Y-67879650D01*
X164753525Y-67837678D01*
G37*
G36*
X166020559Y-67998000D02*
G01*
X165715157Y-66778739D01*
X165927649Y-66778739D01*
X166112003Y-67637497D01*
X166108779Y-67637497D01*
X166338270Y-66778739D01*
X166483350Y-66778739D01*
X166712841Y-67637497D01*
X166709617Y-67637497D01*
X166893971Y-66778739D01*
X167106462Y-66778739D01*
X166801061Y-67998000D01*
X166634585Y-67998000D01*
X166408612Y-67128104D01*
X166412129Y-67128104D01*
X166187035Y-67998000D01*
X166020559Y-67998000D01*
G37*
G36*
X167377865Y-67998000D02*
G01*
X167377865Y-66988300D01*
X167206407Y-67113157D01*
X167206407Y-66907406D01*
X167384313Y-66778739D01*
X167569547Y-66778739D01*
X167569547Y-67998000D01*
X167377865Y-67998000D01*
G37*
G36*
X168142504Y-66784528D02*
G01*
X168205116Y-66801893D01*
X168264137Y-66830836D01*
X168312835Y-66865658D01*
X168319568Y-66871356D01*
X168361366Y-66915565D01*
X168392898Y-66967150D01*
X168414164Y-67026113D01*
X168425163Y-67092452D01*
X168426839Y-67133673D01*
X168426839Y-67662703D01*
X168423068Y-67723620D01*
X168409135Y-67787814D01*
X168384936Y-67844603D01*
X168350471Y-67893986D01*
X168319568Y-67924727D01*
X168271262Y-67960586D01*
X168212690Y-67990784D01*
X168150527Y-68009478D01*
X168084774Y-68016667D01*
X168076302Y-68016757D01*
X168017736Y-68012354D01*
X167954341Y-67996536D01*
X167894720Y-67969214D01*
X167845647Y-67935871D01*
X167832157Y-67924727D01*
X167790587Y-67880632D01*
X167759227Y-67829133D01*
X167738078Y-67770229D01*
X167727138Y-67703919D01*
X167725471Y-67662703D01*
X167725471Y-67653910D01*
X167916567Y-67653910D01*
X167923726Y-67715919D01*
X167949778Y-67771719D01*
X167959945Y-67783750D01*
X168010796Y-67817822D01*
X168071512Y-67829134D01*
X168076009Y-67829179D01*
X168137210Y-67819197D01*
X168189005Y-67786545D01*
X168191780Y-67783750D01*
X168223336Y-67732449D01*
X168235057Y-67674340D01*
X168235744Y-67653910D01*
X168235744Y-67141586D01*
X168228488Y-67080099D01*
X168202084Y-67024419D01*
X168191780Y-67012333D01*
X168140855Y-66977822D01*
X168080470Y-66966363D01*
X168076009Y-66966318D01*
X168014451Y-66976429D01*
X167962702Y-67009502D01*
X167959945Y-67012333D01*
X167928809Y-67063651D01*
X167917245Y-67121358D01*
X167916567Y-67141586D01*
X167916567Y-67653910D01*
X167725471Y-67653910D01*
X167725471Y-67133673D01*
X167729222Y-67072745D01*
X167743079Y-67008513D01*
X167767145Y-66951659D01*
X167801422Y-66902181D01*
X167832157Y-66871356D01*
X167880404Y-66835268D01*
X167939082Y-66804878D01*
X168001534Y-66786065D01*
X168067758Y-66778830D01*
X168076302Y-66778739D01*
X168142504Y-66784528D01*
G37*
G36*
X134182721Y-88298000D02*
G01*
X134182721Y-87078739D01*
X134383782Y-87078739D01*
X134383782Y-88110421D01*
X134969672Y-88110421D01*
X134969672Y-88298000D01*
X134182721Y-88298000D01*
G37*
G36*
X135737864Y-87941600D02*
G01*
X135947425Y-87941600D01*
X135930093Y-88005581D01*
X135907116Y-88063215D01*
X135878491Y-88114501D01*
X135837959Y-88166313D01*
X135789742Y-88209486D01*
X135735958Y-88243975D01*
X135678472Y-88269993D01*
X135617284Y-88287540D01*
X135552393Y-88296616D01*
X135513649Y-88298000D01*
X135452535Y-88294690D01*
X135388151Y-88282801D01*
X135329592Y-88262266D01*
X135276859Y-88233085D01*
X135270677Y-88228830D01*
X135219806Y-88188830D01*
X135177652Y-88146975D01*
X135141039Y-88098294D01*
X135129407Y-88078181D01*
X135103761Y-88022054D01*
X135087970Y-87964910D01*
X135087201Y-87960944D01*
X135080527Y-87898904D01*
X135077413Y-87831031D01*
X135076039Y-87767551D01*
X135075524Y-87706419D01*
X135075478Y-87679870D01*
X135075764Y-87615750D01*
X135076863Y-87548706D01*
X135079187Y-87484135D01*
X135083824Y-87422713D01*
X135087201Y-87399088D01*
X135102314Y-87341377D01*
X135127520Y-87284646D01*
X135129407Y-87281265D01*
X135161715Y-87232173D01*
X135204786Y-87184912D01*
X135252751Y-87143943D01*
X135270677Y-87130616D01*
X135322682Y-87099714D01*
X135380513Y-87077640D01*
X135444168Y-87064396D01*
X135504646Y-87060050D01*
X135513649Y-87059981D01*
X135576923Y-87063763D01*
X135635951Y-87075108D01*
X135699452Y-87097902D01*
X135757174Y-87130991D01*
X135802051Y-87167546D01*
X135847963Y-87217116D01*
X135885936Y-87271707D01*
X135915972Y-87331318D01*
X135938069Y-87395951D01*
X135947132Y-87435138D01*
X135736692Y-87435138D01*
X135711695Y-87380996D01*
X135675283Y-87334302D01*
X135654626Y-87315264D01*
X135603364Y-87283573D01*
X135543878Y-87268038D01*
X135513649Y-87266318D01*
X135452428Y-87273349D01*
X135406378Y-87291230D01*
X135357652Y-87325463D01*
X135335450Y-87348969D01*
X135303971Y-87401066D01*
X135288848Y-87445690D01*
X135280878Y-87509644D01*
X135277993Y-87569966D01*
X135276731Y-87635851D01*
X135276539Y-87678990D01*
X135276971Y-87742511D01*
X135278570Y-87805210D01*
X135282357Y-87867771D01*
X135288848Y-87913464D01*
X135309652Y-87969476D01*
X135335450Y-88008425D01*
X135377765Y-88049268D01*
X135406378Y-88067337D01*
X135462535Y-88087007D01*
X135513649Y-88091663D01*
X135574267Y-88084482D01*
X135635610Y-88058690D01*
X135682343Y-88020735D01*
X135722596Y-87968418D01*
X135737864Y-87941600D01*
G37*
G36*
X136539721Y-87081968D02*
G01*
X136610193Y-87095084D01*
X136674354Y-87118289D01*
X136732204Y-87151584D01*
X136783743Y-87194968D01*
X136828970Y-87248442D01*
X136853077Y-87285369D01*
X136880119Y-87337825D01*
X136901272Y-87396872D01*
X136908472Y-87431621D01*
X136914145Y-87492673D01*
X136916792Y-87555042D01*
X136918086Y-87622027D01*
X136918437Y-87688662D01*
X136918093Y-87749041D01*
X136916774Y-87812843D01*
X136913985Y-87875350D01*
X136908421Y-87936839D01*
X136904368Y-87961824D01*
X136887042Y-88021337D01*
X136861509Y-88074791D01*
X136849267Y-88094887D01*
X136811159Y-88145898D01*
X136764980Y-88191584D01*
X136716518Y-88228151D01*
X136698911Y-88239381D01*
X136641966Y-88267717D01*
X136585977Y-88285120D01*
X136524931Y-88295195D01*
X136467369Y-88298000D01*
X136049127Y-88298000D01*
X136049127Y-87266318D01*
X136250188Y-87266318D01*
X136250188Y-88110421D01*
X136459162Y-88110421D01*
X136519017Y-88105568D01*
X136578560Y-88088139D01*
X136634248Y-88053378D01*
X136673705Y-88009011D01*
X136700374Y-87954466D01*
X136710049Y-87914050D01*
X136714983Y-87853172D01*
X136716925Y-87788528D01*
X136717602Y-87725522D01*
X136717669Y-87695110D01*
X136717262Y-87629053D01*
X136715801Y-87565443D01*
X136712481Y-87503757D01*
X136709169Y-87472361D01*
X136694075Y-87414695D01*
X136665792Y-87363624D01*
X136620297Y-87316586D01*
X136564926Y-87284943D01*
X136507416Y-87269739D01*
X136459162Y-87266318D01*
X136250188Y-87266318D01*
X136049127Y-87266318D01*
X136049127Y-87078739D01*
X136478800Y-87078739D01*
X136539721Y-87081968D01*
G37*
G36*
X137262526Y-88298000D02*
G01*
X137262526Y-87288300D01*
X137091067Y-87413157D01*
X137091067Y-87207406D01*
X137268974Y-87078739D01*
X137454208Y-87078739D01*
X137454208Y-88298000D01*
X137262526Y-88298000D01*
G37*
G36*
X129298000Y-73303293D02*
G01*
X128791538Y-73551248D01*
X128791538Y-73769308D01*
X129298000Y-73769308D01*
X129298000Y-73970369D01*
X128078739Y-73970369D01*
X128078739Y-73769308D01*
X128266318Y-73769308D01*
X128603959Y-73769308D01*
X128603959Y-73503474D01*
X128597725Y-73442026D01*
X128574284Y-73384497D01*
X128551203Y-73357221D01*
X128501450Y-73323962D01*
X128444517Y-73309328D01*
X128426932Y-73308568D01*
X128365269Y-73318001D01*
X128314876Y-73349256D01*
X128300903Y-73365721D01*
X128274964Y-73421702D01*
X128266453Y-73483187D01*
X128266318Y-73492923D01*
X128266318Y-73769308D01*
X128078739Y-73769308D01*
X128078739Y-73491164D01*
X128082638Y-73425305D01*
X128094335Y-73365702D01*
X128117251Y-73305242D01*
X128150352Y-73252953D01*
X128160219Y-73241157D01*
X128203832Y-73198994D01*
X128252166Y-73165168D01*
X128272766Y-73153523D01*
X128330291Y-73130182D01*
X128392846Y-73118740D01*
X128423415Y-73117473D01*
X128488358Y-73122550D01*
X128548990Y-73137782D01*
X128605309Y-73163168D01*
X128634734Y-73181660D01*
X128681792Y-73220544D01*
X128719762Y-73265318D01*
X128751292Y-73321973D01*
X128760763Y-73346670D01*
X129298000Y-73065889D01*
X129298000Y-73303293D01*
G37*
G36*
X128754022Y-72775142D02*
G01*
X128585201Y-72775142D01*
X128585201Y-72706265D01*
X128577849Y-72645581D01*
X128551093Y-72589867D01*
X128540651Y-72577598D01*
X128490093Y-72542207D01*
X128431781Y-72530457D01*
X128427518Y-72530411D01*
X128368472Y-72541230D01*
X128318828Y-72573687D01*
X128312919Y-72579650D01*
X128279470Y-72629723D01*
X128266500Y-72688168D01*
X128266318Y-72696593D01*
X128278820Y-72755397D01*
X128301782Y-72793607D01*
X128348163Y-72831782D01*
X128406659Y-72852322D01*
X128416381Y-72854277D01*
X128416381Y-73044786D01*
X128356751Y-73035706D01*
X128293617Y-73015025D01*
X128235832Y-72983352D01*
X128189658Y-72946623D01*
X128177218Y-72934584D01*
X128138846Y-72889644D01*
X128106533Y-72834369D01*
X128086529Y-72774917D01*
X128078835Y-72711289D01*
X128078739Y-72703041D01*
X128082490Y-72643570D01*
X128096346Y-72579995D01*
X128120413Y-72522676D01*
X128154690Y-72471611D01*
X128185424Y-72438966D01*
X128233333Y-72400137D01*
X128291109Y-72367439D01*
X128352109Y-72347197D01*
X128416332Y-72339412D01*
X128424587Y-72339315D01*
X128484862Y-72344700D01*
X128544127Y-72360857D01*
X128560875Y-72367452D01*
X128614097Y-72398771D01*
X128657334Y-72444003D01*
X128667853Y-72459482D01*
X128706509Y-72411554D01*
X128755324Y-72373976D01*
X128781279Y-72360124D01*
X128840054Y-72338112D01*
X128899217Y-72327321D01*
X128926653Y-72326126D01*
X128987869Y-72329938D01*
X129053167Y-72344023D01*
X129111873Y-72368487D01*
X129163987Y-72403328D01*
X129197176Y-72434570D01*
X129236462Y-72484228D01*
X129266098Y-72538570D01*
X129286086Y-72597597D01*
X129296424Y-72661308D01*
X129298000Y-72699817D01*
X129293072Y-72760854D01*
X129278289Y-72818812D01*
X129253651Y-72873694D01*
X129219158Y-72925498D01*
X129174590Y-72971110D01*
X129119727Y-73007417D01*
X129063276Y-73031552D01*
X128998944Y-73048562D01*
X128979116Y-73052113D01*
X128979116Y-72862190D01*
X129031881Y-72835726D01*
X129076422Y-72798882D01*
X129103913Y-72745487D01*
X129110421Y-72689852D01*
X129100053Y-72629372D01*
X129068947Y-72575976D01*
X129063233Y-72569392D01*
X129014988Y-72533728D01*
X128957731Y-72518495D01*
X128932515Y-72517221D01*
X128870264Y-72525783D01*
X128816857Y-72554153D01*
X128801210Y-72569099D01*
X128768952Y-72618362D01*
X128754759Y-72675367D01*
X128754022Y-72693076D01*
X128754022Y-72775142D01*
G37*
G36*
X129298000Y-71984381D02*
G01*
X128288300Y-71984381D01*
X128413157Y-72155840D01*
X128207406Y-72155840D01*
X128078739Y-71977933D01*
X128078739Y-71792699D01*
X129298000Y-71792699D01*
X129298000Y-71984381D01*
G37*
G36*
X161741600Y-89522288D02*
G01*
X161741600Y-89312727D01*
X161805581Y-89330059D01*
X161863215Y-89353037D01*
X161914501Y-89381661D01*
X161966313Y-89422193D01*
X162009486Y-89470410D01*
X162043975Y-89524194D01*
X162069993Y-89581680D01*
X162087540Y-89642868D01*
X162096616Y-89707760D01*
X162098000Y-89746503D01*
X162094690Y-89807617D01*
X162082801Y-89872001D01*
X162062266Y-89930560D01*
X162033085Y-89983293D01*
X162028830Y-89989475D01*
X161988830Y-90040346D01*
X161946975Y-90082500D01*
X161898294Y-90119113D01*
X161878181Y-90130745D01*
X161822054Y-90156391D01*
X161764910Y-90172182D01*
X161760944Y-90172951D01*
X161698904Y-90179625D01*
X161631031Y-90182739D01*
X161567551Y-90184113D01*
X161506419Y-90184628D01*
X161479870Y-90184674D01*
X161415750Y-90184388D01*
X161348706Y-90183289D01*
X161284135Y-90180965D01*
X161222713Y-90176328D01*
X161199088Y-90172951D01*
X161141377Y-90157838D01*
X161084646Y-90132632D01*
X161081265Y-90130745D01*
X161032173Y-90098437D01*
X160984912Y-90055366D01*
X160943943Y-90007401D01*
X160930616Y-89989475D01*
X160899714Y-89937470D01*
X160877640Y-89879639D01*
X160864396Y-89815984D01*
X160860050Y-89755506D01*
X160859981Y-89746503D01*
X160863763Y-89683229D01*
X160875108Y-89624201D01*
X160897902Y-89560700D01*
X160930991Y-89502978D01*
X160967546Y-89458101D01*
X161017116Y-89412189D01*
X161071707Y-89374216D01*
X161131318Y-89344181D01*
X161195951Y-89322083D01*
X161235138Y-89313020D01*
X161235138Y-89523460D01*
X161180996Y-89548457D01*
X161134302Y-89584870D01*
X161115264Y-89605526D01*
X161083573Y-89656788D01*
X161068038Y-89716274D01*
X161066318Y-89746503D01*
X161073349Y-89807724D01*
X161091230Y-89853774D01*
X161125463Y-89902500D01*
X161148969Y-89924702D01*
X161201066Y-89956181D01*
X161245690Y-89971304D01*
X161309644Y-89979274D01*
X161369966Y-89982159D01*
X161435851Y-89983421D01*
X161478990Y-89983614D01*
X161542511Y-89983181D01*
X161605210Y-89981582D01*
X161667771Y-89977795D01*
X161713464Y-89971304D01*
X161769476Y-89950500D01*
X161808425Y-89924702D01*
X161849268Y-89882387D01*
X161867337Y-89853774D01*
X161887007Y-89797617D01*
X161891663Y-89746503D01*
X161884482Y-89685885D01*
X161858690Y-89624542D01*
X161820735Y-89577809D01*
X161768418Y-89537556D01*
X161741600Y-89522288D01*
G37*
G36*
X161554022Y-89040445D02*
G01*
X161385201Y-89040445D01*
X161385201Y-88971569D01*
X161377849Y-88910885D01*
X161351093Y-88855170D01*
X161340651Y-88842902D01*
X161290093Y-88807511D01*
X161231781Y-88795760D01*
X161227518Y-88795714D01*
X161168472Y-88806533D01*
X161118828Y-88838991D01*
X161112919Y-88844953D01*
X161079470Y-88895027D01*
X161066500Y-88953472D01*
X161066318Y-88961897D01*
X161078820Y-89020700D01*
X161101782Y-89058910D01*
X161148163Y-89097085D01*
X161206659Y-89117626D01*
X161216381Y-89119580D01*
X161216381Y-89310089D01*
X161156751Y-89301009D01*
X161093617Y-89280328D01*
X161035832Y-89248656D01*
X160989658Y-89211927D01*
X160977218Y-89199887D01*
X160938846Y-89154947D01*
X160906533Y-89099672D01*
X160886529Y-89040220D01*
X160878835Y-88976592D01*
X160878739Y-88968345D01*
X160882490Y-88908874D01*
X160896346Y-88845299D01*
X160920413Y-88787979D01*
X160954690Y-88736915D01*
X160985424Y-88704270D01*
X161033333Y-88665441D01*
X161091109Y-88632743D01*
X161152109Y-88612501D01*
X161216332Y-88604716D01*
X161224587Y-88604618D01*
X161284862Y-88610004D01*
X161344127Y-88626161D01*
X161360875Y-88632755D01*
X161414097Y-88664075D01*
X161457334Y-88709307D01*
X161467853Y-88724786D01*
X161506509Y-88676857D01*
X161555324Y-88639280D01*
X161581279Y-88625428D01*
X161640054Y-88603415D01*
X161699217Y-88592625D01*
X161726653Y-88591429D01*
X161787869Y-88595242D01*
X161853167Y-88609327D01*
X161911873Y-88633790D01*
X161963987Y-88668632D01*
X161997176Y-88699873D01*
X162036462Y-88749531D01*
X162066098Y-88803874D01*
X162086086Y-88862900D01*
X162096424Y-88926611D01*
X162098000Y-88965121D01*
X162093072Y-89026157D01*
X162078289Y-89084116D01*
X162053651Y-89138997D01*
X162019158Y-89190801D01*
X161974590Y-89236414D01*
X161919727Y-89272720D01*
X161863276Y-89296855D01*
X161798944Y-89313865D01*
X161779116Y-89317417D01*
X161779116Y-89127494D01*
X161831881Y-89101029D01*
X161876422Y-89064186D01*
X161903913Y-89010790D01*
X161910421Y-88955156D01*
X161900053Y-88894676D01*
X161868947Y-88841279D01*
X161863233Y-88834695D01*
X161814988Y-88799032D01*
X161757731Y-88783799D01*
X161732515Y-88782525D01*
X161670264Y-88791087D01*
X161616857Y-88819457D01*
X161601210Y-88834402D01*
X161568952Y-88883666D01*
X161554759Y-88940671D01*
X161554022Y-88958380D01*
X161554022Y-89040445D01*
G37*
G36*
X161541126Y-88447521D02*
G01*
X160878739Y-88447521D01*
X160878739Y-87789238D01*
X161066318Y-87789238D01*
X161066318Y-88266391D01*
X161308411Y-88266391D01*
X161277374Y-88213343D01*
X161260338Y-88156282D01*
X161254109Y-88097732D01*
X161253896Y-88083795D01*
X161259170Y-88024402D01*
X161276523Y-87966120D01*
X161281447Y-87955128D01*
X161311415Y-87902738D01*
X161346220Y-87862218D01*
X161393111Y-87825757D01*
X161447287Y-87796553D01*
X161467560Y-87788652D01*
X161528862Y-87774364D01*
X161590959Y-87767975D01*
X161657756Y-87765411D01*
X161685620Y-87765205D01*
X161750538Y-87766642D01*
X161810976Y-87771611D01*
X161871147Y-87783376D01*
X161926385Y-87805178D01*
X161977244Y-87836511D01*
X161983694Y-87841408D01*
X162028100Y-87883891D01*
X162064189Y-87931648D01*
X162074845Y-87948387D01*
X162100385Y-88003163D01*
X162114138Y-88064616D01*
X162116757Y-88109294D01*
X162112233Y-88168425D01*
X162098659Y-88226531D01*
X162076036Y-88283610D01*
X162044364Y-88339664D01*
X162001133Y-88389416D01*
X161952006Y-88423693D01*
X161892332Y-88449330D01*
X161832788Y-88464429D01*
X161788788Y-88470969D01*
X161788788Y-88280752D01*
X161850209Y-88259027D01*
X161898331Y-88219084D01*
X161924243Y-88162726D01*
X161929179Y-88116035D01*
X161922432Y-88056913D01*
X161892448Y-88002391D01*
X161843889Y-87976817D01*
X161784913Y-87965136D01*
X161725659Y-87958304D01*
X161671551Y-87956300D01*
X161612086Y-87959449D01*
X161550097Y-87971539D01*
X161506248Y-87988540D01*
X161461969Y-88029565D01*
X161443752Y-88085536D01*
X161441475Y-88120725D01*
X161453250Y-88180967D01*
X161488575Y-88231928D01*
X161541126Y-88270201D01*
X161541126Y-88447521D01*
G37*
G36*
X174155112Y-72382638D02*
G01*
X174214715Y-72394335D01*
X174275175Y-72417251D01*
X174327464Y-72450352D01*
X174339260Y-72460219D01*
X174381423Y-72503832D01*
X174415249Y-72552166D01*
X174426894Y-72572766D01*
X174450235Y-72630291D01*
X174461677Y-72692846D01*
X174462944Y-72723415D01*
X174457867Y-72788358D01*
X174442635Y-72848990D01*
X174417249Y-72905309D01*
X174398757Y-72934734D01*
X174359873Y-72981792D01*
X174315099Y-73019762D01*
X174258444Y-73051292D01*
X174233747Y-73060763D01*
X174514528Y-73598000D01*
X174277124Y-73598000D01*
X174029169Y-73091538D01*
X173811109Y-73091538D01*
X173811109Y-73598000D01*
X173610048Y-73598000D01*
X173610048Y-72566318D01*
X173811109Y-72566318D01*
X173811109Y-72903959D01*
X174076943Y-72903959D01*
X174138391Y-72897725D01*
X174195920Y-72874284D01*
X174223196Y-72851203D01*
X174256455Y-72801450D01*
X174271089Y-72744517D01*
X174271849Y-72726932D01*
X174262416Y-72665269D01*
X174231161Y-72614876D01*
X174214696Y-72600903D01*
X174158715Y-72574964D01*
X174097230Y-72566453D01*
X174087494Y-72566318D01*
X173811109Y-72566318D01*
X173610048Y-72566318D01*
X173610048Y-72378739D01*
X174089253Y-72378739D01*
X174155112Y-72382638D01*
G37*
G36*
X174805275Y-73054022D02*
G01*
X174805275Y-72885201D01*
X174874152Y-72885201D01*
X174934836Y-72877849D01*
X174990550Y-72851093D01*
X175002819Y-72840651D01*
X175038210Y-72790093D01*
X175049960Y-72731781D01*
X175050006Y-72727518D01*
X175039187Y-72668472D01*
X175006730Y-72618828D01*
X175000767Y-72612919D01*
X174950694Y-72579470D01*
X174892249Y-72566500D01*
X174883824Y-72566318D01*
X174825020Y-72578820D01*
X174786810Y-72601782D01*
X174748635Y-72648163D01*
X174728095Y-72706659D01*
X174726140Y-72716381D01*
X174535631Y-72716381D01*
X174544711Y-72656751D01*
X174565392Y-72593617D01*
X174597065Y-72535832D01*
X174633794Y-72489658D01*
X174645833Y-72477218D01*
X174690773Y-72438846D01*
X174746048Y-72406533D01*
X174805500Y-72386529D01*
X174869128Y-72378835D01*
X174877376Y-72378739D01*
X174936847Y-72382490D01*
X175000422Y-72396346D01*
X175057741Y-72420413D01*
X175108806Y-72454690D01*
X175141451Y-72485424D01*
X175180280Y-72533333D01*
X175212978Y-72591109D01*
X175233220Y-72652109D01*
X175241005Y-72716332D01*
X175241102Y-72724587D01*
X175235717Y-72784862D01*
X175219560Y-72844127D01*
X175212965Y-72860875D01*
X175181646Y-72914097D01*
X175136414Y-72957334D01*
X175120935Y-72967853D01*
X175168863Y-73006509D01*
X175206441Y-73055324D01*
X175220293Y-73081279D01*
X175242305Y-73140054D01*
X175253096Y-73199217D01*
X175254291Y-73226653D01*
X175250479Y-73287869D01*
X175236394Y-73353167D01*
X175211930Y-73411873D01*
X175177089Y-73463987D01*
X175145847Y-73497176D01*
X175096189Y-73536462D01*
X175041847Y-73566098D01*
X174982820Y-73586086D01*
X174919109Y-73596424D01*
X174880600Y-73598000D01*
X174819563Y-73593072D01*
X174761605Y-73578289D01*
X174706723Y-73553651D01*
X174654919Y-73519158D01*
X174609307Y-73474590D01*
X174573000Y-73419727D01*
X174548865Y-73363276D01*
X174531855Y-73298944D01*
X174528304Y-73279116D01*
X174718227Y-73279116D01*
X174744691Y-73331881D01*
X174781535Y-73376422D01*
X174834930Y-73403913D01*
X174890565Y-73410421D01*
X174951045Y-73400053D01*
X175004441Y-73368947D01*
X175011025Y-73363233D01*
X175046689Y-73314988D01*
X175061922Y-73257731D01*
X175063196Y-73232515D01*
X175054634Y-73170264D01*
X175026264Y-73116857D01*
X175011318Y-73101210D01*
X174962055Y-73068952D01*
X174905050Y-73054759D01*
X174887341Y-73054022D01*
X174805275Y-73054022D01*
G37*
G36*
X175367424Y-73598000D02*
G01*
X175367424Y-73425076D01*
X175839595Y-72839186D01*
X175870391Y-72787679D01*
X175873300Y-72779102D01*
X175881214Y-72726346D01*
X175869302Y-72666297D01*
X175839009Y-72617023D01*
X175793018Y-72580628D01*
X175733633Y-72566516D01*
X175724703Y-72566318D01*
X175666580Y-72575720D01*
X175613952Y-72606476D01*
X175610983Y-72609109D01*
X175575971Y-72657967D01*
X175560109Y-72714897D01*
X175557934Y-72735138D01*
X175367424Y-72735138D01*
X175372634Y-72669800D01*
X175387492Y-72609708D01*
X175412000Y-72554861D01*
X175446156Y-72505259D01*
X175470006Y-72479270D01*
X175516325Y-72440098D01*
X175573725Y-72407112D01*
X175635888Y-72386691D01*
X175694187Y-72379132D01*
X175711514Y-72378739D01*
X175776393Y-72383662D01*
X175836391Y-72398430D01*
X175891509Y-72423044D01*
X175941746Y-72457503D01*
X175968262Y-72481614D01*
X176008461Y-72528656D01*
X176038787Y-72579764D01*
X176059239Y-72634940D01*
X176069818Y-72694183D01*
X176071430Y-72729863D01*
X176066814Y-72789910D01*
X176050585Y-72852471D01*
X176022672Y-72909745D01*
X175997571Y-72944992D01*
X175623293Y-73410421D01*
X176071430Y-73410421D01*
X176071430Y-73598000D01*
X175367424Y-73598000D01*
G37*
G36*
X130898000Y-80434598D02*
G01*
X130391538Y-80682553D01*
X130391538Y-80900613D01*
X130898000Y-80900613D01*
X130898000Y-81101674D01*
X129678739Y-81101674D01*
X129678739Y-80900613D01*
X129866318Y-80900613D01*
X130203959Y-80900613D01*
X130203959Y-80634779D01*
X130197725Y-80573331D01*
X130174284Y-80515802D01*
X130151203Y-80488526D01*
X130101450Y-80455267D01*
X130044517Y-80440633D01*
X130026932Y-80439873D01*
X129965269Y-80449306D01*
X129914876Y-80480561D01*
X129900903Y-80497026D01*
X129874964Y-80553007D01*
X129866453Y-80614492D01*
X129866318Y-80624228D01*
X129866318Y-80900613D01*
X129678739Y-80900613D01*
X129678739Y-80622469D01*
X129682638Y-80556610D01*
X129694335Y-80497007D01*
X129717251Y-80436547D01*
X129750352Y-80384258D01*
X129760219Y-80372462D01*
X129803832Y-80330299D01*
X129852166Y-80296473D01*
X129872766Y-80284828D01*
X129930291Y-80261487D01*
X129992846Y-80250045D01*
X130023415Y-80248778D01*
X130088358Y-80253855D01*
X130148990Y-80269087D01*
X130205309Y-80294473D01*
X130234734Y-80312965D01*
X130281792Y-80351849D01*
X130319762Y-80396623D01*
X130351292Y-80453278D01*
X130360763Y-80477975D01*
X130898000Y-80197194D01*
X130898000Y-80434598D01*
G37*
G36*
X130898000Y-80149713D02*
G01*
X130725076Y-80149713D01*
X130139186Y-79677542D01*
X130087679Y-79646746D01*
X130079102Y-79643837D01*
X130026346Y-79635923D01*
X129966297Y-79647835D01*
X129917023Y-79678129D01*
X129880628Y-79724119D01*
X129866516Y-79783504D01*
X129866318Y-79792434D01*
X129875720Y-79850557D01*
X129906476Y-79903186D01*
X129909109Y-79906154D01*
X129957967Y-79941166D01*
X130014897Y-79957028D01*
X130035138Y-79959203D01*
X130035138Y-80149713D01*
X129969800Y-80144503D01*
X129909708Y-80129645D01*
X129854861Y-80105138D01*
X129805259Y-80070981D01*
X129779270Y-80047131D01*
X129740098Y-80000813D01*
X129707112Y-79943412D01*
X129686691Y-79881250D01*
X129679132Y-79822950D01*
X129678739Y-79805623D01*
X129683662Y-79740744D01*
X129698430Y-79680746D01*
X129723044Y-79625628D01*
X129757503Y-79575391D01*
X129781614Y-79548875D01*
X129828656Y-79508676D01*
X129879764Y-79478350D01*
X129934940Y-79457898D01*
X129994183Y-79447319D01*
X130029863Y-79445707D01*
X130089910Y-79450323D01*
X130152471Y-79466552D01*
X130209745Y-79494466D01*
X130244992Y-79519566D01*
X130710421Y-79893844D01*
X130710421Y-79445707D01*
X130898000Y-79445707D01*
X130898000Y-80149713D01*
G37*
G36*
X130622562Y-78639044D02*
G01*
X130686652Y-78652784D01*
X130743449Y-78675893D01*
X130792953Y-78708371D01*
X130823847Y-78737305D01*
X130863286Y-78788120D01*
X130891918Y-78844723D01*
X130909741Y-78907115D01*
X130916471Y-78966456D01*
X130916757Y-78975295D01*
X130911005Y-79034298D01*
X130894638Y-79095991D01*
X130867790Y-79152722D01*
X130844071Y-79187787D01*
X130803624Y-79231237D01*
X130754092Y-79266335D01*
X130695473Y-79293080D01*
X130636729Y-79309629D01*
X130627769Y-79311471D01*
X130627769Y-79121548D01*
X130681247Y-79090293D01*
X130717196Y-79040837D01*
X130729080Y-78982173D01*
X130729179Y-78975589D01*
X130720449Y-78916850D01*
X130690037Y-78866654D01*
X130637825Y-78834519D01*
X130574258Y-78821217D01*
X130553031Y-78819957D01*
X130452207Y-78819957D01*
X130469284Y-78881199D01*
X130480286Y-78941606D01*
X130485214Y-79001178D01*
X130485327Y-79033914D01*
X130479832Y-79097288D01*
X130460381Y-79155192D01*
X130426973Y-79207624D01*
X130402382Y-79234388D01*
X130355158Y-79270823D01*
X130296136Y-79296597D01*
X130234815Y-79310403D01*
X130175066Y-79315741D01*
X130142703Y-79316161D01*
X130031914Y-79316161D01*
X129971076Y-79312132D01*
X129906896Y-79298081D01*
X129850037Y-79273960D01*
X129800500Y-79239769D01*
X129769598Y-79209182D01*
X129729847Y-79158075D01*
X129701454Y-79102057D01*
X129684418Y-79041131D01*
X129678739Y-78975295D01*
X129866318Y-78975295D01*
X129876021Y-79034793D01*
X129906791Y-79085205D01*
X129958554Y-79116859D01*
X130021067Y-79129168D01*
X130041879Y-79130048D01*
X130140944Y-79130048D01*
X130199894Y-79124071D01*
X130259803Y-79099562D01*
X130301671Y-79049391D01*
X130316193Y-78984710D01*
X130316506Y-78975295D01*
X130307304Y-78916371D01*
X130276763Y-78866133D01*
X130224863Y-78834140D01*
X130161929Y-78821113D01*
X130140944Y-78819957D01*
X130042173Y-78819957D01*
X129983570Y-78827115D01*
X129923835Y-78852431D01*
X129881769Y-78902456D01*
X129866720Y-78966076D01*
X129866318Y-78975295D01*
X129678739Y-78975295D01*
X129683115Y-78916122D01*
X129698832Y-78853373D01*
X129725980Y-78795827D01*
X129764558Y-78743482D01*
X129770184Y-78737305D01*
X129814721Y-78698136D01*
X129866523Y-78668335D01*
X129925589Y-78647903D01*
X129991921Y-78636839D01*
X130033087Y-78634723D01*
X130561824Y-78634723D01*
X130622562Y-78639044D01*
G37*
G36*
X132736651Y-91637678D02*
G01*
X132868835Y-91486443D01*
X132920970Y-91523995D01*
X132976222Y-91555243D01*
X133029156Y-91578181D01*
X133089735Y-91596536D01*
X133152184Y-91607273D01*
X133210579Y-91610421D01*
X133273634Y-91606099D01*
X133332085Y-91591361D01*
X133379107Y-91566164D01*
X133420380Y-91522278D01*
X133438953Y-91463803D01*
X133439484Y-91450686D01*
X133430215Y-91390474D01*
X133397628Y-91339946D01*
X133341580Y-91307640D01*
X133291179Y-91296227D01*
X133232323Y-91288753D01*
X133214096Y-91286262D01*
X133154636Y-91277799D01*
X133132031Y-91274538D01*
X133065879Y-91261259D01*
X133006937Y-91240911D01*
X132948401Y-91209000D01*
X132899281Y-91167858D01*
X132888472Y-91156129D01*
X132851799Y-91105461D01*
X132825604Y-91049884D01*
X132809887Y-90989397D01*
X132804648Y-90924001D01*
X132809683Y-90857309D01*
X132824787Y-90795974D01*
X132849962Y-90739996D01*
X132885207Y-90689377D01*
X132909868Y-90662856D01*
X132960083Y-90622771D01*
X133018404Y-90592532D01*
X133074846Y-90574448D01*
X133137244Y-90563598D01*
X133205597Y-90559981D01*
X133268145Y-90562903D01*
X133328513Y-90571666D01*
X133386702Y-90586272D01*
X133418088Y-90596911D01*
X133473305Y-90619490D01*
X133527176Y-90646009D01*
X133579704Y-90676471D01*
X133608304Y-90695096D01*
X133496637Y-90862159D01*
X133441874Y-90830793D01*
X133386617Y-90805281D01*
X133349505Y-90791524D01*
X133288486Y-90775204D01*
X133226403Y-90767204D01*
X133197390Y-90766318D01*
X133135873Y-90773090D01*
X133079036Y-90795530D01*
X133061103Y-90807351D01*
X133021342Y-90854835D01*
X133006195Y-90915422D01*
X133005708Y-90930449D01*
X133020249Y-90988357D01*
X133042931Y-91021014D01*
X133092903Y-91056112D01*
X133152281Y-91074162D01*
X133168374Y-91076995D01*
X133225820Y-91085787D01*
X133284567Y-91093014D01*
X133303196Y-91095166D01*
X133364560Y-91106147D01*
X133428181Y-91126433D01*
X133483218Y-91154769D01*
X133529673Y-91191156D01*
X133557600Y-91222075D01*
X133593760Y-91276077D01*
X133619588Y-91332863D01*
X133635086Y-91392434D01*
X133640251Y-91454789D01*
X133636109Y-91516596D01*
X133620806Y-91581854D01*
X133594227Y-91639735D01*
X133556372Y-91690238D01*
X133522429Y-91721796D01*
X133467251Y-91758797D01*
X133413972Y-91783280D01*
X133355171Y-91801085D01*
X133290846Y-91812213D01*
X133220999Y-91816665D01*
X133208821Y-91816757D01*
X133141369Y-91813959D01*
X133076325Y-91805565D01*
X133013691Y-91791574D01*
X132953465Y-91771988D01*
X132895648Y-91746805D01*
X132840240Y-91716025D01*
X132787241Y-91679650D01*
X132736651Y-91637678D01*
G37*
G36*
X134003685Y-91798000D02*
G01*
X133698283Y-90578739D01*
X133910775Y-90578739D01*
X134095129Y-91437497D01*
X134091905Y-91437497D01*
X134321396Y-90578739D01*
X134466476Y-90578739D01*
X134695967Y-91437497D01*
X134692743Y-91437497D01*
X134877097Y-90578739D01*
X135089588Y-90578739D01*
X134784187Y-91798000D01*
X134617711Y-91798000D01*
X134391738Y-90928104D01*
X134395255Y-90928104D01*
X134170161Y-91798000D01*
X134003685Y-91798000D01*
G37*
G36*
X135164620Y-90935138D02*
G01*
X135164620Y-90578739D01*
X135866867Y-90578739D01*
X135866867Y-90758697D01*
X135457418Y-91798000D01*
X135244341Y-91798000D01*
X135651445Y-90766318D01*
X135355715Y-90766318D01*
X135355715Y-90935138D01*
X135164620Y-90935138D01*
G37*
G36*
X174277711Y-74641600D02*
G01*
X174487272Y-74641600D01*
X174469940Y-74705581D01*
X174446962Y-74763215D01*
X174418338Y-74814501D01*
X174377806Y-74866313D01*
X174329589Y-74909486D01*
X174275805Y-74943975D01*
X174218319Y-74969993D01*
X174157131Y-74987540D01*
X174092239Y-74996616D01*
X174053496Y-74998000D01*
X173992382Y-74994690D01*
X173927998Y-74982801D01*
X173869439Y-74962266D01*
X173816706Y-74933085D01*
X173810524Y-74928830D01*
X173759653Y-74888830D01*
X173717499Y-74846975D01*
X173680886Y-74798294D01*
X173669254Y-74778181D01*
X173643608Y-74722054D01*
X173627817Y-74664910D01*
X173627048Y-74660944D01*
X173620374Y-74598904D01*
X173617260Y-74531031D01*
X173615886Y-74467551D01*
X173615371Y-74406419D01*
X173615325Y-74379870D01*
X173615611Y-74315750D01*
X173616710Y-74248706D01*
X173619034Y-74184135D01*
X173623671Y-74122713D01*
X173627048Y-74099088D01*
X173642161Y-74041377D01*
X173667367Y-73984646D01*
X173669254Y-73981265D01*
X173701562Y-73932173D01*
X173744633Y-73884912D01*
X173792598Y-73843943D01*
X173810524Y-73830616D01*
X173862529Y-73799714D01*
X173920360Y-73777640D01*
X173984015Y-73764396D01*
X174044493Y-73760050D01*
X174053496Y-73759981D01*
X174116770Y-73763763D01*
X174175798Y-73775108D01*
X174239299Y-73797902D01*
X174297021Y-73830991D01*
X174341898Y-73867546D01*
X174387810Y-73917116D01*
X174425783Y-73971707D01*
X174455818Y-74031318D01*
X174477916Y-74095951D01*
X174486979Y-74135138D01*
X174276539Y-74135138D01*
X174251542Y-74080996D01*
X174215129Y-74034302D01*
X174194473Y-74015264D01*
X174143211Y-73983573D01*
X174083725Y-73968038D01*
X174053496Y-73966318D01*
X173992275Y-73973349D01*
X173946225Y-73991230D01*
X173897499Y-74025463D01*
X173875297Y-74048969D01*
X173843818Y-74101066D01*
X173828695Y-74145690D01*
X173820725Y-74209644D01*
X173817840Y-74269966D01*
X173816578Y-74335851D01*
X173816385Y-74378990D01*
X173816818Y-74442511D01*
X173818417Y-74505210D01*
X173822204Y-74567771D01*
X173828695Y-74613464D01*
X173849499Y-74669476D01*
X173875297Y-74708425D01*
X173917612Y-74749268D01*
X173946225Y-74767337D01*
X174002382Y-74787007D01*
X174053496Y-74791663D01*
X174114114Y-74784482D01*
X174175457Y-74758690D01*
X174222190Y-74720735D01*
X174262443Y-74668418D01*
X174277711Y-74641600D01*
G37*
G36*
X174759554Y-74454022D02*
G01*
X174759554Y-74285201D01*
X174828430Y-74285201D01*
X174889114Y-74277849D01*
X174944829Y-74251093D01*
X174957097Y-74240651D01*
X174992488Y-74190093D01*
X175004239Y-74131781D01*
X175004285Y-74127518D01*
X174993466Y-74068472D01*
X174961008Y-74018828D01*
X174955046Y-74012919D01*
X174904972Y-73979470D01*
X174846527Y-73966500D01*
X174838102Y-73966318D01*
X174779299Y-73978820D01*
X174741089Y-74001782D01*
X174702914Y-74048163D01*
X174682373Y-74106659D01*
X174680419Y-74116381D01*
X174489910Y-74116381D01*
X174498990Y-74056751D01*
X174519671Y-73993617D01*
X174551343Y-73935832D01*
X174588072Y-73889658D01*
X174600112Y-73877218D01*
X174645052Y-73838846D01*
X174700327Y-73806533D01*
X174759779Y-73786529D01*
X174823407Y-73778835D01*
X174831654Y-73778739D01*
X174891125Y-73782490D01*
X174954700Y-73796346D01*
X175012020Y-73820413D01*
X175063084Y-73854690D01*
X175095729Y-73885424D01*
X175134558Y-73933333D01*
X175167256Y-73991109D01*
X175187498Y-74052109D01*
X175195283Y-74116332D01*
X175195381Y-74124587D01*
X175189995Y-74184862D01*
X175173838Y-74244127D01*
X175167244Y-74260875D01*
X175135924Y-74314097D01*
X175090692Y-74357334D01*
X175075213Y-74367853D01*
X175123142Y-74406509D01*
X175160719Y-74455324D01*
X175174571Y-74481279D01*
X175196584Y-74540054D01*
X175207374Y-74599217D01*
X175208570Y-74626653D01*
X175204757Y-74687869D01*
X175190672Y-74753167D01*
X175166209Y-74811873D01*
X175131367Y-74863987D01*
X175100126Y-74897176D01*
X175050468Y-74936462D01*
X174996125Y-74966098D01*
X174937099Y-74986086D01*
X174873388Y-74996424D01*
X174834878Y-74998000D01*
X174773842Y-74993072D01*
X174715883Y-74978289D01*
X174661002Y-74953651D01*
X174609198Y-74919158D01*
X174563585Y-74874590D01*
X174527279Y-74819727D01*
X174503144Y-74763276D01*
X174486134Y-74698944D01*
X174482582Y-74679116D01*
X174672505Y-74679116D01*
X174698970Y-74731881D01*
X174735813Y-74776422D01*
X174789209Y-74803913D01*
X174844843Y-74810421D01*
X174905323Y-74800053D01*
X174958720Y-74768947D01*
X174965304Y-74763233D01*
X175000967Y-74714988D01*
X175016200Y-74657731D01*
X175017474Y-74632515D01*
X175008912Y-74570264D01*
X174980542Y-74516857D01*
X174965597Y-74501210D01*
X174916333Y-74468952D01*
X174859328Y-74454759D01*
X174841619Y-74454022D01*
X174759554Y-74454022D01*
G37*
G36*
X175287997Y-74829179D02*
G01*
X175287997Y-74648928D01*
X175693929Y-73778739D01*
X175906420Y-73778739D01*
X175499903Y-74641600D01*
X175789184Y-74641600D01*
X175789184Y-74295459D01*
X175980279Y-74295459D01*
X175980279Y-74641600D01*
X176076706Y-74641600D01*
X176076706Y-74829179D01*
X175980279Y-74829179D01*
X175980279Y-74998000D01*
X175789184Y-74998000D01*
X175789184Y-74829179D01*
X175287997Y-74829179D01*
G37*
G36*
X160598000Y-89522875D02*
G01*
X160091538Y-89770830D01*
X160091538Y-89988890D01*
X160598000Y-89988890D01*
X160598000Y-90189951D01*
X159378739Y-90189951D01*
X159378739Y-89988890D01*
X159566318Y-89988890D01*
X159903959Y-89988890D01*
X159903959Y-89723056D01*
X159897725Y-89661608D01*
X159874284Y-89604079D01*
X159851203Y-89576803D01*
X159801450Y-89543544D01*
X159744517Y-89528910D01*
X159726932Y-89528150D01*
X159665269Y-89537583D01*
X159614876Y-89568838D01*
X159600903Y-89585303D01*
X159574964Y-89641284D01*
X159566453Y-89702769D01*
X159566318Y-89712505D01*
X159566318Y-89988890D01*
X159378739Y-89988890D01*
X159378739Y-89710746D01*
X159382638Y-89644887D01*
X159394335Y-89585284D01*
X159417251Y-89524824D01*
X159450352Y-89472535D01*
X159460219Y-89460739D01*
X159503832Y-89418576D01*
X159552166Y-89384750D01*
X159572766Y-89373105D01*
X159630291Y-89349764D01*
X159692846Y-89338322D01*
X159723415Y-89337055D01*
X159788358Y-89342132D01*
X159848990Y-89357364D01*
X159905309Y-89382750D01*
X159934734Y-89401242D01*
X159981792Y-89440126D01*
X160019762Y-89484900D01*
X160051292Y-89541555D01*
X160060763Y-89566252D01*
X160598000Y-89285471D01*
X160598000Y-89522875D01*
G37*
G36*
X160054022Y-88994724D02*
G01*
X159885201Y-88994724D01*
X159885201Y-88925847D01*
X159877849Y-88865163D01*
X159851093Y-88809449D01*
X159840651Y-88797180D01*
X159790093Y-88761789D01*
X159731781Y-88750039D01*
X159727518Y-88749993D01*
X159668472Y-88760812D01*
X159618828Y-88793269D01*
X159612919Y-88799232D01*
X159579470Y-88849305D01*
X159566500Y-88907750D01*
X159566318Y-88916175D01*
X159578820Y-88974979D01*
X159601782Y-89013189D01*
X159648163Y-89051364D01*
X159706659Y-89071904D01*
X159716381Y-89073859D01*
X159716381Y-89264368D01*
X159656751Y-89255288D01*
X159593617Y-89234607D01*
X159535832Y-89202934D01*
X159489658Y-89166205D01*
X159477218Y-89154166D01*
X159438846Y-89109226D01*
X159406533Y-89053951D01*
X159386529Y-88994499D01*
X159378835Y-88930871D01*
X159378739Y-88922623D01*
X159382490Y-88863152D01*
X159396346Y-88799577D01*
X159420413Y-88742258D01*
X159454690Y-88691193D01*
X159485424Y-88658548D01*
X159533333Y-88619719D01*
X159591109Y-88587021D01*
X159652109Y-88566779D01*
X159716332Y-88558994D01*
X159724587Y-88558897D01*
X159784862Y-88564282D01*
X159844127Y-88580439D01*
X159860875Y-88587034D01*
X159914097Y-88618353D01*
X159957334Y-88663585D01*
X159967853Y-88679064D01*
X160006509Y-88631136D01*
X160055324Y-88593558D01*
X160081279Y-88579706D01*
X160140054Y-88557694D01*
X160199217Y-88546903D01*
X160226653Y-88545708D01*
X160287869Y-88549520D01*
X160353167Y-88563605D01*
X160411873Y-88588069D01*
X160463987Y-88622910D01*
X160497176Y-88654152D01*
X160536462Y-88703810D01*
X160566098Y-88758152D01*
X160586086Y-88817179D01*
X160596424Y-88880890D01*
X160598000Y-88919399D01*
X160593072Y-88980436D01*
X160578289Y-89038394D01*
X160553651Y-89093276D01*
X160519158Y-89145080D01*
X160474590Y-89190692D01*
X160419727Y-89226999D01*
X160363276Y-89251134D01*
X160298944Y-89268144D01*
X160279116Y-89271695D01*
X160279116Y-89081772D01*
X160331881Y-89055308D01*
X160376422Y-89018464D01*
X160403913Y-88965069D01*
X160410421Y-88909434D01*
X160400053Y-88848954D01*
X160368947Y-88795558D01*
X160363233Y-88788974D01*
X160314988Y-88753310D01*
X160257731Y-88738077D01*
X160232515Y-88736803D01*
X160170264Y-88745365D01*
X160116857Y-88773735D01*
X160101210Y-88788681D01*
X160068952Y-88837944D01*
X160054759Y-88894949D01*
X160054022Y-88912658D01*
X160054022Y-88994724D01*
G37*
G36*
X159735138Y-88400334D02*
G01*
X159378739Y-88400334D01*
X159378739Y-87698087D01*
X159558697Y-87698087D01*
X160598000Y-88107536D01*
X160598000Y-88320614D01*
X159566318Y-87913510D01*
X159566318Y-88209239D01*
X159735138Y-88209239D01*
X159735138Y-88400334D01*
G37*
G36*
X171798000Y-83522875D02*
G01*
X171291538Y-83770830D01*
X171291538Y-83988890D01*
X171798000Y-83988890D01*
X171798000Y-84189951D01*
X170578739Y-84189951D01*
X170578739Y-83988890D01*
X170766318Y-83988890D01*
X171103959Y-83988890D01*
X171103959Y-83723056D01*
X171097725Y-83661608D01*
X171074284Y-83604079D01*
X171051203Y-83576803D01*
X171001450Y-83543544D01*
X170944517Y-83528910D01*
X170926932Y-83528150D01*
X170865269Y-83537583D01*
X170814876Y-83568838D01*
X170800903Y-83585303D01*
X170774964Y-83641284D01*
X170766453Y-83702769D01*
X170766318Y-83712505D01*
X170766318Y-83988890D01*
X170578739Y-83988890D01*
X170578739Y-83710746D01*
X170582638Y-83644887D01*
X170594335Y-83585284D01*
X170617251Y-83524824D01*
X170650352Y-83472535D01*
X170660219Y-83460739D01*
X170703832Y-83418576D01*
X170752166Y-83384750D01*
X170772766Y-83373105D01*
X170830291Y-83349764D01*
X170892846Y-83338322D01*
X170923415Y-83337055D01*
X170988358Y-83342132D01*
X171048990Y-83357364D01*
X171105309Y-83382750D01*
X171134734Y-83401242D01*
X171181792Y-83440126D01*
X171219762Y-83484900D01*
X171251292Y-83541555D01*
X171260763Y-83566252D01*
X171798000Y-83285471D01*
X171798000Y-83522875D01*
G37*
G36*
X171254022Y-82994724D02*
G01*
X171085201Y-82994724D01*
X171085201Y-82925847D01*
X171077849Y-82865163D01*
X171051093Y-82809449D01*
X171040651Y-82797180D01*
X170990093Y-82761789D01*
X170931781Y-82750039D01*
X170927518Y-82749993D01*
X170868472Y-82760812D01*
X170818828Y-82793269D01*
X170812919Y-82799232D01*
X170779470Y-82849305D01*
X170766500Y-82907750D01*
X170766318Y-82916175D01*
X170778820Y-82974979D01*
X170801782Y-83013189D01*
X170848163Y-83051364D01*
X170906659Y-83071904D01*
X170916381Y-83073859D01*
X170916381Y-83264368D01*
X170856751Y-83255288D01*
X170793617Y-83234607D01*
X170735832Y-83202934D01*
X170689658Y-83166205D01*
X170677218Y-83154166D01*
X170638846Y-83109226D01*
X170606533Y-83053951D01*
X170586529Y-82994499D01*
X170578835Y-82930871D01*
X170578739Y-82922623D01*
X170582490Y-82863152D01*
X170596346Y-82799577D01*
X170620413Y-82742258D01*
X170654690Y-82691193D01*
X170685424Y-82658548D01*
X170733333Y-82619719D01*
X170791109Y-82587021D01*
X170852109Y-82566779D01*
X170916332Y-82558994D01*
X170924587Y-82558897D01*
X170984862Y-82564282D01*
X171044127Y-82580439D01*
X171060875Y-82587034D01*
X171114097Y-82618353D01*
X171157334Y-82663585D01*
X171167853Y-82679064D01*
X171206509Y-82631136D01*
X171255324Y-82593558D01*
X171281279Y-82579706D01*
X171340054Y-82557694D01*
X171399217Y-82546903D01*
X171426653Y-82545708D01*
X171487869Y-82549520D01*
X171553167Y-82563605D01*
X171611873Y-82588069D01*
X171663987Y-82622910D01*
X171697176Y-82654152D01*
X171736462Y-82703810D01*
X171766098Y-82758152D01*
X171786086Y-82817179D01*
X171796424Y-82880890D01*
X171798000Y-82919399D01*
X171793072Y-82980436D01*
X171778289Y-83038394D01*
X171753651Y-83093276D01*
X171719158Y-83145080D01*
X171674590Y-83190692D01*
X171619727Y-83226999D01*
X171563276Y-83251134D01*
X171498944Y-83268144D01*
X171479116Y-83271695D01*
X171479116Y-83081772D01*
X171531881Y-83055308D01*
X171576422Y-83018464D01*
X171603913Y-82965069D01*
X171610421Y-82909434D01*
X171600053Y-82848954D01*
X171568947Y-82795558D01*
X171563233Y-82788974D01*
X171514988Y-82753310D01*
X171457731Y-82738077D01*
X171432515Y-82736803D01*
X171370264Y-82745365D01*
X171316857Y-82773735D01*
X171301210Y-82788681D01*
X171268952Y-82837944D01*
X171254759Y-82894949D01*
X171254022Y-82912658D01*
X171254022Y-82994724D01*
G37*
G36*
X171629179Y-82466280D02*
G01*
X171448928Y-82466280D01*
X170578739Y-82060348D01*
X170578739Y-81847857D01*
X171441600Y-82254375D01*
X171441600Y-81965094D01*
X171095459Y-81965094D01*
X171095459Y-81773998D01*
X171441600Y-81773998D01*
X171441600Y-81677571D01*
X171629179Y-81677571D01*
X171629179Y-81773998D01*
X171798000Y-81773998D01*
X171798000Y-81965094D01*
X171629179Y-81965094D01*
X171629179Y-82466280D01*
G37*
G36*
X132141600Y-80302707D02*
G01*
X132141600Y-80093146D01*
X132205581Y-80110478D01*
X132263215Y-80133456D01*
X132314501Y-80162080D01*
X132366313Y-80202612D01*
X132409486Y-80250829D01*
X132443975Y-80304613D01*
X132469993Y-80362099D01*
X132487540Y-80423287D01*
X132496616Y-80488179D01*
X132498000Y-80526922D01*
X132494690Y-80588036D01*
X132482801Y-80652420D01*
X132462266Y-80710979D01*
X132433085Y-80763712D01*
X132428830Y-80769894D01*
X132388830Y-80820765D01*
X132346975Y-80862919D01*
X132298294Y-80899532D01*
X132278181Y-80911164D01*
X132222054Y-80936810D01*
X132164910Y-80952601D01*
X132160944Y-80953370D01*
X132098904Y-80960044D01*
X132031031Y-80963158D01*
X131967551Y-80964532D01*
X131906419Y-80965047D01*
X131879870Y-80965093D01*
X131815750Y-80964807D01*
X131748706Y-80963708D01*
X131684135Y-80961384D01*
X131622713Y-80956747D01*
X131599088Y-80953370D01*
X131541377Y-80938257D01*
X131484646Y-80913051D01*
X131481265Y-80911164D01*
X131432173Y-80878856D01*
X131384912Y-80835785D01*
X131343943Y-80787820D01*
X131330616Y-80769894D01*
X131299714Y-80717889D01*
X131277640Y-80660058D01*
X131264396Y-80596403D01*
X131260050Y-80535925D01*
X131259981Y-80526922D01*
X131263763Y-80463648D01*
X131275108Y-80404620D01*
X131297902Y-80341119D01*
X131330991Y-80283397D01*
X131367546Y-80238520D01*
X131417116Y-80192608D01*
X131471707Y-80154635D01*
X131531318Y-80124600D01*
X131595951Y-80102502D01*
X131635138Y-80093439D01*
X131635138Y-80303879D01*
X131580996Y-80328876D01*
X131534302Y-80365289D01*
X131515264Y-80385945D01*
X131483573Y-80437207D01*
X131468038Y-80496693D01*
X131466318Y-80526922D01*
X131473349Y-80588143D01*
X131491230Y-80634193D01*
X131525463Y-80682919D01*
X131548969Y-80705121D01*
X131601066Y-80736600D01*
X131645690Y-80751723D01*
X131709644Y-80759693D01*
X131769966Y-80762578D01*
X131835851Y-80763840D01*
X131878990Y-80764033D01*
X131942511Y-80763600D01*
X132005210Y-80762001D01*
X132067771Y-80758214D01*
X132113464Y-80751723D01*
X132169476Y-80730919D01*
X132208425Y-80705121D01*
X132249268Y-80662806D01*
X132267337Y-80634193D01*
X132287007Y-80578036D01*
X132291663Y-80526922D01*
X132284482Y-80466304D01*
X132258690Y-80404961D01*
X132220735Y-80358228D01*
X132168418Y-80317975D01*
X132141600Y-80302707D01*
G37*
G36*
X131954022Y-79820864D02*
G01*
X131785201Y-79820864D01*
X131785201Y-79751988D01*
X131777849Y-79691304D01*
X131751093Y-79635589D01*
X131740651Y-79623321D01*
X131690093Y-79587930D01*
X131631781Y-79576179D01*
X131627518Y-79576133D01*
X131568472Y-79586952D01*
X131518828Y-79619410D01*
X131512919Y-79625372D01*
X131479470Y-79675446D01*
X131466500Y-79733891D01*
X131466318Y-79742316D01*
X131478820Y-79801119D01*
X131501782Y-79839329D01*
X131548163Y-79877504D01*
X131606659Y-79898045D01*
X131616381Y-79899999D01*
X131616381Y-80090508D01*
X131556751Y-80081428D01*
X131493617Y-80060747D01*
X131435832Y-80029075D01*
X131389658Y-79992346D01*
X131377218Y-79980306D01*
X131338846Y-79935366D01*
X131306533Y-79880091D01*
X131286529Y-79820639D01*
X131278835Y-79757011D01*
X131278739Y-79748764D01*
X131282490Y-79689293D01*
X131296346Y-79625718D01*
X131320413Y-79568398D01*
X131354690Y-79517334D01*
X131385424Y-79484689D01*
X131433333Y-79445860D01*
X131491109Y-79413162D01*
X131552109Y-79392920D01*
X131616332Y-79385135D01*
X131624587Y-79385037D01*
X131684862Y-79390423D01*
X131744127Y-79406580D01*
X131760875Y-79413174D01*
X131814097Y-79444494D01*
X131857334Y-79489726D01*
X131867853Y-79505205D01*
X131906509Y-79457276D01*
X131955324Y-79419699D01*
X131981279Y-79405847D01*
X132040054Y-79383834D01*
X132099217Y-79373044D01*
X132126653Y-79371848D01*
X132187869Y-79375661D01*
X132253167Y-79389746D01*
X132311873Y-79414209D01*
X132363987Y-79449051D01*
X132397176Y-79480292D01*
X132436462Y-79529950D01*
X132466098Y-79584293D01*
X132486086Y-79643319D01*
X132496424Y-79707030D01*
X132498000Y-79745540D01*
X132493072Y-79806576D01*
X132478289Y-79864535D01*
X132453651Y-79919416D01*
X132419158Y-79971220D01*
X132374590Y-80016833D01*
X132319727Y-80053139D01*
X132263276Y-80077274D01*
X132198944Y-80094284D01*
X132179116Y-80097836D01*
X132179116Y-79907913D01*
X132231881Y-79881448D01*
X132276422Y-79844605D01*
X132303913Y-79791209D01*
X132310421Y-79735575D01*
X132300053Y-79675095D01*
X132268947Y-79621698D01*
X132263233Y-79615114D01*
X132214988Y-79579451D01*
X132157731Y-79564218D01*
X132132515Y-79562944D01*
X132070264Y-79571506D01*
X132016857Y-79599876D01*
X132001210Y-79614821D01*
X131968952Y-79664085D01*
X131954759Y-79721090D01*
X131954022Y-79738799D01*
X131954022Y-79820864D01*
G37*
G36*
X132498000Y-79030104D02*
G01*
X131488300Y-79030104D01*
X131613157Y-79201562D01*
X131407406Y-79201562D01*
X131278739Y-79023656D01*
X131278739Y-78838422D01*
X132498000Y-78838422D01*
X132498000Y-79030104D01*
G37*
G36*
X174151595Y-75182638D02*
G01*
X174211198Y-75194335D01*
X174271658Y-75217251D01*
X174323947Y-75250352D01*
X174335743Y-75260219D01*
X174377906Y-75303832D01*
X174411732Y-75352166D01*
X174423377Y-75372766D01*
X174446718Y-75430291D01*
X174458160Y-75492846D01*
X174459427Y-75523415D01*
X174454350Y-75588358D01*
X174439118Y-75648990D01*
X174413732Y-75705309D01*
X174395240Y-75734734D01*
X174356356Y-75781792D01*
X174311582Y-75819762D01*
X174254927Y-75851292D01*
X174230230Y-75860763D01*
X174511011Y-76398000D01*
X174273607Y-76398000D01*
X174025652Y-75891538D01*
X173807592Y-75891538D01*
X173807592Y-76398000D01*
X173606531Y-76398000D01*
X173606531Y-75366318D01*
X173807592Y-75366318D01*
X173807592Y-75703959D01*
X174073426Y-75703959D01*
X174134874Y-75697725D01*
X174192403Y-75674284D01*
X174219679Y-75651203D01*
X174252938Y-75601450D01*
X174267572Y-75544517D01*
X174268332Y-75526932D01*
X174258899Y-75465269D01*
X174227644Y-75414876D01*
X174211179Y-75400903D01*
X174155198Y-75374964D01*
X174093713Y-75366453D01*
X174083977Y-75366318D01*
X173807592Y-75366318D01*
X173606531Y-75366318D01*
X173606531Y-75178739D01*
X174085736Y-75178739D01*
X174151595Y-75182638D01*
G37*
G36*
X174801758Y-75854022D02*
G01*
X174801758Y-75685201D01*
X174870635Y-75685201D01*
X174931319Y-75677849D01*
X174987033Y-75651093D01*
X174999302Y-75640651D01*
X175034693Y-75590093D01*
X175046443Y-75531781D01*
X175046489Y-75527518D01*
X175035670Y-75468472D01*
X175003213Y-75418828D01*
X174997250Y-75412919D01*
X174947177Y-75379470D01*
X174888732Y-75366500D01*
X174880307Y-75366318D01*
X174821503Y-75378820D01*
X174783293Y-75401782D01*
X174745118Y-75448163D01*
X174724578Y-75506659D01*
X174722623Y-75516381D01*
X174532114Y-75516381D01*
X174541194Y-75456751D01*
X174561875Y-75393617D01*
X174593548Y-75335832D01*
X174630277Y-75289658D01*
X174642316Y-75277218D01*
X174687256Y-75238846D01*
X174742531Y-75206533D01*
X174801983Y-75186529D01*
X174865611Y-75178835D01*
X174873859Y-75178739D01*
X174933330Y-75182490D01*
X174996905Y-75196346D01*
X175054224Y-75220413D01*
X175105289Y-75254690D01*
X175137934Y-75285424D01*
X175176763Y-75333333D01*
X175209461Y-75391109D01*
X175229703Y-75452109D01*
X175237488Y-75516332D01*
X175237585Y-75524587D01*
X175232200Y-75584862D01*
X175216043Y-75644127D01*
X175209448Y-75660875D01*
X175178129Y-75714097D01*
X175132897Y-75757334D01*
X175117418Y-75767853D01*
X175165346Y-75806509D01*
X175202924Y-75855324D01*
X175216776Y-75881279D01*
X175238788Y-75940054D01*
X175249579Y-75999217D01*
X175250774Y-76026653D01*
X175246962Y-76087869D01*
X175232877Y-76153167D01*
X175208413Y-76211873D01*
X175173572Y-76263987D01*
X175142330Y-76297176D01*
X175092672Y-76336462D01*
X175038330Y-76366098D01*
X174979303Y-76386086D01*
X174915592Y-76396424D01*
X174877083Y-76398000D01*
X174816046Y-76393072D01*
X174758088Y-76378289D01*
X174703206Y-76353651D01*
X174651402Y-76319158D01*
X174605790Y-76274590D01*
X174569483Y-76219727D01*
X174545348Y-76163276D01*
X174528338Y-76098944D01*
X174524787Y-76079116D01*
X174714710Y-76079116D01*
X174741174Y-76131881D01*
X174778018Y-76176422D01*
X174831413Y-76203913D01*
X174887048Y-76210421D01*
X174947528Y-76200053D01*
X175000924Y-76168947D01*
X175007508Y-76163233D01*
X175043172Y-76114988D01*
X175058405Y-76057731D01*
X175059679Y-76032515D01*
X175051117Y-75970264D01*
X175022747Y-75916857D01*
X175007801Y-75901210D01*
X174958538Y-75868952D01*
X174901533Y-75854759D01*
X174883824Y-75854022D01*
X174801758Y-75854022D01*
G37*
G36*
X175791858Y-75183337D02*
G01*
X175854408Y-75199501D01*
X175912971Y-75227304D01*
X175949797Y-75252305D01*
X175991380Y-75294382D01*
X176025268Y-75346168D01*
X176051463Y-75407662D01*
X176068073Y-75469434D01*
X176069965Y-75478865D01*
X175878869Y-75478865D01*
X175850783Y-75425408D01*
X175802413Y-75383244D01*
X175745037Y-75367032D01*
X175732030Y-75366318D01*
X175672675Y-75376077D01*
X175622460Y-75407049D01*
X175591040Y-75459159D01*
X175578964Y-75522097D01*
X175578157Y-75543052D01*
X175578157Y-75643289D01*
X175638619Y-75626924D01*
X175698663Y-75616076D01*
X175758289Y-75610747D01*
X175791235Y-75610170D01*
X175855506Y-75616615D01*
X175914120Y-75635950D01*
X175967078Y-75668176D01*
X175994054Y-75691649D01*
X176029463Y-75739515D01*
X176054504Y-75798994D01*
X176067910Y-75860565D01*
X176073083Y-75920418D01*
X176073482Y-75952794D01*
X176073482Y-76061824D01*
X176069161Y-76123108D01*
X176055421Y-76187549D01*
X176032312Y-76244388D01*
X175999834Y-76293625D01*
X175970900Y-76324140D01*
X175920085Y-76363451D01*
X175863482Y-76391991D01*
X175801090Y-76409760D01*
X175741749Y-76416472D01*
X175732910Y-76416757D01*
X175674434Y-76411266D01*
X175612619Y-76394994D01*
X175556153Y-76368062D01*
X175505036Y-76330469D01*
X175499023Y-76325020D01*
X175457639Y-76280897D01*
X175426326Y-76229314D01*
X175405082Y-76170269D01*
X175393908Y-76103763D01*
X175392044Y-76062410D01*
X175392044Y-76053324D01*
X175578157Y-76053324D01*
X175584312Y-76112819D01*
X175608932Y-76173105D01*
X175659051Y-76214913D01*
X175723531Y-76228954D01*
X175732910Y-76229179D01*
X175791534Y-76220449D01*
X175846629Y-76184702D01*
X175876451Y-76129766D01*
X175887759Y-76063815D01*
X175888248Y-76053031D01*
X175888248Y-75954259D01*
X175881090Y-75895588D01*
X175855774Y-75835889D01*
X175805749Y-75794039D01*
X175742129Y-75779339D01*
X175732910Y-75778990D01*
X175673412Y-75788365D01*
X175623000Y-75818897D01*
X175591346Y-75870568D01*
X175579037Y-75933121D01*
X175578157Y-75953966D01*
X175578157Y-76053324D01*
X175392044Y-76053324D01*
X175392044Y-75533087D01*
X175396073Y-75471950D01*
X175410124Y-75407499D01*
X175434245Y-75350454D01*
X175468436Y-75300814D01*
X175499023Y-75269891D01*
X175550130Y-75230012D01*
X175606148Y-75201527D01*
X175667074Y-75184436D01*
X175732910Y-75178739D01*
X175791858Y-75183337D01*
G37*
D13*
%TO.C,R40*%
X154877500Y-89237258D02*
X154877500Y-88762742D01*
X155922500Y-89237258D02*
X155922500Y-88762742D01*
D14*
%TO.C,SW8*%
X174600000Y-91300000D02*
X167800000Y-91300000D01*
X174600000Y-89300000D02*
X174600000Y-87300000D01*
X174600000Y-85300000D02*
X167800000Y-85300000D01*
X167800000Y-87300000D02*
X167800000Y-89300000D01*
%TO.C,MOD2*%
X127550000Y-93750000D02*
X170850000Y-93750000D01*
X170850000Y-134050000D01*
X127550000Y-134050000D01*
X127550000Y-93750000D01*
D13*
%TO.C,R33*%
X129877500Y-83237258D02*
X129877500Y-82762742D01*
X130922500Y-83237258D02*
X130922500Y-82762742D01*
%TO.C,R35*%
X130922500Y-68562742D02*
X130922500Y-69037258D01*
X129877500Y-68562742D02*
X129877500Y-69037258D01*
%TO.C,C32*%
X166910000Y-82859420D02*
X166910000Y-83140580D01*
X165890000Y-82859420D02*
X165890000Y-83140580D01*
D10*
%TO.C,SW11*%
X145900000Y-89025000D02*
X145900000Y-89025000D01*
X145900000Y-89025000D02*
X145900000Y-89025000D01*
X146000000Y-89025000D02*
X146000000Y-89025000D01*
X147100000Y-89700000D02*
X147100000Y-89700000D01*
X147100000Y-89700000D02*
X147100000Y-90500000D01*
X147100000Y-90500000D02*
X147100000Y-89700000D01*
X147100000Y-90500000D02*
X147100000Y-90500000D01*
X147800000Y-88500000D02*
X147800000Y-88500000D01*
X147800000Y-88500000D02*
X150600000Y-88500000D01*
X148000000Y-91700000D02*
X148000000Y-91700000D01*
X148000000Y-91700000D02*
X150600000Y-91700000D01*
X150600000Y-88500000D02*
X147800000Y-88500000D01*
X150600000Y-88500000D02*
X150600000Y-88500000D01*
X150600000Y-91700000D02*
X148000000Y-91700000D01*
X150600000Y-91700000D02*
X150600000Y-91700000D01*
X151300000Y-89700000D02*
X151300000Y-89700000D01*
X151300000Y-89700000D02*
X151300000Y-90500000D01*
X151300000Y-90500000D02*
X151300000Y-89700000D01*
X151300000Y-90500000D02*
X151300000Y-90500000D01*
X145900000Y-89025000D02*
G75*
G02*
X146000000Y-89025000I50000J0D01*
G01*
X146000000Y-89025000D02*
G75*
G02*
X145900000Y-89025000I-50000J0D01*
G01*
X146000000Y-89025000D02*
G75*
G02*
X145900000Y-89025000I-50000J0D01*
G01*
D14*
%TO.C,SW9*%
X123800000Y-60500000D02*
X130600000Y-60500000D01*
X123800000Y-62500000D02*
X123800000Y-64500000D01*
X123800000Y-66500000D02*
X130600000Y-66500000D01*
X130600000Y-64500000D02*
X130600000Y-62500000D01*
D13*
%TO.C,R30*%
X170122500Y-82762742D02*
X170122500Y-83237258D01*
X169077500Y-82762742D02*
X169077500Y-83237258D01*
%TO.C,C33*%
X131490000Y-68940580D02*
X131490000Y-68659420D01*
X132510000Y-68940580D02*
X132510000Y-68659420D01*
D14*
%TO.C,SW10*%
X167800000Y-60500000D02*
X174600000Y-60500000D01*
X167800000Y-62500000D02*
X167800000Y-64500000D01*
X167800000Y-66500000D02*
X174600000Y-66500000D01*
X174600000Y-64500000D02*
X174600000Y-62500000D01*
%TO.C,LCD1*%
X134050000Y-86800000D02*
X164350000Y-86800000D01*
X164350000Y-60200000D01*
X134050000Y-60200000D01*
X134050000Y-86800000D01*
X164350000Y-78240000D02*
X166350000Y-78240000D01*
X166350000Y-68760000D01*
X164350000Y-68760000D01*
X164350000Y-78240000D01*
D13*
%TO.C,R31*%
X128277500Y-69037258D02*
X128277500Y-68562742D01*
X129322500Y-69037258D02*
X129322500Y-68562742D01*
%TO.C,C35*%
X157510000Y-88859420D02*
X157510000Y-89140580D01*
X156490000Y-88859420D02*
X156490000Y-89140580D01*
%TO.C,R32*%
X173462742Y-67677500D02*
X173937258Y-67677500D01*
X173462742Y-68722500D02*
X173937258Y-68722500D01*
%TO.C,R29*%
X129322500Y-82762742D02*
X129322500Y-83237258D01*
X128277500Y-82762742D02*
X128277500Y-83237258D01*
D14*
%TO.C,SW7*%
X130600000Y-91300000D02*
X123800000Y-91300000D01*
X130600000Y-89300000D02*
X130600000Y-87300000D01*
X130600000Y-85300000D02*
X123800000Y-85300000D01*
X123800000Y-87300000D02*
X123800000Y-89300000D01*
D13*
%TO.C,C34*%
X173559420Y-70890000D02*
X173840580Y-70890000D01*
X173559420Y-71910000D02*
X173840580Y-71910000D01*
%TO.C,R37*%
X154322500Y-88762742D02*
X154322500Y-89237258D01*
X153277500Y-88762742D02*
X153277500Y-89237258D01*
%TO.C,R34*%
X167477500Y-83237258D02*
X167477500Y-82762742D01*
X168522500Y-83237258D02*
X168522500Y-82762742D01*
%TO.C,C31*%
X132510000Y-82859420D02*
X132510000Y-83140580D01*
X131490000Y-82859420D02*
X131490000Y-83140580D01*
%TO.C,R36*%
X173937258Y-70322500D02*
X173462742Y-70322500D01*
X173937258Y-69277500D02*
X173462742Y-69277500D01*
%TD*%
%LPC*%
D15*
%TO.C,H2*%
X124200000Y-107700000D03*
%TD*%
%TO.C,H1*%
X174200000Y-107700000D03*
%TD*%
D16*
%TO.C,R40*%
X155400000Y-89825000D03*
X155400000Y-88175000D03*
%TD*%
D17*
%TO.C,SW8*%
X174600000Y-90300000D03*
X167800000Y-90300000D03*
X174600000Y-86300000D03*
X167800000Y-86300000D03*
%TD*%
D16*
%TO.C,R33*%
X130400000Y-83825000D03*
X130400000Y-82175000D03*
%TD*%
D18*
%TO.C,R35*%
X130400000Y-67975000D03*
X130400000Y-69625000D03*
%TD*%
D19*
%TO.C,C32*%
X166400000Y-82225000D03*
X166400000Y-83775000D03*
%TD*%
D20*
%TO.C,SW11*%
X146950000Y-89025000D03*
X151450000Y-89025000D03*
X146950000Y-91175000D03*
X151450000Y-91175000D03*
%TD*%
D17*
%TO.C,SW9*%
X123800000Y-61500000D03*
X130600000Y-61500000D03*
X123800000Y-65500000D03*
X130600000Y-65500000D03*
%TD*%
D18*
%TO.C,R30*%
X169600000Y-82175000D03*
X169600000Y-83825000D03*
%TD*%
D21*
%TO.C,C33*%
X132000000Y-69575000D03*
X132000000Y-68025000D03*
%TD*%
D17*
%TO.C,SW10*%
X167800000Y-61500000D03*
X174600000Y-61500000D03*
X167800000Y-65500000D03*
X174600000Y-65500000D03*
%TD*%
D16*
%TO.C,R31*%
X128800000Y-69625000D03*
X128800000Y-67975000D03*
%TD*%
D19*
%TO.C,C35*%
X157000000Y-88225000D03*
X157000000Y-89775000D03*
%TD*%
D22*
%TO.C,R32*%
X172875000Y-68200000D03*
X174525000Y-68200000D03*
%TD*%
D18*
%TO.C,R29*%
X128800000Y-82175000D03*
X128800000Y-83825000D03*
%TD*%
D17*
%TO.C,SW7*%
X130600000Y-90300000D03*
X123800000Y-90300000D03*
X130600000Y-86300000D03*
X123800000Y-86300000D03*
%TD*%
D23*
%TO.C,C34*%
X172925000Y-71400000D03*
X174475000Y-71400000D03*
%TD*%
D18*
%TO.C,R37*%
X153800000Y-88175000D03*
X153800000Y-89825000D03*
%TD*%
D16*
%TO.C,R34*%
X168000000Y-83825000D03*
X168000000Y-82175000D03*
%TD*%
D19*
%TO.C,C31*%
X132000000Y-82225000D03*
X132000000Y-83775000D03*
%TD*%
D24*
%TO.C,R36*%
X174525000Y-69800000D03*
X172875000Y-69800000D03*
%TD*%
D25*
%TO.C,SW5*%
X155800000Y-107700000D03*
X159800000Y-107700000D03*
%TD*%
%TO.C,SW2*%
X142600000Y-108700000D03*
X138600000Y-108700000D03*
%TD*%
%TO.C,SW6*%
X155800000Y-92700000D03*
X159800000Y-92700000D03*
%TD*%
%TO.C,SW4*%
X155800000Y-122700000D03*
X159800000Y-122700000D03*
%TD*%
D26*
%TO.C,J2*%
X145600000Y-68335000D03*
X152800000Y-68335000D03*
D27*
X152000000Y-67685000D03*
X151600000Y-66985000D03*
X150800000Y-66985000D03*
X150400000Y-67685000D03*
X150000000Y-66985000D03*
X149600000Y-67685000D03*
X148800000Y-67685000D03*
X148400000Y-66985000D03*
X148000000Y-67685000D03*
X147600000Y-66985000D03*
X146800000Y-66985000D03*
X146400000Y-67685000D03*
D28*
X145070000Y-67085000D03*
X144710000Y-62695000D03*
X153690000Y-62695000D03*
X153330000Y-67085000D03*
%TD*%
D25*
%TO.C,SW3*%
X142600000Y-123700000D03*
X138600000Y-123700000D03*
%TD*%
%TO.C,SW1*%
X142600000Y-93700000D03*
X138600000Y-93700000D03*
%TD*%
%LPD*%
M02*
