%TF.GenerationSoftware,KiCad,Pcbnew,8.0.1*%
%TF.CreationDate,2024-04-03T20:32:23+03:00*%
%TF.ProjectId,gkos_pebble,676b6f73-5f70-4656-9262-6c652e6b6963,1*%
%TF.SameCoordinates,Original*%
%TF.FileFunction,Soldermask,Bot*%
%TF.FilePolarity,Negative*%
%FSLAX46Y46*%
G04 Gerber Fmt 4.6, Leading zero omitted, Abs format (unit mm)*
G04 Created by KiCad (PCBNEW 8.0.1) date 2024-04-03 20:32:23*
%MOMM*%
%LPD*%
G01*
G04 APERTURE LIST*
G04 Aperture macros list*
%AMRoundRect*
0 Rectangle with rounded corners*
0 $1 Rounding radius*
0 $2 $3 $4 $5 $6 $7 $8 $9 X,Y pos of 4 corners*
0 Add a 4 corners polygon primitive as box body*
4,1,4,$2,$3,$4,$5,$6,$7,$8,$9,$2,$3,0*
0 Add four circle primitives for the rounded corners*
1,1,$1+$1,$2,$3*
1,1,$1+$1,$4,$5*
1,1,$1+$1,$6,$7*
1,1,$1+$1,$8,$9*
0 Add four rect primitives between the rounded corners*
20,1,$1+$1,$2,$3,$4,$5,0*
20,1,$1+$1,$4,$5,$6,$7,0*
20,1,$1+$1,$6,$7,$8,$9,0*
20,1,$1+$1,$8,$9,$2,$3,0*%
G04 Aperture macros list end*
%ADD10C,2.200000*%
%ADD11RoundRect,0.200000X0.275000X-0.200000X0.275000X0.200000X-0.275000X0.200000X-0.275000X-0.200000X0*%
%ADD12RoundRect,0.250000X-0.850000X0.375000X-0.850000X-0.375000X0.850000X-0.375000X0.850000X0.375000X0*%
%ADD13RoundRect,0.150000X-0.200000X0.150000X-0.200000X-0.150000X0.200000X-0.150000X0.200000X0.150000X0*%
%ADD14C,1.100000*%
%ADD15R,1.500000X2.200000*%
%ADD16RoundRect,0.135000X0.185000X-0.135000X0.185000X0.135000X-0.185000X0.135000X-0.185000X-0.135000X0*%
%ADD17RoundRect,0.150000X-0.150000X0.512500X-0.150000X-0.512500X0.150000X-0.512500X0.150000X0.512500X0*%
%ADD18RoundRect,0.140000X-0.170000X0.140000X-0.170000X-0.140000X0.170000X-0.140000X0.170000X0.140000X0*%
%ADD19RoundRect,0.140000X-0.140000X-0.170000X0.140000X-0.170000X0.140000X0.170000X-0.140000X0.170000X0*%
%ADD20R,2.000000X3.800000*%
%ADD21RoundRect,0.225000X0.250000X-0.225000X0.250000X0.225000X-0.250000X0.225000X-0.250000X-0.225000X0*%
%ADD22RoundRect,0.150000X0.200000X-0.150000X0.200000X0.150000X-0.200000X0.150000X-0.200000X-0.150000X0*%
%ADD23RoundRect,0.140000X0.170000X-0.140000X0.170000X0.140000X-0.170000X0.140000X-0.170000X-0.140000X0*%
%ADD24R,0.740000X2.400000*%
%ADD25RoundRect,0.200000X-0.275000X0.200000X-0.275000X-0.200000X0.275000X-0.200000X0.275000X0.200000X0*%
%ADD26RoundRect,0.050000X0.387500X0.050000X-0.387500X0.050000X-0.387500X-0.050000X0.387500X-0.050000X0*%
%ADD27RoundRect,0.050000X0.050000X0.387500X-0.050000X0.387500X-0.050000X-0.387500X0.050000X-0.387500X0*%
%ADD28R,3.200000X3.200000*%
%ADD29RoundRect,0.140000X0.140000X0.170000X-0.140000X0.170000X-0.140000X-0.170000X0.140000X-0.170000X0*%
%ADD30RoundRect,0.200000X-0.200000X-0.275000X0.200000X-0.275000X0.200000X0.275000X-0.200000X0.275000X0*%
%ADD31R,0.450000X0.400000*%
%ADD32R,0.450000X0.500000*%
%ADD33RoundRect,0.135000X-0.135000X-0.185000X0.135000X-0.185000X0.135000X0.185000X-0.135000X0.185000X0*%
%ADD34RoundRect,0.225000X-0.250000X0.225000X-0.250000X-0.225000X0.250000X-0.225000X0.250000X0.225000X0*%
%ADD35C,1.000000*%
%ADD36RoundRect,0.225000X-0.225000X-0.250000X0.225000X-0.250000X0.225000X0.250000X-0.225000X0.250000X0*%
%ADD37RoundRect,0.218750X0.256250X-0.218750X0.256250X0.218750X-0.256250X0.218750X-0.256250X-0.218750X0*%
%ADD38R,1.400000X1.200000*%
%ADD39RoundRect,0.150000X-0.150000X-0.625000X0.150000X-0.625000X0.150000X0.625000X-0.150000X0.625000X0*%
%ADD40RoundRect,0.250000X-0.350000X-0.650000X0.350000X-0.650000X0.350000X0.650000X-0.350000X0.650000X0*%
%ADD41RoundRect,0.150000X-0.512500X-0.150000X0.512500X-0.150000X0.512500X0.150000X-0.512500X0.150000X0*%
%ADD42R,0.800000X0.300000*%
%ADD43R,0.800000X0.400000*%
%ADD44R,2.340000X3.960000*%
%ADD45R,5.080000X3.960000*%
%ADD46R,1.800000X0.800000*%
%ADD47RoundRect,0.150000X-0.150000X-0.200000X0.150000X-0.200000X0.150000X0.200000X-0.150000X0.200000X0*%
%ADD48R,1.800000X1.000000*%
%ADD49RoundRect,0.150000X0.512500X0.150000X-0.512500X0.150000X-0.512500X-0.150000X0.512500X-0.150000X0*%
%ADD50R,1.000000X0.700000*%
%ADD51C,0.650000*%
%ADD52R,0.300000X0.900000*%
%ADD53C,0.660000*%
%ADD54C,1.815000*%
%ADD55RoundRect,0.250000X0.625000X-0.312500X0.625000X0.312500X-0.625000X0.312500X-0.625000X-0.312500X0*%
%ADD56RoundRect,0.225000X0.225000X0.250000X-0.225000X0.250000X-0.225000X-0.250000X0.225000X-0.250000X0*%
%ADD57R,1.200000X4.000000*%
%ADD58R,1.700000X1.000000*%
%ADD59R,1.700000X0.600000*%
%ADD60RoundRect,0.125000X0.125000X-0.250000X0.125000X0.250000X-0.125000X0.250000X-0.125000X-0.250000X0*%
%ADD61R,4.300000X3.400000*%
G04 APERTURE END LIST*
D10*
%TO.C,H2*%
X124200000Y-107700000D03*
%TD*%
%TO.C,H1*%
X174200000Y-107700000D03*
%TD*%
D11*
%TO.C,R1*%
X141900000Y-66625000D03*
X141900000Y-64975000D03*
%TD*%
D12*
%TO.C,L1*%
X164650000Y-62575000D03*
X164650000Y-64725000D03*
%TD*%
D13*
%TO.C,D5*%
X134300000Y-98100000D03*
X134300000Y-96700000D03*
%TD*%
D14*
%TO.C,SW5*%
X155800000Y-107700000D03*
X159800000Y-107700000D03*
D15*
X151900000Y-108200000D03*
X163700000Y-108200000D03*
%TD*%
D16*
%TO.C,R9*%
X151596449Y-87810000D03*
X151596449Y-86790000D03*
%TD*%
D11*
%TO.C,R8*%
X160650000Y-79475000D03*
X160650000Y-77825000D03*
%TD*%
D17*
%TO.C,IC1*%
X160500000Y-62512500D03*
X161450000Y-62512500D03*
X162400000Y-62512500D03*
X162400000Y-64787500D03*
X160500000Y-64787500D03*
%TD*%
D11*
%TO.C,R16*%
X144650000Y-75675000D03*
X144650000Y-74025000D03*
%TD*%
D18*
%TO.C,C6*%
X157796449Y-88120000D03*
X157796449Y-89080000D03*
%TD*%
D19*
%TO.C,C19*%
X151445000Y-75875000D03*
X152405000Y-75875000D03*
%TD*%
D20*
%TO.C,L2*%
X142200000Y-102400000D03*
X138800000Y-102400000D03*
%TD*%
D21*
%TO.C,C22*%
X139400000Y-72875000D03*
X139400000Y-71325000D03*
%TD*%
%TO.C,C36*%
X146800000Y-119575000D03*
X146800000Y-118025000D03*
%TD*%
D11*
%TO.C,R21*%
X163700000Y-113425000D03*
X163700000Y-111775000D03*
%TD*%
D22*
%TO.C,D3*%
X164200000Y-115000000D03*
X164200000Y-116400000D03*
%TD*%
D21*
%TO.C,C8*%
X166750000Y-68075000D03*
X166750000Y-66525000D03*
%TD*%
D23*
%TO.C,C11*%
X147196449Y-76530000D03*
X147196449Y-75570000D03*
%TD*%
D24*
%TO.C,J1*%
X136870000Y-81400000D03*
X136870000Y-77500000D03*
X135600000Y-81400000D03*
X135600000Y-77500000D03*
X134330000Y-81400000D03*
X134330000Y-77500000D03*
%TD*%
D25*
%TO.C,R19*%
X134700000Y-117975000D03*
X134700000Y-119625000D03*
%TD*%
D26*
%TO.C,IC4*%
X154633949Y-78950000D03*
X154633949Y-79350000D03*
X154633949Y-79750000D03*
X154633949Y-80150000D03*
X154633949Y-80550000D03*
X154633949Y-80950000D03*
X154633949Y-81350000D03*
X154633949Y-81750000D03*
X154633949Y-82150000D03*
X154633949Y-82550000D03*
X154633949Y-82950000D03*
X154633949Y-83350000D03*
X154633949Y-83750000D03*
X154633949Y-84150000D03*
D27*
X153796449Y-84987500D03*
X153396449Y-84987500D03*
X152996449Y-84987500D03*
X152596449Y-84987500D03*
X152196449Y-84987500D03*
X151796449Y-84987500D03*
X151396449Y-84987500D03*
X150996449Y-84987500D03*
X150596449Y-84987500D03*
X150196449Y-84987500D03*
X149796449Y-84987500D03*
X149396449Y-84987500D03*
X148996449Y-84987500D03*
X148596449Y-84987500D03*
D26*
X147758949Y-84150000D03*
X147758949Y-83750000D03*
X147758949Y-83350000D03*
X147758949Y-82950000D03*
X147758949Y-82550000D03*
X147758949Y-82150000D03*
X147758949Y-81750000D03*
X147758949Y-81350000D03*
X147758949Y-80950000D03*
X147758949Y-80550000D03*
X147758949Y-80150000D03*
X147758949Y-79750000D03*
X147758949Y-79350000D03*
X147758949Y-78950000D03*
D27*
X148596449Y-78112500D03*
X148996449Y-78112500D03*
X149396449Y-78112500D03*
X149796449Y-78112500D03*
X150196449Y-78112500D03*
X150596449Y-78112500D03*
X150996449Y-78112500D03*
X151396449Y-78112500D03*
X151796449Y-78112500D03*
X152196449Y-78112500D03*
X152596449Y-78112500D03*
X152996449Y-78112500D03*
X153396449Y-78112500D03*
X153796449Y-78112500D03*
D28*
X151196449Y-81550000D03*
%TD*%
D29*
%TO.C,C20*%
X146326449Y-77500000D03*
X145366449Y-77500000D03*
%TD*%
D18*
%TO.C,C16*%
X150600000Y-87870000D03*
X150600000Y-88830000D03*
%TD*%
D14*
%TO.C,SW2*%
X142600000Y-108700000D03*
X138600000Y-108700000D03*
D15*
X146500000Y-108200000D03*
X134700000Y-108200000D03*
%TD*%
D11*
%TO.C,R25*%
X136300000Y-119625000D03*
X136300000Y-117975000D03*
%TD*%
D30*
%TO.C,R5*%
X143975000Y-98700000D03*
X145625000Y-98700000D03*
%TD*%
D31*
%TO.C,Q1*%
X135625000Y-98200000D03*
X135625000Y-97400000D03*
D32*
X136775000Y-97800000D03*
%TD*%
D33*
%TO.C,R10*%
X148190000Y-75100000D03*
X149210000Y-75100000D03*
%TD*%
D34*
%TO.C,C2*%
X158850000Y-62325000D03*
X158850000Y-63875000D03*
%TD*%
D19*
%TO.C,C17*%
X157620000Y-83000000D03*
X158580000Y-83000000D03*
%TD*%
D33*
%TO.C,R11*%
X148690000Y-76100000D03*
X149710000Y-76100000D03*
%TD*%
D34*
%TO.C,C27*%
X137900000Y-118025000D03*
X137900000Y-119575000D03*
%TD*%
D19*
%TO.C,C18*%
X156570000Y-77700000D03*
X157530000Y-77700000D03*
%TD*%
D35*
%TO.C,TP2*%
X141750000Y-84350000D03*
%TD*%
%TO.C,TP1*%
X140650000Y-77100000D03*
%TD*%
D11*
%TO.C,R2*%
X141900000Y-69925000D03*
X141900000Y-68275000D03*
%TD*%
D25*
%TO.C,R4*%
X158850000Y-66525000D03*
X158850000Y-68175000D03*
%TD*%
D34*
%TO.C,C25*%
X139075000Y-88025000D03*
X139075000Y-89575000D03*
%TD*%
D25*
%TO.C,R20*%
X163700000Y-117975000D03*
X163700000Y-119625000D03*
%TD*%
D36*
%TO.C,C23*%
X122775000Y-75850000D03*
X124325000Y-75850000D03*
%TD*%
D30*
%TO.C,R6*%
X143975000Y-97100000D03*
X145625000Y-97100000D03*
%TD*%
D11*
%TO.C,R22*%
X161400000Y-98425000D03*
X161400000Y-96775000D03*
%TD*%
D37*
%TO.C,D9*%
X143050000Y-75637500D03*
X143050000Y-74062500D03*
%TD*%
D11*
%TO.C,R42*%
X153200000Y-119625000D03*
X153200000Y-117975000D03*
%TD*%
D16*
%TO.C,R15*%
X146500000Y-86910000D03*
X146500000Y-85890000D03*
%TD*%
D38*
%TO.C,Y1*%
X156196449Y-89400000D03*
X153196449Y-89400000D03*
X153196449Y-87200000D03*
X156196449Y-87200000D03*
%TD*%
D25*
%TO.C,R38*%
X143600000Y-117975000D03*
X143600000Y-119625000D03*
%TD*%
D36*
%TO.C,C24*%
X122775000Y-77450000D03*
X124325000Y-77450000D03*
%TD*%
D39*
%TO.C,J3*%
X128550000Y-76425000D03*
X129550000Y-76425000D03*
X130550000Y-76425000D03*
D40*
X127250000Y-78950000D03*
X131850000Y-78950000D03*
%TD*%
D11*
%TO.C,R3*%
X160450000Y-68175000D03*
X160450000Y-66525000D03*
%TD*%
D41*
%TO.C,IC2*%
X139962500Y-98950000D03*
X139962500Y-98000000D03*
X139962500Y-97050000D03*
X142237500Y-97050000D03*
X142237500Y-98000000D03*
X142237500Y-98950000D03*
%TD*%
D23*
%TO.C,C7*%
X151596449Y-89730000D03*
X151596449Y-88770000D03*
%TD*%
D18*
%TO.C,C10*%
X149600000Y-87870000D03*
X149600000Y-88830000D03*
%TD*%
D42*
%TO.C,J5*%
X163205000Y-71250000D03*
X163205000Y-71750000D03*
X163205000Y-72250000D03*
X163205000Y-72750000D03*
X163205000Y-73250000D03*
X163205000Y-73750000D03*
X163205000Y-74250000D03*
X163205000Y-74750000D03*
X163205000Y-75250000D03*
X163205000Y-75750000D03*
D43*
X165705000Y-70250000D03*
X165705000Y-76750000D03*
%TD*%
D44*
%TO.C,BAT2*%
X170800000Y-132020000D03*
D45*
X170800000Y-118940000D03*
X170800000Y-96460000D03*
D44*
X170800000Y-83380000D03*
%TD*%
D16*
%TO.C,R14*%
X146500000Y-88860000D03*
X146500000Y-87840000D03*
%TD*%
D14*
%TO.C,SW6*%
X155800000Y-92700000D03*
X159800000Y-92700000D03*
D15*
X151900000Y-93200000D03*
X163700000Y-93200000D03*
%TD*%
D13*
%TO.C,D4*%
X134200000Y-89400000D03*
X134200000Y-88000000D03*
%TD*%
D23*
%TO.C,C9*%
X146196449Y-76530000D03*
X146196449Y-75570000D03*
%TD*%
D35*
%TO.C,TP4*%
X141700000Y-79350000D03*
%TD*%
D11*
%TO.C,R26*%
X162100000Y-119625000D03*
X162100000Y-117975000D03*
%TD*%
D36*
%TO.C,C38*%
X162525000Y-78900000D03*
X164075000Y-78900000D03*
%TD*%
D46*
%TO.C,MOD1*%
X137150000Y-65750000D03*
X137150000Y-66850000D03*
X137150000Y-67950000D03*
X137150000Y-69050000D03*
X137150000Y-70150000D03*
X137150000Y-71250000D03*
X137150000Y-72350000D03*
X137150000Y-73450000D03*
X123150000Y-73450000D03*
X123150000Y-72350000D03*
X123150000Y-71250000D03*
X123150000Y-70150000D03*
X123150000Y-69050000D03*
X123150000Y-67950000D03*
X123150000Y-66850000D03*
X123150000Y-65750000D03*
%TD*%
D35*
%TO.C,TP3*%
X142650000Y-81850000D03*
%TD*%
D11*
%TO.C,R41*%
X145200000Y-119625000D03*
X145200000Y-117975000D03*
%TD*%
D19*
%TO.C,C12*%
X152420000Y-74850000D03*
X153380000Y-74850000D03*
%TD*%
D25*
%TO.C,R39*%
X154800000Y-117975000D03*
X154800000Y-119625000D03*
%TD*%
D21*
%TO.C,C26*%
X137900000Y-113375000D03*
X137900000Y-111825000D03*
%TD*%
%TO.C,C1*%
X156900000Y-63475000D03*
X156900000Y-61925000D03*
%TD*%
D13*
%TO.C,D6*%
X163650000Y-68050000D03*
X163650000Y-66650000D03*
%TD*%
D29*
%TO.C,C14*%
X146326449Y-79500000D03*
X145366449Y-79500000D03*
%TD*%
D11*
%TO.C,R23*%
X137475000Y-89625000D03*
X137475000Y-87975000D03*
%TD*%
D47*
%TO.C,D7*%
X145700000Y-100300000D03*
X144300000Y-100300000D03*
%TD*%
D48*
%TO.C,Y2*%
X139800000Y-69750000D03*
X139800000Y-67250000D03*
%TD*%
D21*
%TO.C,C29*%
X160500000Y-113375000D03*
X160500000Y-111825000D03*
%TD*%
D25*
%TO.C,R17*%
X135875000Y-87975000D03*
X135875000Y-89625000D03*
%TD*%
D29*
%TO.C,C13*%
X146326449Y-78500000D03*
X145366449Y-78500000D03*
%TD*%
D49*
%TO.C,IC5*%
X145012500Y-86225000D03*
X145012500Y-87175000D03*
X145012500Y-88125000D03*
X142737500Y-88125000D03*
X142737500Y-86225000D03*
%TD*%
D34*
%TO.C,C4*%
X138200000Y-97225000D03*
X138200000Y-98775000D03*
%TD*%
D35*
%TO.C,TP5*%
X143000000Y-77750000D03*
%TD*%
D50*
%TO.C,SW12*%
X135150000Y-130675000D03*
X139650000Y-130675000D03*
X135150000Y-128525000D03*
X139650000Y-128525000D03*
%TD*%
D34*
%TO.C,C3*%
X162050000Y-66575000D03*
X162050000Y-68125000D03*
%TD*%
%TO.C,C5*%
X144500000Y-101925000D03*
X144500000Y-103475000D03*
%TD*%
D14*
%TO.C,SW4*%
X155800000Y-122700000D03*
X159800000Y-122700000D03*
D15*
X151900000Y-123200000D03*
X163700000Y-123200000D03*
%TD*%
D34*
%TO.C,C28*%
X160500000Y-118025000D03*
X160500000Y-119575000D03*
%TD*%
D25*
%TO.C,R27*%
X162100000Y-111775000D03*
X162100000Y-113425000D03*
%TD*%
D21*
%TO.C,C30*%
X158200000Y-98375000D03*
X158200000Y-96825000D03*
%TD*%
D25*
%TO.C,R28*%
X159800000Y-96775000D03*
X159800000Y-98425000D03*
%TD*%
D51*
%TO.C,J2*%
X145600000Y-68335000D03*
X152800000Y-68335000D03*
D52*
X146450000Y-68895000D03*
X146950000Y-68895000D03*
X147450000Y-68895000D03*
X147950000Y-68895000D03*
X148450000Y-68895000D03*
X148950000Y-68895000D03*
X149450000Y-68895000D03*
X149950000Y-68895000D03*
X150450000Y-68895000D03*
X150950000Y-68895000D03*
X151450000Y-68895000D03*
X151950000Y-68895000D03*
D53*
X152000000Y-67685000D03*
X151600000Y-66985000D03*
X150800000Y-66985000D03*
X150400000Y-67685000D03*
X150000000Y-66985000D03*
X149600000Y-67685000D03*
X148800000Y-67685000D03*
X148400000Y-66985000D03*
X148000000Y-67685000D03*
X147600000Y-66985000D03*
X146800000Y-66985000D03*
X146400000Y-67685000D03*
D54*
X145070000Y-67085000D03*
X144710000Y-62695000D03*
X153690000Y-62695000D03*
X153330000Y-67085000D03*
%TD*%
D29*
%TO.C,C15*%
X145330000Y-82750000D03*
X144370000Y-82750000D03*
%TD*%
D55*
%TO.C,F1*%
X156900000Y-68012500D03*
X156900000Y-65087500D03*
%TD*%
D56*
%TO.C,C39*%
X167175000Y-78900000D03*
X165625000Y-78900000D03*
%TD*%
D11*
%TO.C,R7*%
X159100000Y-79475000D03*
X159100000Y-77825000D03*
%TD*%
D57*
%TO.C,J4*%
X155570000Y-129850000D03*
X153030000Y-129850000D03*
X150490000Y-129850000D03*
X147950000Y-129850000D03*
X145410000Y-129850000D03*
X142870000Y-129850000D03*
%TD*%
D22*
%TO.C,D8*%
X165150000Y-66650000D03*
X165150000Y-68050000D03*
%TD*%
D11*
%TO.C,R18*%
X134700000Y-113425000D03*
X134700000Y-111775000D03*
%TD*%
D34*
%TO.C,C21*%
X139400000Y-64125000D03*
X139400000Y-65675000D03*
%TD*%
D14*
%TO.C,SW3*%
X142600000Y-123700000D03*
X138600000Y-123700000D03*
D15*
X146500000Y-123200000D03*
X134700000Y-123200000D03*
%TD*%
D16*
%TO.C,R13*%
X147540000Y-88850000D03*
X147540000Y-87830000D03*
%TD*%
D58*
%TO.C,D1*%
X147000000Y-73600000D03*
D59*
X147000000Y-71900000D03*
X150000000Y-71900000D03*
X150000000Y-73800000D03*
%TD*%
D44*
%TO.C,BAT1*%
X127600000Y-83380000D03*
D45*
X127600000Y-96460000D03*
X127600000Y-118940000D03*
D44*
X127600000Y-132020000D03*
%TD*%
D60*
%TO.C,IC3*%
X160605000Y-75700000D03*
X159335000Y-75700000D03*
X158065000Y-75700000D03*
X156795000Y-75700000D03*
X156795000Y-70300000D03*
X158065000Y-70300000D03*
X159335000Y-70300000D03*
X160605000Y-70300000D03*
D61*
X158700000Y-73000000D03*
%TD*%
D16*
%TO.C,R12*%
X148580000Y-88850000D03*
X148580000Y-87830000D03*
%TD*%
D34*
%TO.C,C37*%
X151600000Y-118025000D03*
X151600000Y-119575000D03*
%TD*%
D14*
%TO.C,SW1*%
X142600000Y-93700000D03*
X138600000Y-93700000D03*
D15*
X146500000Y-93200000D03*
X134700000Y-93200000D03*
%TD*%
D22*
%TO.C,D2*%
X134200000Y-115000000D03*
X134200000Y-116400000D03*
%TD*%
D50*
%TO.C,SW13*%
X158750000Y-130575000D03*
X163250000Y-130575000D03*
X158750000Y-128425000D03*
X163250000Y-128425000D03*
%TD*%
D25*
%TO.C,R24*%
X136300000Y-111775000D03*
X136300000Y-113425000D03*
%TD*%
M02*
