%TF.GenerationSoftware,KiCad,Pcbnew,8.0.1*%
%TF.CreationDate,2024-04-03T20:32:23+03:00*%
%TF.ProjectId,gkos_pebble,676b6f73-5f70-4656-9262-6c652e6b6963,1*%
%TF.SameCoordinates,Original*%
%TF.FileFunction,Soldermask,Top*%
%TF.FilePolarity,Negative*%
%FSLAX46Y46*%
G04 Gerber Fmt 4.6, Leading zero omitted, Abs format (unit mm)*
G04 Created by KiCad (PCBNEW 8.0.1) date 2024-04-03 20:32:23*
%MOMM*%
%LPD*%
G01*
G04 APERTURE LIST*
G04 Aperture macros list*
%AMRoundRect*
0 Rectangle with rounded corners*
0 $1 Rounding radius*
0 $2 $3 $4 $5 $6 $7 $8 $9 X,Y pos of 4 corners*
0 Add a 4 corners polygon primitive as box body*
4,1,4,$2,$3,$4,$5,$6,$7,$8,$9,$2,$3,0*
0 Add four circle primitives for the rounded corners*
1,1,$1+$1,$2,$3*
1,1,$1+$1,$4,$5*
1,1,$1+$1,$6,$7*
1,1,$1+$1,$8,$9*
0 Add four rect primitives between the rounded corners*
20,1,$1+$1,$2,$3,$4,$5,0*
20,1,$1+$1,$4,$5,$6,$7,0*
20,1,$1+$1,$6,$7,$8,$9,0*
20,1,$1+$1,$8,$9,$2,$3,0*%
G04 Aperture macros list end*
%ADD10C,2.200000*%
%ADD11RoundRect,0.200000X0.275000X-0.200000X0.275000X0.200000X-0.275000X0.200000X-0.275000X-0.200000X0*%
%ADD12R,3.200000X1.200000*%
%ADD13RoundRect,0.200000X-0.275000X0.200000X-0.275000X-0.200000X0.275000X-0.200000X0.275000X0.200000X0*%
%ADD14RoundRect,0.225000X-0.250000X0.225000X-0.250000X-0.225000X0.250000X-0.225000X0.250000X0.225000X0*%
%ADD15R,1.000000X0.700000*%
%ADD16RoundRect,0.225000X0.250000X-0.225000X0.250000X0.225000X-0.250000X0.225000X-0.250000X-0.225000X0*%
%ADD17RoundRect,0.200000X-0.200000X-0.275000X0.200000X-0.275000X0.200000X0.275000X-0.200000X0.275000X0*%
%ADD18RoundRect,0.225000X-0.225000X-0.250000X0.225000X-0.250000X0.225000X0.250000X-0.225000X0.250000X0*%
%ADD19RoundRect,0.200000X0.200000X0.275000X-0.200000X0.275000X-0.200000X-0.275000X0.200000X-0.275000X0*%
%ADD20C,1.100000*%
%ADD21C,0.650000*%
%ADD22C,0.660000*%
%ADD23C,1.815000*%
G04 APERTURE END LIST*
D10*
%TO.C,H2*%
X124200000Y-107700000D03*
%TD*%
%TO.C,H1*%
X174200000Y-107700000D03*
%TD*%
D11*
%TO.C,R40*%
X155400000Y-89825000D03*
X155400000Y-88175000D03*
%TD*%
D12*
%TO.C,SW8*%
X174600000Y-90300000D03*
X167800000Y-90300000D03*
X174600000Y-86300000D03*
X167800000Y-86300000D03*
%TD*%
D11*
%TO.C,R33*%
X130400000Y-83825000D03*
X130400000Y-82175000D03*
%TD*%
D13*
%TO.C,R35*%
X130400000Y-67975000D03*
X130400000Y-69625000D03*
%TD*%
D14*
%TO.C,C32*%
X166400000Y-82225000D03*
X166400000Y-83775000D03*
%TD*%
D15*
%TO.C,SW11*%
X146950000Y-89025000D03*
X151450000Y-89025000D03*
X146950000Y-91175000D03*
X151450000Y-91175000D03*
%TD*%
D12*
%TO.C,SW9*%
X123800000Y-61500000D03*
X130600000Y-61500000D03*
X123800000Y-65500000D03*
X130600000Y-65500000D03*
%TD*%
D13*
%TO.C,R30*%
X169600000Y-82175000D03*
X169600000Y-83825000D03*
%TD*%
D16*
%TO.C,C33*%
X132000000Y-69575000D03*
X132000000Y-68025000D03*
%TD*%
D12*
%TO.C,SW10*%
X167800000Y-61500000D03*
X174600000Y-61500000D03*
X167800000Y-65500000D03*
X174600000Y-65500000D03*
%TD*%
D11*
%TO.C,R31*%
X128800000Y-69625000D03*
X128800000Y-67975000D03*
%TD*%
D14*
%TO.C,C35*%
X157000000Y-88225000D03*
X157000000Y-89775000D03*
%TD*%
D17*
%TO.C,R32*%
X172875000Y-68200000D03*
X174525000Y-68200000D03*
%TD*%
D13*
%TO.C,R29*%
X128800000Y-82175000D03*
X128800000Y-83825000D03*
%TD*%
D12*
%TO.C,SW7*%
X130600000Y-90300000D03*
X123800000Y-90300000D03*
X130600000Y-86300000D03*
X123800000Y-86300000D03*
%TD*%
D18*
%TO.C,C34*%
X172925000Y-71400000D03*
X174475000Y-71400000D03*
%TD*%
D13*
%TO.C,R37*%
X153800000Y-88175000D03*
X153800000Y-89825000D03*
%TD*%
D11*
%TO.C,R34*%
X168000000Y-83825000D03*
X168000000Y-82175000D03*
%TD*%
D14*
%TO.C,C31*%
X132000000Y-82225000D03*
X132000000Y-83775000D03*
%TD*%
D19*
%TO.C,R36*%
X174525000Y-69800000D03*
X172875000Y-69800000D03*
%TD*%
D20*
%TO.C,SW5*%
X155800000Y-107700000D03*
X159800000Y-107700000D03*
%TD*%
%TO.C,SW2*%
X142600000Y-108700000D03*
X138600000Y-108700000D03*
%TD*%
%TO.C,SW6*%
X155800000Y-92700000D03*
X159800000Y-92700000D03*
%TD*%
%TO.C,SW4*%
X155800000Y-122700000D03*
X159800000Y-122700000D03*
%TD*%
D21*
%TO.C,J2*%
X145600000Y-68335000D03*
X152800000Y-68335000D03*
D22*
X152000000Y-67685000D03*
X151600000Y-66985000D03*
X150800000Y-66985000D03*
X150400000Y-67685000D03*
X150000000Y-66985000D03*
X149600000Y-67685000D03*
X148800000Y-67685000D03*
X148400000Y-66985000D03*
X148000000Y-67685000D03*
X147600000Y-66985000D03*
X146800000Y-66985000D03*
X146400000Y-67685000D03*
D23*
X145070000Y-67085000D03*
X144710000Y-62695000D03*
X153690000Y-62695000D03*
X153330000Y-67085000D03*
%TD*%
D20*
%TO.C,SW3*%
X142600000Y-123700000D03*
X138600000Y-123700000D03*
%TD*%
%TO.C,SW1*%
X142600000Y-93700000D03*
X138600000Y-93700000D03*
%TD*%
M02*
