M48
; DRILL file {KiCad 8.0.1} date 2024-04-03T20:32:28+0300
; FORMAT={-:-/ absolute / inch / decimal}
; #@! TF.CreationDate,2024-04-03T20:32:28+03:00
; #@! TF.GenerationSoftware,Kicad,Pcbnew,8.0.1
; #@! TF.FileFunction,MixedPlating,1,4
FMAT,2
INCH
; #@! TA.AperFunction,Plated,PTH,ViaDrill
T1C0.0079
; #@! TA.AperFunction,Plated,PTH,ViaDrill
T2C0.0118
; #@! TA.AperFunction,Plated,PTH,ViaDrill
T3C0.0157
; #@! TA.AperFunction,Plated,PTH,ComponentDrill
T4C0.0157
; #@! TA.AperFunction,Plated,PTH,ComponentDrill
T5C0.0476
; #@! TA.AperFunction,NonPlated,NPTH,ComponentDrill
T6C0.0256
; #@! TA.AperFunction,NonPlated,NPTH,ComponentDrill
T7C0.0433
; #@! TA.AperFunction,NonPlated,NPTH,ComponentDrill
T8C0.0866
%
G90
G05
T1
X4.9252Y-2.6752
X5.3465Y-4.5079
X5.3465Y-4.6024
X5.3494Y-3.4173
X5.4754Y-3.4213
X5.4803Y-2.935
X5.5049Y-3.0679
X5.5236Y-3.5276
X5.5541Y-3.5276
X5.5669Y-3.4567
X5.6201Y-3.3543
X5.6535Y-4.6024
X5.6634Y-3.3484
X5.6929Y-3.3484
X5.7382Y-3.3051
X5.7382Y-3.3484
X5.7402Y-3.9961
X5.7579Y-3.248
X5.7579Y-3.2835
X5.7579Y-3.3268
X5.7953Y-3.0512
X5.8012Y-3.372
X5.8465Y-3.3996
X5.8563Y-3.5259
X5.8612Y-3.1427
X5.8622Y-2.752
X5.878Y-3.2992
X5.8839Y-2.7717
X5.897Y-3.5483
X5.9035Y-3.4252
X5.9094Y-3.1654
X5.9094Y-3.2559
X5.9173Y-3.5708
X5.9291Y-3.5335
X5.938Y-3.4252
X5.9528Y-2.9587
X5.9685Y-3.0226
X5.9961Y-3.1654
X5.9961Y-3.2559
X6.0394Y-3.122
X6.0394Y-3.2992
X6.0945Y-4.6024
X6.1299Y-2.9724
X6.1319Y-3.1004
X6.1516Y-3.124
X6.1713Y-3.1476
X6.1811Y-3.377
X6.1909Y-3.1713
X6.2165Y-3.0984
X6.2165Y-3.1398
X6.2205Y-3.3051
X6.25Y-3.3819
X6.2638Y-3.1752
X6.2835Y-3.315
X6.3543Y-3.9173
X6.3701Y-2.7677
X6.3701Y-2.8051
X6.3701Y-2.8366
X6.3701Y-2.8652
X6.3701Y-2.8939
X6.4016Y-4.5079
X6.4016Y-4.6024
X6.4213Y-3.1535
X6.4252Y-3.0394
T2
X4.8327Y-3.1043
X4.8622Y-3.3307
X4.8622Y-3.6732
X4.8622Y-3.9921
X4.8622Y-4.4882
X4.8622Y-5.2362
X4.9173Y-2.8917
X4.9488Y-2.8071
X4.9606Y-3.0276
X5.1102Y-2.7992
X5.185Y-3.3228
X5.185Y-4.9724
X5.1959Y-3.6732
X5.2008Y-2.9882
X5.252Y-2.6142
X5.252Y-2.9016
X5.3858Y-3.9094
X5.4094Y-5.1417
X5.5118Y-4.5512
X5.5167Y-3.627
X5.5197Y-2.9764
X5.6457Y-2.8189
X5.6575Y-2.5591
X5.6575Y-2.7126
X5.6732Y-3.5669
X5.8031Y-2.4685
X5.8031Y-2.7598
X5.8071Y-4.4606
X5.8248Y-5.0079
X5.9134Y-3.7874
X5.937Y-2.4685
X5.937Y-2.7598
X5.937Y-4.4606
X6.0276Y-4.0433
X6.063Y-2.8425
X6.0709Y-3.5945
X6.0945Y-2.5591
X6.2874Y-3.7047
X6.3386Y-5.1417
X6.3898Y-3.315
X6.4488Y-4.0433
X6.4724Y-3.0394
X6.5866Y-2.7323
X6.5866Y-2.8031
X6.6457Y-2.4921
X6.8031Y-3.1713
X6.8051Y-2.6378
X6.8346Y-2.4921
X6.8701Y-3.0984
X6.8701Y-3.6496
X6.878Y-5.2244
X6.8819Y-3.9685
X6.8819Y-4.6811
X6.9173Y-2.7756
T3
X5.6575Y-3.7441
X6.3583Y-3.7441
X6.375Y-3.1791
X6.375Y-3.2185
T4
X5.7638Y-2.6648
X5.7795Y-2.6372
X5.811Y-2.6372
X5.8268Y-2.6648
X5.8425Y-2.6372
X5.8583Y-2.6648
X5.8898Y-2.6648
X5.9055Y-2.6372
X5.9213Y-2.6648
X5.937Y-2.6372
X5.9685Y-2.6372
X5.9843Y-2.6648
T5
X5.6972Y-2.4683
X5.7114Y-2.6411
X6.0366Y-2.6411
X6.0508Y-2.4683
T6
X5.7323Y-2.6904
X6.0157Y-2.6904
T7
X5.4567Y-3.689
X5.4567Y-4.2795
X5.4567Y-4.8701
X5.6142Y-3.689
X5.6142Y-4.2795
X5.6142Y-4.8701
X6.1339Y-3.6496
X6.1339Y-4.2402
X6.1339Y-4.8307
X6.2913Y-3.6496
X6.2913Y-4.2402
X6.2913Y-4.8307
T8
X4.8898Y-4.2402
X6.8583Y-4.2402
M30
